%FSAX42Y42*%
%MOMM*%
G71*
G01*
G75*
G04 Layer_Color=65535*
%ADD10R,1.30X1.60*%
%ADD11R,1.60X1.30*%
%ADD12R,0.80X0.33*%
%ADD13R,0.33X0.80*%
%ADD14O,0.35X0.80*%
%ADD15O,0.80X0.35*%
%ADD16R,1.30X1.50*%
%ADD17C,0.30*%
%ADD18C,0.24*%
%ADD19C,0.25*%
%ADD20R,1.50X1.50*%
%ADD21C,1.50*%
%ADD22R,1.50X1.50*%
%ADD23C,1.30*%
G04:AMPARAMS|DCode=24|XSize=3mm|YSize=1.5mm|CornerRadius=0mm|HoleSize=0mm|Usage=FLASHONLY|Rotation=0.000|XOffset=0mm|YOffset=0mm|HoleType=Round|Shape=Octagon|*
%AMOCTAGOND24*
4,1,8,1.50,-0.38,1.50,0.38,1.13,0.75,-1.13,0.75,-1.50,0.38,-1.50,-0.38,-1.13,-0.75,1.13,-0.75,1.50,-0.38,0.0*
%
%ADD24OCTAGOND24*%

%ADD25C,1.27*%
%ADD26C,0.80*%
%ADD27R,1.10X0.60*%
%ADD28O,0.48X1.65*%
%ADD29C,0.25*%
%ADD30C,0.20*%
G36*
X005214Y006729D02*
X005219Y006728D01*
X005225Y006727D01*
X005232Y006726D01*
X005239Y006724D01*
X005246Y006721D01*
X005246D01*
X005247Y006720D01*
X005249Y006720D01*
X005253Y006717D01*
X005257Y006715D01*
X005262Y006712D01*
X005268Y006708D01*
X005273Y006704D01*
X005278Y006699D01*
X005279Y006699D01*
X005281Y006697D01*
X005283Y006694D01*
X005286Y006690D01*
X005290Y006685D01*
X005294Y006680D01*
X005297Y006673D01*
X005301Y006667D01*
X005301Y006666D01*
X005302Y006663D01*
X005303Y006660D01*
X005305Y006655D01*
X005306Y006649D01*
X005308Y006642D01*
X005308Y006635D01*
X005309Y006627D01*
Y006626D01*
Y006626D01*
Y006625D01*
Y006623D01*
X005308Y006619D01*
X005308Y006614D01*
X005307Y006607D01*
X005306Y006601D01*
X005303Y006594D01*
X005301Y006587D01*
X005300Y006586D01*
X005299Y006583D01*
X005297Y006580D01*
X005295Y006575D01*
X005292Y006570D01*
X005288Y006565D01*
X005283Y006559D01*
X005278Y006554D01*
X005278Y006553D01*
X005276Y006552D01*
X005273Y006549D01*
X005269Y006546D01*
X005264Y006542D01*
X005259Y006539D01*
X005253Y006535D01*
X005246Y006532D01*
X005245Y006531D01*
X005243Y006530D01*
X005239Y006529D01*
X005234Y006528D01*
X005228Y006526D01*
X005221Y006525D01*
X005214Y006524D01*
X005206Y006524D01*
X005202D01*
X005198Y006524D01*
X005193Y006525D01*
X005187Y006526D01*
X005180Y006527D01*
X005173Y006529D01*
X005166Y006532D01*
X005165Y006532D01*
X005163Y006533D01*
X005159Y006535D01*
X005155Y006537D01*
X005150Y006541D01*
X005144Y006545D01*
X005139Y006549D01*
X005133Y006554D01*
X005133Y006555D01*
X005131Y006556D01*
X005129Y006559D01*
X005126Y006563D01*
X005122Y006568D01*
X005119Y006574D01*
X005115Y006580D01*
X005111Y006587D01*
Y006587D01*
X005111Y006587D01*
X005110Y006590D01*
X005109Y006594D01*
X005108Y006599D01*
X005106Y006605D01*
X005105Y006612D01*
X005104Y006619D01*
X005104Y006627D01*
Y006627D01*
Y006627D01*
Y006629D01*
Y006630D01*
X005104Y006635D01*
X005104Y006640D01*
X005106Y006646D01*
X005107Y006652D01*
X005109Y006660D01*
X005111Y006667D01*
Y006667D01*
X005112Y006667D01*
X005113Y006670D01*
X005115Y006673D01*
X005117Y006678D01*
X005121Y006683D01*
X005124Y006688D01*
X005128Y006694D01*
X005133Y006699D01*
X005134Y006700D01*
X005136Y006701D01*
X005139Y006704D01*
X005143Y006707D01*
X005148Y006710D01*
X005153Y006714D01*
X005159Y006717D01*
X005166Y006721D01*
X005166D01*
X005167Y006721D01*
X005169Y006722D01*
X005173Y006723D01*
X005178Y006725D01*
X005184Y006727D01*
X005191Y006728D01*
X005198Y006729D01*
X005206Y006729D01*
X005210D01*
X005214Y006729D01*
D02*
G37*
G36*
X004357D02*
X004362Y006728D01*
X004369Y006727D01*
X004375Y006726D01*
X004382Y006724D01*
X004390Y006721D01*
X004390D01*
X004390Y006720D01*
X004393Y006720D01*
X004396Y006717D01*
X004401Y006715D01*
X004406Y006712D01*
X004411Y006708D01*
X004417Y006704D01*
X004422Y006699D01*
X004423Y006699D01*
X004425Y006697D01*
X004427Y006694D01*
X004430Y006690D01*
X004434Y006685D01*
X004437Y006680D01*
X004441Y006673D01*
X004444Y006667D01*
X004445Y006666D01*
X004445Y006663D01*
X004447Y006660D01*
X004448Y006655D01*
X004450Y006649D01*
X004451Y006642D01*
X004452Y006635D01*
X004452Y006627D01*
Y006626D01*
Y006626D01*
Y006625D01*
Y006623D01*
X004452Y006619D01*
X004452Y006614D01*
X004450Y006607D01*
X004449Y006601D01*
X004447Y006594D01*
X004444Y006587D01*
X004444Y006586D01*
X004443Y006583D01*
X004441Y006580D01*
X004438Y006575D01*
X004435Y006570D01*
X004432Y006565D01*
X004427Y006559D01*
X004422Y006554D01*
X004422Y006553D01*
X004420Y006552D01*
X004417Y006549D01*
X004413Y006546D01*
X004408Y006542D01*
X004402Y006539D01*
X004396Y006535D01*
X004390Y006532D01*
X004389Y006531D01*
X004386Y006530D01*
X004382Y006529D01*
X004377Y006528D01*
X004372Y006526D01*
X004365Y006525D01*
X004357Y006524D01*
X004350Y006524D01*
X004346D01*
X004342Y006524D01*
X004337Y006525D01*
X004330Y006526D01*
X004324Y006527D01*
X004317Y006529D01*
X004310Y006532D01*
X004309Y006532D01*
X004306Y006533D01*
X004303Y006535D01*
X004298Y006537D01*
X004293Y006541D01*
X004288Y006545D01*
X004282Y006549D01*
X004277Y006554D01*
X004277Y006555D01*
X004275Y006556D01*
X004272Y006559D01*
X004269Y006563D01*
X004266Y006568D01*
X004262Y006574D01*
X004258Y006580D01*
X004255Y006587D01*
Y006587D01*
X004255Y006587D01*
X004254Y006590D01*
X004252Y006594D01*
X004251Y006599D01*
X004250Y006605D01*
X004248Y006612D01*
X004247Y006619D01*
X004247Y006627D01*
Y006627D01*
Y006627D01*
Y006629D01*
Y006630D01*
X004247Y006635D01*
X004248Y006640D01*
X004249Y006646D01*
X004250Y006652D01*
X004252Y006660D01*
X004255Y006667D01*
Y006667D01*
X004255Y006667D01*
X004257Y006670D01*
X004258Y006673D01*
X004261Y006678D01*
X004264Y006683D01*
X004268Y006688D01*
X004272Y006694D01*
X004277Y006699D01*
X004278Y006700D01*
X004280Y006701D01*
X004282Y006704D01*
X004286Y006707D01*
X004291Y006710D01*
X004297Y006714D01*
X004303Y006717D01*
X004310Y006721D01*
X004310D01*
X004310Y006721D01*
X004313Y006722D01*
X004317Y006723D01*
X004322Y006725D01*
X004327Y006727D01*
X004335Y006728D01*
X004342Y006729D01*
X004350Y006729D01*
X004353D01*
X004357Y006729D01*
D02*
G37*
G36*
X005527Y006718D02*
X005413Y006472D01*
X005389Y006483D01*
X005427Y006564D01*
X005355Y006718D01*
X005378Y006729D01*
X005441Y006594D01*
X005503Y006729D01*
X005527Y006718D01*
D02*
G37*
G36*
X004797Y006805D02*
X004802Y006805D01*
X004808Y006804D01*
X004815Y006802D01*
X004822Y006800D01*
X004829Y006797D01*
X004829D01*
X004830Y006797D01*
X004832Y006796D01*
X004836Y006794D01*
X004840Y006792D01*
X004845Y006789D01*
X004851Y006785D01*
X004856Y006781D01*
X004861Y006776D01*
X004862Y006775D01*
X004864Y006773D01*
X004866Y006770D01*
X004869Y006767D01*
X004873Y006762D01*
X004876Y006756D01*
X004880Y006750D01*
X004884Y006743D01*
X004884Y006742D01*
X004885Y006740D01*
X004886Y006736D01*
X004888Y006731D01*
X004889Y006725D01*
X004891Y006719D01*
X004891Y006711D01*
X004892Y006703D01*
Y006703D01*
Y006702D01*
Y006701D01*
Y006700D01*
X004891Y006696D01*
X004891Y006690D01*
X004890Y006684D01*
X004889Y006677D01*
X004886Y006670D01*
X004884Y006663D01*
X004883Y006662D01*
X004882Y006660D01*
X004880Y006657D01*
X004878Y006652D01*
X004874Y006647D01*
X004871Y006642D01*
X004866Y006636D01*
X004861Y006630D01*
X004861Y006630D01*
X004859Y006628D01*
X004856Y006626D01*
X004852Y006622D01*
X004847Y006619D01*
X004842Y006615D01*
X004836Y006612D01*
X004829Y006608D01*
X004828Y006608D01*
X004826Y006607D01*
X004822Y006606D01*
X004817Y006605D01*
X004811Y006603D01*
X004804Y006602D01*
X004797Y006601D01*
X004789Y006600D01*
X004785D01*
X004782Y006601D01*
X004776Y006601D01*
X004770Y006602D01*
X004763Y006604D01*
X004756Y006606D01*
X004749Y006608D01*
X004748Y006609D01*
X004746Y006610D01*
X004742Y006612D01*
X004738Y006614D01*
X004733Y006617D01*
X004727Y006621D01*
X004722Y006625D01*
X004716Y006630D01*
X004716Y006631D01*
X004714Y006633D01*
X004712Y006636D01*
X004708Y006640D01*
X004705Y006645D01*
X004701Y006650D01*
X004697Y006657D01*
X004694Y006663D01*
Y006664D01*
X004694Y006664D01*
X004693Y006667D01*
X004692Y006670D01*
X004690Y006675D01*
X004689Y006681D01*
X004687Y006688D01*
X004687Y006695D01*
X004686Y006703D01*
Y006704D01*
Y006704D01*
Y006705D01*
Y006707D01*
X004687Y006711D01*
X004687Y006716D01*
X004688Y006722D01*
X004689Y006729D01*
X004692Y006736D01*
X004694Y006743D01*
Y006744D01*
X004694Y006744D01*
X004696Y006747D01*
X004697Y006750D01*
X004700Y006755D01*
X004703Y006760D01*
X004707Y006765D01*
X004711Y006770D01*
X004716Y006776D01*
X004717Y006776D01*
X004719Y006778D01*
X004722Y006780D01*
X004726Y006784D01*
X004730Y006787D01*
X004736Y006791D01*
X004742Y006794D01*
X004749Y006797D01*
X004749D01*
X004750Y006798D01*
X004752Y006799D01*
X004756Y006800D01*
X004761Y006802D01*
X004767Y006803D01*
X004774Y006804D01*
X004781Y006805D01*
X004789Y006806D01*
X004793D01*
X004797Y006805D01*
D02*
G37*
G36*
X004489Y006655D02*
Y006655D01*
X004489Y006656D01*
X004490Y006658D01*
X004492Y006662D01*
X004494Y006667D01*
X004497Y006673D01*
X004500Y006680D01*
X004504Y006686D01*
X004509Y006692D01*
X004510Y006693D01*
X004512Y006695D01*
X004514Y006698D01*
X004519Y006702D01*
X004524Y006707D01*
X004530Y006711D01*
X004537Y006715D01*
X004544Y006719D01*
X004544D01*
X004545Y006720D01*
X004547Y006720D01*
X004551Y006722D01*
X004556Y006724D01*
X004562Y006725D01*
X004569Y006727D01*
X004576Y006728D01*
X004584Y006729D01*
X004591D01*
X004596Y006728D01*
X004602Y006727D01*
X004609Y006727D01*
X004615Y006725D01*
X004622Y006722D01*
X004623D01*
X004623Y006722D01*
X004626Y006721D01*
X004629Y006720D01*
X004634Y006717D01*
X004639Y006715D01*
X004644Y006711D01*
X004650Y006707D01*
X004656Y006702D01*
X004657Y006702D01*
X004659Y006700D01*
X004662Y006697D01*
X004665Y006693D01*
X004669Y006688D01*
X004673Y006683D01*
X004677Y006677D01*
X004681Y006670D01*
X004681Y006669D01*
X004682Y006666D01*
X004684Y006662D01*
X004685Y006657D01*
X004687Y006652D01*
X004688Y006645D01*
X004689Y006637D01*
X004690Y006630D01*
Y006630D01*
Y006629D01*
Y006627D01*
Y006622D01*
X004689Y006617D01*
X004689Y006612D01*
X004688Y006605D01*
X004686Y006598D01*
X004684Y006591D01*
X004684Y006590D01*
X004683Y006588D01*
X004681Y006584D01*
X004679Y006580D01*
X004676Y006575D01*
X004673Y006569D01*
X004669Y006563D01*
X004664Y006557D01*
X004663Y006556D01*
X004661Y006555D01*
X004658Y006552D01*
X004654Y006548D01*
X004650Y006545D01*
X004644Y006540D01*
X004638Y006537D01*
X004631Y006533D01*
X004631D01*
X004630Y006532D01*
X004628Y006532D01*
X004624Y006530D01*
X004619Y006528D01*
X004613Y006527D01*
X004606Y006525D01*
X004599Y006524D01*
X004591Y006523D01*
X004588D01*
X004584Y006524D01*
X004579Y006524D01*
X004573Y006525D01*
X004567Y006526D01*
X004559Y006527D01*
X004552Y006530D01*
X004552Y006530D01*
X004549Y006531D01*
X004546Y006532D01*
X004541Y006535D01*
X004536Y006537D01*
X004530Y006541D01*
X004524Y006545D01*
X004519Y006550D01*
X004518Y006550D01*
X004516Y006552D01*
X004513Y006555D01*
X004510Y006559D01*
X004506Y006564D01*
X004502Y006570D01*
X004498Y006576D01*
X004494Y006583D01*
X004408Y006769D01*
X004431Y006780D01*
X004489Y006655D01*
D02*
G37*
G36*
X004264Y006728D02*
X004270Y006727D01*
X004266Y006702D01*
X004266D01*
X004265Y006702D01*
X004264D01*
X004262Y006703D01*
X004257Y006703D01*
X004250D01*
X004247Y006703D01*
X004243Y006702D01*
X004238Y006702D01*
X004233Y006701D01*
X004228Y006699D01*
X004222Y006697D01*
X004222Y006697D01*
X004220Y006696D01*
X004217Y006695D01*
X004214Y006693D01*
X004210Y006690D01*
X004207Y006688D01*
X004202Y006685D01*
X004198Y006681D01*
X004198Y006680D01*
X004197Y006679D01*
X004195Y006677D01*
X004192Y006674D01*
X004190Y006670D01*
X004187Y006666D01*
X004184Y006661D01*
X004182Y006656D01*
X004181Y006655D01*
X004181Y006654D01*
X004180Y006651D01*
X004179Y006647D01*
X004177Y006643D01*
X004177Y006637D01*
X004176Y006632D01*
X004176Y006626D01*
Y006523D01*
X004150D01*
Y006626D01*
Y006652D01*
Y006729D01*
X004176D01*
Y006709D01*
Y006694D01*
X004177Y006695D01*
X004178Y006697D01*
X004181Y006700D01*
X004185Y006703D01*
X004190Y006707D01*
X004196Y006712D01*
X004202Y006716D01*
X004210Y006720D01*
X004210D01*
X004210Y006720D01*
X004212Y006720D01*
X004213Y006721D01*
X004217Y006722D01*
X004222Y006725D01*
X004229Y006726D01*
X004236Y006727D01*
X004244Y006729D01*
X004252Y006729D01*
X004258D01*
X004264Y006728D01*
D02*
G37*
G36*
X005345Y006523D02*
X005319D01*
Y006780D01*
X005345D01*
Y006523D01*
D02*
G37*
G36*
X005001Y006728D02*
X005006Y006727D01*
X005013Y006726D01*
X005019Y006725D01*
X005026Y006722D01*
X005034Y006719D01*
X005034D01*
X005035Y006719D01*
X005037Y006717D01*
X005041Y006715D01*
X005045Y006713D01*
X005050Y006710D01*
X005056Y006705D01*
X005061Y006700D01*
X005066Y006695D01*
X005067Y006694D01*
X005069Y006692D01*
X005071Y006689D01*
X005074Y006685D01*
X005077Y006680D01*
X005081Y006675D01*
X005084Y006668D01*
X005087Y006661D01*
X005087Y006660D01*
X005088Y006658D01*
X005089Y006654D01*
X005090Y006650D01*
X005091Y006644D01*
X005092Y006637D01*
X005093Y006630D01*
Y006622D01*
Y006622D01*
Y006621D01*
Y006619D01*
X005092Y006615D01*
X005091Y006610D01*
X005090Y006603D01*
X005089Y006597D01*
X005086Y006590D01*
X005084Y006582D01*
X005083Y006582D01*
X005082Y006579D01*
X005080Y006576D01*
X005077Y006571D01*
X005074Y006566D01*
X005069Y006560D01*
X005064Y006555D01*
X005059Y006550D01*
X005058Y006549D01*
X005056Y006547D01*
X005053Y006545D01*
X005049Y006542D01*
X005044Y006539D01*
X005039Y006535D01*
X005032Y006532D01*
X005025Y006530D01*
X005024Y006529D01*
X005022Y006529D01*
X005019Y006527D01*
X005014Y006526D01*
X005008Y006525D01*
X005001Y006524D01*
X004994Y006523D01*
X004986D01*
X004983Y006524D01*
X004979Y006524D01*
X004974Y006525D01*
X004968Y006526D01*
X004961Y006528D01*
X004954Y006530D01*
X004947Y006533D01*
X004946D01*
X004946Y006533D01*
X004944Y006535D01*
X004939Y006537D01*
X004935Y006540D01*
X004929Y006544D01*
X004924Y006548D01*
X004917Y006554D01*
X004912Y006560D01*
X004911Y006560D01*
X004910Y006562D01*
X004907Y006566D01*
X004904Y006571D01*
X004901Y006576D01*
X004897Y006582D01*
X004894Y006590D01*
X004892Y006597D01*
X004834Y006472D01*
X004811Y006483D01*
X004897Y006670D01*
Y006670D01*
X004898Y006670D01*
X004899Y006673D01*
X004901Y006676D01*
X004904Y006681D01*
X004907Y006686D01*
X004911Y006691D01*
X004916Y006697D01*
X004921Y006702D01*
X004922Y006702D01*
X004924Y006704D01*
X004927Y006707D01*
X004931Y006710D01*
X004936Y006713D01*
X004942Y006717D01*
X004948Y006720D01*
X004955Y006722D01*
X004955D01*
X004956Y006723D01*
X004958Y006724D01*
X004962Y006725D01*
X004967Y006726D01*
X004973Y006727D01*
X004979Y006728D01*
X004986Y006729D01*
X004997D01*
X005001Y006728D01*
D02*
G37*
%LPC*%
G36*
X004282Y006591D02*
X004282Y006590D01*
X004282Y006590D01*
X004282Y006590D01*
Y006590D01*
X004282Y006590D01*
X004282Y006591D01*
D02*
G37*
G36*
X004350Y006703D02*
X004347D01*
X004344Y006703D01*
X004340Y006702D01*
X004335Y006702D01*
X004330Y006701D01*
X004325Y006699D01*
X004320Y006697D01*
X004319Y006697D01*
X004317Y006696D01*
X004315Y006695D01*
X004311Y006693D01*
X004307Y006690D01*
X004304Y006688D01*
X004300Y006685D01*
X004295Y006681D01*
X004295Y006680D01*
X004294Y006679D01*
X004292Y006677D01*
X004290Y006674D01*
X004287Y006670D01*
X004284Y006666D01*
X004281Y006661D01*
X004279Y006656D01*
X004278Y006655D01*
X004278Y006654D01*
X004277Y006651D01*
X004276Y006647D01*
X004275Y006643D01*
X004274Y006637D01*
X004273Y006632D01*
X004273Y006626D01*
Y006626D01*
Y006625D01*
Y006623D01*
X004273Y006619D01*
X004274Y006614D01*
X004275Y006609D01*
X004277Y006602D01*
X004279Y006596D01*
X004282Y006591D01*
X004281Y006593D01*
X004280Y006596D01*
X004280Y006600D01*
Y006601D01*
Y006602D01*
X004280Y006605D01*
X004281Y006608D01*
X004282Y006611D01*
X004284Y006615D01*
X004286Y006619D01*
X004289Y006622D01*
X004289Y006622D01*
X004290Y006623D01*
X004292Y006625D01*
X004295Y006627D01*
X004298Y006628D01*
X004302Y006630D01*
X004306Y006631D01*
X004311Y006631D01*
X004313D01*
X004315Y006631D01*
X004318Y006630D01*
X004322Y006629D01*
X004325Y006627D01*
X004329Y006625D01*
X004332Y006622D01*
X004333Y006622D01*
X004334Y006620D01*
X004335Y006619D01*
X004337Y006616D01*
X004339Y006613D01*
X004340Y006609D01*
X004341Y006605D01*
X004342Y006600D01*
Y006600D01*
Y006598D01*
X004341Y006596D01*
X004340Y006593D01*
X004340Y006589D01*
X004338Y006586D01*
X004335Y006582D01*
X004332Y006578D01*
X004332Y006578D01*
X004331Y006577D01*
X004329Y006575D01*
X004327Y006574D01*
X004323Y006572D01*
X004320Y006571D01*
X004315Y006570D01*
X004311Y006570D01*
X004309D01*
X004306Y006570D01*
X004303Y006571D01*
X004300Y006572D01*
X004297Y006573D01*
X004293Y006575D01*
X004290Y006578D01*
X004290Y006578D01*
X004292Y006576D01*
X004294Y006574D01*
X004297Y006571D01*
X004301Y006567D01*
X004305Y006564D01*
X004310Y006560D01*
X004316Y006557D01*
X004317Y006557D01*
X004319Y006556D01*
X004322Y006555D01*
X004326Y006553D01*
X004331Y006552D01*
X004337Y006550D01*
X004343Y006550D01*
X004350Y006549D01*
X004352D01*
X004355Y006550D01*
X004359Y006550D01*
X004364Y006550D01*
X004369Y006552D01*
X004374Y006553D01*
X004380Y006555D01*
X004380Y006555D01*
X004382Y006556D01*
X004385Y006557D01*
X004388Y006560D01*
X004392Y006562D01*
X004396Y006565D01*
X004400Y006568D01*
X004404Y006572D01*
X004405Y006572D01*
X004406Y006573D01*
X004408Y006576D01*
X004410Y006579D01*
X004413Y006582D01*
X004415Y006586D01*
X004418Y006591D01*
X004420Y006596D01*
X004421Y006597D01*
X004421Y006599D01*
X004422Y006602D01*
X004424Y006605D01*
X004425Y006610D01*
X004426Y006615D01*
X004426Y006620D01*
X004427Y006626D01*
Y006627D01*
Y006629D01*
X004426Y006632D01*
X004426Y006636D01*
X004425Y006640D01*
X004424Y006645D01*
X004422Y006651D01*
X004420Y006656D01*
X004420Y006657D01*
X004419Y006659D01*
X004418Y006661D01*
X004416Y006665D01*
X004414Y006668D01*
X004411Y006672D01*
X004408Y006677D01*
X004404Y006681D01*
X004404Y006681D01*
X004402Y006682D01*
X004400Y006685D01*
X004397Y006687D01*
X004394Y006690D01*
X004390Y006692D01*
X004385Y006695D01*
X004380Y006697D01*
X004379Y006697D01*
X004377Y006698D01*
X004374Y006699D01*
X004370Y006700D01*
X004366Y006701D01*
X004361Y006702D01*
X004355Y006703D01*
X004350Y006703D01*
D02*
G37*
G36*
X004590Y006703D02*
X004582D01*
X004579Y006702D01*
X004575Y006702D01*
X004571Y006701D01*
X004566Y006700D01*
X004560Y006698D01*
X004555Y006696D01*
X004554Y006695D01*
X004552Y006695D01*
X004550Y006693D01*
X004547Y006691D01*
X004542Y006688D01*
X004538Y006685D01*
X004534Y006682D01*
X004530Y006677D01*
X004530Y006677D01*
X004529Y006675D01*
X004527Y006673D01*
X004525Y006670D01*
X004522Y006667D01*
X004520Y006662D01*
X004517Y006657D01*
X004515Y006652D01*
Y006652D01*
X004514Y006650D01*
X004514Y006647D01*
X004513Y006644D01*
X004512Y006639D01*
X004511Y006635D01*
X004511Y006629D01*
Y006623D01*
Y006622D01*
Y006621D01*
X004511Y006618D01*
X004512Y006614D01*
X004513Y006609D01*
X004514Y006604D01*
X004516Y006599D01*
X004518Y006594D01*
X004518Y006593D01*
X004519Y006591D01*
X004521Y006589D01*
X004522Y006585D01*
X004525Y006581D01*
X004528Y006577D01*
X004532Y006573D01*
X004536Y006569D01*
X004536Y006568D01*
X004538Y006567D01*
X004540Y006565D01*
X004543Y006563D01*
X004547Y006561D01*
X004552Y006558D01*
X004556Y006556D01*
X004561Y006554D01*
X004562D01*
X004564Y006553D01*
X004567Y006552D01*
X004570Y006551D01*
X004574Y006550D01*
X004579Y006550D01*
X004585Y006549D01*
X004593D01*
X004596Y006550D01*
X004600Y006550D01*
X004604Y006551D01*
X004609Y006552D01*
X004615Y006554D01*
X004620Y006556D01*
X004621Y006557D01*
X004623Y006557D01*
X004625Y006559D01*
X004629Y006561D01*
X004632Y006564D01*
X004637Y006567D01*
X004641Y006570D01*
X004644Y006574D01*
X004645Y006575D01*
X004646Y006576D01*
X004648Y006579D01*
X004650Y006582D01*
X004653Y006585D01*
X004655Y006590D01*
X004658Y006595D01*
X004660Y006600D01*
X004660Y006600D01*
X004661Y006602D01*
X004662Y006605D01*
X004662Y006609D01*
X004663Y006613D01*
X004664Y006618D01*
X004664Y006623D01*
Y006629D01*
Y006630D01*
Y006631D01*
X004664Y006635D01*
X004664Y006638D01*
X004662Y006643D01*
X004661Y006648D01*
X004659Y006653D01*
X004657Y006659D01*
X004657Y006660D01*
X004656Y006661D01*
X004654Y006664D01*
X004653Y006667D01*
X004650Y006671D01*
X004647Y006675D01*
X004643Y006679D01*
X004639Y006683D01*
X004639Y006683D01*
X004637Y006685D01*
X004635Y006687D01*
X004632Y006689D01*
X004628Y006691D01*
X004624Y006694D01*
X004619Y006696D01*
X004614Y006698D01*
X004613Y006699D01*
X004611Y006699D01*
X004609Y006700D01*
X004605Y006701D01*
X004600Y006702D01*
X004596Y006702D01*
X004590Y006703D01*
D02*
G37*
G36*
X004993D02*
X004988D01*
X004984Y006702D01*
X004979Y006702D01*
X004974Y006701D01*
X004969Y006700D01*
X004964Y006698D01*
X004964Y006698D01*
X004961Y006697D01*
X004959Y006696D01*
X004956Y006695D01*
X004952Y006692D01*
X004947Y006690D01*
X004943Y006687D01*
X004939Y006683D01*
X004938Y006682D01*
X004937Y006681D01*
X004935Y006679D01*
X004932Y006676D01*
X004929Y006672D01*
X004926Y006668D01*
X004923Y006664D01*
X004921Y006659D01*
X004920Y006658D01*
X004920Y006656D01*
X004919Y006653D01*
X004917Y006650D01*
X004916Y006645D01*
X004915Y006640D01*
X004914Y006635D01*
X004914Y006629D01*
Y006628D01*
Y006626D01*
Y006623D01*
X004914Y006620D01*
X004914Y006615D01*
X004915Y006610D01*
X004916Y006605D01*
X004918Y006600D01*
X004919Y006599D01*
X004919Y006597D01*
X004920Y006595D01*
X004922Y006591D01*
X004924Y006587D01*
X004926Y006583D01*
X004930Y006579D01*
X004933Y006574D01*
X004934Y006574D01*
X004935Y006572D01*
X004937Y006570D01*
X004940Y006568D01*
X004944Y006565D01*
X004948Y006562D01*
X004952Y006559D01*
X004958Y006556D01*
X004959Y006556D01*
X004960Y006555D01*
X004963Y006554D01*
X004967Y006553D01*
X004971Y006552D01*
X004976Y006550D01*
X004982Y006550D01*
X004987Y006549D01*
X004993D01*
X004997Y006550D01*
X005001Y006550D01*
X005006Y006551D01*
X005011Y006552D01*
X005016Y006554D01*
X005017Y006554D01*
X005019Y006555D01*
X005021Y006556D01*
X005025Y006557D01*
X005029Y006560D01*
X005033Y006562D01*
X005038Y006565D01*
X005042Y006569D01*
X005042Y006569D01*
X005044Y006570D01*
X005046Y006573D01*
X005049Y006576D01*
X005051Y006580D01*
X005054Y006584D01*
X005058Y006588D01*
X005060Y006594D01*
X005061Y006595D01*
X005061Y006596D01*
X005062Y006599D01*
X005064Y006603D01*
X005065Y006607D01*
X005066Y006612D01*
X005067Y006617D01*
X005067Y006623D01*
Y006624D01*
Y006626D01*
Y006629D01*
X005067Y006633D01*
X005066Y006637D01*
X005066Y006642D01*
X005064Y006647D01*
X005063Y006652D01*
X005062Y006653D01*
X005062Y006655D01*
X005061Y006657D01*
X005059Y006661D01*
X005057Y006665D01*
X005054Y006669D01*
X005051Y006673D01*
X005047Y006677D01*
X005047Y006678D01*
X005046Y006680D01*
X005044Y006682D01*
X005041Y006684D01*
X005037Y006687D01*
X005033Y006690D01*
X005028Y006693D01*
X005023Y006696D01*
X005022Y006696D01*
X005021Y006697D01*
X005018Y006698D01*
X005014Y006699D01*
X005009Y006700D01*
X005004Y006702D01*
X004999Y006702D01*
X004993Y006703D01*
D02*
G37*
G36*
X004789Y006780D02*
X004787D01*
X004783Y006780D01*
X004779Y006779D01*
X004775Y006778D01*
X004770Y006777D01*
X004764Y006776D01*
X004759Y006774D01*
X004759Y006773D01*
X004757Y006772D01*
X004754Y006771D01*
X004751Y006770D01*
X004747Y006767D01*
X004743Y006765D01*
X004739Y006761D01*
X004734Y006757D01*
X004734Y006757D01*
X004733Y006756D01*
X004731Y006753D01*
X004729Y006750D01*
X004726Y006747D01*
X004723Y006743D01*
X004720Y006738D01*
X004718Y006733D01*
X004717Y006732D01*
X004717Y006730D01*
X004716Y006728D01*
X004715Y006724D01*
X004714Y006720D01*
X004713Y006715D01*
X004712Y006709D01*
X004712Y006703D01*
Y006702D01*
Y006701D01*
X004712Y006697D01*
X004713Y006694D01*
X004713Y006689D01*
X004714Y006684D01*
X004716Y006679D01*
X004718Y006673D01*
X004718Y006673D01*
X004719Y006671D01*
X004720Y006668D01*
X004722Y006665D01*
X004724Y006661D01*
X004727Y006657D01*
X004731Y006653D01*
X004734Y006649D01*
X004735Y006648D01*
X004736Y006647D01*
X004739Y006645D01*
X004742Y006643D01*
X004745Y006640D01*
X004749Y006637D01*
X004754Y006635D01*
X004759Y006632D01*
X004760Y006632D01*
X004762Y006631D01*
X004764Y006630D01*
X004768Y006629D01*
X004773Y006628D01*
X004778Y006627D01*
X004783Y006627D01*
X004789Y006626D01*
X004792D01*
X004795Y006627D01*
X004799Y006627D01*
X004803Y006627D01*
X004808Y006629D01*
X004814Y006630D01*
X004819Y006632D01*
X004820Y006632D01*
X004821Y006633D01*
X004824Y006635D01*
X004827Y006637D01*
X004831Y006639D01*
X004835Y006642D01*
X004839Y006645D01*
X004844Y006649D01*
X004844Y006649D01*
X004845Y006650D01*
X004847Y006653D01*
X004849Y006656D01*
X004852Y006659D01*
X004855Y006663D01*
X004857Y006668D01*
X004860Y006673D01*
X004860Y006674D01*
X004861Y006676D01*
X004862Y006679D01*
X004863Y006682D01*
X004864Y006687D01*
X004865Y006692D01*
X004866Y006697D01*
X004866Y006703D01*
Y006704D01*
Y006706D01*
X004866Y006709D01*
X004865Y006713D01*
X004864Y006717D01*
X004864Y006722D01*
X004862Y006728D01*
X004860Y006733D01*
X004859Y006734D01*
X004859Y006735D01*
X004857Y006738D01*
X004856Y006741D01*
X004853Y006745D01*
X004851Y006749D01*
X004847Y006753D01*
X004844Y006757D01*
X004843Y006758D01*
X004842Y006759D01*
X004839Y006761D01*
X004836Y006763D01*
X004833Y006766D01*
X004829Y006769D01*
X004824Y006771D01*
X004819Y006774D01*
X004818Y006774D01*
X004816Y006775D01*
X004814Y006776D01*
X004810Y006777D01*
X004806Y006778D01*
X004800Y006779D01*
X004795Y006780D01*
X004789Y006780D01*
D02*
G37*
G36*
X005232Y006667D02*
X005232D01*
X005230Y006667D01*
X005228Y006666D01*
X005227Y006665D01*
X005226Y006665D01*
X005226Y006664D01*
X005225Y006662D01*
X005225Y006660D01*
Y006659D01*
X005225Y006657D01*
X005226Y006656D01*
X005227Y006654D01*
X005227Y006653D01*
X005228Y006653D01*
X005230Y006652D01*
X005232Y006652D01*
X005233D01*
X005234Y006652D01*
X005236Y006652D01*
X005238Y006654D01*
X005238Y006654D01*
X005239Y006655D01*
X005240Y006657D01*
X005240Y006660D01*
Y006660D01*
X005240Y006662D01*
X005239Y006663D01*
X005238Y006665D01*
X005237Y006665D01*
X005236Y006666D01*
X005234Y006667D01*
X005232Y006667D01*
D02*
G37*
G36*
X005206Y006703D02*
X005203D01*
X005200Y006703D01*
X005196Y006702D01*
X005192Y006702D01*
X005187Y006701D01*
X005181Y006699D01*
X005176Y006697D01*
X005176Y006697D01*
X005173Y006696D01*
X005171Y006695D01*
X005168Y006693D01*
X005164Y006690D01*
X005160Y006688D01*
X005156Y006685D01*
X005152Y006681D01*
X005151Y006680D01*
X005150Y006679D01*
X005148Y006677D01*
X005146Y006674D01*
X005143Y006670D01*
X005141Y006666D01*
X005138Y006661D01*
X005135Y006656D01*
X005135Y006655D01*
X005134Y006654D01*
X005133Y006651D01*
X005132Y006647D01*
X005131Y006643D01*
X005130Y006637D01*
X005130Y006632D01*
X005129Y006626D01*
Y006625D01*
Y006624D01*
X005130Y006620D01*
X005130Y006617D01*
X005131Y006612D01*
X005132Y006607D01*
X005133Y006602D01*
X005135Y006596D01*
X005136Y006596D01*
X005136Y006594D01*
X005138Y006591D01*
X005140Y006588D01*
X005142Y006584D01*
X005145Y006580D01*
X005148Y006576D01*
X005152Y006572D01*
X005152Y006571D01*
X005153Y006570D01*
X005156Y006568D01*
X005159Y006566D01*
X005162Y006563D01*
X005166Y006560D01*
X005171Y006557D01*
X005176Y006555D01*
X005177Y006555D01*
X005178Y006554D01*
X005181Y006553D01*
X005185Y006552D01*
X005190Y006551D01*
X005195Y006550D01*
X005200Y006550D01*
X005206Y006549D01*
X005209D01*
X005212Y006550D01*
X005216Y006550D01*
X005221Y006550D01*
X005226Y006552D01*
X005231Y006553D01*
X005236Y006555D01*
X005237Y006555D01*
X005238Y006556D01*
X005241Y006557D01*
X005244Y006560D01*
X005248Y006562D01*
X005252Y006565D01*
X005256Y006568D01*
X005261Y006572D01*
X005261Y006572D01*
X005262Y006573D01*
X005264Y006576D01*
X005266Y006579D01*
X005269Y006582D01*
X005272Y006586D01*
X005274Y006591D01*
X005277Y006596D01*
X005277Y006597D01*
X005278Y006599D01*
X005279Y006602D01*
X005280Y006605D01*
X005281Y006610D01*
X005282Y006615D01*
X005283Y006620D01*
X005283Y006626D01*
Y006627D01*
Y006627D01*
Y006630D01*
X005283Y006633D01*
X005282Y006638D01*
X005281Y006644D01*
X005279Y006650D01*
X005277Y006657D01*
X005273Y006663D01*
Y006663D01*
X005274Y006662D01*
X005275Y006660D01*
X005276Y006656D01*
X005276Y006652D01*
Y006651D01*
Y006650D01*
X005276Y006647D01*
X005275Y006644D01*
X005274Y006640D01*
X005272Y006637D01*
X005270Y006633D01*
X005267Y006630D01*
X005266Y006629D01*
X005265Y006628D01*
X005263Y006627D01*
X005261Y006625D01*
X005258Y006624D01*
X005254Y006622D01*
X005250Y006621D01*
X005245Y006621D01*
X005243D01*
X005241Y006621D01*
X005238Y006622D01*
X005234Y006623D01*
X005231Y006625D01*
X005227Y006627D01*
X005223Y006630D01*
X005223Y006630D01*
X005222Y006631D01*
X005220Y006633D01*
X005219Y006636D01*
X005217Y006639D01*
X005216Y006643D01*
X005215Y006647D01*
X005214Y006652D01*
Y006652D01*
Y006654D01*
X005215Y006656D01*
X005216Y006659D01*
X005216Y006662D01*
X005218Y006666D01*
X005220Y006670D01*
X005223Y006673D01*
X005223Y006674D01*
X005225Y006675D01*
X005227Y006676D01*
X005229Y006678D01*
X005233Y006680D01*
X005236Y006681D01*
X005241Y006682D01*
X005245Y006682D01*
X005247D01*
X005250Y006682D01*
X005253Y006681D01*
X005256Y006680D01*
X005259Y006679D01*
X005263Y006677D01*
X005266Y006674D01*
X005266Y006674D01*
X005264Y006676D01*
X005262Y006678D01*
X005259Y006681D01*
X005255Y006685D01*
X005251Y006688D01*
X005246Y006692D01*
X005240Y006695D01*
X005239Y006695D01*
X005238Y006696D01*
X005234Y006697D01*
X005230Y006699D01*
X005225Y006701D01*
X005219Y006702D01*
X005213Y006703D01*
X005206Y006703D01*
D02*
G37*
G36*
X004298Y006616D02*
X004297D01*
X004296Y006615D01*
X004294Y006615D01*
X004292Y006614D01*
X004292Y006613D01*
X004291Y006612D01*
X004290Y006610D01*
X004290Y006608D01*
Y006608D01*
X004290Y006606D01*
X004291Y006605D01*
X004292Y006602D01*
X004292Y006602D01*
X004294Y006602D01*
X004295Y006601D01*
X004298Y006600D01*
X004298D01*
X004300Y006601D01*
X004302Y006601D01*
X004303Y006602D01*
X004304Y006603D01*
X004305Y006604D01*
X004305Y006606D01*
X004305Y006608D01*
Y006609D01*
X004305Y006610D01*
X004305Y006612D01*
X004303Y006614D01*
X004303Y006614D01*
X004302Y006615D01*
X004300Y006615D01*
X004298Y006616D01*
D02*
G37*
%LPD*%
G36*
X004568Y006631D02*
X004571Y006630D01*
X004574Y006629D01*
X004578Y006627D01*
X004582Y006625D01*
X004585Y006622D01*
X004586Y006622D01*
X004587Y006620D01*
X004588Y006619D01*
X004590Y006616D01*
X004592Y006613D01*
X004593Y006609D01*
X004594Y006605D01*
X004594Y006600D01*
Y006600D01*
Y006598D01*
X004594Y006596D01*
X004593Y006593D01*
X004592Y006589D01*
X004591Y006586D01*
X004588Y006582D01*
X004585Y006578D01*
X004585Y006578D01*
X004584Y006577D01*
X004582Y006575D01*
X004579Y006574D01*
X004576Y006572D01*
X004572Y006571D01*
X004568Y006570D01*
X004564Y006570D01*
X004562D01*
X004559Y006570D01*
X004556Y006571D01*
X004552Y006572D01*
X004549Y006573D01*
X004545Y006575D01*
X004542Y006578D01*
X004541Y006579D01*
X004540Y006580D01*
X004539Y006582D01*
X004537Y006585D01*
X004536Y006588D01*
X004534Y006592D01*
X004533Y006596D01*
X004533Y006600D01*
Y006601D01*
Y006602D01*
X004533Y006605D01*
X004534Y006608D01*
X004535Y006611D01*
X004537Y006615D01*
X004539Y006619D01*
X004542Y006622D01*
X004542Y006622D01*
X004543Y006623D01*
X004545Y006625D01*
X004548Y006627D01*
X004551Y006628D01*
X004555Y006630D01*
X004559Y006631D01*
X004564Y006631D01*
X004566D01*
X004568Y006631D01*
D02*
G37*
G36*
X004794Y006733D02*
X004797Y006732D01*
X004800Y006732D01*
X004804Y006730D01*
X004807Y006727D01*
X004811Y006725D01*
X004811Y006724D01*
X004812Y006723D01*
X004814Y006721D01*
X004815Y006719D01*
X004817Y006715D01*
X004819Y006712D01*
X004819Y006708D01*
X004820Y006703D01*
Y006703D01*
Y006701D01*
X004819Y006699D01*
X004819Y006696D01*
X004818Y006692D01*
X004816Y006689D01*
X004814Y006685D01*
X004811Y006681D01*
X004810Y006681D01*
X004809Y006680D01*
X004807Y006678D01*
X004805Y006677D01*
X004801Y006675D01*
X004798Y006674D01*
X004794Y006673D01*
X004789Y006672D01*
X004787D01*
X004784Y006673D01*
X004782Y006674D01*
X004778Y006675D01*
X004774Y006676D01*
X004771Y006678D01*
X004767Y006681D01*
X004767Y006682D01*
X004766Y006683D01*
X004764Y006685D01*
X004763Y006687D01*
X004761Y006691D01*
X004759Y006695D01*
X004759Y006699D01*
X004758Y006703D01*
Y006704D01*
Y006705D01*
X004759Y006708D01*
X004759Y006711D01*
X004760Y006714D01*
X004762Y006717D01*
X004764Y006721D01*
X004767Y006725D01*
X004767Y006725D01*
X004769Y006726D01*
X004771Y006727D01*
X004773Y006729D01*
X004777Y006731D01*
X004780Y006732D01*
X004784Y006733D01*
X004789Y006734D01*
X004791D01*
X004794Y006733D01*
D02*
G37*
G36*
X005019Y006682D02*
X005022Y006681D01*
X005025Y006680D01*
X005029Y006679D01*
X005033Y006676D01*
X005036Y006673D01*
X005036Y006673D01*
X005037Y006672D01*
X005039Y006670D01*
X005041Y006667D01*
X005042Y006664D01*
X005044Y006660D01*
X005045Y006656D01*
X005045Y006652D01*
Y006651D01*
Y006650D01*
X005045Y006647D01*
X005044Y006644D01*
X005043Y006640D01*
X005041Y006637D01*
X005039Y006633D01*
X005036Y006630D01*
X005036Y006629D01*
X005034Y006628D01*
X005033Y006627D01*
X005030Y006625D01*
X005027Y006624D01*
X005023Y006622D01*
X005019Y006621D01*
X005014Y006621D01*
X005012D01*
X005010Y006621D01*
X005007Y006622D01*
X005003Y006623D01*
X005000Y006625D01*
X004996Y006627D01*
X004992Y006630D01*
X004992Y006630D01*
X004991Y006631D01*
X004989Y006633D01*
X004988Y006636D01*
X004986Y006639D01*
X004985Y006643D01*
X004984Y006647D01*
X004984Y006652D01*
Y006652D01*
Y006654D01*
X004984Y006656D01*
X004985Y006659D01*
X004986Y006662D01*
X004987Y006666D01*
X004989Y006670D01*
X004992Y006673D01*
X004993Y006674D01*
X004994Y006675D01*
X004996Y006676D01*
X004999Y006678D01*
X005002Y006680D01*
X005006Y006681D01*
X005010Y006682D01*
X005014Y006682D01*
X005016D01*
X005019Y006682D01*
D02*
G37*
%LPC*%
G36*
X004776Y006718D02*
X004776D01*
X004774Y006718D01*
X004772Y006717D01*
X004771Y006716D01*
X004770Y006716D01*
X004770Y006715D01*
X004769Y006713D01*
X004769Y006711D01*
Y006710D01*
X004769Y006709D01*
X004769Y006707D01*
X004771Y006705D01*
X004771Y006705D01*
X004772Y006705D01*
X004774Y006704D01*
X004776Y006703D01*
X004777D01*
X004778Y006704D01*
X004780Y006704D01*
X004782Y006705D01*
X004782Y006706D01*
X004783Y006707D01*
X004783Y006709D01*
X004784Y006711D01*
Y006711D01*
X004783Y006713D01*
X004783Y006715D01*
X004782Y006716D01*
X004781Y006717D01*
X004780Y006717D01*
X004778Y006718D01*
X004776Y006718D01*
D02*
G37*
G36*
X005002Y006667D02*
X005001D01*
X005000Y006667D01*
X004998Y006666D01*
X004996Y006665D01*
X004996Y006665D01*
X004995Y006664D01*
X004994Y006662D01*
X004994Y006660D01*
Y006659D01*
X004994Y006657D01*
X004995Y006656D01*
X004996Y006654D01*
X004996Y006653D01*
X004998Y006653D01*
X004999Y006652D01*
X005002Y006652D01*
X005002D01*
X005004Y006652D01*
X005006Y006652D01*
X005007Y006654D01*
X005008Y006654D01*
X005009Y006655D01*
X005009Y006657D01*
X005009Y006660D01*
Y006660D01*
X005009Y006662D01*
X005009Y006663D01*
X005007Y006665D01*
X005007Y006665D01*
X005006Y006666D01*
X005004Y006667D01*
X005002Y006667D01*
D02*
G37*
G36*
X004551Y006616D02*
X004550D01*
X004549Y006615D01*
X004547Y006615D01*
X004545Y006614D01*
X004545Y006613D01*
X004544Y006612D01*
X004544Y006610D01*
X004543Y006608D01*
Y006608D01*
X004544Y006606D01*
X004544Y006605D01*
X004545Y006602D01*
X004546Y006602D01*
X004547Y006602D01*
X004549Y006601D01*
X004551Y006600D01*
X004552D01*
X004555Y006601D01*
X004556Y006602D01*
X004557Y006604D01*
X004558Y006606D01*
X004559Y006608D01*
Y006609D01*
X004558Y006610D01*
X004558Y006612D01*
X004556Y006614D01*
X004556Y006614D01*
X004555Y006615D01*
X004553Y006615D01*
X004551Y006616D01*
D02*
G37*
%LPD*%
D17*
X004700Y002635D02*
Y003397D01*
X004446D02*
X004700D01*
X004446Y002635D02*
Y003397D01*
Y002635D02*
X004700D01*
X006265Y006477D02*
X007027D01*
X006265Y006223D02*
Y006477D01*
Y006223D02*
X007027D01*
Y006477D01*
X003800Y002643D02*
Y003405D01*
X003546D02*
X003800D01*
X003546Y002643D02*
Y003405D01*
Y002643D02*
X003800D01*
X004400Y002638D02*
Y003400D01*
X004146D02*
X004400D01*
X004146Y002638D02*
Y003400D01*
Y002638D02*
X004400D01*
X006265Y006177D02*
X007027D01*
X006265Y005923D02*
Y006177D01*
Y005923D02*
X007027D01*
Y006177D01*
X004100Y002638D02*
Y003400D01*
X003846D02*
X004100D01*
X003846Y002638D02*
Y003400D01*
Y002638D02*
X004100D01*
X006265Y005877D02*
X007027D01*
X006265Y005623D02*
Y005877D01*
Y005623D02*
X007027D01*
Y005877D01*
X006265Y005577D02*
X007027D01*
X006265Y005323D02*
Y005577D01*
Y005323D02*
X007027D01*
Y005577D01*
X003246Y002643D02*
X003500D01*
X003246D02*
Y003405D01*
X003500D01*
Y002643D02*
Y003405D01*
X004746Y002638D02*
Y003146D01*
Y002638D02*
X005508D01*
X004746Y003146D02*
X005508D01*
X005021Y002638D02*
X005508D01*
Y003146D01*
X004650Y005100D02*
X004688Y005138D01*
X004688D01*
X004725Y005100D01*
X004725D01*
X004688Y005138D02*
Y005138D01*
Y004925D02*
Y005138D01*
X005050Y004650D02*
X005088Y004688D01*
X005050Y004725D02*
X005088Y004688D01*
X004900D02*
X005088D01*
X005160Y004800D02*
X005200D01*
Y004840D01*
Y005160D02*
Y005200D01*
X005160D02*
X005200D01*
X004800D02*
X004840D01*
X004800Y005160D02*
Y005200D01*
Y004800D02*
Y004840D01*
Y004800D02*
X004840D01*
X004853Y005803D02*
Y005805D01*
Y005803D02*
X004905D01*
X005120D02*
X005172D01*
Y005805D01*
Y006120D02*
Y006122D01*
X005120D02*
X005172D01*
X004853D02*
X004905D01*
X004853Y006120D02*
Y006122D01*
X004016Y006394D02*
X003992Y006417D01*
X003946D01*
X003922Y006394D01*
Y006301D01*
X003946Y006278D01*
X003992D01*
X004016Y006301D01*
X004086Y006278D02*
X004132D01*
X004156Y006301D01*
Y006347D01*
X004132Y006371D01*
X004086D01*
X004062Y006347D01*
Y006301D01*
X004086Y006278D01*
X004202Y006231D02*
Y006371D01*
X004272D01*
X004296Y006347D01*
Y006301D01*
X004272Y006278D01*
X004202D01*
X004366Y006394D02*
Y006371D01*
X004342D01*
X004389D01*
X004366D01*
Y006301D01*
X004389Y006278D01*
X004529D02*
X004482D01*
X004459Y006301D01*
Y006347D01*
X004482Y006371D01*
X004529D01*
X004552Y006347D01*
Y006324D01*
X004459D01*
X004599Y006371D02*
Y006278D01*
Y006324D01*
X004622Y006347D01*
X004646Y006371D01*
X004669D01*
X004879Y006278D02*
X004949D01*
X004972Y006301D01*
X004949Y006324D01*
X004902D01*
X004879Y006347D01*
X004902Y006371D01*
X004972D01*
X005019Y006417D02*
Y006278D01*
Y006347D01*
X005042Y006371D01*
X005089D01*
X005112Y006347D01*
Y006278D01*
X005159D02*
X005205D01*
X005182D01*
Y006371D01*
X005159D01*
X005345Y006278D02*
X005299D01*
X005275Y006301D01*
Y006347D01*
X005299Y006371D01*
X005345D01*
X005369Y006347D01*
Y006324D01*
X005275D01*
X005415Y006278D02*
X005462D01*
X005439D01*
Y006417D01*
X005415D01*
X005625D02*
Y006278D01*
X005555D01*
X005532Y006301D01*
Y006347D01*
X005555Y006371D01*
X005625D01*
D19*
X004766Y005241D02*
G03*
X004766Y005241I-000010J000000D01*
G01*
X005331Y003867D02*
X005304D01*
X005317D01*
Y003801D01*
X005304Y003788D01*
X005291D01*
X005278Y003801D01*
X005411Y003788D02*
X005357D01*
X005411Y003841D01*
Y003854D01*
X005397Y003867D01*
X005371D01*
X005357Y003854D01*
X004878Y003867D02*
X004852D01*
X004865D01*
Y003801D01*
X004852Y003788D01*
X004838D01*
X004825Y003801D01*
X004905Y003788D02*
X004932D01*
X004918D01*
Y003867D01*
X004905Y003854D01*
X004213Y003500D02*
X004229D01*
X004263Y003533D01*
X004229Y003567D01*
X004213D01*
X004263Y003533D02*
X004312D01*
Y003600D02*
X004246D01*
X004213Y003633D01*
X004246Y003667D01*
X004312D01*
X004263D01*
Y003600D01*
X004213Y003700D02*
X004312D01*
X004279Y003733D01*
X004312Y003767D01*
X004213D01*
X004312Y003800D02*
Y003833D01*
Y003817D01*
X004213D01*
X004229Y003800D01*
X004500Y003500D02*
Y003567D01*
Y003533D01*
X004600D01*
X004500Y003600D02*
X004600D01*
X004550D01*
Y003667D01*
X004500D01*
X004600D01*
Y003700D02*
X004500D01*
Y003750D01*
X004517Y003767D01*
X004550D01*
X004567Y003750D01*
Y003700D01*
Y003733D02*
X004600Y003767D01*
Y003800D02*
Y003833D01*
Y003817D01*
X004500D01*
X004517Y003800D01*
X003430Y003500D02*
X003330D01*
Y003550D01*
X003347Y003567D01*
X003380D01*
X003397Y003550D01*
Y003500D01*
Y003533D02*
X003430Y003567D01*
X003330Y003650D02*
Y003617D01*
X003347Y003600D01*
X003413D01*
X003430Y003617D01*
Y003650D01*
X003413Y003667D01*
X003347D01*
X003330Y003650D01*
Y003700D02*
X003430D01*
Y003767D01*
X003330Y003800D02*
X003430D01*
Y003867D01*
Y003900D02*
Y003933D01*
Y003917D01*
X003330D01*
X003347Y003900D01*
X003747Y003500D02*
X003648D01*
Y003550D01*
X003664Y003567D01*
X003698D01*
X003714Y003550D01*
Y003500D01*
X003648Y003600D02*
Y003633D01*
Y003617D01*
X003747D01*
Y003600D01*
Y003633D01*
X003648Y003683D02*
Y003750D01*
Y003717D01*
X003747D01*
X003664Y003850D02*
X003648Y003833D01*
Y003800D01*
X003664Y003783D01*
X003731D01*
X003747Y003800D01*
Y003833D01*
X003731Y003850D01*
X003648Y003883D02*
X003747D01*
X003698D01*
Y003950D01*
X003648D01*
X003747D01*
Y003983D02*
Y004017D01*
Y004000D01*
X003648D01*
X003664Y003983D01*
X005892Y005500D02*
X005825D01*
Y005400D01*
X005892D01*
X005825Y005450D02*
X005858D01*
X005992Y005483D02*
X005975Y005500D01*
X005942D01*
X005925Y005483D01*
Y005467D01*
X005942Y005450D01*
X005975D01*
X005992Y005433D01*
Y005417D01*
X005975Y005400D01*
X005942D01*
X005925Y005417D01*
X006092Y005483D02*
X006075Y005500D01*
X006042D01*
X006025Y005483D01*
Y005417D01*
X006042Y005400D01*
X006075D01*
X006092Y005417D01*
X006175Y005400D02*
Y005500D01*
X006125Y005450D01*
X006192D01*
X005892Y005800D02*
X005825D01*
Y005700D01*
X005892D01*
X005825Y005750D02*
X005858D01*
X005992Y005783D02*
X005975Y005800D01*
X005942D01*
X005925Y005783D01*
Y005767D01*
X005942Y005750D01*
X005975D01*
X005992Y005733D01*
Y005717D01*
X005975Y005700D01*
X005942D01*
X005925Y005717D01*
X006092Y005783D02*
X006075Y005800D01*
X006042D01*
X006025Y005783D01*
Y005717D01*
X006042Y005700D01*
X006075D01*
X006092Y005717D01*
X006125Y005783D02*
X006142Y005800D01*
X006175D01*
X006192Y005783D01*
Y005767D01*
X006175Y005750D01*
X006158D01*
X006175D01*
X006192Y005733D01*
Y005717D01*
X006175Y005700D01*
X006142D01*
X006125Y005717D01*
X005892Y006100D02*
X005825D01*
Y006000D01*
X005892D01*
X005825Y006050D02*
X005858D01*
X005992Y006083D02*
X005975Y006100D01*
X005942D01*
X005925Y006083D01*
Y006067D01*
X005942Y006050D01*
X005975D01*
X005992Y006033D01*
Y006017D01*
X005975Y006000D01*
X005942D01*
X005925Y006017D01*
X006092Y006083D02*
X006075Y006100D01*
X006042D01*
X006025Y006083D01*
Y006017D01*
X006042Y006000D01*
X006075D01*
X006092Y006017D01*
X006192Y006000D02*
X006125D01*
X006192Y006067D01*
Y006083D01*
X006175Y006100D01*
X006142D01*
X006125Y006083D01*
X005892Y006400D02*
X005825D01*
Y006300D01*
X005892D01*
X005825Y006350D02*
X005858D01*
X005992Y006383D02*
X005975Y006400D01*
X005942D01*
X005925Y006383D01*
Y006367D01*
X005942Y006350D01*
X005975D01*
X005992Y006333D01*
Y006317D01*
X005975Y006300D01*
X005942D01*
X005925Y006317D01*
X006092Y006383D02*
X006075Y006400D01*
X006042D01*
X006025Y006383D01*
Y006317D01*
X006042Y006300D01*
X006075D01*
X006092Y006317D01*
X006125Y006300D02*
X006158D01*
X006142D01*
Y006400D01*
X006125Y006383D01*
X004393Y004612D02*
X004380Y004625D01*
X004353D01*
X004340Y004612D01*
Y004558D01*
X004353Y004545D01*
X004380D01*
X004393Y004558D01*
X004473Y004625D02*
X004447Y004612D01*
X004420Y004585D01*
Y004558D01*
X004433Y004545D01*
X004460D01*
X004473Y004558D01*
Y004572D01*
X004460Y004585D01*
X004420D01*
X005278Y005552D02*
X005265Y005565D01*
X005238D01*
X005225Y005552D01*
Y005498D01*
X005238Y005485D01*
X005265D01*
X005278Y005498D01*
X005305Y005485D02*
X005332D01*
X005318D01*
Y005565D01*
X005305Y005552D01*
X005381Y005064D02*
X005367Y005077D01*
X005341D01*
X005328Y005064D01*
Y005011D01*
X005341Y004997D01*
X005367D01*
X005381Y005011D01*
X005447Y004997D02*
Y005077D01*
X005407Y005037D01*
X005461D01*
X005298Y004602D02*
X005285Y004615D01*
X005258D01*
X005245Y004602D01*
Y004548D01*
X005258Y004535D01*
X005285D01*
X005298Y004548D01*
X005378Y004615D02*
X005325D01*
Y004575D01*
X005352Y004588D01*
X005365D01*
X005378Y004575D01*
Y004548D01*
X005365Y004535D01*
X005338D01*
X005325Y004548D01*
X004005Y003500D02*
X003938D01*
X003905Y003533D01*
X003938Y003567D01*
X004005D01*
X003955D01*
Y003500D01*
X003905Y003600D02*
X003988D01*
X004005Y003617D01*
Y003650D01*
X003988Y003667D01*
X003905D01*
Y003700D02*
X004005Y003767D01*
X003905D02*
X004005Y003700D01*
Y003800D02*
Y003833D01*
Y003817D01*
X003905D01*
X003922Y003800D01*
X004183Y006114D02*
X004170Y006127D01*
X004143D01*
X004130Y006114D01*
Y006061D01*
X004143Y006047D01*
X004170D01*
X004183Y006061D01*
X004210Y006127D02*
X004263D01*
Y006114D01*
X004210Y006061D01*
Y006047D01*
X004183Y005919D02*
X004170Y005932D01*
X004143D01*
X004130Y005919D01*
Y005866D01*
X004143Y005853D01*
X004170D01*
X004183Y005866D01*
X004210Y005919D02*
X004223Y005932D01*
X004250D01*
X004263Y005919D01*
Y005906D01*
X004250Y005892D01*
X004263Y005879D01*
Y005866D01*
X004250Y005853D01*
X004223D01*
X004210Y005866D01*
Y005879D01*
X004223Y005892D01*
X004210Y005906D01*
Y005919D01*
X004223Y005892D02*
X004250D01*
X005849Y004843D02*
Y004816D01*
Y004829D01*
X005916D01*
X005929Y004816D01*
Y004803D01*
X005916Y004790D01*
X005862Y004869D02*
X005849Y004883D01*
Y004909D01*
X005862Y004923D01*
X005876D01*
X005889Y004909D01*
Y004896D01*
Y004909D01*
X005902Y004923D01*
X005916D01*
X005929Y004909D01*
Y004883D01*
X005916Y004869D01*
X005851Y004455D02*
Y004429D01*
Y004442D01*
X005918D01*
X005931Y004429D01*
Y004415D01*
X005918Y004402D01*
X005931Y004522D02*
X005851D01*
X005891Y004482D01*
Y004535D01*
X006900Y004816D02*
X006917Y004832D01*
X006950D01*
X006967Y004849D01*
X007000Y004832D02*
X007067D01*
Y004816D01*
X007000Y004749D01*
Y004733D01*
X006900Y004566D02*
X006917Y004582D01*
X006950D01*
X006967Y004599D01*
X007067Y004582D02*
X007033Y004566D01*
X007000Y004532D01*
Y004499D01*
X007017Y004483D01*
X007050D01*
X007067Y004499D01*
Y004516D01*
X007050Y004532D01*
X007000D01*
X006900Y004348D02*
X006917Y004365D01*
X006950D01*
X006967Y004382D01*
X007067Y004365D02*
X007000D01*
Y004315D01*
X007033Y004332D01*
X007050D01*
X007067Y004315D01*
Y004282D01*
X007050Y004265D01*
X007017D01*
X007000Y004282D01*
X007057Y003990D02*
Y004090D01*
X007007Y004040D01*
X007074D01*
X006750Y006938D02*
Y007004D01*
X006783Y007037D01*
X006817Y007004D01*
Y006938D01*
Y006987D01*
X006750D01*
X006850Y006938D02*
Y007037D01*
X006900D01*
X006917Y007021D01*
Y006987D01*
X006900Y006971D01*
X006850D01*
X006883D02*
X006917Y006938D01*
X007017Y007037D02*
X006950D01*
Y006938D01*
X007017D01*
X006950Y006987D02*
X006983D01*
X007117Y007037D02*
X007050D01*
Y006987D01*
X007083D01*
X007050D01*
Y006938D01*
X002925Y006025D02*
Y006125D01*
X002975D01*
X002992Y006108D01*
Y006075D01*
X002975Y006058D01*
X002925D01*
X002958D02*
X002992Y006025D01*
X003092Y006108D02*
X003075Y006125D01*
X003042D01*
X003025Y006108D01*
Y006092D01*
X003042Y006075D01*
X003075D01*
X003092Y006058D01*
Y006042D01*
X003075Y006025D01*
X003042D01*
X003025Y006042D01*
X003125Y006125D02*
X003192D01*
X003158D01*
Y006025D01*
X006817Y006738D02*
X006800Y006755D01*
X006767D01*
X006750Y006738D01*
Y006672D01*
X006767Y006655D01*
X006800D01*
X006817Y006672D01*
Y006705D01*
X006783D01*
X006850Y006655D02*
Y006755D01*
X006917Y006655D01*
Y006755D01*
X006950D02*
Y006655D01*
X007000D01*
X007017Y006672D01*
Y006738D01*
X007000Y006755D01*
X006950D01*
X006879Y003818D02*
X006862Y003835D01*
X006829D01*
X006812Y003818D01*
Y003802D01*
X006829Y003785D01*
X006862D01*
X006879Y003768D01*
Y003752D01*
X006862Y003735D01*
X006829D01*
X006812Y003752D01*
X006979Y003818D02*
X006962Y003835D01*
X006929D01*
X006912Y003818D01*
Y003752D01*
X006929Y003735D01*
X006962D01*
X006979Y003752D01*
X007012Y003835D02*
Y003735D01*
X007079D01*
X006879Y003558D02*
X006862Y003575D01*
X006829D01*
X006812Y003558D01*
Y003542D01*
X006829Y003525D01*
X006862D01*
X006879Y003508D01*
Y003492D01*
X006862Y003475D01*
X006829D01*
X006812Y003492D01*
X006912Y003575D02*
Y003475D01*
X006962D01*
X006979Y003492D01*
Y003558D01*
X006962Y003575D01*
X006912D01*
X007012Y003475D02*
Y003542D01*
X007046Y003575D01*
X007079Y003542D01*
Y003475D01*
Y003525D01*
X007012D01*
X006900Y002955D02*
Y003055D01*
X006950D01*
X006967Y003038D01*
Y003005D01*
X006950Y002988D01*
X006900D01*
X006933D02*
X006967Y002955D01*
X007000Y003055D02*
X007067Y002955D01*
Y003055D02*
X007000Y002955D01*
X006900Y003315D02*
X006967D01*
X006933D01*
Y003215D01*
X007000Y003315D02*
X007067Y003215D01*
Y003315D02*
X007000Y003215D01*
X002925Y002950D02*
Y003017D01*
X002958Y003050D01*
X002992Y003017D01*
Y002950D01*
Y003000D01*
X002925D01*
X003092Y003050D02*
X003025D01*
Y003000D01*
X003058Y003017D01*
X003075D01*
X003092Y003000D01*
Y002967D01*
X003075Y002950D01*
X003042D01*
X003025Y002967D01*
X002925Y003208D02*
Y003274D01*
X002958Y003307D01*
X002992Y003274D01*
Y003208D01*
Y003257D01*
X002925D01*
X003075Y003208D02*
Y003307D01*
X003025Y003257D01*
X003092D01*
X002925Y003467D02*
Y003534D01*
X002958Y003567D01*
X002992Y003534D01*
Y003467D01*
Y003517D01*
X002925D01*
X003025Y003551D02*
X003042Y003567D01*
X003075D01*
X003092Y003551D01*
Y003534D01*
X003075Y003517D01*
X003058D01*
X003075D01*
X003092Y003501D01*
Y003484D01*
X003075Y003467D01*
X003042D01*
X003025Y003484D01*
X002925Y003708D02*
Y003774D01*
X002958Y003807D01*
X002992Y003774D01*
Y003708D01*
Y003757D01*
X002925D01*
X003092Y003708D02*
X003025D01*
X003092Y003774D01*
Y003791D01*
X003075Y003807D01*
X003042D01*
X003025Y003791D01*
X002925Y003958D02*
Y004024D01*
X002958Y004057D01*
X002992Y004024D01*
Y003958D01*
Y004007D01*
X002925D01*
X003025Y003958D02*
X003058D01*
X003042D01*
Y004057D01*
X003025Y004041D01*
X002925Y004215D02*
Y004282D01*
X002958Y004315D01*
X002992Y004282D01*
Y004215D01*
Y004265D01*
X002925D01*
X003025Y004298D02*
X003042Y004315D01*
X003075D01*
X003092Y004298D01*
Y004232D01*
X003075Y004215D01*
X003042D01*
X003025Y004232D01*
Y004298D01*
X002925Y004817D02*
Y004751D01*
X002958Y004717D01*
X002992Y004751D01*
Y004817D01*
X003025D02*
X003058D01*
X003042D01*
Y004717D01*
X003025D01*
X003058D01*
X003108D02*
Y004817D01*
X003175Y004717D01*
Y004817D01*
X002992Y005056D02*
X002975Y005072D01*
X002942D01*
X002925Y005056D01*
Y004989D01*
X002942Y004972D01*
X002975D01*
X002992Y004989D01*
Y005022D01*
X002958D01*
X003025Y004972D02*
Y005072D01*
X003092Y004972D01*
Y005072D01*
X003125D02*
Y004972D01*
X003175D01*
X003192Y004989D01*
Y005056D01*
X003175Y005072D01*
X003125D01*
X002992Y005321D02*
X002975Y005337D01*
X002942D01*
X002925Y005321D01*
Y005254D01*
X002942Y005238D01*
X002975D01*
X002992Y005254D01*
Y005287D01*
X002958D01*
X003025Y005238D02*
Y005337D01*
X003092Y005238D01*
Y005337D01*
X003125D02*
Y005238D01*
X003175D01*
X003192Y005254D01*
Y005321D01*
X003175Y005337D01*
X003125D01*
X002992Y005587D02*
X002925D01*
Y005537D01*
X002958Y005554D01*
X002975D01*
X002992Y005537D01*
Y005504D01*
X002975Y005488D01*
X002942D01*
X002925Y005504D01*
X003025Y005587D02*
Y005521D01*
X003058Y005488D01*
X003092Y005521D01*
Y005587D01*
X002925Y005856D02*
X002942Y005872D01*
X002975D01*
X002992Y005856D01*
Y005839D01*
X002975Y005822D01*
X002958D01*
X002975D01*
X002992Y005806D01*
Y005789D01*
X002975Y005772D01*
X002942D01*
X002925Y005789D01*
X003025Y005872D02*
Y005806D01*
X003058Y005772D01*
X003092Y005806D01*
Y005872D01*
X003125Y005856D02*
X003142Y005872D01*
X003175D01*
X003192Y005856D01*
Y005839D01*
X003175Y005822D01*
X003158D01*
X003175D01*
X003192Y005806D01*
Y005789D01*
X003175Y005772D01*
X003142D01*
X003125Y005789D01*
X002610Y006557D02*
X002643D01*
X002627D01*
Y006457D01*
X002610D01*
X002643D01*
X002760D02*
X002693D01*
X002760Y006524D01*
Y006541D01*
X002743Y006557D01*
X002710D01*
X002693Y006541D01*
X002860D02*
X002843Y006557D01*
X002810D01*
X002793Y006541D01*
Y006474D01*
X002810Y006457D01*
X002843D01*
X002860Y006474D01*
X002993Y006541D02*
X003010Y006557D01*
X003043D01*
X003060Y006541D01*
Y006524D01*
X003043Y006507D01*
X003027D01*
X003043D01*
X003060Y006491D01*
Y006474D01*
X003043Y006457D01*
X003010D01*
X002993Y006474D01*
X003093Y006557D02*
Y006491D01*
X003126Y006457D01*
X003160Y006491D01*
Y006557D01*
X003193Y006541D02*
X003210Y006557D01*
X003243D01*
X003260Y006541D01*
Y006524D01*
X003243Y006507D01*
X003226D01*
X003243D01*
X003260Y006491D01*
Y006474D01*
X003243Y006457D01*
X003210D01*
X003193Y006474D01*
X006035Y003332D02*
X006068D01*
X006052D01*
Y003233D01*
X006035D01*
X006068D01*
X006185D02*
X006118D01*
X006185Y003299D01*
Y003316D01*
X006168Y003332D01*
X006135D01*
X006118Y003316D01*
X006285D02*
X006268Y003332D01*
X006235D01*
X006218Y003316D01*
Y003249D01*
X006235Y003233D01*
X006268D01*
X006285Y003249D01*
X006485Y003332D02*
X006418D01*
Y003282D01*
X006452Y003299D01*
X006468D01*
X006485Y003282D01*
Y003249D01*
X006468Y003233D01*
X006435D01*
X006418Y003249D01*
X006518Y003332D02*
Y003266D01*
X006551Y003233D01*
X006585Y003266D01*
Y003332D01*
X004551Y005068D02*
Y005051D01*
X004584Y005018D01*
X004617Y005051D01*
Y005068D01*
X004584Y005018D02*
Y004968D01*
X004953Y004637D02*
X005019Y004537D01*
Y004637D02*
X004953Y004537D01*
X006358Y005227D02*
X006424D01*
X006612Y005230D02*
X006679D01*
X006646Y005263D02*
Y005197D01*
X006937Y005233D02*
X006920Y005250D01*
X006887D01*
X006870Y005233D01*
Y005217D01*
X006887Y005200D01*
X006920D01*
X006937Y005183D01*
Y005167D01*
X006920Y005150D01*
X006887D01*
X006870Y005167D01*
X003157Y002758D02*
X003140Y002775D01*
X003107D01*
X003090Y002758D01*
Y002742D01*
X003107Y002725D01*
X003140D01*
X003157Y002708D01*
Y002692D01*
X003140Y002675D01*
X003107D01*
X003090Y002692D01*
X002500Y002500D02*
X007500D01*
Y007500D01*
X002500D02*
X007500D01*
X002500Y002500D02*
Y007500D01*
D29*
X004780Y006062D02*
G03*
X004780Y006062I-000012J000000D01*
G01*
D30*
X005162Y007265D02*
X005147Y007280D01*
X005117D01*
X005103Y007265D01*
Y007205D01*
X005117Y007190D01*
X005147D01*
X005162Y007205D01*
Y007235D01*
X005132D01*
X005192Y007190D02*
Y007280D01*
X005252Y007190D01*
Y007280D01*
X005282D02*
Y007190D01*
X005327D01*
X005342Y007205D01*
Y007265D01*
X005327Y007280D01*
X005282D01*
X004350Y007250D02*
X004365Y007265D01*
X004395D01*
X004410Y007250D01*
Y007235D01*
X004395Y007220D01*
X004380D01*
X004395D01*
X004410Y007205D01*
Y007190D01*
X004395Y007175D01*
X004365D01*
X004350Y007190D01*
X004440Y007265D02*
Y007205D01*
X004470Y007175D01*
X004500Y007205D01*
Y007265D01*
X004530Y007250D02*
X004545Y007265D01*
X004575D01*
X004590Y007250D01*
Y007235D01*
X004575Y007220D01*
X004560D01*
X004575D01*
X004590Y007205D01*
Y007190D01*
X004575Y007175D01*
X004545D01*
X004530Y007190D01*
M02*
