M48
;Layer_Color=9474304
;FILE_FORMAT=4:2
METRIC
;TYPE=PLATED
T1F00S00C0.35
T2F00S00C0.60
T3F00S00C0.80
T4F00S00C0.90
T5F00S00C1.00
;TYPE=NON_PLATED
T6F00S00C1.50
%
T01
X003725Y003417
X003847Y003605
X003972Y003580
X003978Y003685
X005110Y003280
X005455Y003267
X005655Y003167
X005745Y003238
X005925Y003570
X006245Y003735
X006030Y003967
X006472Y003388
X006630Y003075
X006722Y004108
X006770Y004317
X006885Y004355
X007005Y004633
X006997Y004020
X005972Y004120
X005808Y004358
X005685Y004237
X005685Y004510
X005917Y004670
X005215Y004508
X004740Y004512
X004645Y004640
X004753Y004245
X004902Y004320
X005083Y005245
X004483Y005540
X004478Y005692
X004608Y006055
X004867Y006255
X004905Y006475
X004488Y007340
X003865Y006910
X003410Y006912
X003212Y006888
X003603Y006507
X003683Y005058
X003828Y005053
X003219Y004989
X003583Y004065
X003725Y004078
T02
X003000Y002700
X003254
X003508
X003762
X004016
T03
X004978Y003719
X005232Y003846
Y003592
X004978Y003972
X002936Y006874
Y007128
X002682Y007001
Y007255
T04
X004270Y002700
Y002954
Y003208
X004873Y003019
Y002765
X005127
Y003019
X005381
Y002765
X005780Y002742
X006034
Y002996
X006288
Y002742
X006923Y002693
X007177
X005780Y002996
X006177Y004568
X006431
X006685
X006685Y004822
X006431
X006177
Y005076
Y005330
X006431
Y005076
X006685
Y005330
X006255Y006883
X006001
X005747
Y007138
X006001
X006255
X005027Y007240
X004773
Y006986
X005027
Y006732
X004773
X003799Y004791
X003545
Y004537
X003799
T05
X002587Y003019
Y003273
Y003527
Y003781
X007413
Y003527
Y003273
Y003019
Y004035
Y004289
Y004543
Y004797
Y005203
Y005457
Y005711
Y005965
Y006219
Y006473
Y006727
Y006981
X002587Y006067
Y005813
Y005559
Y005305
X002590Y005051
X002587Y004797
Y004289
Y004035
T06
X005158Y004112
X002862Y007395
M30
