M48
;Layer_Color=9474304
;FILE_FORMAT=4:2
METRIC
;TYPE=PLATED
T1F00S00C0.40
T2F00S00C0.71
T3F00S00C0.80
T4F00S00C0.90
T5F00S00C1.00
;TYPE=NON_PLATED
T6F00S00C1.50
%
T01
X004262Y005505
X003978Y006005
X005250Y004683
X003720Y006325
T02
X003772Y004300
T03
X006188Y002765
X006442
X006568Y003019
X006315
X003059Y006739
Y006993
X002805Y007120
Y006866
T04
X003373Y002770
Y003024
Y003278
X003673
Y003024
Y002770
X003973Y002765
Y003019
Y003273
X004273
Y003019
Y002765
X004573Y002762
Y003017
Y003271
X004873Y003019
X005127
X005381
Y002765
X005127
X004873
X006392Y005450
X006646
X006900
Y005750
X006646
X006392
Y006050
X006646
X006900
Y006350
X006646
X006392
X004956Y007220
X004703
T05
X002587Y003019
Y003273
Y003527
Y003781
X007413
Y003527
Y003273
Y003019
Y004035
Y004289
Y004543
Y004797
Y005203
Y005457
Y005711
Y005965
Y006219
Y006473
Y006727
Y006981
X002587Y006067
Y005813
Y005559
Y005305
X002590Y005051
X002587Y004797
Y004289
Y004035
T06
X006047Y002945
X002985Y007260
M30
