%FSAX42Y42*%
%MOMM*%
G71*
G01*
G75*
G04 Layer_Color=32896*
%ADD10R,1.30X1.60*%
%ADD11R,1.60X1.30*%
%ADD12R,0.80X0.33*%
%ADD13R,0.33X0.80*%
%ADD14C,0.25*%
%ADD15C,0.24*%
G04:AMPARAMS|DCode=16|XSize=3mm|YSize=1.5mm|CornerRadius=0mm|HoleSize=0mm|Usage=FLASHONLY|Rotation=0.000|XOffset=0mm|YOffset=0mm|HoleType=Round|Shape=Octagon|*
%AMOCTAGOND16*
4,1,8,1.50,-0.38,1.50,0.38,1.13,0.75,-1.13,0.75,-1.50,0.38,-1.50,-0.38,-1.13,-0.75,1.13,-0.75,1.50,-0.38,0.0*
%
%ADD16OCTAGOND16*%

%ADD17C,1.50*%
%ADD18C,1.30*%
%ADD19R,1.50X1.50*%
%ADD20R,1.50X1.50*%
%ADD21C,0.80*%
%ADD22R,1.10X0.60*%
%ADD23O,0.45X1.30*%
%ADD24C,0.20*%
%ADD25C,0.10*%
%ADD26C,0.08*%
%ADD27C,0.05*%
%ADD28R,1.50X1.80*%
%ADD29R,1.80X1.50*%
%ADD30R,1.10X0.63*%
%ADD31R,0.63X1.10*%
G04:AMPARAMS|DCode=32|XSize=3.2mm|YSize=1.7mm|CornerRadius=0mm|HoleSize=0mm|Usage=FLASHONLY|Rotation=0.000|XOffset=0mm|YOffset=0mm|HoleType=Round|Shape=Octagon|*
%AMOCTAGOND32*
4,1,8,1.60,-0.42,1.60,0.42,1.18,0.85,-1.18,0.85,-1.60,0.42,-1.60,-0.42,-1.18,-0.85,1.18,-0.85,1.60,-0.42,0.0*
%
%ADD32OCTAGOND32*%

%ADD33C,1.70*%
%ADD34R,1.70X1.70*%
%ADD35R,1.70X1.70*%
%ADD36C,1.00*%
%ADD37R,1.30X0.80*%
%ADD38O,0.65X1.50*%
%ADD39C,0.25*%
%ADD40C,0.60*%
D14*
X006107Y007204D02*
X006120Y007217D01*
X006147D01*
X006160Y007204D01*
Y007151D01*
X006147Y007138D01*
X006120D01*
X006107Y007151D01*
X006080Y007204D02*
X006067Y007217D01*
X006040D01*
X006027Y007204D01*
Y007191D01*
X006040Y007177D01*
X006027Y007164D01*
Y007151D01*
X006040Y007138D01*
X006067D01*
X006080Y007151D01*
Y007164D01*
X006067Y007177D01*
X006080Y007191D01*
Y007204D01*
X006067Y007177D02*
X006040D01*
X003617Y004202D02*
X003630Y004215D01*
X003657D01*
X003670Y004202D01*
Y004148D01*
X003657Y004135D01*
X003630D01*
X003617Y004148D01*
X003537Y004215D02*
X003590D01*
Y004175D01*
X003563Y004188D01*
X003550D01*
X003537Y004175D01*
Y004148D01*
X003550Y004135D01*
X003577D01*
X003590Y004148D01*
X003762Y006915D02*
Y006995D01*
X003723D01*
X003709Y006982D01*
Y006955D01*
X003723Y006942D01*
X003762D01*
X003736D02*
X003709Y006915D01*
X003683D02*
X003656D01*
X003669D01*
Y006995D01*
X003683Y006982D01*
X004225Y006915D02*
Y006995D01*
X004185D01*
X004172Y006982D01*
Y006955D01*
X004185Y006942D01*
X004225D01*
X004198D02*
X004172Y006915D01*
X004092D02*
X004145D01*
X004092Y006968D01*
Y006982D01*
X004105Y006995D01*
X004132D01*
X004145Y006982D01*
X004060Y004135D02*
Y004215D01*
X004020D01*
X004007Y004202D01*
Y004175D01*
X004020Y004162D01*
X004060D01*
X004033D02*
X004007Y004135D01*
X003980Y004202D02*
X003967Y004215D01*
X003940D01*
X003927Y004202D01*
Y004188D01*
X003940Y004175D01*
X003953D01*
X003940D01*
X003927Y004162D01*
Y004148D01*
X003940Y004135D01*
X003967D01*
X003980Y004148D01*
X003408Y004745D02*
Y004825D01*
X003368D01*
X003354Y004812D01*
Y004785D01*
X003368Y004772D01*
X003408D01*
X003381D02*
X003354Y004745D01*
X003288D02*
Y004825D01*
X003328Y004785D01*
X003274D01*
X003325Y004135D02*
Y004215D01*
X003285D01*
X003272Y004202D01*
Y004175D01*
X003285Y004162D01*
X003325D01*
X003298D02*
X003272Y004135D01*
X003192Y004215D02*
X003245D01*
Y004175D01*
X003218Y004188D01*
X003205D01*
X003192Y004175D01*
Y004148D01*
X003205Y004135D01*
X003232D01*
X003245Y004148D01*
X004427Y006374D02*
X004440Y006387D01*
X004467D01*
X004480Y006374D01*
Y006321D01*
X004467Y006308D01*
X004440D01*
X004427Y006321D01*
X004347Y006387D02*
X004373Y006374D01*
X004400Y006347D01*
Y006321D01*
X004387Y006308D01*
X004360D01*
X004347Y006321D01*
Y006334D01*
X004360Y006347D01*
X004400D01*
X007425Y002641D02*
X007398Y002588D01*
X007372Y002641D01*
X007265Y002654D02*
X007252Y002667D01*
X007225D01*
X007212Y002654D01*
Y002601D01*
X007225Y002588D01*
X007252D01*
X007265Y002601D01*
Y002654D01*
X007185Y002588D02*
Y002601D01*
X007172D01*
Y002588D01*
X007185D01*
X007118D02*
X007092D01*
X007105D01*
Y002667D01*
X007118Y002654D01*
X006972Y002627D02*
X006918D01*
X006759Y002588D02*
X006812D01*
X006759Y002641D01*
Y002654D01*
X006772Y002667D01*
X006799D01*
X006812Y002654D01*
X006732D02*
X006719Y002667D01*
X006692D01*
X006679Y002654D01*
Y002601D01*
X006692Y002588D01*
X006719D01*
X006732Y002601D01*
Y002654D01*
X006652Y002588D02*
X006625D01*
X006639D01*
Y002667D01*
X006652Y002654D01*
X006585D02*
X006572Y002667D01*
X006545D01*
X006532Y002654D01*
Y002641D01*
X006545Y002627D01*
X006559D01*
X006545D01*
X006532Y002614D01*
Y002601D01*
X006545Y002588D01*
X006572D01*
X006585Y002601D01*
X007412Y007395D02*
Y007305D01*
Y007350D01*
X007398Y007365D01*
X007368D01*
X007353Y007350D01*
Y007305D01*
X007308Y007380D02*
Y007365D01*
X007323D01*
X007293D01*
X007308D01*
Y007320D01*
X007293Y007305D01*
X007233Y007380D02*
Y007365D01*
X007248D01*
X007218D01*
X007233D01*
Y007320D01*
X007218Y007305D01*
X007173Y007275D02*
Y007365D01*
X007128D01*
X007113Y007350D01*
Y007320D01*
X007128Y007305D01*
X007173D01*
X007083Y007365D02*
X007068D01*
Y007350D01*
X007083D01*
Y007365D01*
Y007320D02*
X007068D01*
Y007305D01*
X007083D01*
Y007320D01*
X007008Y007305D02*
X006948Y007365D01*
X006918Y007305D02*
X006858Y007365D01*
X006828D02*
Y007305D01*
Y007335D01*
X006813Y007350D01*
X006798Y007365D01*
X006783D01*
X006723Y007305D02*
X006693D01*
X006678Y007320D01*
Y007350D01*
X006693Y007365D01*
X006723D01*
X006738Y007350D01*
Y007320D01*
X006723Y007305D01*
X006648Y007395D02*
Y007305D01*
X006603D01*
X006588Y007320D01*
Y007335D01*
Y007350D01*
X006603Y007365D01*
X006648D01*
X006543Y007305D02*
X006513D01*
X006498Y007320D01*
Y007350D01*
X006513Y007365D01*
X006543D01*
X006558Y007350D01*
Y007320D01*
X006543Y007305D01*
X006468Y007275D02*
Y007365D01*
X006423D01*
X006408Y007350D01*
Y007320D01*
X006423Y007305D01*
X006468D01*
X006363D02*
X006333D01*
X006318Y007320D01*
Y007350D01*
X006333Y007365D01*
X006363D01*
X006378Y007350D01*
Y007320D01*
X006363Y007305D01*
X006288D02*
X006258D01*
X006273D01*
Y007395D01*
X006288D01*
X006213Y007365D02*
Y007320D01*
X006198Y007305D01*
X006153D01*
Y007290D01*
X006168Y007275D01*
X006183D01*
X006153Y007305D02*
Y007365D01*
X006123Y007305D02*
Y007320D01*
X006108D01*
Y007305D01*
X006123D01*
X006003D02*
X006033D01*
X006048Y007320D01*
Y007350D01*
X006033Y007365D01*
X006003D01*
X005988Y007350D01*
Y007335D01*
X006048D01*
X005958Y007275D02*
Y007365D01*
X005913D01*
X005898Y007350D01*
Y007320D01*
X005913Y007305D01*
X005958D01*
X005853D02*
Y007380D01*
Y007350D01*
X005868D01*
X005838D01*
X005853D01*
Y007380D01*
X005838Y007395D01*
X005793Y007305D02*
X005763D01*
X005778D01*
Y007395D01*
X005793D01*
X005718Y007305D02*
Y007320D01*
X005703D01*
Y007305D01*
X005718D01*
X005583Y007365D02*
X005628D01*
X005643Y007350D01*
Y007320D01*
X005628Y007305D01*
X005583D01*
X005553Y007395D02*
Y007305D01*
Y007350D01*
X005538Y007365D01*
X005508D01*
X005493Y007350D01*
Y007305D01*
X004425Y007168D02*
Y007287D01*
X004365D01*
X004345Y007267D01*
Y007227D01*
X004365Y007207D01*
X004425D01*
X004305Y007168D02*
Y007187D01*
X004285D01*
Y007168D01*
X004305D01*
X004085Y007287D02*
Y007168D01*
X004025D01*
X004005Y007187D01*
Y007207D01*
X004025Y007227D01*
X004085D01*
X004025D01*
X004005Y007247D01*
Y007267D01*
X004025Y007287D01*
X004085D01*
X003945Y007168D02*
X003905D01*
X003885Y007187D01*
Y007227D01*
X003905Y007247D01*
X003945D01*
X003965Y007227D01*
Y007187D01*
X003945Y007168D01*
X003845Y007287D02*
Y007168D01*
X003785D01*
X003765Y007187D01*
Y007207D01*
Y007227D01*
X003785Y007247D01*
X003845D01*
X003725Y007287D02*
Y007168D01*
X003665D01*
X003645Y007187D01*
Y007207D01*
Y007227D01*
X003665Y007247D01*
X003725D01*
X003605Y007168D02*
X003565D01*
X003585D01*
Y007247D01*
X003605D01*
X003505Y007168D02*
Y007247D01*
X003445D01*
X003425Y007227D01*
Y007168D01*
X003385D02*
Y007287D01*
Y007207D02*
X003325Y007247D01*
X003385Y007207D02*
X003325Y007168D01*
D24*
X005428Y007057D02*
X005478D01*
Y006757D02*
Y007057D01*
X005428Y006757D02*
Y007057D01*
Y006757D02*
X005478D01*
X003725Y005250D02*
X004035D01*
X003725Y005085D02*
X004035D01*
X003725D02*
Y005250D01*
X004035Y005085D02*
Y005250D01*
D39*
X005585Y007088D02*
G03*
X005585Y007088I-000012J000000D01*
G01*
X003717Y005355D02*
G03*
X003717Y005355I-000012J000000D01*
G01*
D40*
X003855Y005150D02*
G03*
X003855Y005150I-000030J000000D01*
G01*
M02*
