%FSAX42Y42*%
%MOMM*%
G71*
G01*
G75*
G04 Layer_Physical_Order=2*
G04 Layer_Color=16711680*
%ADD10R,1.30X1.60*%
%ADD11R,1.60X1.30*%
%ADD12R,0.80X0.33*%
%ADD13R,0.33X0.80*%
%ADD14C,0.25*%
%ADD15C,0.24*%
G04:AMPARAMS|DCode=16|XSize=3mm|YSize=1.5mm|CornerRadius=0mm|HoleSize=0mm|Usage=FLASHONLY|Rotation=0.000|XOffset=0mm|YOffset=0mm|HoleType=Round|Shape=Octagon|*
%AMOCTAGOND16*
4,1,8,1.50,-0.38,1.50,0.38,1.13,0.75,-1.13,0.75,-1.50,0.38,-1.50,-0.38,-1.13,-0.75,1.13,-0.75,1.50,-0.38,0.0*
%
%ADD16OCTAGOND16*%

%ADD17C,1.50*%
%ADD18C,1.30*%
%ADD19R,1.50X1.50*%
%ADD20R,1.50X1.50*%
%ADD21C,0.80*%
%ADD22R,1.10X0.60*%
%ADD23O,0.45X1.30*%
G36*
X002867Y005501D02*
X002870Y005486D01*
X002879Y005474D01*
X002974Y005379D01*
Y003747D01*
X002974Y003747D01*
X002974D01*
X002977Y003733D01*
X002985Y003720D01*
X003095Y003610D01*
X003108Y003602D01*
X003123Y003599D01*
X003710D01*
X003725Y003602D01*
X003737Y003610D01*
X003737Y003610D01*
X003737Y003610D01*
X003822Y003695D01*
X003831Y003708D01*
X003834Y003722D01*
X003834Y003722D01*
X003834Y003722D01*
Y003722D01*
Y003861D01*
X003883Y003910D01*
X003895Y003906D01*
Y003905D01*
X003895D01*
Y003725D01*
X004105D01*
Y003776D01*
X004449D01*
X005037Y003188D01*
X005032Y003176D01*
X004705D01*
X004690Y003173D01*
X004678Y003165D01*
X004619Y003106D01*
X004599Y003114D01*
X004573Y003118D01*
X004547Y003114D01*
X004522Y003104D01*
X004501Y003088D01*
X004485Y003067D01*
X004475Y003043D01*
X004472Y003017D01*
X004475Y002990D01*
X004485Y002966D01*
X004501Y002945D01*
X004496Y002934D01*
X004347D01*
X004343Y002946D01*
X004345Y002947D01*
X004361Y002968D01*
X004371Y002993D01*
X004374Y003019D01*
X004371Y003045D01*
X004361Y003070D01*
X004345Y003091D01*
X004324Y003107D01*
X004299Y003117D01*
X004273Y003120D01*
X004247Y003117D01*
X004222Y003107D01*
X004201Y003091D01*
X004185Y003070D01*
X004175Y003045D01*
X004172Y003019D01*
X004175Y002993D01*
X004185Y002968D01*
X004201Y002947D01*
X004203Y002946D01*
X004199Y002934D01*
X004047D01*
X004043Y002946D01*
X004045Y002947D01*
X004061Y002968D01*
X004071Y002993D01*
X004074Y003019D01*
X004071Y003045D01*
X004061Y003070D01*
X004045Y003091D01*
X004024Y003107D01*
X003999Y003117D01*
X003973Y003120D01*
X003947Y003117D01*
X003922Y003107D01*
X003901Y003091D01*
X003885Y003070D01*
X003875Y003045D01*
X003872Y003019D01*
X003875Y002993D01*
X003885Y002968D01*
X003901Y002947D01*
X003903Y002946D01*
X003899Y002934D01*
X003798D01*
X003783Y002931D01*
X003771Y002922D01*
X003718Y002870D01*
X003573D01*
Y002670D01*
X003773D01*
Y002815D01*
X003814Y002856D01*
X003873D01*
Y002665D01*
X004073D01*
Y002665D01*
X004085Y002670D01*
X004148Y002608D01*
D01*
X004148D01*
Y002608D01*
D01*
X004148D01*
Y002608D01*
X004148D01*
X004148Y002608D01*
Y002608D01*
X004148Y002608D01*
Y002608D01*
X004160Y002599D01*
X004175Y002596D01*
X005185D01*
X005200Y002599D01*
X005212Y002608D01*
X005282Y002678D01*
X005291Y002690D01*
X005292Y002697D01*
X005305Y002700D01*
X005309Y002693D01*
X005330Y002677D01*
X005355Y002667D01*
X005381Y002664D01*
X005407Y002667D01*
X005432Y002677D01*
X005453Y002693D01*
X005469Y002714D01*
X005479Y002739D01*
X005482Y002765D01*
X005479Y002791D01*
X005474Y002803D01*
X005537Y002866D01*
X005546Y002879D01*
X005549Y002894D01*
X005549Y002894D01*
X005549Y002894D01*
Y002894D01*
Y003092D01*
X005546Y003107D01*
X005537Y003120D01*
X005496Y003162D01*
X005500Y003174D01*
X005914D01*
X006032Y003056D01*
X006028Y003044D01*
X006021Y003043D01*
X005997Y003033D01*
X005976Y003017D01*
X005960Y002996D01*
X005950Y002971D01*
X005946Y002945D01*
X005950Y002919D01*
X005960Y002894D01*
X005976Y002873D01*
X005997Y002857D01*
X006021Y002847D01*
X006047Y002844D01*
X006074Y002847D01*
X006098Y002857D01*
X006119Y002873D01*
X006132Y002890D01*
X006144Y002891D01*
X006161Y002874D01*
X006158Y002862D01*
X006137Y002853D01*
X006116Y002837D01*
X006100Y002816D01*
X006090Y002791D01*
X006086Y002765D01*
X006090Y002739D01*
X006100Y002714D01*
X006116Y002693D01*
X006137Y002677D01*
X006161Y002667D01*
X006188Y002664D01*
X006214Y002667D01*
X006238Y002677D01*
X006259Y002693D01*
X006275Y002714D01*
X006285Y002739D01*
X006289Y002765D01*
X006285Y002791D01*
X006275Y002816D01*
X006259Y002837D01*
X006256Y002839D01*
X006260Y002851D01*
X006369D01*
X006373Y002839D01*
X006370Y002837D01*
X006354Y002816D01*
X006344Y002791D01*
X006342Y002780D01*
X006541D01*
X006539Y002791D01*
X006529Y002816D01*
X006513Y002837D01*
X006492Y002853D01*
X006478Y002859D01*
X006475Y002871D01*
X006531Y002926D01*
X006542Y002921D01*
X006568Y002918D01*
X006595Y002921D01*
X006619Y002931D01*
X006640Y002947D01*
X006656Y002968D01*
X006666Y002993D01*
X006670Y003019D01*
X006666Y003045D01*
X006656Y003070D01*
X006640Y003091D01*
X006619Y003107D01*
X006607Y003112D01*
Y003262D01*
X007087Y003742D01*
X007148D01*
Y003731D01*
X007198Y003680D01*
X007448D01*
X007461Y003693D01*
X007473Y003688D01*
Y003619D01*
X007461Y003614D01*
X007448Y003627D01*
X007198D01*
X007148Y003577D01*
Y003477D01*
X007198Y003426D01*
X007448D01*
X007461Y003439D01*
X007473Y003434D01*
Y003365D01*
X007461Y003360D01*
X007448Y003373D01*
X007198D01*
X007148Y003323D01*
Y003223D01*
X007198Y003172D01*
X007448D01*
X007461Y003185D01*
X007473Y003180D01*
Y003111D01*
X007461Y003106D01*
X007448Y003119D01*
X007198D01*
X007148Y003069D01*
Y002969D01*
X007198Y002918D01*
X007448D01*
X007461Y002931D01*
X007473Y002926D01*
Y002527D01*
X002527D01*
Y002926D01*
X002539Y002931D01*
X002552Y002918D01*
X002802D01*
X002852Y002969D01*
Y003069D01*
X002802Y003119D01*
X002552D01*
X002539Y003106D01*
X002527Y003111D01*
Y003180D01*
X002539Y003185D01*
X002552Y003172D01*
X002802D01*
X002852Y003223D01*
Y003323D01*
X002802Y003373D01*
X002552D01*
X002539Y003360D01*
X002527Y003365D01*
Y003434D01*
X002539Y003439D01*
X002552Y003426D01*
X002802D01*
X002852Y003477D01*
Y003577D01*
X002802Y003627D01*
X002552D01*
X002539Y003614D01*
X002527Y003619D01*
Y003688D01*
X002539Y003693D01*
X002552Y003680D01*
X002802D01*
X002852Y003731D01*
Y003831D01*
X002802Y003881D01*
X002552D01*
X002539Y003868D01*
X002527Y003873D01*
Y003942D01*
X002539Y003947D01*
X002552Y003934D01*
X002802D01*
X002852Y003985D01*
Y004085D01*
X002802Y004135D01*
X002552D01*
X002539Y004122D01*
X002527Y004127D01*
Y004196D01*
X002539Y004201D01*
X002552Y004188D01*
X002802D01*
X002852Y004239D01*
Y004339D01*
X002802Y004389D01*
X002552D01*
X002539Y004376D01*
X002527Y004381D01*
Y004704D01*
X002539Y004709D01*
X002552Y004696D01*
X002802D01*
X002852Y004747D01*
Y004847D01*
X002802Y004897D01*
X002552D01*
X002539Y004884D01*
X002527Y004889D01*
Y004961D01*
X002539Y004966D01*
X002554Y004950D01*
X002575D01*
Y005051D01*
Y005151D01*
X002554D01*
X002539Y005136D01*
X002527Y005141D01*
Y005212D01*
X002539Y005217D01*
X002552Y005204D01*
X002572D01*
Y005305D01*
Y005405D01*
X002552D01*
X002539Y005392D01*
X002527Y005397D01*
Y005466D01*
X002539Y005471D01*
X002552Y005458D01*
X002802D01*
X002852Y005509D01*
Y005520D01*
X002867D01*
Y005501D01*
D02*
G37*
G36*
X003847Y004889D02*
X003864Y004892D01*
X003874Y004884D01*
Y004403D01*
X003874Y004403D01*
X003874D01*
X003877Y004388D01*
X003885Y004375D01*
X004126Y004134D01*
Y003909D01*
X004117Y003900D01*
X004105Y003904D01*
Y003905D01*
D01*
Y003905D01*
X004105Y003905D01*
Y003915D01*
X004105D01*
Y004095D01*
X003895D01*
Y004032D01*
X003768Y003905D01*
X003759Y003892D01*
X003756Y003878D01*
Y003739D01*
X003694Y003676D01*
X003139D01*
X003051Y003764D01*
Y003966D01*
X003155D01*
Y003915D01*
X003155Y003915D01*
X003155Y003905D01*
X003155D01*
Y003725D01*
X003365D01*
Y003776D01*
X003495D01*
Y003725D01*
X003705D01*
Y003905D01*
D01*
Y003905D01*
X003705Y003905D01*
Y003915D01*
X003705D01*
Y003990D01*
X003495D01*
Y003915D01*
X003495Y003915D01*
X003495Y003905D01*
X003495D01*
Y003854D01*
X003461D01*
Y004184D01*
X003810Y004533D01*
X003818Y004545D01*
X003819Y004548D01*
X003821Y004560D01*
Y004884D01*
X003831Y004892D01*
X003847Y004889D01*
D02*
G37*
G36*
X007473Y007074D02*
X007461Y007069D01*
X007448Y007082D01*
X007198D01*
X007148Y007031D01*
Y006931D01*
X007198Y006881D01*
X007448D01*
X007461Y006894D01*
X007473Y006889D01*
Y006820D01*
X007461Y006815D01*
X007448Y006828D01*
X007428D01*
Y006727D01*
Y006627D01*
X007448D01*
X007461Y006640D01*
X007473Y006635D01*
Y006566D01*
X007461Y006561D01*
X007448Y006574D01*
X007198D01*
X007148Y006523D01*
Y006423D01*
X007198Y006373D01*
X007448D01*
X007461Y006386D01*
X007473Y006381D01*
Y006312D01*
X007461Y006307D01*
X007448Y006320D01*
X007198D01*
X007148Y006269D01*
Y006174D01*
X007136Y006169D01*
X007000Y006305D01*
Y006450D01*
X006800D01*
Y006250D01*
X006945D01*
X007081Y006114D01*
Y005609D01*
X007069Y005605D01*
X007062Y005615D01*
X007050Y005623D01*
X007035Y005626D01*
X006841D01*
X006830Y005638D01*
X006834Y005650D01*
X007000D01*
Y005850D01*
X006804D01*
Y005884D01*
X006870Y005950D01*
X007000D01*
Y006150D01*
X006800D01*
Y005990D01*
X006738Y005927D01*
X006729Y005915D01*
X006726Y005900D01*
Y005829D01*
X006715Y005824D01*
X006697Y005838D01*
X006672Y005848D01*
X006646Y005851D01*
X006620Y005848D01*
X006595Y005838D01*
X006574Y005822D01*
X006558Y005801D01*
X006548Y005776D01*
X006545Y005750D01*
X006548Y005724D01*
X006558Y005699D01*
X006574Y005678D01*
X006595Y005662D01*
X006620Y005652D01*
X006646Y005649D01*
X006672Y005652D01*
X006697Y005662D01*
X006715Y005676D01*
X006726Y005671D01*
Y005647D01*
X006726Y005647D01*
X006726D01*
X006729Y005633D01*
X006738Y005620D01*
X006798Y005560D01*
X006800Y005559D01*
X006800Y005550D01*
X006800D01*
Y005350D01*
X006861D01*
Y004525D01*
X006861Y004525D01*
X006861D01*
X006864Y004510D01*
X006873Y004498D01*
X007109Y004261D01*
X007121Y004253D01*
X007136Y004250D01*
X007148D01*
Y004239D01*
X007198Y004188D01*
X007448D01*
X007461Y004201D01*
X007473Y004196D01*
Y004127D01*
X007461Y004122D01*
X007448Y004135D01*
X007198D01*
X007148Y004085D01*
Y003985D01*
X007198Y003934D01*
X007448D01*
X007461Y003947D01*
X007473Y003942D01*
Y003873D01*
X007461Y003868D01*
X007448Y003881D01*
X007198D01*
X007148Y003831D01*
Y003820D01*
X007071D01*
X007056Y003817D01*
X007043Y003808D01*
X006541Y003306D01*
X006533Y003293D01*
X006530Y003278D01*
Y003112D01*
X006518Y003107D01*
X006497Y003091D01*
X006481Y003070D01*
X006471Y003045D01*
X006467Y003019D01*
X006471Y002993D01*
X006476Y002981D01*
X006423Y002929D01*
X006382D01*
X006378Y002941D01*
X006386Y002947D01*
X006402Y002968D01*
X006412Y002993D01*
X006416Y003019D01*
X006412Y003045D01*
X006402Y003070D01*
X006386Y003091D01*
X006365Y003107D01*
X006341Y003117D01*
X006315Y003120D01*
X006288Y003117D01*
X006277Y003112D01*
X005983Y003405D01*
X005971Y003413D01*
X005956Y003416D01*
X005171D01*
X004016Y004571D01*
Y004909D01*
X004023Y004919D01*
X004026Y004938D01*
Y005022D01*
X004023Y005041D01*
X004016Y005051D01*
Y005065D01*
X004013Y005080D01*
X004005Y005092D01*
X003965Y005132D01*
X003952Y005141D01*
X003938Y005144D01*
X003692D01*
X003678Y005141D01*
X003665Y005132D01*
X003413Y004880D01*
X003404Y004867D01*
X003401Y004853D01*
Y004700D01*
X003350D01*
D01*
D01*
X003350Y004700D01*
X003340D01*
Y004700D01*
X003160D01*
Y004634D01*
X003051D01*
Y005395D01*
X003048Y005410D01*
X003040Y005422D01*
X002945Y005517D01*
Y005543D01*
X003022Y005620D01*
X003031Y005633D01*
X003034Y005647D01*
Y006128D01*
X003031Y006142D01*
X003022Y006155D01*
X002669Y006509D01*
Y006680D01*
X002681Y006684D01*
X002793Y006573D01*
X002805Y006564D01*
X002820Y006561D01*
X003615D01*
Y006510D01*
X003681D01*
Y006378D01*
X003673Y006372D01*
X003663Y006358D01*
X003656Y006342D01*
X003654Y006325D01*
X003656Y006308D01*
X003663Y006292D01*
X003673Y006278D01*
X003681Y006272D01*
Y006053D01*
X003681Y006053D01*
X003681D01*
X003684Y006038D01*
X003693Y006025D01*
X003874Y005843D01*
Y005451D01*
X003865Y005443D01*
X003847Y005446D01*
X003829Y005443D01*
X003815Y005433D01*
X003801Y005443D01*
X003797Y005443D01*
Y005355D01*
Y005267D01*
X003799Y005267D01*
X003809Y005259D01*
D01*
X003809Y005255D01*
X003809Y005255D01*
X003809D01*
X003812Y005240D01*
X003820Y005228D01*
X003838Y005210D01*
X003850Y005202D01*
X003853Y005201D01*
X003865Y005199D01*
X003995D01*
X004010Y005202D01*
X004022Y005210D01*
X004253Y005440D01*
X004262Y005439D01*
X004280Y005441D01*
X004295Y005448D01*
X004309Y005458D01*
X004320Y005472D01*
X004326Y005488D01*
X004328Y005505D01*
X004327Y005515D01*
X004357Y005545D01*
X004366Y005558D01*
X004369Y005572D01*
Y005572D01*
D01*
Y006067D01*
X004420D01*
Y006067D01*
X004420D01*
X004420Y006067D01*
X004430D01*
Y006067D01*
X004505D01*
Y006172D01*
Y006278D01*
X004430D01*
D01*
D01*
X004430Y006278D01*
X004420D01*
Y006278D01*
X004369D01*
Y006751D01*
X004515D01*
X004530Y006754D01*
X004542Y006763D01*
X004542Y006763D01*
X004542Y006763D01*
X004744Y006964D01*
X005252D01*
Y006947D01*
X005413D01*
Y007058D01*
X005252D01*
Y007041D01*
X004744D01*
X004741Y007044D01*
Y007120D01*
X004803D01*
Y007320D01*
X004602D01*
Y007120D01*
X004664D01*
Y007028D01*
X004667Y007013D01*
X004673Y007003D01*
X004499Y006829D01*
X004265D01*
Y006880D01*
X004055D01*
Y006829D01*
X003825D01*
Y006880D01*
X003615D01*
Y006829D01*
X003184D01*
X003176Y006838D01*
X003179Y006860D01*
X003175Y006886D01*
X003165Y006911D01*
X003149Y006932D01*
X003128Y006948D01*
X003104Y006958D01*
X003077Y006961D01*
X003051Y006958D01*
X003027Y006948D01*
X003006Y006932D01*
X002990Y006911D01*
X002980Y006886D01*
X002976Y006860D01*
X002980Y006834D01*
X002990Y006809D01*
X003006Y006788D01*
X003027Y006772D01*
X003051Y006762D01*
X003077Y006759D01*
X003104Y006762D01*
X003115Y006767D01*
X003120Y006763D01*
X003133Y006754D01*
X003148Y006751D01*
X003615D01*
Y006700D01*
X003615Y006700D01*
X003615Y006690D01*
X003615D01*
Y006639D01*
X002976D01*
X002971Y006650D01*
X002985Y006669D01*
X002995Y006694D01*
X002999Y006720D01*
X002995Y006746D01*
X002985Y006771D01*
X002969Y006792D01*
X002948Y006808D01*
X002924Y006818D01*
X002898Y006821D01*
X002871Y006818D01*
X002847Y006808D01*
X002826Y006792D01*
X002810Y006771D01*
X002800Y006746D01*
X002796Y006720D01*
X002800Y006694D01*
X002800Y006692D01*
X002790Y006685D01*
X002736Y006739D01*
Y006916D01*
X002748Y006920D01*
X002752Y006915D01*
X002773Y006899D01*
X002797Y006889D01*
X002824Y006886D01*
X002850Y006889D01*
X002874Y006899D01*
X002895Y006915D01*
X002911Y006936D01*
X002921Y006961D01*
X002925Y006987D01*
X002921Y007013D01*
X002911Y007038D01*
X002895Y007059D01*
X002874Y007075D01*
X002850Y007085D01*
X002824Y007088D01*
X002797Y007085D01*
X002773Y007075D01*
X002752Y007059D01*
X002748Y007054D01*
X002736Y007058D01*
Y007099D01*
X002786Y007148D01*
X002797Y007143D01*
X002824Y007140D01*
X002850Y007143D01*
X002874Y007153D01*
X002895Y007169D01*
X002911Y007190D01*
X002921Y007215D01*
X002925Y007241D01*
X002921Y007267D01*
X002911Y007292D01*
X002895Y007313D01*
X002874Y007329D01*
X002850Y007339D01*
X002824Y007342D01*
X002797Y007339D01*
X002773Y007329D01*
X002752Y007313D01*
X002736Y007292D01*
X002726Y007267D01*
X002722Y007241D01*
X002726Y007215D01*
X002731Y007203D01*
X002681Y007153D01*
X002669Y007158D01*
Y007301D01*
X002744Y007376D01*
X005144D01*
X005492Y007028D01*
Y006947D01*
Y006922D01*
X005572D01*
Y006893D01*
X005492D01*
Y006852D01*
Y006757D01*
X005653D01*
Y006766D01*
X005985D01*
Y006715D01*
X006195D01*
Y006729D01*
X006207Y006734D01*
X006553Y006388D01*
X006548Y006376D01*
X006545Y006350D01*
X006548Y006324D01*
X006558Y006299D01*
X006574Y006278D01*
X006595Y006262D01*
X006620Y006252D01*
X006646Y006249D01*
X006672Y006252D01*
X006697Y006262D01*
X006718Y006278D01*
X006734Y006299D01*
X006744Y006324D01*
X006747Y006350D01*
X006744Y006376D01*
X006734Y006401D01*
X006718Y006422D01*
X006697Y006438D01*
X006672Y006448D01*
X006646Y006451D01*
X006620Y006448D01*
X006608Y006443D01*
X006218Y006832D01*
X006206Y006841D01*
X006195Y006843D01*
Y006895D01*
D01*
Y006895D01*
X006195Y006895D01*
Y006905D01*
X006195D01*
Y006980D01*
X005985D01*
Y006905D01*
X005985Y006905D01*
X005985Y006895D01*
X005985D01*
Y006844D01*
X005844D01*
Y006900D01*
X005841Y006912D01*
X005841Y006915D01*
X005832Y006927D01*
X005730Y007030D01*
X005717Y007038D01*
X005703Y007041D01*
X005653D01*
Y007058D01*
X005572D01*
X005187Y007442D01*
X005175Y007451D01*
X005160Y007454D01*
X002727D01*
X002713Y007451D01*
X002700Y007442D01*
X002603Y007345D01*
X002594Y007332D01*
X002591Y007318D01*
Y006493D01*
X002591Y006493D01*
X002591D01*
X002594Y006478D01*
X002603Y006465D01*
X002956Y006111D01*
Y005664D01*
X002890Y005598D01*
X002852D01*
Y005609D01*
X002802Y005659D01*
X002552D01*
X002539Y005646D01*
X002527Y005651D01*
Y005720D01*
X002539Y005725D01*
X002552Y005712D01*
X002802D01*
X002852Y005763D01*
Y005863D01*
X002802Y005913D01*
X002552D01*
X002539Y005900D01*
X002527Y005905D01*
Y005974D01*
X002539Y005979D01*
X002552Y005966D01*
X002802D01*
X002852Y006017D01*
Y006117D01*
X002802Y006167D01*
X002552D01*
X002539Y006154D01*
X002527Y006159D01*
Y007473D01*
X007473D01*
Y007074D01*
D02*
G37*
G36*
X005307Y003087D02*
X005293Y003069D01*
X005283Y003045D01*
X005280Y003019D01*
X005283Y002993D01*
X005288Y002981D01*
X005228Y002920D01*
X005219Y002908D01*
X005216Y002893D01*
Y002833D01*
X005204Y002829D01*
X005199Y002836D01*
X005178Y002852D01*
X005153Y002863D01*
X005127Y002866D01*
X005101Y002863D01*
X005076Y002852D01*
X005055Y002836D01*
X005039Y002815D01*
X005029Y002791D01*
X005026Y002765D01*
X005029Y002739D01*
X005039Y002714D01*
X005055Y002693D01*
X005065Y002686D01*
X005061Y002674D01*
X004973D01*
Y002750D01*
X004873D01*
Y002780D01*
X004973D01*
Y002856D01*
X005003D01*
X005018Y002859D01*
X005031Y002868D01*
X005031Y002868D01*
X005031Y002868D01*
X005089Y002926D01*
X005101Y002921D01*
X005127Y002918D01*
X005153Y002921D01*
X005178Y002931D01*
X005199Y002947D01*
X005215Y002968D01*
X005225Y002993D01*
X005228Y003019D01*
X005225Y003045D01*
X005215Y003069D01*
X005201Y003087D01*
X005207Y003099D01*
X005301D01*
X005307Y003087D01*
D02*
G37*
%LPC*%
G36*
X003790Y004374D02*
Y004325D01*
X003839D01*
X003839Y004327D01*
X003832Y004343D01*
X003822Y004357D01*
X003808Y004367D01*
X003792Y004374D01*
X003790Y004374D01*
D02*
G37*
G36*
X005435Y004246D02*
X005433Y004246D01*
X005417Y004240D01*
X005403Y004229D01*
X005393Y004215D01*
X005386Y004200D01*
X005386Y004197D01*
X005435D01*
Y004246D01*
D02*
G37*
G36*
X005235Y004667D02*
X005186D01*
X005186Y004665D01*
X005193Y004650D01*
X005203Y004636D01*
X005217Y004625D01*
X005233Y004619D01*
X005235Y004619D01*
Y004667D01*
D02*
G37*
G36*
X004622Y004229D02*
Y004180D01*
X004671D01*
X004671Y004182D01*
X004665Y004198D01*
X004654Y004212D01*
X004640Y004222D01*
X004625Y004229D01*
X004622Y004229D01*
D02*
G37*
G36*
X005465Y004246D02*
Y004197D01*
X005514D01*
X005514Y004200D01*
X005507Y004215D01*
X005497Y004229D01*
X005483Y004240D01*
X005467Y004246D01*
X005465Y004246D01*
D02*
G37*
G36*
X003760Y004295D02*
X003711D01*
X003711Y004293D01*
X003718Y004277D01*
X003728Y004263D01*
X003742Y004253D01*
X003758Y004246D01*
X003760Y004246D01*
Y004295D01*
D02*
G37*
G36*
Y004374D02*
X003758Y004374D01*
X003742Y004367D01*
X003728Y004357D01*
X003718Y004343D01*
X003711Y004327D01*
X003711Y004325D01*
X003760D01*
Y004374D01*
D02*
G37*
G36*
X003839Y004295D02*
X003790D01*
Y004246D01*
X003792Y004246D01*
X003808Y004253D01*
X003822Y004263D01*
X003832Y004277D01*
X003839Y004293D01*
X003839Y004295D01*
D02*
G37*
G36*
X005314Y004667D02*
X005265D01*
Y004619D01*
X005267Y004619D01*
X005283Y004625D01*
X005297Y004636D01*
X005307Y004650D01*
X005314Y004665D01*
X005314Y004667D01*
D02*
G37*
G36*
X005794Y005067D02*
X005745D01*
Y005019D01*
X005747Y005019D01*
X005763Y005025D01*
X005777Y005036D01*
X005787Y005050D01*
X005794Y005065D01*
X005794Y005067D01*
D02*
G37*
G36*
X005715D02*
X005666D01*
X005666Y005065D01*
X005673Y005050D01*
X005683Y005036D01*
X005697Y005025D01*
X005713Y005019D01*
X005715Y005019D01*
Y005067D01*
D02*
G37*
G36*
X005365Y005076D02*
X005363Y005076D01*
X005347Y005070D01*
X005333Y005059D01*
X005323Y005045D01*
X005316Y005030D01*
X005316Y005028D01*
X005365D01*
Y005076D01*
D02*
G37*
G36*
X002805Y005151D02*
X002605D01*
Y005066D01*
X002855D01*
Y005101D01*
X002805Y005151D01*
D02*
G37*
G36*
X005395Y005076D02*
Y005028D01*
X005444D01*
X005444Y005030D01*
X005437Y005045D01*
X005427Y005059D01*
X005413Y005070D01*
X005397Y005076D01*
X005395Y005076D01*
D02*
G37*
G36*
X005265Y004746D02*
Y004697D01*
X005314D01*
X005314Y004700D01*
X005307Y004715D01*
X005297Y004729D01*
X005283Y004740D01*
X005267Y004746D01*
X005265Y004746D01*
D02*
G37*
G36*
X005235D02*
X005233Y004746D01*
X005217Y004740D01*
X005203Y004729D01*
X005193Y004715D01*
X005186Y004700D01*
X005186Y004697D01*
X005235D01*
Y004746D01*
D02*
G37*
G36*
X005365Y004997D02*
X005316D01*
X005316Y004995D01*
X005323Y004980D01*
X005333Y004966D01*
X005347Y004955D01*
X005363Y004949D01*
X005365Y004949D01*
Y004997D01*
D02*
G37*
G36*
X002855Y005036D02*
X002605D01*
Y004950D01*
X002805D01*
X002855Y005001D01*
Y005036D01*
D02*
G37*
G36*
X005444Y004997D02*
X005395D01*
Y004949D01*
X005397Y004949D01*
X005413Y004955D01*
X005427Y004966D01*
X005437Y004980D01*
X005444Y004995D01*
X005444Y004997D01*
D02*
G37*
G36*
X004672Y003256D02*
X004588D01*
Y003171D01*
X004599Y003173D01*
X004624Y003183D01*
X004645Y003199D01*
X004661Y003220D01*
X004671Y003244D01*
X004672Y003256D01*
D02*
G37*
G36*
X004558D02*
X004474D01*
X004475Y003244D01*
X004485Y003220D01*
X004501Y003199D01*
X004522Y003183D01*
X004547Y003173D01*
X004558Y003171D01*
Y003256D01*
D02*
G37*
G36*
X003973Y003374D02*
X003947Y003371D01*
X003922Y003361D01*
X003901Y003345D01*
X003885Y003324D01*
X003875Y003299D01*
X003872Y003273D01*
X003875Y003247D01*
X003885Y003222D01*
X003901Y003201D01*
X003922Y003185D01*
X003947Y003175D01*
X003973Y003172D01*
X003999Y003175D01*
X004024Y003185D01*
X004045Y003201D01*
X004061Y003222D01*
X004071Y003247D01*
X004074Y003273D01*
X004071Y003299D01*
X004061Y003324D01*
X004045Y003345D01*
X004024Y003361D01*
X003999Y003371D01*
X003973Y003374D01*
D02*
G37*
G36*
X003373Y003379D02*
X003347Y003376D01*
X003322Y003366D01*
X003301Y003350D01*
X003285Y003329D01*
X003275Y003304D01*
X003272Y003278D01*
X003275Y003252D01*
X003285Y003227D01*
X003301Y003206D01*
X003322Y003190D01*
X003347Y003180D01*
X003373Y003177D01*
X003399Y003180D01*
X003424Y003190D01*
X003445Y003206D01*
X003461Y003227D01*
X003471Y003252D01*
X003474Y003278D01*
X003471Y003304D01*
X003461Y003329D01*
X003445Y003350D01*
X003424Y003366D01*
X003399Y003376D01*
X003373Y003379D01*
D02*
G37*
G36*
X004273Y003374D02*
X004247Y003371D01*
X004222Y003361D01*
X004201Y003345D01*
X004185Y003324D01*
X004175Y003299D01*
X004172Y003273D01*
X004175Y003247D01*
X004185Y003222D01*
X004201Y003201D01*
X004222Y003185D01*
X004247Y003175D01*
X004273Y003172D01*
X004299Y003175D01*
X004324Y003185D01*
X004345Y003201D01*
X004361Y003222D01*
X004371Y003247D01*
X004374Y003273D01*
X004371Y003299D01*
X004361Y003324D01*
X004345Y003345D01*
X004324Y003361D01*
X004299Y003371D01*
X004273Y003374D01*
D02*
G37*
G36*
X006541Y002750D02*
X006457D01*
Y002666D01*
X006468Y002667D01*
X006492Y002677D01*
X006513Y002693D01*
X006529Y002714D01*
X006539Y002739D01*
X006541Y002750D01*
D02*
G37*
G36*
X006426D02*
X006342D01*
X006344Y002739D01*
X006354Y002714D01*
X006370Y002693D01*
X006391Y002677D01*
X006415Y002667D01*
X006426Y002666D01*
Y002750D01*
D02*
G37*
G36*
X003473Y002870D02*
X003273D01*
Y002670D01*
X003473D01*
Y002870D01*
D02*
G37*
G36*
X003673Y003125D02*
X003647Y003122D01*
X003622Y003112D01*
X003601Y003096D01*
X003585Y003075D01*
X003575Y003050D01*
X003572Y003024D01*
X003575Y002998D01*
X003585Y002973D01*
X003601Y002952D01*
X003622Y002936D01*
X003647Y002926D01*
X003673Y002923D01*
X003699Y002926D01*
X003724Y002936D01*
X003745Y002952D01*
X003761Y002973D01*
X003771Y002998D01*
X003774Y003024D01*
X003771Y003050D01*
X003761Y003075D01*
X003745Y003096D01*
X003724Y003112D01*
X003699Y003122D01*
X003673Y003125D01*
D02*
G37*
G36*
X003373D02*
X003347Y003122D01*
X003322Y003112D01*
X003301Y003096D01*
X003285Y003075D01*
X003275Y003050D01*
X003272Y003024D01*
X003275Y002998D01*
X003285Y002973D01*
X003301Y002952D01*
X003322Y002936D01*
X003347Y002926D01*
X003373Y002923D01*
X003399Y002926D01*
X003424Y002936D01*
X003445Y002952D01*
X003461Y002973D01*
X003471Y002998D01*
X003474Y003024D01*
X003471Y003050D01*
X003461Y003075D01*
X003445Y003096D01*
X003424Y003112D01*
X003399Y003122D01*
X003373Y003125D01*
D02*
G37*
G36*
X004671Y004150D02*
X004622D01*
Y004101D01*
X004625Y004101D01*
X004640Y004108D01*
X004654Y004118D01*
X004665Y004132D01*
X004671Y004148D01*
X004671Y004150D01*
D02*
G37*
G36*
X004592D02*
X004544D01*
X004544Y004148D01*
X004550Y004132D01*
X004561Y004118D01*
X004575Y004108D01*
X004590Y004101D01*
X004592Y004101D01*
Y004150D01*
D02*
G37*
G36*
X005435Y004167D02*
X005386D01*
X005386Y004165D01*
X005393Y004150D01*
X005403Y004136D01*
X005417Y004125D01*
X005433Y004119D01*
X005435Y004119D01*
Y004167D01*
D02*
G37*
G36*
X004592Y004229D02*
X004590Y004229D01*
X004575Y004222D01*
X004561Y004212D01*
X004550Y004198D01*
X004544Y004182D01*
X004544Y004180D01*
X004592D01*
Y004229D01*
D02*
G37*
G36*
X005514Y004167D02*
X005465D01*
Y004119D01*
X005467Y004119D01*
X005483Y004125D01*
X005497Y004136D01*
X005507Y004150D01*
X005514Y004165D01*
X005514Y004167D01*
D02*
G37*
G36*
X004558Y003370D02*
X004547Y003368D01*
X004522Y003358D01*
X004501Y003342D01*
X004485Y003321D01*
X004475Y003297D01*
X004474Y003285D01*
X004558D01*
Y003370D01*
D02*
G37*
G36*
X003673Y003379D02*
X003647Y003376D01*
X003622Y003366D01*
X003601Y003350D01*
X003585Y003329D01*
X003575Y003304D01*
X003572Y003278D01*
X003575Y003252D01*
X003585Y003227D01*
X003601Y003206D01*
X003622Y003190D01*
X003647Y003180D01*
X003673Y003177D01*
X003699Y003180D01*
X003724Y003190D01*
X003745Y003206D01*
X003761Y003227D01*
X003771Y003252D01*
X003774Y003278D01*
X003771Y003304D01*
X003761Y003329D01*
X003745Y003350D01*
X003724Y003366D01*
X003699Y003376D01*
X003673Y003379D01*
D02*
G37*
G36*
X004588Y003370D02*
Y003285D01*
X004672D01*
X004671Y003297D01*
X004661Y003321D01*
X004645Y003342D01*
X004624Y003358D01*
X004599Y003368D01*
X004588Y003370D01*
D02*
G37*
G36*
X003705Y004095D02*
X003615D01*
Y004020D01*
X003705D01*
Y004095D01*
D02*
G37*
G36*
X003585D02*
X003495D01*
Y004020D01*
X003585D01*
Y004095D01*
D02*
G37*
G36*
X005715Y005146D02*
X005713Y005146D01*
X005697Y005140D01*
X005683Y005129D01*
X005673Y005115D01*
X005666Y005100D01*
X005666Y005097D01*
X005715D01*
Y005146D01*
D02*
G37*
G36*
X006407Y006449D02*
Y006365D01*
X006491D01*
X006490Y006376D01*
X006480Y006401D01*
X006464Y006422D01*
X006443Y006438D01*
X006418Y006448D01*
X006407Y006449D01*
D02*
G37*
G36*
X006377D02*
X006366Y006448D01*
X006341Y006438D01*
X006320Y006422D01*
X006304Y006401D01*
X006294Y006376D01*
X006293Y006365D01*
X006377D01*
Y006449D01*
D02*
G37*
G36*
X007398Y006712D02*
X007148D01*
Y006677D01*
X007198Y006627D01*
X007398D01*
Y006712D01*
D02*
G37*
G36*
X005413Y006868D02*
X005252D01*
Y006757D01*
X005413D01*
Y006868D01*
D02*
G37*
G36*
X007398Y006828D02*
X007198D01*
X007148Y006777D01*
Y006742D01*
X007398D01*
Y006828D01*
D02*
G37*
G36*
X004610Y006158D02*
X004535D01*
Y006067D01*
X004610D01*
Y006158D01*
D02*
G37*
G36*
X006646Y006151D02*
X006620Y006148D01*
X006595Y006138D01*
X006574Y006122D01*
X006558Y006101D01*
X006548Y006076D01*
X006545Y006050D01*
X006548Y006024D01*
X006558Y005999D01*
X006574Y005978D01*
X006595Y005962D01*
X006620Y005952D01*
X006646Y005949D01*
X006672Y005952D01*
X006697Y005962D01*
X006718Y005978D01*
X006734Y005999D01*
X006744Y006024D01*
X006747Y006050D01*
X006744Y006076D01*
X006734Y006101D01*
X006718Y006122D01*
X006697Y006138D01*
X006672Y006148D01*
X006646Y006151D01*
D02*
G37*
G36*
X004610Y006278D02*
X004535D01*
Y006188D01*
X004610D01*
Y006278D01*
D02*
G37*
G36*
X006491Y006335D02*
X006407D01*
Y006251D01*
X006418Y006252D01*
X006443Y006262D01*
X006464Y006278D01*
X006480Y006299D01*
X006490Y006324D01*
X006491Y006335D01*
D02*
G37*
G36*
X006377D02*
X006293D01*
X006294Y006324D01*
X006304Y006299D01*
X006320Y006278D01*
X006341Y006262D01*
X006366Y006252D01*
X006377Y006251D01*
Y006335D01*
D02*
G37*
G36*
X003062Y007213D02*
X003051Y007212D01*
X003027Y007202D01*
X003006Y007186D01*
X002990Y007165D01*
X002980Y007140D01*
X002978Y007129D01*
X003062D01*
Y007213D01*
D02*
G37*
G36*
X005056Y007205D02*
X004972D01*
Y007121D01*
X004983Y007122D01*
X005007Y007132D01*
X005028Y007148D01*
X005044Y007169D01*
X005054Y007194D01*
X005056Y007205D01*
D02*
G37*
G36*
X003092Y007213D02*
Y007129D01*
X003177D01*
X003175Y007140D01*
X003165Y007165D01*
X003149Y007186D01*
X003128Y007202D01*
X003104Y007212D01*
X003092Y007213D01*
D02*
G37*
G36*
X004972Y007319D02*
Y007235D01*
X005056D01*
X005054Y007246D01*
X005044Y007271D01*
X005028Y007292D01*
X005007Y007308D01*
X004983Y007318D01*
X004972Y007319D01*
D02*
G37*
G36*
X004942D02*
X004930Y007318D01*
X004906Y007308D01*
X004885Y007292D01*
X004869Y007271D01*
X004859Y007246D01*
X004857Y007235D01*
X004942D01*
Y007319D01*
D02*
G37*
G36*
X006195Y007085D02*
X006105D01*
Y007010D01*
X006195D01*
Y007085D01*
D02*
G37*
G36*
X006075D02*
X005985D01*
Y007010D01*
X006075D01*
Y007085D01*
D02*
G37*
G36*
X003062Y007099D02*
X002978D01*
X002980Y007088D01*
X002990Y007063D01*
X003006Y007042D01*
X003027Y007026D01*
X003051Y007016D01*
X003062Y007015D01*
Y007099D01*
D02*
G37*
G36*
X004942Y007205D02*
X004857D01*
X004859Y007194D01*
X004869Y007169D01*
X004885Y007148D01*
X004906Y007132D01*
X004930Y007122D01*
X004942Y007121D01*
Y007205D01*
D02*
G37*
G36*
X003177Y007099D02*
X003092D01*
Y007015D01*
X003104Y007016D01*
X003128Y007026D01*
X003149Y007042D01*
X003165Y007063D01*
X003175Y007088D01*
X003177Y007099D01*
D02*
G37*
G36*
X006392Y006151D02*
X006366Y006148D01*
X006341Y006138D01*
X006320Y006122D01*
X006304Y006101D01*
X006294Y006076D01*
X006291Y006050D01*
X006294Y006024D01*
X006304Y005999D01*
X006320Y005978D01*
X006341Y005962D01*
X006366Y005952D01*
X006392Y005949D01*
X006418Y005952D01*
X006443Y005962D01*
X006464Y005978D01*
X006480Y005999D01*
X006490Y006024D01*
X006493Y006050D01*
X006490Y006076D01*
X006480Y006101D01*
X006464Y006122D01*
X006443Y006138D01*
X006418Y006148D01*
X006392Y006151D01*
D02*
G37*
G36*
X004612Y005289D02*
X004610Y005289D01*
X004595Y005282D01*
X004581Y005272D01*
X004570Y005258D01*
X004564Y005242D01*
X004564Y005240D01*
X004612D01*
Y005289D01*
D02*
G37*
G36*
X003431Y005288D02*
X003383D01*
Y005239D01*
X003385Y005239D01*
X003400Y005245D01*
X003414Y005256D01*
X003425Y005270D01*
X003431Y005285D01*
X003431Y005288D01*
D02*
G37*
G36*
X004642Y005289D02*
Y005240D01*
X004691D01*
X004691Y005242D01*
X004685Y005258D01*
X004674Y005272D01*
X004660Y005282D01*
X004645Y005289D01*
X004642Y005289D01*
D02*
G37*
G36*
X003353Y005366D02*
X003350Y005366D01*
X003335Y005360D01*
X003321Y005349D01*
X003310Y005335D01*
X003304Y005320D01*
X003304Y005317D01*
X003353D01*
Y005366D01*
D02*
G37*
G36*
X003767Y005340D02*
X003734D01*
Y005312D01*
X003737Y005294D01*
X003748Y005278D01*
X003764Y005267D01*
X003767Y005267D01*
Y005340D01*
D02*
G37*
G36*
X004612Y005210D02*
X004564D01*
X004564Y005208D01*
X004570Y005192D01*
X004581Y005178D01*
X004595Y005168D01*
X004610Y005161D01*
X004612Y005161D01*
Y005210D01*
D02*
G37*
G36*
X005745Y005146D02*
Y005097D01*
X005794D01*
X005794Y005100D01*
X005787Y005115D01*
X005777Y005129D01*
X005763Y005140D01*
X005747Y005146D01*
X005745Y005146D01*
D02*
G37*
G36*
X004691Y005210D02*
X004642D01*
Y005161D01*
X004645Y005161D01*
X004660Y005168D01*
X004674Y005178D01*
X004685Y005192D01*
X004691Y005208D01*
X004691Y005210D01*
D02*
G37*
G36*
X003353Y005288D02*
X003304D01*
X003304Y005285D01*
X003310Y005270D01*
X003321Y005256D01*
X003335Y005245D01*
X003350Y005239D01*
X003353Y005239D01*
Y005288D01*
D02*
G37*
G36*
X002852Y005290D02*
X002602D01*
Y005204D01*
X002802D01*
X002852Y005255D01*
Y005290D01*
D02*
G37*
G36*
X005060Y005890D02*
X005011D01*
X005011Y005888D01*
X005018Y005872D01*
X005028Y005858D01*
X005042Y005848D01*
X005058Y005841D01*
X005060Y005841D01*
Y005890D01*
D02*
G37*
G36*
X006392Y005851D02*
X006366Y005848D01*
X006341Y005838D01*
X006320Y005822D01*
X006304Y005801D01*
X006294Y005776D01*
X006291Y005750D01*
X006294Y005724D01*
X006304Y005699D01*
X006320Y005678D01*
X006341Y005662D01*
X006366Y005652D01*
X006392Y005649D01*
X006418Y005652D01*
X006443Y005662D01*
X006464Y005678D01*
X006480Y005699D01*
X006490Y005724D01*
X006493Y005750D01*
X006490Y005776D01*
X006480Y005801D01*
X006464Y005822D01*
X006443Y005838D01*
X006418Y005848D01*
X006392Y005851D01*
D02*
G37*
G36*
X005139Y005890D02*
X005090D01*
Y005841D01*
X005092Y005841D01*
X005108Y005848D01*
X005122Y005858D01*
X005132Y005872D01*
X005139Y005888D01*
X005139Y005890D01*
D02*
G37*
G36*
X005090Y005969D02*
Y005920D01*
X005139D01*
X005139Y005922D01*
X005132Y005938D01*
X005122Y005952D01*
X005108Y005962D01*
X005092Y005969D01*
X005090Y005969D01*
D02*
G37*
G36*
X005060D02*
X005058Y005969D01*
X005042Y005962D01*
X005028Y005952D01*
X005018Y005938D01*
X005011Y005922D01*
X005011Y005920D01*
X005060D01*
Y005969D01*
D02*
G37*
G36*
X002802Y005405D02*
X002602D01*
Y005320D01*
X002852D01*
Y005355D01*
X002802Y005405D01*
D02*
G37*
G36*
X003383Y005366D02*
Y005317D01*
X003431D01*
X003431Y005320D01*
X003425Y005335D01*
X003414Y005349D01*
X003400Y005360D01*
X003385Y005366D01*
X003383Y005366D01*
D02*
G37*
G36*
X006392Y005551D02*
X006366Y005548D01*
X006341Y005538D01*
X006320Y005522D01*
X006304Y005501D01*
X006294Y005476D01*
X006291Y005450D01*
X006294Y005424D01*
X006304Y005399D01*
X006320Y005378D01*
X006341Y005362D01*
X006366Y005352D01*
X006392Y005349D01*
X006418Y005352D01*
X006443Y005362D01*
X006464Y005378D01*
X006480Y005399D01*
X006490Y005424D01*
X006493Y005450D01*
X006490Y005476D01*
X006480Y005501D01*
X006464Y005522D01*
X006443Y005538D01*
X006418Y005548D01*
X006392Y005551D01*
D02*
G37*
G36*
X003767Y005443D02*
X003764Y005443D01*
X003748Y005432D01*
X003737Y005416D01*
X003734Y005397D01*
Y005370D01*
X003767D01*
Y005443D01*
D02*
G37*
G36*
X006646Y005551D02*
X006620Y005548D01*
X006595Y005538D01*
X006574Y005522D01*
X006558Y005501D01*
X006548Y005476D01*
X006545Y005450D01*
X006548Y005424D01*
X006558Y005399D01*
X006574Y005378D01*
X006595Y005362D01*
X006620Y005352D01*
X006646Y005349D01*
X006672Y005352D01*
X006697Y005362D01*
X006718Y005378D01*
X006734Y005399D01*
X006744Y005424D01*
X006747Y005450D01*
X006744Y005476D01*
X006734Y005501D01*
X006718Y005522D01*
X006697Y005538D01*
X006672Y005548D01*
X006646Y005551D01*
D02*
G37*
%LPD*%
D10*
X003440Y004595D02*
D03*
X003250D02*
D03*
X004520Y006172D02*
D03*
X004330D02*
D03*
D11*
X004000Y003815D02*
D03*
Y004005D02*
D03*
X003600Y003815D02*
D03*
Y004005D02*
D03*
X003260Y003815D02*
D03*
Y004005D02*
D03*
X003720Y006600D02*
D03*
Y006790D02*
D03*
X004160Y006600D02*
D03*
Y006790D02*
D03*
X006090Y006805D02*
D03*
Y006995D02*
D03*
D14*
X003978Y004980D02*
Y005065D01*
X003938Y005105D02*
X003978Y005065D01*
X003692Y005105D02*
X003938D01*
X003440Y004853D02*
X003692Y005105D01*
X003783Y004980D02*
X003847D01*
X003783Y004560D02*
Y004980D01*
X003912Y004403D02*
Y004980D01*
X003978Y004555D02*
Y004980D01*
X007120Y005583D02*
X007245Y005457D01*
X007413D01*
X007136Y004289D02*
X007413D01*
X007071Y003781D02*
X007413D01*
X002587Y005559D02*
X002906D01*
X003995Y005238D02*
X004262Y005505D01*
X003865Y005238D02*
X003995D01*
X003847Y005255D02*
X003865Y005238D01*
X003720Y006053D02*
X003912Y005860D01*
X006568Y003278D02*
X007071Y003781D01*
X006568Y003019D02*
Y003278D01*
X004088Y003815D02*
X004465D01*
X004000D02*
X004088D01*
X006439Y002890D02*
X006568Y003019D01*
X006200Y002890D02*
X006439D01*
X005067Y003212D02*
X005930D01*
X004465Y003815D02*
X005067Y003212D01*
X005956Y003378D02*
X006315Y003019D01*
X005155Y003378D02*
X005956D01*
X003978Y004555D02*
X005155Y003378D01*
X005381Y002765D02*
X005510Y002894D01*
Y003092D01*
X005465Y003138D02*
X005510Y003092D01*
X004705Y003138D02*
X005465D01*
X004584Y003017D02*
X004705Y003138D01*
X004573Y003017D02*
X004584D01*
X005003Y002895D02*
X005127Y003019D01*
X003798Y002895D02*
X005003D01*
X003673Y002770D02*
X003798Y002895D01*
X005255Y002893D02*
X005381Y003019D01*
X005255Y002705D02*
Y002893D01*
X005185Y002635D02*
X005255Y002705D01*
X004175Y002635D02*
X005185D01*
X004045Y002765D02*
X004175Y002635D01*
X003973Y002765D02*
X004045D01*
X004088Y003815D02*
X004165Y003892D01*
Y004150D01*
X003912Y004403D02*
X004165Y004150D01*
X003440Y004595D02*
Y004853D01*
X003422Y003815D02*
X003600D01*
X003260D02*
X003422D01*
Y004200D02*
X003783Y004560D01*
X003422Y003815D02*
Y004200D01*
X003012Y003747D02*
Y005395D01*
X003015Y004595D02*
X003250D01*
X003015Y004005D02*
X003260D01*
X003922D02*
X004000D01*
X003795Y003878D02*
X003922Y004005D01*
X003795Y003722D02*
Y003878D01*
X003710Y003638D02*
X003795Y003722D01*
X003123Y003638D02*
X003710D01*
X003012Y003747D02*
X003123Y003638D01*
X002906Y005501D02*
X003012Y005395D01*
X002906Y005501D02*
Y005559D01*
X002698Y007115D02*
X002824Y007241D01*
X002698Y006722D02*
Y007115D01*
Y006722D02*
X002820Y006600D01*
X003720D01*
X003077Y006860D02*
X003148Y006790D01*
X003720D01*
X002824Y006934D02*
Y006987D01*
X002906Y005559D02*
X002995Y005647D01*
Y006128D01*
X002630Y006493D02*
X002995Y006128D01*
X002630Y006493D02*
Y007318D01*
X002727Y007415D01*
X005160D01*
X005572Y007003D01*
X003847Y005255D02*
Y005380D01*
X003978Y006418D02*
X004160Y006600D01*
X003720Y006790D02*
X004160D01*
X004515D02*
X004728Y007003D01*
X005333D01*
X005805Y006805D02*
X006090D01*
X005580D02*
X005805D01*
X005572Y007003D02*
X005703D01*
X005805Y006900D01*
Y006805D02*
Y006900D01*
X006090Y006805D02*
X006191D01*
X006646Y006350D01*
X006900Y006035D02*
Y006050D01*
X006765Y005900D02*
X006900Y006035D01*
X006765Y005647D02*
Y005900D01*
Y005647D02*
X006825Y005588D01*
X007035D01*
X006900Y006350D02*
X007120Y006130D01*
Y005583D02*
Y006130D01*
X007035Y004683D02*
Y005588D01*
X006900Y004525D02*
Y005450D01*
Y004525D02*
X007136Y004289D01*
X003720Y006053D02*
Y006325D01*
Y006600D01*
X006155Y002935D02*
X006200Y002890D01*
X006155Y002935D02*
Y002990D01*
X006092Y003053D02*
X006155Y002990D01*
X006090Y003053D02*
X006092D01*
X005930Y003212D02*
X006090Y003053D01*
X004262Y005505D02*
X004330Y005572D01*
X004330Y006172D02*
Y006788D01*
X004160Y006790D02*
X004515D01*
X004330Y005572D02*
Y006172D01*
X004703Y007028D02*
Y007220D01*
Y007028D02*
X004728Y007003D01*
D15*
X003978Y005355D02*
Y006418D01*
X003912Y005355D02*
Y005860D01*
X007035Y004683D02*
X007175Y004543D01*
X007413D01*
D16*
X007323Y005457D02*
D03*
Y005711D02*
D03*
Y004797D02*
D03*
Y005203D02*
D03*
Y006727D02*
D03*
Y006981D02*
D03*
Y005965D02*
D03*
Y006219D02*
D03*
Y003527D02*
D03*
Y003019D02*
D03*
Y003273D02*
D03*
Y004289D02*
D03*
Y004543D02*
D03*
Y003781D02*
D03*
Y004035D02*
D03*
Y006473D02*
D03*
X002677Y005813D02*
D03*
Y006067D02*
D03*
Y005305D02*
D03*
Y005559D02*
D03*
Y004797D02*
D03*
X002680Y005051D02*
D03*
X002677Y004035D02*
D03*
Y004289D02*
D03*
Y003781D02*
D03*
Y003527D02*
D03*
Y003019D02*
D03*
Y003273D02*
D03*
D17*
X006568Y003019D02*
D03*
X006315D02*
D03*
X006442Y002765D02*
D03*
X006188D02*
D03*
X005381Y003019D02*
D03*
Y002765D02*
D03*
X005127Y003019D02*
D03*
Y002765D02*
D03*
X004873Y003019D02*
D03*
X003373Y003024D02*
D03*
Y003278D02*
D03*
X006392Y006050D02*
D03*
X006646D02*
D03*
X006392Y005450D02*
D03*
X006646D02*
D03*
X003973Y003273D02*
D03*
Y003019D02*
D03*
X006392Y005750D02*
D03*
X006646D02*
D03*
X004273Y003273D02*
D03*
Y003019D02*
D03*
X003673Y003278D02*
D03*
Y003024D02*
D03*
X003077Y006860D02*
D03*
X002824Y006987D02*
D03*
X003077Y007114D02*
D03*
X002824Y007241D02*
D03*
X006392Y006350D02*
D03*
X006646D02*
D03*
X004573Y003271D02*
D03*
Y003017D02*
D03*
X004956Y007220D02*
D03*
D18*
X006047Y002945D02*
D03*
X002898Y006720D02*
D03*
D19*
X004873Y002765D02*
D03*
X006900Y006050D02*
D03*
Y005450D02*
D03*
Y005750D02*
D03*
Y006350D02*
D03*
X004703Y007220D02*
D03*
D20*
X003373Y002770D02*
D03*
X003973Y002765D02*
D03*
X004273D02*
D03*
X003673Y002770D02*
D03*
X004573Y002762D02*
D03*
D21*
X003367Y005303D02*
D03*
X003775Y004310D02*
D03*
X003720Y006325D02*
D03*
X003978Y006005D02*
D03*
X004262Y005505D02*
D03*
X004608Y004165D02*
D03*
X005450Y004183D02*
D03*
X005730Y005083D02*
D03*
X005075Y005905D02*
D03*
X004628Y005225D02*
D03*
X005380Y005012D02*
D03*
X005250Y004683D02*
D03*
D22*
X005572Y006907D02*
D03*
Y007003D02*
D03*
Y006812D02*
D03*
X005333Y007003D02*
D03*
Y006812D02*
D03*
D23*
X003783Y005355D02*
D03*
X003847D02*
D03*
X003912D02*
D03*
X003978D02*
D03*
X003783Y004980D02*
D03*
X003847D02*
D03*
X003912D02*
D03*
X003978D02*
D03*
M02*
