%FSAX42Y42*%
%MOMM*%
G71*
G01*
G75*
G04 Layer_Color=2752767*
%ADD10R,1.30X1.60*%
%ADD11R,1.60X1.30*%
%ADD12R,0.80X0.33*%
%ADD13R,0.33X0.80*%
%ADD14C,0.25*%
%ADD15C,0.24*%
G04:AMPARAMS|DCode=16|XSize=3mm|YSize=1.5mm|CornerRadius=0mm|HoleSize=0mm|Usage=FLASHONLY|Rotation=0.000|XOffset=0mm|YOffset=0mm|HoleType=Round|Shape=Octagon|*
%AMOCTAGOND16*
4,1,8,1.50,-0.38,1.50,0.38,1.13,0.75,-1.13,0.75,-1.50,0.38,-1.50,-0.38,-1.13,-0.75,1.13,-0.75,1.50,-0.38,0.0*
%
%ADD16OCTAGOND16*%

%ADD17C,1.50*%
%ADD18C,1.30*%
%ADD19R,1.50X1.50*%
%ADD20R,1.50X1.50*%
%ADD21C,0.80*%
%ADD22R,1.10X0.60*%
%ADD23O,0.45X1.30*%
%ADD24C,0.20*%
%ADD25C,0.10*%
%ADD26C,0.08*%
%ADD27C,0.05*%
%ADD28R,1.50X1.80*%
%ADD29R,1.80X1.50*%
%ADD30R,1.10X0.63*%
%ADD31R,0.63X1.10*%
G04:AMPARAMS|DCode=32|XSize=3.2mm|YSize=1.7mm|CornerRadius=0mm|HoleSize=0mm|Usage=FLASHONLY|Rotation=0.000|XOffset=0mm|YOffset=0mm|HoleType=Round|Shape=Octagon|*
%AMOCTAGOND32*
4,1,8,1.60,-0.42,1.60,0.42,1.18,0.85,-1.18,0.85,-1.60,0.42,-1.60,-0.42,-1.18,-0.85,1.18,-0.85,1.60,-0.42,0.0*
%
%ADD32OCTAGOND32*%

%ADD33C,1.70*%
%ADD34R,1.70X1.70*%
%ADD35R,1.70X1.70*%
%ADD36C,1.00*%
%ADD37R,1.30X0.80*%
%ADD38O,0.65X1.50*%
%ADD39C,0.25*%
%ADD40C,0.60*%
%ADD41C,0.03*%
%ADD42C,0.03*%
%ADD43C,0.13*%
D43*
X007413Y005457D02*
X007455D01*
X007434D01*
Y005584D01*
X007413Y005563D01*
Y005711D02*
X007455D01*
X007434D01*
Y005838D01*
X007413Y005817D01*
Y004797D02*
X007455D01*
X007434D01*
Y004924D01*
X007413Y004903D01*
Y005203D02*
X007455D01*
X007434D01*
Y005330D01*
X007413Y005309D01*
Y006727D02*
X007455D01*
X007434D01*
Y006854D01*
X007413Y006833D01*
Y006981D02*
X007455D01*
X007434D01*
Y007108D01*
X007413Y007087D01*
Y005965D02*
X007455D01*
X007434D01*
Y006092D01*
X007413Y006071D01*
Y006219D02*
X007455D01*
X007434D01*
Y006346D01*
X007413Y006325D01*
Y003527D02*
X007455D01*
X007434D01*
Y003654D01*
X007413Y003633D01*
Y003019D02*
X007455D01*
X007434D01*
Y003146D01*
X007413Y003125D01*
Y003273D02*
X007455D01*
X007434D01*
Y003400D01*
X007413Y003379D01*
Y004289D02*
X007455D01*
X007434D01*
Y004416D01*
X007413Y004395D01*
Y004543D02*
X007455D01*
X007434D01*
Y004670D01*
X007413Y004649D01*
Y003781D02*
X007455D01*
X007434D01*
Y003908D01*
X007413Y003887D01*
Y004035D02*
X007455D01*
X007434D01*
Y004162D01*
X007413Y004141D01*
Y006473D02*
X007455D01*
X007434D01*
Y006600D01*
X007413Y006579D01*
X002587Y005813D02*
X002629D01*
X002608D01*
Y005940D01*
X002587Y005919D01*
Y006067D02*
X002629D01*
X002608D01*
Y006194D01*
X002587Y006173D01*
Y005305D02*
X002629D01*
X002608D01*
Y005432D01*
X002587Y005411D01*
Y005559D02*
X002629D01*
X002608D01*
Y005686D01*
X002587Y005665D01*
Y004797D02*
X002629D01*
X002608D01*
Y004924D01*
X002587Y004903D01*
X002590Y005051D02*
X002632D01*
X002611D01*
Y005178D01*
X002590Y005157D01*
X002587Y004035D02*
X002629D01*
X002608D01*
Y004162D01*
X002587Y004141D01*
Y004289D02*
X002629D01*
X002608D01*
Y004416D01*
X002587Y004395D01*
Y003781D02*
X002629D01*
X002608D01*
Y003908D01*
X002587Y003887D01*
Y003527D02*
X002629D01*
X002608D01*
Y003654D01*
X002587Y003633D01*
Y003019D02*
X002629D01*
X002608D01*
Y003146D01*
X002587Y003125D01*
Y003273D02*
X002629D01*
X002608D01*
Y003400D01*
X002587Y003379D01*
X006568Y003125D02*
X006590Y003146D01*
X006632D01*
X006653Y003125D01*
Y003040D01*
X006632Y003019D01*
X006590D01*
X006568Y003040D01*
Y003125D01*
X006695Y003019D02*
Y003040D01*
X006717D01*
Y003019D01*
X006695D01*
X006801Y003125D02*
X006822Y003146D01*
X006865D01*
X006886Y003125D01*
Y003104D01*
X006865Y003082D01*
X006886Y003061D01*
Y003040D01*
X006865Y003019D01*
X006822D01*
X006801Y003040D01*
Y003061D01*
X006822Y003082D01*
X006801Y003104D01*
Y003125D01*
X006822Y003082D02*
X006865D01*
X006315Y003125D02*
X006336Y003146D01*
X006378D01*
X006399Y003125D01*
Y003040D01*
X006378Y003019D01*
X006336D01*
X006315Y003040D01*
Y003125D01*
X006441Y003019D02*
Y003040D01*
X006463D01*
Y003019D01*
X006441D01*
X006547Y003125D02*
X006568Y003146D01*
X006611D01*
X006632Y003125D01*
Y003104D01*
X006611Y003082D01*
X006632Y003061D01*
Y003040D01*
X006611Y003019D01*
X006568D01*
X006547Y003040D01*
Y003061D01*
X006568Y003082D01*
X006547Y003104D01*
Y003125D01*
X006568Y003082D02*
X006611D01*
X006442Y002871D02*
X006463Y002892D01*
X006505D01*
X006526Y002871D01*
Y002786D01*
X006505Y002765D01*
X006463D01*
X006442Y002786D01*
Y002871D01*
X006568Y002765D02*
Y002786D01*
X006590D01*
Y002765D01*
X006568D01*
X006674Y002871D02*
X006695Y002892D01*
X006738D01*
X006759Y002871D01*
Y002850D01*
X006738Y002828D01*
X006759Y002807D01*
Y002786D01*
X006738Y002765D01*
X006695D01*
X006674Y002786D01*
Y002807D01*
X006695Y002828D01*
X006674Y002850D01*
Y002871D01*
X006695Y002828D02*
X006738D01*
X006188Y002871D02*
X006209Y002892D01*
X006251D01*
X006272Y002871D01*
Y002786D01*
X006251Y002765D01*
X006209D01*
X006188Y002786D01*
Y002871D01*
X006314Y002765D02*
Y002786D01*
X006336D01*
Y002765D01*
X006314D01*
X006420Y002871D02*
X006441Y002892D01*
X006484D01*
X006505Y002871D01*
Y002850D01*
X006484Y002828D01*
X006505Y002807D01*
Y002786D01*
X006484Y002765D01*
X006441D01*
X006420Y002786D01*
Y002807D01*
X006441Y002828D01*
X006420Y002850D01*
Y002871D01*
X006441Y002828D02*
X006484D01*
X006047Y002945D02*
X006090D01*
X006069D01*
Y003072D01*
X006047Y003051D01*
X006153Y002945D02*
Y002966D01*
X006174D01*
Y002945D01*
X006153D01*
X006344Y003072D02*
X006259D01*
Y003008D01*
X006301Y003030D01*
X006323D01*
X006344Y003008D01*
Y002966D01*
X006323Y002945D01*
X006280D01*
X006259Y002966D01*
X005381Y003125D02*
X005402Y003146D01*
X005444D01*
X005466Y003125D01*
Y003040D01*
X005444Y003019D01*
X005402D01*
X005381Y003040D01*
Y003125D01*
X005508Y003019D02*
Y003040D01*
X005529D01*
Y003019D01*
X005508D01*
X005614Y003040D02*
X005635Y003019D01*
X005677D01*
X005698Y003040D01*
Y003125D01*
X005677Y003146D01*
X005635D01*
X005614Y003125D01*
Y003103D01*
X005635Y003082D01*
X005698D01*
X005381Y002871D02*
X005402Y002892D01*
X005444D01*
X005466Y002871D01*
Y002786D01*
X005444Y002765D01*
X005402D01*
X005381Y002786D01*
Y002871D01*
X005508Y002765D02*
Y002786D01*
X005529D01*
Y002765D01*
X005508D01*
X005614Y002786D02*
X005635Y002765D01*
X005677D01*
X005698Y002786D01*
Y002871D01*
X005677Y002892D01*
X005635D01*
X005614Y002871D01*
Y002849D01*
X005635Y002828D01*
X005698D01*
X005127Y003125D02*
X005148Y003146D01*
X005190D01*
X005212Y003125D01*
Y003040D01*
X005190Y003019D01*
X005148D01*
X005127Y003040D01*
Y003125D01*
X005254Y003019D02*
Y003040D01*
X005275D01*
Y003019D01*
X005254D01*
X005360Y003040D02*
X005381Y003019D01*
X005423D01*
X005444Y003040D01*
Y003125D01*
X005423Y003146D01*
X005381D01*
X005360Y003125D01*
Y003103D01*
X005381Y003082D01*
X005444D01*
X005127Y002871D02*
X005148Y002892D01*
X005190D01*
X005212Y002871D01*
Y002786D01*
X005190Y002765D01*
X005148D01*
X005127Y002786D01*
Y002871D01*
X005254Y002765D02*
Y002786D01*
X005275D01*
Y002765D01*
X005254D01*
X005360Y002786D02*
X005381Y002765D01*
X005423D01*
X005444Y002786D01*
Y002871D01*
X005423Y002892D01*
X005381D01*
X005360Y002871D01*
Y002849D01*
X005381Y002828D01*
X005444D01*
X004873Y003125D02*
X004894Y003146D01*
X004936D01*
X004958Y003125D01*
Y003040D01*
X004936Y003019D01*
X004894D01*
X004873Y003040D01*
Y003125D01*
X005000Y003019D02*
Y003040D01*
X005021D01*
Y003019D01*
X005000D01*
X005106Y003040D02*
X005127Y003019D01*
X005169D01*
X005190Y003040D01*
Y003125D01*
X005169Y003146D01*
X005127D01*
X005106Y003125D01*
Y003103D01*
X005127Y003082D01*
X005190D01*
X004873Y002871D02*
X004894Y002892D01*
X004936D01*
X004958Y002871D01*
Y002786D01*
X004936Y002765D01*
X004894D01*
X004873Y002786D01*
Y002871D01*
X005000Y002765D02*
Y002786D01*
X005021D01*
Y002765D01*
X005000D01*
X005106Y002786D02*
X005127Y002765D01*
X005169D01*
X005190Y002786D01*
Y002871D01*
X005169Y002892D01*
X005127D01*
X005106Y002871D01*
Y002849D01*
X005127Y002828D01*
X005190D01*
X003373Y003130D02*
X003394Y003151D01*
X003436D01*
X003458Y003130D01*
Y003045D01*
X003436Y003024D01*
X003394D01*
X003373Y003045D01*
Y003130D01*
X003500Y003024D02*
Y003045D01*
X003521D01*
Y003024D01*
X003500D01*
X003606Y003045D02*
X003627Y003024D01*
X003669D01*
X003690Y003045D01*
Y003130D01*
X003669Y003151D01*
X003627D01*
X003606Y003130D01*
Y003109D01*
X003627Y003087D01*
X003690D01*
X003373Y003384D02*
X003394Y003405D01*
X003436D01*
X003458Y003384D01*
Y003299D01*
X003436Y003278D01*
X003394D01*
X003373Y003299D01*
Y003384D01*
X003500Y003278D02*
Y003299D01*
X003521D01*
Y003278D01*
X003500D01*
X003606Y003299D02*
X003627Y003278D01*
X003669D01*
X003690Y003299D01*
Y003384D01*
X003669Y003405D01*
X003627D01*
X003606Y003384D01*
Y003363D01*
X003627Y003341D01*
X003690D01*
X003373Y002876D02*
X003394Y002897D01*
X003436D01*
X003458Y002876D01*
Y002791D01*
X003436Y002770D01*
X003394D01*
X003373Y002791D01*
Y002876D01*
X003500Y002770D02*
Y002791D01*
X003521D01*
Y002770D01*
X003500D01*
X003606Y002791D02*
X003627Y002770D01*
X003669D01*
X003690Y002791D01*
Y002876D01*
X003669Y002897D01*
X003627D01*
X003606Y002876D01*
Y002855D01*
X003627Y002833D01*
X003690D01*
X006392Y006156D02*
X006413Y006177D01*
X006455D01*
X006477Y006156D01*
Y006071D01*
X006455Y006050D01*
X006413D01*
X006392Y006071D01*
Y006156D01*
X006519Y006050D02*
Y006071D01*
X006540D01*
Y006050D01*
X006519D01*
X006625Y006071D02*
X006646Y006050D01*
X006688D01*
X006709Y006071D01*
Y006156D01*
X006688Y006177D01*
X006646D01*
X006625Y006156D01*
Y006135D01*
X006646Y006113D01*
X006709D01*
X006646Y006156D02*
X006667Y006177D01*
X006709D01*
X006731Y006156D01*
Y006071D01*
X006709Y006050D01*
X006667D01*
X006646Y006071D01*
Y006156D01*
X006773Y006050D02*
Y006071D01*
X006794D01*
Y006050D01*
X006773D01*
X006879Y006071D02*
X006900Y006050D01*
X006942D01*
X006963Y006071D01*
Y006156D01*
X006942Y006177D01*
X006900D01*
X006879Y006156D01*
Y006135D01*
X006900Y006113D01*
X006963D01*
X006900Y006156D02*
X006921Y006177D01*
X006963D01*
X006985Y006156D01*
Y006071D01*
X006963Y006050D01*
X006921D01*
X006900Y006071D01*
Y006156D01*
X007027Y006050D02*
Y006071D01*
X007048D01*
Y006050D01*
X007027D01*
X007133Y006071D02*
X007154Y006050D01*
X007196D01*
X007217Y006071D01*
Y006156D01*
X007196Y006177D01*
X007154D01*
X007133Y006156D01*
Y006135D01*
X007154Y006113D01*
X007217D01*
X006392Y005556D02*
X006413Y005577D01*
X006455D01*
X006477Y005556D01*
Y005471D01*
X006455Y005450D01*
X006413D01*
X006392Y005471D01*
Y005556D01*
X006519Y005450D02*
Y005471D01*
X006540D01*
Y005450D01*
X006519D01*
X006625Y005471D02*
X006646Y005450D01*
X006688D01*
X006709Y005471D01*
Y005556D01*
X006688Y005577D01*
X006646D01*
X006625Y005556D01*
Y005535D01*
X006646Y005513D01*
X006709D01*
X006646Y005556D02*
X006667Y005577D01*
X006709D01*
X006731Y005556D01*
Y005471D01*
X006709Y005450D01*
X006667D01*
X006646Y005471D01*
Y005556D01*
X006773Y005450D02*
Y005471D01*
X006794D01*
Y005450D01*
X006773D01*
X006879Y005471D02*
X006900Y005450D01*
X006942D01*
X006963Y005471D01*
Y005556D01*
X006942Y005577D01*
X006900D01*
X006879Y005556D01*
Y005535D01*
X006900Y005513D01*
X006963D01*
X006900Y005556D02*
X006921Y005577D01*
X006963D01*
X006985Y005556D01*
Y005471D01*
X006963Y005450D01*
X006921D01*
X006900Y005471D01*
Y005556D01*
X007027Y005450D02*
Y005471D01*
X007048D01*
Y005450D01*
X007027D01*
X007133Y005471D02*
X007154Y005450D01*
X007196D01*
X007217Y005471D01*
Y005556D01*
X007196Y005577D01*
X007154D01*
X007133Y005556D01*
Y005535D01*
X007154Y005513D01*
X007217D01*
X003973Y003379D02*
X003994Y003400D01*
X004036D01*
X004058Y003379D01*
Y003294D01*
X004036Y003273D01*
X003994D01*
X003973Y003294D01*
Y003379D01*
X004100Y003273D02*
Y003294D01*
X004121D01*
Y003273D01*
X004100D01*
X004206Y003294D02*
X004227Y003273D01*
X004269D01*
X004290Y003294D01*
Y003379D01*
X004269Y003400D01*
X004227D01*
X004206Y003379D01*
Y003358D01*
X004227Y003336D01*
X004290D01*
X003973Y003125D02*
X003994Y003146D01*
X004036D01*
X004058Y003125D01*
Y003040D01*
X004036Y003019D01*
X003994D01*
X003973Y003040D01*
Y003125D01*
X004100Y003019D02*
Y003040D01*
X004121D01*
Y003019D01*
X004100D01*
X004206Y003040D02*
X004227Y003019D01*
X004269D01*
X004290Y003040D01*
Y003125D01*
X004269Y003146D01*
X004227D01*
X004206Y003125D01*
Y003104D01*
X004227Y003082D01*
X004290D01*
X003973Y002871D02*
X003994Y002892D01*
X004036D01*
X004058Y002871D01*
Y002786D01*
X004036Y002765D01*
X003994D01*
X003973Y002786D01*
Y002871D01*
X004100Y002765D02*
Y002786D01*
X004121D01*
Y002765D01*
X004100D01*
X004206Y002786D02*
X004227Y002765D01*
X004269D01*
X004290Y002786D01*
Y002871D01*
X004269Y002892D01*
X004227D01*
X004206Y002871D01*
Y002850D01*
X004227Y002828D01*
X004290D01*
X006392Y005856D02*
X006413Y005877D01*
X006455D01*
X006477Y005856D01*
Y005771D01*
X006455Y005750D01*
X006413D01*
X006392Y005771D01*
Y005856D01*
X006519Y005750D02*
Y005771D01*
X006540D01*
Y005750D01*
X006519D01*
X006625Y005771D02*
X006646Y005750D01*
X006688D01*
X006709Y005771D01*
Y005856D01*
X006688Y005877D01*
X006646D01*
X006625Y005856D01*
Y005835D01*
X006646Y005813D01*
X006709D01*
X006646Y005856D02*
X006667Y005877D01*
X006709D01*
X006731Y005856D01*
Y005771D01*
X006709Y005750D01*
X006667D01*
X006646Y005771D01*
Y005856D01*
X006773Y005750D02*
Y005771D01*
X006794D01*
Y005750D01*
X006773D01*
X006879Y005771D02*
X006900Y005750D01*
X006942D01*
X006963Y005771D01*
Y005856D01*
X006942Y005877D01*
X006900D01*
X006879Y005856D01*
Y005835D01*
X006900Y005813D01*
X006963D01*
X006900Y005856D02*
X006921Y005877D01*
X006963D01*
X006985Y005856D01*
Y005771D01*
X006963Y005750D01*
X006921D01*
X006900Y005771D01*
Y005856D01*
X007027Y005750D02*
Y005771D01*
X007048D01*
Y005750D01*
X007027D01*
X007133Y005771D02*
X007154Y005750D01*
X007196D01*
X007217Y005771D01*
Y005856D01*
X007196Y005877D01*
X007154D01*
X007133Y005856D01*
Y005835D01*
X007154Y005813D01*
X007217D01*
X004273Y003379D02*
X004294Y003400D01*
X004336D01*
X004358Y003379D01*
Y003294D01*
X004336Y003273D01*
X004294D01*
X004273Y003294D01*
Y003379D01*
X004400Y003273D02*
Y003294D01*
X004421D01*
Y003273D01*
X004400D01*
X004506Y003294D02*
X004527Y003273D01*
X004569D01*
X004590Y003294D01*
Y003379D01*
X004569Y003400D01*
X004527D01*
X004506Y003379D01*
Y003358D01*
X004527Y003336D01*
X004590D01*
X004273Y003125D02*
X004294Y003146D01*
X004336D01*
X004358Y003125D01*
Y003040D01*
X004336Y003019D01*
X004294D01*
X004273Y003040D01*
Y003125D01*
X004400Y003019D02*
Y003040D01*
X004421D01*
Y003019D01*
X004400D01*
X004506Y003040D02*
X004527Y003019D01*
X004569D01*
X004590Y003040D01*
Y003125D01*
X004569Y003146D01*
X004527D01*
X004506Y003125D01*
Y003104D01*
X004527Y003082D01*
X004590D01*
X004273Y002871D02*
X004294Y002892D01*
X004336D01*
X004358Y002871D01*
Y002786D01*
X004336Y002765D01*
X004294D01*
X004273Y002786D01*
Y002871D01*
X004400Y002765D02*
Y002786D01*
X004421D01*
Y002765D01*
X004400D01*
X004506Y002786D02*
X004527Y002765D01*
X004569D01*
X004590Y002786D01*
Y002871D01*
X004569Y002892D01*
X004527D01*
X004506Y002871D01*
Y002850D01*
X004527Y002828D01*
X004590D01*
X003673Y003384D02*
X003694Y003405D01*
X003736D01*
X003758Y003384D01*
Y003299D01*
X003736Y003278D01*
X003694D01*
X003673Y003299D01*
Y003384D01*
X003800Y003278D02*
Y003299D01*
X003821D01*
Y003278D01*
X003800D01*
X003906Y003299D02*
X003927Y003278D01*
X003969D01*
X003990Y003299D01*
Y003384D01*
X003969Y003405D01*
X003927D01*
X003906Y003384D01*
Y003363D01*
X003927Y003341D01*
X003990D01*
X003673Y003130D02*
X003694Y003151D01*
X003736D01*
X003758Y003130D01*
Y003045D01*
X003736Y003024D01*
X003694D01*
X003673Y003045D01*
Y003130D01*
X003800Y003024D02*
Y003045D01*
X003821D01*
Y003024D01*
X003800D01*
X003906Y003045D02*
X003927Y003024D01*
X003969D01*
X003990Y003045D01*
Y003130D01*
X003969Y003151D01*
X003927D01*
X003906Y003130D01*
Y003109D01*
X003927Y003087D01*
X003990D01*
X003673Y002876D02*
X003694Y002897D01*
X003736D01*
X003758Y002876D01*
Y002791D01*
X003736Y002770D01*
X003694D01*
X003673Y002791D01*
Y002876D01*
X003800Y002770D02*
Y002791D01*
X003821D01*
Y002770D01*
X003800D01*
X003906Y002791D02*
X003927Y002770D01*
X003969D01*
X003990Y002791D01*
Y002876D01*
X003969Y002897D01*
X003927D01*
X003906Y002876D01*
Y002855D01*
X003927Y002833D01*
X003990D01*
X002898Y006720D02*
X002940D01*
X002919D01*
Y006847D01*
X002898Y006826D01*
X003003Y006720D02*
Y006741D01*
X003024D01*
Y006720D01*
X003003D01*
X003194Y006847D02*
X003109D01*
Y006783D01*
X003151Y006805D01*
X003173D01*
X003194Y006783D01*
Y006741D01*
X003173Y006720D01*
X003130D01*
X003109Y006741D01*
X003077Y006966D02*
X003099Y006987D01*
X003141D01*
X003162Y006966D01*
Y006881D01*
X003141Y006860D01*
X003099D01*
X003077Y006881D01*
Y006966D01*
X003204Y006860D02*
Y006881D01*
X003226D01*
Y006860D01*
X003204D01*
X003310Y006966D02*
X003331Y006987D01*
X003374D01*
X003395Y006966D01*
Y006945D01*
X003374Y006923D01*
X003395Y006902D01*
Y006881D01*
X003374Y006860D01*
X003331D01*
X003310Y006881D01*
Y006902D01*
X003331Y006923D01*
X003310Y006945D01*
Y006966D01*
X003331Y006923D02*
X003374D01*
X002824Y007093D02*
X002845Y007114D01*
X002887D01*
X002908Y007093D01*
Y007008D01*
X002887Y006987D01*
X002845D01*
X002824Y007008D01*
Y007093D01*
X002950Y006987D02*
Y007008D01*
X002972D01*
Y006987D01*
X002950D01*
X003056Y007093D02*
X003077Y007114D01*
X003120D01*
X003141Y007093D01*
Y007072D01*
X003120Y007050D01*
X003141Y007029D01*
Y007008D01*
X003120Y006987D01*
X003077D01*
X003056Y007008D01*
Y007029D01*
X003077Y007050D01*
X003056Y007072D01*
Y007093D01*
X003077Y007050D02*
X003120D01*
X003077Y007220D02*
X003099Y007241D01*
X003141D01*
X003162Y007220D01*
Y007135D01*
X003141Y007114D01*
X003099D01*
X003077Y007135D01*
Y007220D01*
X003204Y007114D02*
Y007135D01*
X003226D01*
Y007114D01*
X003204D01*
X003310Y007220D02*
X003331Y007241D01*
X003374D01*
X003395Y007220D01*
Y007199D01*
X003374Y007177D01*
X003395Y007156D01*
Y007135D01*
X003374Y007114D01*
X003331D01*
X003310Y007135D01*
Y007156D01*
X003331Y007177D01*
X003310Y007199D01*
Y007220D01*
X003331Y007177D02*
X003374D01*
X002824Y007347D02*
X002845Y007368D01*
X002887D01*
X002908Y007347D01*
Y007262D01*
X002887Y007241D01*
X002845D01*
X002824Y007262D01*
Y007347D01*
X002950Y007241D02*
Y007262D01*
X002972D01*
Y007241D01*
X002950D01*
X003056Y007347D02*
X003077Y007368D01*
X003120D01*
X003141Y007347D01*
Y007326D01*
X003120Y007304D01*
X003141Y007283D01*
Y007262D01*
X003120Y007241D01*
X003077D01*
X003056Y007262D01*
Y007283D01*
X003077Y007304D01*
X003056Y007326D01*
Y007347D01*
X003077Y007304D02*
X003120D01*
X006392Y006456D02*
X006413Y006477D01*
X006455D01*
X006477Y006456D01*
Y006371D01*
X006455Y006350D01*
X006413D01*
X006392Y006371D01*
Y006456D01*
X006519Y006350D02*
Y006371D01*
X006540D01*
Y006350D01*
X006519D01*
X006625Y006371D02*
X006646Y006350D01*
X006688D01*
X006709Y006371D01*
Y006456D01*
X006688Y006477D01*
X006646D01*
X006625Y006456D01*
Y006435D01*
X006646Y006413D01*
X006709D01*
X006646Y006456D02*
X006667Y006477D01*
X006709D01*
X006731Y006456D01*
Y006371D01*
X006709Y006350D01*
X006667D01*
X006646Y006371D01*
Y006456D01*
X006773Y006350D02*
Y006371D01*
X006794D01*
Y006350D01*
X006773D01*
X006879Y006371D02*
X006900Y006350D01*
X006942D01*
X006963Y006371D01*
Y006456D01*
X006942Y006477D01*
X006900D01*
X006879Y006456D01*
Y006435D01*
X006900Y006413D01*
X006963D01*
X006900Y006456D02*
X006921Y006477D01*
X006963D01*
X006985Y006456D01*
Y006371D01*
X006963Y006350D01*
X006921D01*
X006900Y006371D01*
Y006456D01*
X007027Y006350D02*
Y006371D01*
X007048D01*
Y006350D01*
X007027D01*
X007133Y006371D02*
X007154Y006350D01*
X007196D01*
X007217Y006371D01*
Y006456D01*
X007196Y006477D01*
X007154D01*
X007133Y006456D01*
Y006435D01*
X007154Y006413D01*
X007217D01*
X004573Y003376D02*
X004594Y003397D01*
X004636D01*
X004658Y003376D01*
Y003292D01*
X004636Y003271D01*
X004594D01*
X004573Y003292D01*
Y003376D01*
X004700Y003271D02*
Y003292D01*
X004721D01*
Y003271D01*
X004700D01*
X004806Y003292D02*
X004827Y003271D01*
X004869D01*
X004890Y003292D01*
Y003376D01*
X004869Y003397D01*
X004827D01*
X004806Y003376D01*
Y003355D01*
X004827Y003334D01*
X004890D01*
X004573Y003122D02*
X004594Y003143D01*
X004636D01*
X004658Y003122D01*
Y003038D01*
X004636Y003017D01*
X004594D01*
X004573Y003038D01*
Y003122D01*
X004700Y003017D02*
Y003038D01*
X004721D01*
Y003017D01*
X004700D01*
X004806Y003038D02*
X004827Y003017D01*
X004869D01*
X004890Y003038D01*
Y003122D01*
X004869Y003143D01*
X004827D01*
X004806Y003122D01*
Y003101D01*
X004827Y003080D01*
X004890D01*
X004573Y002868D02*
X004594Y002889D01*
X004636D01*
X004658Y002868D01*
Y002784D01*
X004636Y002762D01*
X004594D01*
X004573Y002784D01*
Y002868D01*
X004700Y002762D02*
Y002784D01*
X004721D01*
Y002762D01*
X004700D01*
X004806Y002784D02*
X004827Y002762D01*
X004869D01*
X004890Y002784D01*
Y002868D01*
X004869Y002889D01*
X004827D01*
X004806Y002868D01*
Y002847D01*
X004827Y002826D01*
X004890D01*
X004703Y007326D02*
X004724Y007347D01*
X004766D01*
X004787Y007326D01*
Y007241D01*
X004766Y007220D01*
X004724D01*
X004703Y007241D01*
Y007326D01*
X004829Y007220D02*
Y007241D01*
X004851D01*
Y007220D01*
X004829D01*
X004935Y007241D02*
X004956Y007220D01*
X004999D01*
X005020Y007241D01*
Y007326D01*
X004999Y007347D01*
X004956D01*
X004935Y007326D01*
Y007305D01*
X004956Y007283D01*
X005020D01*
X004956Y007326D02*
X004978Y007347D01*
X005020D01*
X005041Y007326D01*
Y007241D01*
X005020Y007220D01*
X004978D01*
X004956Y007241D01*
Y007326D01*
X005083Y007220D02*
Y007241D01*
X005105D01*
Y007220D01*
X005083D01*
X005189Y007241D02*
X005210Y007220D01*
X005253D01*
X005274Y007241D01*
Y007326D01*
X005253Y007347D01*
X005210D01*
X005189Y007326D01*
Y007305D01*
X005210Y007283D01*
X005274D01*
X003367Y005408D02*
X003389Y005429D01*
X003431D01*
X003452Y005408D01*
Y005324D01*
X003431Y005303D01*
X003389D01*
X003367Y005324D01*
Y005408D01*
X003494Y005303D02*
Y005324D01*
X003516D01*
Y005303D01*
X003494D01*
X003664D02*
Y005429D01*
X003600Y005366D01*
X003685D01*
X003775Y004416D02*
X003796Y004437D01*
X003838D01*
X003860Y004416D01*
Y004331D01*
X003838Y004310D01*
X003796D01*
X003775Y004331D01*
Y004416D01*
X003902Y004310D02*
Y004331D01*
X003923D01*
Y004310D01*
X003902D01*
X004071D02*
Y004437D01*
X004008Y004373D01*
X004092D01*
X003720Y006431D02*
X003741Y006452D01*
X003783D01*
X003805Y006431D01*
Y006346D01*
X003783Y006325D01*
X003741D01*
X003720Y006346D01*
Y006431D01*
X003847Y006325D02*
Y006346D01*
X003868D01*
Y006325D01*
X003847D01*
X004016D02*
Y006452D01*
X003953Y006388D01*
X004037D01*
X003978Y006111D02*
X003999Y006132D01*
X004041D01*
X004062Y006111D01*
Y006026D01*
X004041Y006005D01*
X003999D01*
X003978Y006026D01*
Y006111D01*
X004104Y006005D02*
Y006026D01*
X004126D01*
Y006005D01*
X004104D01*
X004274D02*
Y006132D01*
X004210Y006068D01*
X004295D01*
X004262Y005611D02*
X004284Y005632D01*
X004326D01*
X004347Y005611D01*
Y005526D01*
X004326Y005505D01*
X004284D01*
X004262Y005526D01*
Y005611D01*
X004389Y005505D02*
Y005526D01*
X004411D01*
Y005505D01*
X004389D01*
X004559D02*
Y005632D01*
X004495Y005568D01*
X004580D01*
X004608Y004271D02*
X004629Y004292D01*
X004671D01*
X004692Y004271D01*
Y004186D01*
X004671Y004165D01*
X004629D01*
X004608Y004186D01*
Y004271D01*
X004734Y004165D02*
Y004186D01*
X004756D01*
Y004165D01*
X004734D01*
X004904D02*
Y004292D01*
X004840Y004228D01*
X004925D01*
X005450Y004288D02*
X005471Y004309D01*
X005513D01*
X005535Y004288D01*
Y004204D01*
X005513Y004183D01*
X005471D01*
X005450Y004204D01*
Y004288D01*
X005577Y004183D02*
Y004204D01*
X005598D01*
Y004183D01*
X005577D01*
X005746D02*
Y004309D01*
X005683Y004246D01*
X005767D01*
X005730Y005188D02*
X005751Y005209D01*
X005793D01*
X005815Y005188D01*
Y005104D01*
X005793Y005083D01*
X005751D01*
X005730Y005104D01*
Y005188D01*
X005857Y005083D02*
Y005104D01*
X005878D01*
Y005083D01*
X005857D01*
X006026D02*
Y005209D01*
X005963Y005146D01*
X006047D01*
X005075Y006011D02*
X005096Y006032D01*
X005138D01*
X005160Y006011D01*
Y005926D01*
X005138Y005905D01*
X005096D01*
X005075Y005926D01*
Y006011D01*
X005202Y005905D02*
Y005926D01*
X005223D01*
Y005905D01*
X005202D01*
X005371D02*
Y006032D01*
X005308Y005968D01*
X005392D01*
X004628Y005331D02*
X004649Y005352D01*
X004691D01*
X004712Y005331D01*
Y005246D01*
X004691Y005225D01*
X004649D01*
X004628Y005246D01*
Y005331D01*
X004754Y005225D02*
Y005246D01*
X004776D01*
Y005225D01*
X004754D01*
X004924D02*
Y005352D01*
X004860Y005288D01*
X004945D01*
X005380Y005118D02*
X005401Y005139D01*
X005443D01*
X005465Y005118D01*
Y005034D01*
X005443Y005012D01*
X005401D01*
X005380Y005034D01*
Y005118D01*
X005507Y005012D02*
Y005034D01*
X005528D01*
Y005012D01*
X005507D01*
X005676D02*
Y005139D01*
X005613Y005076D01*
X005697D01*
X005250Y004788D02*
X005271Y004809D01*
X005313D01*
X005335Y004788D01*
Y004704D01*
X005313Y004683D01*
X005271D01*
X005250Y004704D01*
Y004788D01*
X005377Y004683D02*
Y004704D01*
X005398D01*
Y004683D01*
X005377D01*
X005546D02*
Y004809D01*
X005483Y004746D01*
X005567D01*
M02*
