%FSAX42Y42*%
%MOMM*%
G71*
G01*
G75*
G04 Layer_Color=32896*
%ADD10R,0.80X0.33*%
%ADD11R,0.33X0.80*%
%ADD12R,1.30X1.60*%
%ADD13R,1.60X1.30*%
%ADD14C,0.24*%
%ADD15C,0.25*%
G04:AMPARAMS|DCode=16|XSize=3mm|YSize=1.5mm|CornerRadius=0mm|HoleSize=0mm|Usage=FLASHONLY|Rotation=0.000|XOffset=0mm|YOffset=0mm|HoleType=Round|Shape=Octagon|*
%AMOCTAGOND16*
4,1,8,1.50,-0.38,1.50,0.38,1.13,0.75,-1.13,0.75,-1.50,0.38,-1.50,-0.38,-1.13,-0.75,1.13,-0.75,1.50,-0.38,0.0*
%
%ADD16OCTAGOND16*%

%ADD17C,1.50*%
%ADD18C,1.30*%
%ADD19R,1.50X1.50*%
%ADD20R,1.50X1.50*%
%ADD21C,0.80*%
%ADD22C,1.27*%
%ADD23O,0.48X1.65*%
%ADD24R,1.10X0.60*%
%ADD25C,0.10*%
%ADD26C,0.20*%
%ADD27C,0.08*%
%ADD28C,0.30*%
%ADD29R,1.10X0.63*%
%ADD30R,0.63X1.10*%
%ADD31R,1.50X1.80*%
%ADD32R,1.80X1.50*%
G04:AMPARAMS|DCode=33|XSize=3.2mm|YSize=1.7mm|CornerRadius=0mm|HoleSize=0mm|Usage=FLASHONLY|Rotation=0.000|XOffset=0mm|YOffset=0mm|HoleType=Round|Shape=Octagon|*
%AMOCTAGOND33*
4,1,8,1.60,-0.42,1.60,0.42,1.18,0.85,-1.18,0.85,-1.60,0.42,-1.60,-0.42,-1.18,-0.85,1.18,-0.85,1.60,-0.42,0.0*
%
%ADD33OCTAGOND33*%

%ADD34C,1.70*%
%ADD35R,1.70X1.70*%
%ADD36R,1.70X1.70*%
%ADD37C,1.00*%
%ADD38C,1.47*%
%ADD39O,0.68X1.85*%
%ADD40R,1.30X0.80*%
%ADD41C,0.25*%
D15*
X006349Y006962D02*
X006363Y006975D01*
X006389D01*
X006403Y006962D01*
Y006908D01*
X006389Y006895D01*
X006363D01*
X006349Y006908D01*
X006323Y006975D02*
X006269D01*
Y006962D01*
X006323Y006908D01*
Y006895D01*
X003617Y004202D02*
X003630Y004215D01*
X003657D01*
X003670Y004202D01*
Y004148D01*
X003657Y004135D01*
X003630D01*
X003617Y004148D01*
X003537Y004215D02*
X003590D01*
Y004175D01*
X003563Y004188D01*
X003550D01*
X003537Y004175D01*
Y004148D01*
X003550Y004135D01*
X003577D01*
X003590Y004148D01*
X003762Y006915D02*
Y006995D01*
X003723D01*
X003709Y006982D01*
Y006955D01*
X003723Y006942D01*
X003762D01*
X003736D02*
X003709Y006915D01*
X003683D02*
X003656D01*
X003669D01*
Y006995D01*
X003683Y006982D01*
X004225Y006915D02*
Y006995D01*
X004185D01*
X004172Y006982D01*
Y006955D01*
X004185Y006942D01*
X004225D01*
X004198D02*
X004172Y006915D01*
X004092D02*
X004145D01*
X004092Y006968D01*
Y006982D01*
X004105Y006995D01*
X004132D01*
X004145Y006982D01*
X004060Y004135D02*
Y004215D01*
X004020D01*
X004007Y004202D01*
Y004175D01*
X004020Y004162D01*
X004060D01*
X004033D02*
X004007Y004135D01*
X003980Y004202D02*
X003967Y004215D01*
X003940D01*
X003927Y004202D01*
Y004188D01*
X003940Y004175D01*
X003953D01*
X003940D01*
X003927Y004162D01*
Y004148D01*
X003940Y004135D01*
X003967D01*
X003980Y004148D01*
X003408Y004745D02*
Y004825D01*
X003368D01*
X003354Y004812D01*
Y004785D01*
X003368Y004772D01*
X003408D01*
X003381D02*
X003354Y004745D01*
X003288D02*
Y004825D01*
X003328Y004785D01*
X003274D01*
X003325Y004135D02*
Y004215D01*
X003285D01*
X003272Y004202D01*
Y004175D01*
X003285Y004162D01*
X003325D01*
X003298D02*
X003272Y004135D01*
X003192Y004215D02*
X003245D01*
Y004175D01*
X003218Y004188D01*
X003205D01*
X003192Y004175D01*
Y004148D01*
X003205Y004135D01*
X003232D01*
X003245Y004148D01*
X004427Y006374D02*
X004440Y006387D01*
X004467D01*
X004480Y006374D01*
Y006321D01*
X004467Y006308D01*
X004440D01*
X004427Y006321D01*
X004347Y006387D02*
X004373Y006374D01*
X004400Y006347D01*
Y006321D01*
X004387Y006308D01*
X004360D01*
X004347Y006321D01*
Y006334D01*
X004360Y006347D01*
X004400D01*
X007425Y002654D02*
X007392Y002588D01*
X007358Y002654D01*
X007225Y002588D02*
X007192D01*
X007208D01*
Y002687D01*
X007225Y002671D01*
X007142Y002637D02*
X007075D01*
X006875Y002588D02*
X006942D01*
X006875Y002654D01*
Y002671D01*
X006892Y002687D01*
X006925D01*
X006942Y002671D01*
X006842D02*
X006825Y002687D01*
X006792D01*
X006775Y002671D01*
Y002604D01*
X006792Y002588D01*
X006825D01*
X006842Y002604D01*
Y002671D01*
X006742Y002588D02*
X006709D01*
X006725D01*
Y002687D01*
X006742Y002671D01*
X006659D02*
X006642Y002687D01*
X006609D01*
X006592Y002671D01*
Y002654D01*
X006609Y002637D01*
X006625D01*
X006609D01*
X006592Y002621D01*
Y002604D01*
X006609Y002588D01*
X006642D01*
X006659Y002604D01*
X004425Y007168D02*
Y007287D01*
X004365D01*
X004345Y007267D01*
Y007227D01*
X004365Y007207D01*
X004425D01*
X004305Y007168D02*
Y007187D01*
X004285D01*
Y007168D01*
X004305D01*
X004085Y007287D02*
Y007168D01*
X004025D01*
X004005Y007187D01*
Y007207D01*
X004025Y007227D01*
X004085D01*
X004025D01*
X004005Y007247D01*
Y007267D01*
X004025Y007287D01*
X004085D01*
X003945Y007168D02*
X003905D01*
X003885Y007187D01*
Y007227D01*
X003905Y007247D01*
X003945D01*
X003965Y007227D01*
Y007187D01*
X003945Y007168D01*
X003845Y007287D02*
Y007168D01*
X003785D01*
X003765Y007187D01*
Y007207D01*
Y007227D01*
X003785Y007247D01*
X003845D01*
X003725Y007287D02*
Y007168D01*
X003665D01*
X003645Y007187D01*
Y007207D01*
Y007227D01*
X003665Y007247D01*
X003725D01*
X003605Y007168D02*
X003565D01*
X003585D01*
Y007247D01*
X003605D01*
X003505Y007168D02*
Y007247D01*
X003445D01*
X003425Y007227D01*
Y007168D01*
X003385D02*
Y007287D01*
Y007207D02*
X003325Y007247D01*
X003385Y007207D02*
X003325Y007168D01*
D26*
X003725Y005078D02*
Y005258D01*
Y005078D02*
X004035D01*
X003725Y005258D02*
X004035D01*
Y005078D02*
Y005258D01*
X005428Y007057D02*
X005478D01*
Y006757D02*
Y007057D01*
X005428Y006757D02*
Y007057D01*
Y006757D02*
X005478D01*
D28*
X007412Y007378D02*
Y007305D01*
Y007342D01*
X007394Y007360D01*
X007376Y007378D01*
X007358D01*
X007284Y007305D02*
X007248D01*
X007229Y007323D01*
Y007360D01*
X007248Y007378D01*
X007284D01*
X007303Y007360D01*
Y007323D01*
X007284Y007305D01*
X007193Y007415D02*
Y007305D01*
X007138D01*
X007119Y007323D01*
Y007342D01*
Y007360D01*
X007138Y007378D01*
X007193D01*
X007064Y007305D02*
X007028D01*
X007009Y007323D01*
Y007360D01*
X007028Y007378D01*
X007064D01*
X007083Y007360D01*
Y007323D01*
X007064Y007305D01*
X006973Y007268D02*
Y007378D01*
X006918D01*
X006899Y007360D01*
Y007323D01*
X006918Y007305D01*
X006973D01*
X006844D02*
X006808D01*
X006789Y007323D01*
Y007360D01*
X006808Y007378D01*
X006844D01*
X006863Y007360D01*
Y007323D01*
X006844Y007305D01*
X006753D02*
X006716D01*
X006734D01*
Y007415D01*
X006753D01*
X006661Y007378D02*
Y007323D01*
X006643Y007305D01*
X006588D01*
Y007287D01*
X006606Y007268D01*
X006624D01*
X006588Y007305D02*
Y007378D01*
X006551Y007305D02*
Y007323D01*
X006533D01*
Y007305D01*
X006551D01*
X006404D02*
X006441D01*
X006459Y007323D01*
Y007360D01*
X006441Y007378D01*
X006404D01*
X006386Y007360D01*
Y007342D01*
X006459D01*
X006350Y007268D02*
Y007378D01*
X006295D01*
X006276Y007360D01*
Y007323D01*
X006295Y007305D01*
X006350D01*
X006221D02*
Y007397D01*
Y007360D01*
X006240D01*
X006203D01*
X006221D01*
Y007397D01*
X006203Y007415D01*
X006148Y007305D02*
X006111D01*
X006130D01*
Y007415D01*
X006148D01*
X006056Y007305D02*
Y007323D01*
X006038D01*
Y007305D01*
X006056D01*
X005891Y007378D02*
X005946D01*
X005965Y007360D01*
Y007323D01*
X005946Y007305D01*
X005891D01*
X005855Y007415D02*
Y007305D01*
Y007360D01*
X005836Y007378D01*
X005800D01*
X005781Y007360D01*
Y007305D01*
D41*
X003715Y005380D02*
G03*
X003715Y005380I-000012J000000D01*
G01*
X005585Y007088D02*
G03*
X005585Y007088I-000012J000000D01*
G01*
M02*
