%FSAX42Y42*%
%MOMM*%
G71*
G01*
G75*
G04 Layer_Color=65535*
%ADD10R,1.30X1.60*%
%ADD11R,1.60X1.30*%
%ADD12R,0.80X0.33*%
%ADD13R,0.33X0.80*%
%ADD14C,0.25*%
%ADD15C,0.24*%
G04:AMPARAMS|DCode=16|XSize=3mm|YSize=1.5mm|CornerRadius=0mm|HoleSize=0mm|Usage=FLASHONLY|Rotation=0.000|XOffset=0mm|YOffset=0mm|HoleType=Round|Shape=Octagon|*
%AMOCTAGOND16*
4,1,8,1.50,-0.38,1.50,0.38,1.13,0.75,-1.13,0.75,-1.50,0.38,-1.50,-0.38,-1.13,-0.75,1.13,-0.75,1.50,-0.38,0.0*
%
%ADD16OCTAGOND16*%

%ADD17C,1.50*%
%ADD18C,1.30*%
%ADD19R,1.50X1.50*%
%ADD20R,1.50X1.50*%
%ADD21C,0.80*%
%ADD22R,1.10X0.60*%
%ADD23O,0.45X1.30*%
%ADD24C,0.20*%
%ADD25C,0.10*%
%ADD26C,0.08*%
%ADD27C,0.05*%
G36*
X004994Y004646D02*
X005011Y004622D01*
X005001D01*
X004992Y004637D01*
X004990Y004640D01*
X004977Y004622D01*
X004967D01*
X004984Y004646D01*
X004969Y004669D01*
X004978D01*
X004986Y004658D01*
X004986Y004658D01*
X004986Y004657D01*
X004986Y004657D01*
X004987Y004656D01*
X004988Y004654D01*
X004989Y004653D01*
X004989Y004653D01*
X004989Y004653D01*
X004990Y004654D01*
X004990Y004654D01*
X004991Y004655D01*
X004991Y004656D01*
X004992Y004658D01*
X005000Y004669D01*
X005010D01*
X004994Y004646D01*
D02*
G37*
G36*
X004625Y004992D02*
Y004992D01*
X004625Y004991D01*
X004625Y004991D01*
X004624Y004990D01*
X004624Y004990D01*
X004624Y004989D01*
X004623Y004988D01*
X004623Y004986D01*
X004622Y004984D01*
X004621Y004982D01*
X004621Y004982D01*
X004620Y004981D01*
X004620Y004981D01*
X004620Y004981D01*
X004620Y004980D01*
X004619Y004979D01*
X004618Y004978D01*
X004618Y004977D01*
X004617Y004976D01*
X004616Y004976D01*
X004616Y004975D01*
X004615Y004975D01*
X004615Y004975D01*
X004614Y004975D01*
X004613Y004974D01*
X004612Y004974D01*
X004611Y004974D01*
X004609Y004974D01*
X004609D01*
X004608Y004974D01*
X004608D01*
X004607Y004974D01*
X004606Y004974D01*
X004604Y004975D01*
X004603Y004982D01*
X004603D01*
X004604Y004982D01*
X004604Y004982D01*
X004605Y004982D01*
X004606Y004981D01*
X004608Y004981D01*
X004608D01*
X004609Y004981D01*
X004609D01*
X004611Y004982D01*
X004611Y004982D01*
X004612Y004982D01*
X004612D01*
X004612Y004982D01*
X004612Y004982D01*
X004613Y004983D01*
X004614Y004984D01*
X004615Y004985D01*
Y004985D01*
X004615Y004985D01*
X004615Y004985D01*
X004615Y004986D01*
X004615Y004987D01*
X004616Y004988D01*
X004616Y004989D01*
X004617Y004990D01*
X004617Y004991D01*
X004617Y004991D01*
X004617Y004992D01*
X004618Y004992D01*
X004600Y005039D01*
X004608D01*
X004618Y005012D01*
Y005012D01*
X004618Y005012D01*
X004618Y005012D01*
X004618Y005011D01*
X004619Y005010D01*
X004619Y005009D01*
X004620Y005007D01*
X004620Y005005D01*
X004621Y005004D01*
X004621Y005001D01*
Y005002D01*
X004622Y005002D01*
Y005002D01*
X004622Y005002D01*
X004622Y005003D01*
X004622Y005005D01*
X004623Y005006D01*
X004623Y005008D01*
X004624Y005010D01*
X004625Y005012D01*
X004635Y005039D01*
X004642D01*
X004625Y004992D01*
D02*
G37*
D14*
X004781Y005222D02*
G03*
X004781Y005222I-000006J000000D01*
G01*
X003400Y003500D02*
X003347D01*
X003320Y003527D01*
X003347Y003553D01*
X003400D01*
X003360D01*
Y003500D01*
X003320Y003580D02*
X003387D01*
X003400Y003593D01*
Y003620D01*
X003387Y003633D01*
X003320D01*
Y003660D02*
X003400Y003713D01*
X003320D02*
X003400Y003660D01*
Y003740D02*
Y003767D01*
Y003753D01*
X003320D01*
X003333Y003740D01*
X005433Y004634D02*
X005420Y004647D01*
X005393D01*
X005380Y004634D01*
Y004581D01*
X005393Y004567D01*
X005420D01*
X005433Y004581D01*
X005460Y004567D02*
X005487D01*
X005473D01*
Y004647D01*
X005460Y004634D01*
X005548Y005067D02*
X005535Y005080D01*
X005508D01*
X005495Y005067D01*
Y005013D01*
X005508Y005000D01*
X005535D01*
X005548Y005013D01*
X005628Y005000D02*
X005575D01*
X005628Y005053D01*
Y005067D01*
X005615Y005080D01*
X005588D01*
X005575Y005067D01*
X005278Y005679D02*
X005265Y005692D01*
X005238D01*
X005225Y005679D01*
Y005626D01*
X005238Y005612D01*
X005265D01*
X005278Y005626D01*
X005305Y005679D02*
X005318Y005692D01*
X005345D01*
X005358Y005679D01*
Y005666D01*
X005345Y005652D01*
X005332D01*
X005345D01*
X005358Y005639D01*
Y005626D01*
X005345Y005612D01*
X005318D01*
X005305Y005626D01*
X004388Y004442D02*
X004375Y004455D01*
X004348D01*
X004335Y004442D01*
Y004388D01*
X004348Y004375D01*
X004375D01*
X004388Y004388D01*
X004455Y004375D02*
Y004455D01*
X004415Y004415D01*
X004468D01*
X005892Y006400D02*
X005825D01*
Y006300D01*
X005892D01*
X005825Y006350D02*
X005858D01*
X005992Y006383D02*
X005975Y006400D01*
X005942D01*
X005925Y006383D01*
Y006367D01*
X005942Y006350D01*
X005975D01*
X005992Y006333D01*
Y006317D01*
X005975Y006300D01*
X005942D01*
X005925Y006317D01*
X006092Y006383D02*
X006075Y006400D01*
X006042D01*
X006025Y006383D01*
Y006317D01*
X006042Y006300D01*
X006075D01*
X006092Y006317D01*
X006125Y006300D02*
X006158D01*
X006142D01*
Y006400D01*
X006125Y006383D01*
X005892Y005800D02*
X005825D01*
Y005700D01*
X005892D01*
X005825Y005750D02*
X005858D01*
X005992Y005783D02*
X005975Y005800D01*
X005942D01*
X005925Y005783D01*
Y005767D01*
X005942Y005750D01*
X005975D01*
X005992Y005733D01*
Y005717D01*
X005975Y005700D01*
X005942D01*
X005925Y005717D01*
X006092Y005783D02*
X006075Y005800D01*
X006042D01*
X006025Y005783D01*
Y005717D01*
X006042Y005700D01*
X006075D01*
X006092Y005717D01*
X006192Y005700D02*
X006125D01*
X006192Y005767D01*
Y005783D01*
X006175Y005800D01*
X006142D01*
X006125Y005783D01*
X005892Y005500D02*
X005825D01*
Y005400D01*
X005892D01*
X005825Y005450D02*
X005858D01*
X005992Y005483D02*
X005975Y005500D01*
X005942D01*
X005925Y005483D01*
Y005467D01*
X005942Y005450D01*
X005975D01*
X005992Y005433D01*
Y005417D01*
X005975Y005400D01*
X005942D01*
X005925Y005417D01*
X006092Y005483D02*
X006075Y005500D01*
X006042D01*
X006025Y005483D01*
Y005417D01*
X006042Y005400D01*
X006075D01*
X006092Y005417D01*
X006125Y005483D02*
X006142Y005500D01*
X006175D01*
X006192Y005483D01*
Y005467D01*
X006175Y005450D01*
X006158D01*
X006175D01*
X006192Y005433D01*
Y005417D01*
X006175Y005400D01*
X006142D01*
X006125Y005417D01*
X005892Y006100D02*
X005825D01*
Y006000D01*
X005892D01*
X005825Y006050D02*
X005858D01*
X005992Y006083D02*
X005975Y006100D01*
X005942D01*
X005925Y006083D01*
Y006067D01*
X005942Y006050D01*
X005975D01*
X005992Y006033D01*
Y006017D01*
X005975Y006000D01*
X005942D01*
X005925Y006017D01*
X006092Y006083D02*
X006075Y006100D01*
X006042D01*
X006025Y006083D01*
Y006017D01*
X006042Y006000D01*
X006075D01*
X006092Y006017D01*
X006175Y006000D02*
Y006100D01*
X006125Y006050D01*
X006192D01*
X004000Y003500D02*
X003920D01*
Y003540D01*
X003933Y003553D01*
X003960D01*
X003973Y003540D01*
Y003500D01*
X003920Y003580D02*
Y003607D01*
Y003593D01*
X004000D01*
Y003580D01*
Y003607D01*
X003920Y003647D02*
Y003700D01*
Y003673D01*
X004000D01*
X003933Y003780D02*
X003920Y003767D01*
Y003740D01*
X003933Y003727D01*
X003987D01*
X004000Y003740D01*
Y003767D01*
X003987Y003780D01*
X003920Y003807D02*
X004000D01*
X003960D01*
Y003860D01*
X003920D01*
X004000D01*
X004300Y003500D02*
X004220D01*
Y003540D01*
X004233Y003553D01*
X004260D01*
X004273Y003540D01*
Y003500D01*
Y003527D02*
X004300Y003553D01*
X004220Y003620D02*
Y003593D01*
X004233Y003580D01*
X004287D01*
X004300Y003593D01*
Y003620D01*
X004287Y003633D01*
X004233D01*
X004220Y003620D01*
Y003660D02*
X004300D01*
Y003713D01*
X004220Y003740D02*
X004300D01*
Y003793D01*
X004500Y003500D02*
Y003567D01*
Y003533D01*
X004600D01*
X004500Y003600D02*
X004600D01*
X004550D01*
Y003667D01*
X004500D01*
X004600D01*
Y003700D02*
X004500D01*
Y003750D01*
X004517Y003767D01*
X004550D01*
X004567Y003750D01*
Y003700D01*
Y003733D02*
X004600Y003767D01*
X003620Y003500D02*
X003633D01*
X003660Y003527D01*
X003633Y003553D01*
X003620D01*
X003660Y003527D02*
X003700D01*
Y003580D02*
X003647D01*
X003620Y003607D01*
X003647Y003633D01*
X003700D01*
X003660D01*
Y003580D01*
X003620Y003660D02*
X003700D01*
X003673Y003687D01*
X003700Y003713D01*
X003620D01*
X004878Y003867D02*
X004852D01*
X004865D01*
Y003801D01*
X004852Y003788D01*
X004838D01*
X004825Y003801D01*
X004905Y003788D02*
X004932D01*
X004918D01*
Y003867D01*
X004905Y003854D01*
X005331Y003867D02*
X005304D01*
X005317D01*
Y003801D01*
X005304Y003788D01*
X005291D01*
X005278Y003801D01*
X005357Y003854D02*
X005371Y003867D01*
X005397D01*
X005411Y003854D01*
Y003801D01*
X005397Y003788D01*
X005371D01*
X005357Y003801D01*
Y003854D01*
X004350Y007242D02*
X004363Y007255D01*
X004390D01*
X004403Y007242D01*
Y007228D01*
X004390Y007215D01*
X004377D01*
X004390D01*
X004403Y007202D01*
Y007188D01*
X004390Y007175D01*
X004363D01*
X004350Y007188D01*
X004430Y007255D02*
Y007202D01*
X004457Y007175D01*
X004483Y007202D01*
Y007255D01*
X004510Y007242D02*
X004523Y007255D01*
X004550D01*
X004563Y007242D01*
Y007228D01*
X004550Y007215D01*
X004537D01*
X004550D01*
X004563Y007202D01*
Y007188D01*
X004550Y007175D01*
X004523D01*
X004510Y007188D01*
X004175Y006605D02*
Y006805D01*
X004275D01*
X004308Y006772D01*
Y006705D01*
X004275Y006672D01*
X004175D01*
X004242D02*
X004308Y006605D01*
X004408D02*
X004475D01*
X004508Y006638D01*
Y006705D01*
X004475Y006738D01*
X004408D01*
X004375Y006705D01*
Y006638D01*
X004408Y006605D01*
X004575Y006805D02*
Y006605D01*
X004675D01*
X004708Y006638D01*
Y006672D01*
Y006705D01*
X004675Y006738D01*
X004575D01*
X004808Y006605D02*
X004875D01*
X004908Y006638D01*
Y006705D01*
X004875Y006738D01*
X004808D01*
X004775Y006705D01*
Y006638D01*
X004808Y006605D01*
X004975Y006538D02*
Y006738D01*
X005075D01*
X005108Y006705D01*
Y006638D01*
X005075Y006605D01*
X004975D01*
X005208D02*
X005275D01*
X005308Y006638D01*
Y006705D01*
X005275Y006738D01*
X005208D01*
X005175Y006705D01*
Y006638D01*
X005208Y006605D01*
X005375D02*
X005441D01*
X005408D01*
Y006805D01*
X005375D01*
X005541Y006738D02*
Y006638D01*
X005575Y006605D01*
X005675D01*
Y006572D01*
X005641Y006538D01*
X005608D01*
X005675Y006605D02*
Y006738D01*
X004245Y006395D02*
X004225Y006415D01*
X004185D01*
X004165Y006395D01*
Y006315D01*
X004185Y006295D01*
X004225D01*
X004245Y006315D01*
X004305Y006295D02*
X004345D01*
X004365Y006315D01*
Y006355D01*
X004345Y006375D01*
X004305D01*
X004285Y006355D01*
Y006315D01*
X004305Y006295D01*
X004405Y006255D02*
Y006375D01*
X004465D01*
X004485Y006355D01*
Y006315D01*
X004465Y006295D01*
X004405D01*
X004545Y006395D02*
Y006375D01*
X004525D01*
X004565D01*
X004545D01*
Y006315D01*
X004565Y006295D01*
X004685D02*
X004645D01*
X004625Y006315D01*
Y006355D01*
X004645Y006375D01*
X004685D01*
X004705Y006355D01*
Y006335D01*
X004625D01*
X004745Y006375D02*
Y006295D01*
Y006335D01*
X004765Y006355D01*
X004785Y006375D01*
X004805D01*
X004985Y006295D02*
X005045D01*
X005065Y006315D01*
X005045Y006335D01*
X005005D01*
X004985Y006355D01*
X005005Y006375D01*
X005065D01*
X005105Y006415D02*
Y006295D01*
Y006355D01*
X005125Y006375D01*
X005165D01*
X005185Y006355D01*
Y006295D01*
X005225D02*
X005265D01*
X005245D01*
Y006375D01*
X005225D01*
X005385Y006295D02*
X005345D01*
X005325Y006315D01*
Y006355D01*
X005345Y006375D01*
X005385D01*
X005405Y006355D01*
Y006335D01*
X005325D01*
X005445Y006295D02*
X005485D01*
X005465D01*
Y006415D01*
X005445D01*
X005625D02*
Y006295D01*
X005565D01*
X005545Y006315D01*
Y006355D01*
X005565Y006375D01*
X005625D01*
X006035Y003332D02*
X006068D01*
X006052D01*
Y003233D01*
X006035D01*
X006068D01*
X006185D02*
X006118D01*
X006185Y003299D01*
Y003316D01*
X006168Y003332D01*
X006135D01*
X006118Y003316D01*
X006285D02*
X006268Y003332D01*
X006235D01*
X006218Y003316D01*
Y003249D01*
X006235Y003233D01*
X006268D01*
X006285Y003249D01*
X006485Y003332D02*
X006418D01*
Y003282D01*
X006452Y003299D01*
X006468D01*
X006485Y003282D01*
Y003249D01*
X006468Y003233D01*
X006435D01*
X006418Y003249D01*
X006518Y003332D02*
Y003266D01*
X006551Y003233D01*
X006585Y003266D01*
Y003332D01*
X002610Y006557D02*
X002643D01*
X002627D01*
Y006457D01*
X002610D01*
X002643D01*
X002760D02*
X002693D01*
X002760Y006524D01*
Y006541D01*
X002743Y006557D01*
X002710D01*
X002693Y006541D01*
X002860D02*
X002843Y006557D01*
X002810D01*
X002793Y006541D01*
Y006474D01*
X002810Y006457D01*
X002843D01*
X002860Y006474D01*
X002993Y006541D02*
X003010Y006557D01*
X003043D01*
X003060Y006541D01*
Y006524D01*
X003043Y006507D01*
X003027D01*
X003043D01*
X003060Y006491D01*
Y006474D01*
X003043Y006457D01*
X003010D01*
X002993Y006474D01*
X003093Y006557D02*
Y006491D01*
X003126Y006457D01*
X003160Y006491D01*
Y006557D01*
X003193Y006541D02*
X003210Y006557D01*
X003243D01*
X003260Y006541D01*
Y006524D01*
X003243Y006507D01*
X003226D01*
X003243D01*
X003260Y006491D01*
Y006474D01*
X003243Y006457D01*
X003210D01*
X003193Y006474D01*
X002925Y005856D02*
X002942Y005872D01*
X002975D01*
X002992Y005856D01*
Y005839D01*
X002975Y005822D01*
X002958D01*
X002975D01*
X002992Y005806D01*
Y005789D01*
X002975Y005772D01*
X002942D01*
X002925Y005789D01*
X003025Y005872D02*
Y005806D01*
X003058Y005772D01*
X003092Y005806D01*
Y005872D01*
X003125Y005856D02*
X003142Y005872D01*
X003175D01*
X003192Y005856D01*
Y005839D01*
X003175Y005822D01*
X003158D01*
X003175D01*
X003192Y005806D01*
Y005789D01*
X003175Y005772D01*
X003142D01*
X003125Y005789D01*
X002992Y005587D02*
X002925D01*
Y005537D01*
X002958Y005554D01*
X002975D01*
X002992Y005537D01*
Y005504D01*
X002975Y005488D01*
X002942D01*
X002925Y005504D01*
X003025Y005587D02*
Y005521D01*
X003058Y005488D01*
X003092Y005521D01*
Y005587D01*
X002992Y005321D02*
X002975Y005337D01*
X002942D01*
X002925Y005321D01*
Y005254D01*
X002942Y005238D01*
X002975D01*
X002992Y005254D01*
Y005287D01*
X002958D01*
X003025Y005238D02*
Y005337D01*
X003092Y005238D01*
Y005337D01*
X003125D02*
Y005238D01*
X003175D01*
X003192Y005254D01*
Y005321D01*
X003175Y005337D01*
X003125D01*
X002992Y005056D02*
X002975Y005072D01*
X002942D01*
X002925Y005056D01*
Y004989D01*
X002942Y004972D01*
X002975D01*
X002992Y004989D01*
Y005022D01*
X002958D01*
X003025Y004972D02*
Y005072D01*
X003092Y004972D01*
Y005072D01*
X003125D02*
Y004972D01*
X003175D01*
X003192Y004989D01*
Y005056D01*
X003175Y005072D01*
X003125D01*
X002925Y004817D02*
Y004751D01*
X002958Y004717D01*
X002992Y004751D01*
Y004817D01*
X003025D02*
X003058D01*
X003042D01*
Y004717D01*
X003025D01*
X003058D01*
X003108D02*
Y004817D01*
X003175Y004717D01*
Y004817D01*
X002925Y004215D02*
Y004282D01*
X002958Y004315D01*
X002992Y004282D01*
Y004215D01*
Y004265D01*
X002925D01*
X003025Y004298D02*
X003042Y004315D01*
X003075D01*
X003092Y004298D01*
Y004232D01*
X003075Y004215D01*
X003042D01*
X003025Y004232D01*
Y004298D01*
X002925Y003958D02*
Y004024D01*
X002958Y004057D01*
X002992Y004024D01*
Y003958D01*
Y004007D01*
X002925D01*
X003025Y003958D02*
X003058D01*
X003042D01*
Y004057D01*
X003025Y004041D01*
X002925Y003708D02*
Y003774D01*
X002958Y003807D01*
X002992Y003774D01*
Y003708D01*
Y003757D01*
X002925D01*
X003092Y003708D02*
X003025D01*
X003092Y003774D01*
Y003791D01*
X003075Y003807D01*
X003042D01*
X003025Y003791D01*
X002925Y003467D02*
Y003534D01*
X002958Y003567D01*
X002992Y003534D01*
Y003467D01*
Y003517D01*
X002925D01*
X003025Y003551D02*
X003042Y003567D01*
X003075D01*
X003092Y003551D01*
Y003534D01*
X003075Y003517D01*
X003058D01*
X003075D01*
X003092Y003501D01*
Y003484D01*
X003075Y003467D01*
X003042D01*
X003025Y003484D01*
X002925Y003208D02*
Y003274D01*
X002958Y003307D01*
X002992Y003274D01*
Y003208D01*
Y003257D01*
X002925D01*
X003075Y003208D02*
Y003307D01*
X003025Y003257D01*
X003092D01*
X002925Y002950D02*
Y003017D01*
X002958Y003050D01*
X002992Y003017D01*
Y002950D01*
Y003000D01*
X002925D01*
X003092Y003050D02*
X003025D01*
Y003000D01*
X003058Y003017D01*
X003075D01*
X003092Y003000D01*
Y002967D01*
X003075Y002950D01*
X003042D01*
X003025Y002967D01*
X006900Y003315D02*
X006967D01*
X006933D01*
Y003215D01*
X007000Y003315D02*
X007067Y003215D01*
Y003315D02*
X007000Y003215D01*
X006900Y002955D02*
Y003055D01*
X006950D01*
X006967Y003038D01*
Y003005D01*
X006950Y002988D01*
X006900D01*
X006933D02*
X006967Y002955D01*
X007000Y003055D02*
X007067Y002955D01*
Y003055D02*
X007000Y002955D01*
X006879Y003558D02*
X006862Y003575D01*
X006829D01*
X006812Y003558D01*
Y003542D01*
X006829Y003525D01*
X006862D01*
X006879Y003508D01*
Y003492D01*
X006862Y003475D01*
X006829D01*
X006812Y003492D01*
X006912Y003575D02*
Y003475D01*
X006962D01*
X006979Y003492D01*
Y003558D01*
X006962Y003575D01*
X006912D01*
X007012Y003475D02*
Y003542D01*
X007046Y003575D01*
X007079Y003542D01*
Y003475D01*
Y003525D01*
X007012D01*
X006879Y003818D02*
X006862Y003835D01*
X006829D01*
X006812Y003818D01*
Y003802D01*
X006829Y003785D01*
X006862D01*
X006879Y003768D01*
Y003752D01*
X006862Y003735D01*
X006829D01*
X006812Y003752D01*
X006979Y003818D02*
X006962Y003835D01*
X006929D01*
X006912Y003818D01*
Y003752D01*
X006929Y003735D01*
X006962D01*
X006979Y003752D01*
X007012Y003835D02*
Y003735D01*
X007079D01*
X006817Y006738D02*
X006800Y006755D01*
X006767D01*
X006750Y006738D01*
Y006672D01*
X006767Y006655D01*
X006800D01*
X006817Y006672D01*
Y006705D01*
X006783D01*
X006850Y006655D02*
Y006755D01*
X006917Y006655D01*
Y006755D01*
X006950D02*
Y006655D01*
X007000D01*
X007017Y006672D01*
Y006738D01*
X007000Y006755D01*
X006950D01*
X002925Y006025D02*
Y006125D01*
X002975D01*
X002992Y006108D01*
Y006075D01*
X002975Y006058D01*
X002925D01*
X002958D02*
X002992Y006025D01*
X003092Y006108D02*
X003075Y006125D01*
X003042D01*
X003025Y006108D01*
Y006092D01*
X003042Y006075D01*
X003075D01*
X003092Y006058D01*
Y006042D01*
X003075Y006025D01*
X003042D01*
X003025Y006042D01*
X003125Y006125D02*
X003192D01*
X003158D01*
Y006025D01*
X006750Y006938D02*
Y007004D01*
X006783Y007037D01*
X006817Y007004D01*
Y006938D01*
Y006987D01*
X006750D01*
X006850Y006938D02*
Y007037D01*
X006900D01*
X006917Y007021D01*
Y006987D01*
X006900Y006971D01*
X006850D01*
X006883D02*
X006917Y006938D01*
X007017Y007037D02*
X006950D01*
Y006938D01*
X007017D01*
X006950Y006987D02*
X006983D01*
X007117Y007037D02*
X007050D01*
Y006987D01*
X007083D01*
X007050D01*
Y006938D01*
X007057Y003990D02*
Y004090D01*
X007007Y004040D01*
X007074D01*
X006900Y004348D02*
X006917Y004365D01*
X006950D01*
X006967Y004382D01*
X007067Y004365D02*
X007000D01*
Y004315D01*
X007033Y004332D01*
X007050D01*
X007067Y004315D01*
Y004282D01*
X007050Y004265D01*
X007017D01*
X007000Y004282D01*
X006900Y004566D02*
X006917Y004582D01*
X006950D01*
X006967Y004599D01*
X007067Y004582D02*
X007033Y004566D01*
X007000Y004532D01*
Y004499D01*
X007017Y004483D01*
X007050D01*
X007067Y004499D01*
Y004516D01*
X007050Y004532D01*
X007000D01*
X006900Y004816D02*
X006917Y004832D01*
X006950D01*
X006967Y004849D01*
X007000Y004832D02*
X007067D01*
Y004816D01*
X007000Y004749D01*
Y004733D01*
X005156Y007257D02*
X005142Y007270D01*
X005116D01*
X005103Y007257D01*
Y007203D01*
X005116Y007190D01*
X005142D01*
X005156Y007203D01*
Y007230D01*
X005129D01*
X005182Y007190D02*
Y007270D01*
X005236Y007190D01*
Y007270D01*
X005262D02*
Y007190D01*
X005302D01*
X005316Y007203D01*
Y007257D01*
X005302Y007270D01*
X005262D01*
D24*
X005508Y002638D02*
Y003146D01*
X005021Y002638D02*
X005508D01*
X004746Y003146D02*
X005508D01*
X004746Y002638D02*
X005508D01*
X004746D02*
Y003146D01*
X003500Y002643D02*
Y003405D01*
X003246D02*
X003500D01*
X003246Y002643D02*
Y003405D01*
Y002643D02*
X003500D01*
X007027Y005923D02*
Y006177D01*
X006265Y005923D02*
X007027D01*
X006265D02*
Y006177D01*
X007027D01*
Y005323D02*
Y005577D01*
X006265Y005323D02*
X007027D01*
X006265D02*
Y005577D01*
X007027D01*
X003846Y002638D02*
X004100D01*
X003846D02*
Y003400D01*
X004100D01*
Y002638D02*
Y003400D01*
X007027Y005623D02*
Y005877D01*
X006265Y005623D02*
X007027D01*
X006265D02*
Y005877D01*
X007027D01*
X004146Y002638D02*
X004400D01*
X004146D02*
Y003400D01*
X004400D01*
Y002638D02*
Y003400D01*
X003546Y002643D02*
X003800D01*
X003546D02*
Y003405D01*
X003800D01*
Y002643D02*
Y003405D01*
X007027Y006223D02*
Y006477D01*
X006265Y006223D02*
X007027D01*
X006265D02*
Y006477D01*
X007027D01*
X004446Y002635D02*
X004700D01*
X004446D02*
Y003397D01*
X004700D01*
Y002635D02*
Y003397D01*
D25*
X004650Y005100D02*
X004688Y005138D01*
X004688D01*
X004725Y005100D01*
X004688Y004925D02*
Y005138D01*
X005050Y004650D02*
X005088Y004688D01*
X005050Y004725D02*
X005088Y004688D01*
X004900D02*
X005088D01*
D26*
X004725Y005100D02*
X004725D01*
X004688Y005138D02*
Y005138D01*
D27*
X005160Y004800D02*
X005200D01*
Y004840D01*
Y005160D02*
Y005200D01*
X005160D02*
X005200D01*
X004800D02*
X004840D01*
X004800Y005160D02*
Y005200D01*
Y004800D02*
Y004840D01*
Y004800D02*
X004840D01*
M02*
