%FSAX42Y42*%
%MOMM*%
G71*
G01*
G75*
%ADD10R,0.80X0.33*%
%ADD11R,0.33X0.80*%
%ADD12R,1.30X1.60*%
%ADD13R,1.60X1.30*%
%ADD14C,0.24*%
%ADD15C,0.25*%
G04:AMPARAMS|DCode=16|XSize=3mm|YSize=1.5mm|CornerRadius=0mm|HoleSize=0mm|Usage=FLASHONLY|Rotation=0.000|XOffset=0mm|YOffset=0mm|HoleType=Round|Shape=Octagon|*
%AMOCTAGOND16*
4,1,8,1.50,-0.38,1.50,0.38,1.13,0.75,-1.13,0.75,-1.50,0.38,-1.50,-0.38,-1.13,-0.75,1.13,-0.75,1.50,-0.38,0.0*
%
%ADD16OCTAGOND16*%

%ADD17C,1.50*%
%ADD18C,1.30*%
%ADD19R,1.50X1.50*%
%ADD20R,1.50X1.50*%
%ADD21C,0.80*%
%ADD22C,1.27*%
%ADD23O,0.48X1.65*%
%ADD24R,1.10X0.60*%
%ADD25C,0.10*%
%ADD26C,0.20*%
%ADD27C,0.08*%
%ADD28C,0.30*%
%ADD29R,1.10X0.63*%
%ADD30R,0.63X1.10*%
%ADD31R,1.50X1.80*%
%ADD32R,1.80X1.50*%
G04:AMPARAMS|DCode=33|XSize=3.2mm|YSize=1.7mm|CornerRadius=0mm|HoleSize=0mm|Usage=FLASHONLY|Rotation=0.000|XOffset=0mm|YOffset=0mm|HoleType=Round|Shape=Octagon|*
%AMOCTAGOND33*
4,1,8,1.60,-0.42,1.60,0.42,1.18,0.85,-1.18,0.85,-1.60,0.42,-1.60,-0.42,-1.18,-0.85,1.18,-0.85,1.60,-0.42,0.0*
%
%ADD33OCTAGOND33*%

%ADD34C,1.70*%
%ADD35R,1.70X1.70*%
%ADD36R,1.70X1.70*%
%ADD37C,1.00*%
%ADD38C,1.47*%
%ADD39O,0.68X1.85*%
%ADD40R,1.30X0.80*%
%ADD41C,0.25*%
%ADD42C,0.03*%
%ADD43C,0.03*%
%ADD44C,0.13*%
D44*
X007363Y005457D02*
X007463D01*
X007413Y005407D02*
Y005507D01*
X007363Y005711D02*
X007463D01*
X007413Y005661D02*
Y005761D01*
X007363Y004797D02*
X007463D01*
X007413Y004747D02*
Y004847D01*
X007363Y005203D02*
X007463D01*
X007413Y005153D02*
Y005253D01*
X007363Y006727D02*
X007463D01*
X007413Y006677D02*
Y006777D01*
X007363Y006981D02*
X007463D01*
X007413Y006931D02*
Y007031D01*
X007363Y005965D02*
X007463D01*
X007413Y005915D02*
Y006015D01*
X007363Y006219D02*
X007463D01*
X007413Y006169D02*
Y006269D01*
X007363Y003527D02*
X007463D01*
X007413Y003477D02*
Y003577D01*
X007363Y003019D02*
X007463D01*
X007413Y002969D02*
Y003069D01*
X007363Y003273D02*
X007463D01*
X007413Y003223D02*
Y003323D01*
X007363Y004289D02*
X007463D01*
X007413Y004239D02*
Y004339D01*
X007363Y004543D02*
X007463D01*
X007413Y004493D02*
Y004593D01*
X007363Y003781D02*
X007463D01*
X007413Y003731D02*
Y003831D01*
X007363Y004035D02*
X007463D01*
X007413Y003985D02*
Y004085D01*
X007363Y006473D02*
X007463D01*
X007413Y006423D02*
Y006523D01*
X002537Y005813D02*
X002637D01*
X002587Y005763D02*
Y005863D01*
X002537Y006067D02*
X002637D01*
X002587Y006017D02*
Y006117D01*
X002537Y005305D02*
X002637D01*
X002587Y005255D02*
Y005355D01*
X002537Y005559D02*
X002637D01*
X002587Y005509D02*
Y005609D01*
X002537Y004797D02*
X002637D01*
X002587Y004747D02*
Y004847D01*
X002540Y005051D02*
X002640D01*
X002590Y005001D02*
Y005101D01*
X002537Y004035D02*
X002637D01*
X002587Y003985D02*
Y004085D01*
X002537Y004289D02*
X002637D01*
X002587Y004239D02*
Y004339D01*
X002537Y003781D02*
X002637D01*
X002587Y003731D02*
Y003831D01*
X002537Y003527D02*
X002637D01*
X002587Y003477D02*
Y003577D01*
X002537Y003019D02*
X002637D01*
X002587Y002969D02*
Y003069D01*
X002537Y003273D02*
X002637D01*
X002587Y003223D02*
Y003323D01*
X006529Y003019D02*
X006608D01*
X006568Y002979D02*
Y003059D01*
X006274Y003019D02*
X006354D01*
X006315Y002979D02*
Y003059D01*
X006401Y002765D02*
X006482D01*
X006442Y002725D02*
Y002805D01*
X006147Y002765D02*
X006228D01*
X006188Y002725D02*
Y002805D01*
X005972Y002945D02*
X006122D01*
X006047Y002870D02*
Y003020D01*
X005336Y003019D02*
X005426D01*
X005381Y002974D02*
Y003064D01*
X005336Y002765D02*
X005426D01*
X005381Y002720D02*
Y002810D01*
X005082Y003019D02*
X005172D01*
X005127Y002974D02*
Y003064D01*
X005082Y002765D02*
X005172D01*
X005127Y002720D02*
Y002810D01*
X004828Y003019D02*
X004918D01*
X004873Y002974D02*
Y003064D01*
X004828Y002765D02*
X004918D01*
X004873Y002720D02*
Y002810D01*
X003328Y003024D02*
X003418D01*
X003373Y002979D02*
Y003069D01*
X003328Y003278D02*
X003418D01*
X003373Y003233D02*
Y003323D01*
X003328Y002770D02*
X003418D01*
X003373Y002725D02*
Y002815D01*
X006347Y005450D02*
X006437D01*
X006392Y005405D02*
Y005495D01*
X006601Y005450D02*
X006691D01*
X006646Y005405D02*
Y005495D01*
X006855Y005450D02*
X006945D01*
X006900Y005405D02*
Y005495D01*
X006347Y005750D02*
X006437D01*
X006392Y005705D02*
Y005795D01*
X006601Y005750D02*
X006691D01*
X006646Y005705D02*
Y005795D01*
X006855Y005750D02*
X006945D01*
X006900Y005705D02*
Y005795D01*
X003928Y003273D02*
X004018D01*
X003973Y003228D02*
Y003318D01*
X003928Y003019D02*
X004018D01*
X003973Y002974D02*
Y003064D01*
X003928Y002765D02*
X004018D01*
X003973Y002720D02*
Y002810D01*
X006347Y006050D02*
X006437D01*
X006392Y006005D02*
Y006095D01*
X006601Y006050D02*
X006691D01*
X006646Y006005D02*
Y006095D01*
X006855Y006050D02*
X006945D01*
X006900Y006005D02*
Y006095D01*
X004228Y003273D02*
X004318D01*
X004273Y003228D02*
Y003318D01*
X004228Y003019D02*
X004318D01*
X004273Y002974D02*
Y003064D01*
X004228Y002765D02*
X004318D01*
X004273Y002720D02*
Y002810D01*
X003628Y003278D02*
X003718D01*
X003673Y003233D02*
Y003323D01*
X003628Y003024D02*
X003718D01*
X003673Y002979D02*
Y003069D01*
X003628Y002770D02*
X003718D01*
X003673Y002725D02*
Y002815D01*
X002910Y007260D02*
X003060D01*
X002985Y007185D02*
Y007335D01*
X002765Y007120D02*
X002845D01*
X002805Y007080D02*
Y007160D01*
X003019Y006993D02*
X003099D01*
X003059Y006953D02*
Y007033D01*
X002765Y006866D02*
X002845D01*
X002805Y006826D02*
Y006906D01*
X003019Y006739D02*
X003099D01*
X003059Y006699D02*
Y006779D01*
X006347Y006350D02*
X006437D01*
X006392Y006305D02*
Y006395D01*
X006601Y006350D02*
X006691D01*
X006646Y006305D02*
Y006395D01*
X006855Y006350D02*
X006945D01*
X006900Y006305D02*
Y006395D01*
X004528Y003271D02*
X004618D01*
X004573Y003226D02*
Y003315D01*
X004528Y003017D02*
X004618D01*
X004573Y002972D02*
Y003061D01*
X004528Y002762D02*
X004618D01*
X004573Y002717D02*
Y002808D01*
X004658Y007220D02*
X004747D01*
X004703Y007175D02*
Y007265D01*
X004912Y007220D02*
X005001D01*
X004956Y007175D02*
Y007265D01*
X003700Y006325D02*
X003740D01*
X003720Y006305D02*
Y006345D01*
X003958Y006005D02*
X003997D01*
X003978Y005985D02*
Y006025D01*
X004242Y005505D02*
X004283D01*
X004262Y005485D02*
Y005525D01*
X005230Y004683D02*
X005270D01*
X005250Y004662D02*
Y004703D01*
X003737Y004300D02*
X003808D01*
X003772Y004264D02*
Y004336D01*
M02*
