%FSAX42Y42*%
%MOMM*%
G71*
G01*
G75*
G04 Layer_Physical_Order=1*
G04 Layer_Color=255*
%ADD10R,1.30X1.60*%
%ADD11R,1.60X1.30*%
%ADD12R,0.80X0.33*%
%ADD13R,0.33X0.80*%
%ADD14C,0.25*%
%ADD15C,0.24*%
G04:AMPARAMS|DCode=16|XSize=3mm|YSize=1.5mm|CornerRadius=0mm|HoleSize=0mm|Usage=FLASHONLY|Rotation=0.000|XOffset=0mm|YOffset=0mm|HoleType=Round|Shape=Octagon|*
%AMOCTAGOND16*
4,1,8,1.50,-0.38,1.50,0.38,1.13,0.75,-1.13,0.75,-1.50,0.38,-1.50,-0.38,-1.13,-0.75,1.13,-0.75,1.50,-0.38,0.0*
%
%ADD16OCTAGOND16*%

%ADD17C,1.50*%
%ADD18C,1.30*%
%ADD19R,1.50X1.50*%
%ADD20R,1.50X1.50*%
%ADD21C,0.80*%
D10*
X005355Y004440D02*
D03*
X005545D02*
D03*
X005730Y004872D02*
D03*
X005540D02*
D03*
X004985Y003997D02*
D03*
X004795D02*
D03*
X005260Y004000D02*
D03*
X005450D02*
D03*
D11*
X004608Y004310D02*
D03*
Y004500D02*
D03*
X005075Y005528D02*
D03*
Y005717D02*
D03*
D12*
X005200Y005075D02*
D03*
Y005125D02*
D03*
Y004975D02*
D03*
Y005025D02*
D03*
Y004925D02*
D03*
Y004875D02*
D03*
X004800Y005075D02*
D03*
X004800Y005125D02*
D03*
X004800Y005025D02*
D03*
Y004925D02*
D03*
Y004975D02*
D03*
Y004874D02*
D03*
D13*
X005075Y005200D02*
D03*
X005025D02*
D03*
X005125D02*
D03*
Y004795D02*
D03*
X005025D02*
D03*
X004975D02*
D03*
X005075D02*
D03*
X004925Y005200D02*
D03*
X004875D02*
D03*
X004975D02*
D03*
X004875Y004795D02*
D03*
X004925D02*
D03*
D14*
X003538Y003403D02*
X003603Y003467D01*
X003538Y002890D02*
Y003403D01*
X006822Y003527D02*
X007413D01*
X007047Y004797D02*
X007413D01*
X007123Y005203D02*
X007413D01*
X007086Y005711D02*
X007413D01*
X003775Y004310D02*
X004608D01*
X005025Y004715D02*
X005240Y004500D01*
X005025Y004715D02*
Y004795D01*
X002824Y007184D02*
Y007241D01*
X006315Y003019D02*
X006822Y003527D01*
X003417Y002770D02*
X003538Y002890D01*
X003373Y002770D02*
X003417D01*
X004862Y003233D02*
X005483D01*
X004730Y003100D02*
X004862Y003233D01*
X004730Y002912D02*
Y003100D01*
X004580Y002762D02*
X004730Y002912D01*
X004573Y002762D02*
X004580D01*
X004273Y002765D02*
X004398Y002640D01*
X005002D01*
X005127Y002765D01*
X005335D02*
X005381D01*
X005200Y004875D02*
X005203Y004872D01*
X005381Y002765D02*
X005381Y002765D01*
X006188D01*
X005483Y003233D02*
X007047Y004797D01*
X005200Y004875D02*
X005538D01*
X007047Y005750D02*
X007086Y005711D01*
X006900Y005750D02*
X007047D01*
X003603Y003467D02*
X005388D01*
X007123Y005203D01*
X004608Y004165D02*
Y004310D01*
X005240Y004500D02*
X005295D01*
X005450Y004000D02*
Y004183D01*
X005545Y004278D02*
Y004440D01*
X005450Y004183D02*
X005545Y004278D01*
X005730Y004872D02*
Y005083D01*
X005075Y005717D02*
Y005905D01*
X004608Y004890D02*
Y005022D01*
X002587Y005305D02*
X003365D01*
X003367Y005303D01*
X005075Y004742D02*
Y004795D01*
X004262Y005367D02*
X004608Y005022D01*
X004262Y005367D02*
Y005505D01*
X004628Y005225D02*
X004728Y005125D01*
X005342Y004975D02*
X005380Y005012D01*
X005292Y005075D02*
X005355Y005012D01*
X005380D01*
X005292Y005075D02*
Y005125D01*
X005075Y004742D02*
X005135Y004683D01*
X005250D01*
X005200Y005125D02*
X005292D01*
X005200Y005075D02*
X005292D01*
X005200Y004975D02*
X005342D01*
X004728Y005125D02*
X004800D01*
D15*
X004924Y004742D02*
Y004794D01*
X004925Y004795D01*
X004012Y006325D02*
X004925Y005412D01*
X003720Y006325D02*
X004012D01*
X003420Y006005D02*
X003978D01*
X002708Y006718D02*
X003420Y006005D01*
X002708Y006718D02*
Y006871D01*
X002824Y006987D01*
X004878Y004695D02*
X004924Y004742D01*
X004608Y004695D02*
X004878D01*
X004608Y004500D02*
Y004695D01*
Y004890D01*
X004985Y003997D02*
X005258D01*
X004608Y004500D02*
X004675D01*
X004795Y004380D01*
Y003997D02*
Y004380D01*
X004975Y004008D02*
Y004795D01*
X004800Y005025D02*
X004801Y005024D01*
X004610Y005025D02*
X004800D01*
X004608Y005022D02*
X004610Y005025D01*
X004925Y005200D02*
Y005412D01*
X005075Y005200D02*
Y005528D01*
X004875Y005200D02*
Y005288D01*
X004158Y006005D02*
X004875Y005288D01*
X003978Y006005D02*
X004158D01*
D16*
X007323Y005457D02*
D03*
Y005711D02*
D03*
Y004797D02*
D03*
Y005203D02*
D03*
Y006727D02*
D03*
Y006981D02*
D03*
Y005965D02*
D03*
Y006219D02*
D03*
Y003527D02*
D03*
Y003019D02*
D03*
Y003273D02*
D03*
Y004289D02*
D03*
Y004543D02*
D03*
Y003781D02*
D03*
Y004035D02*
D03*
Y006473D02*
D03*
X002677Y005813D02*
D03*
Y006067D02*
D03*
Y005305D02*
D03*
Y005559D02*
D03*
Y004797D02*
D03*
X002680Y005051D02*
D03*
X002677Y004035D02*
D03*
Y004289D02*
D03*
Y003781D02*
D03*
Y003527D02*
D03*
Y003019D02*
D03*
Y003273D02*
D03*
D17*
X006568Y003019D02*
D03*
X006315D02*
D03*
X006442Y002765D02*
D03*
X006188D02*
D03*
X005381Y003019D02*
D03*
Y002765D02*
D03*
X005127Y003019D02*
D03*
Y002765D02*
D03*
X004873Y003019D02*
D03*
X003373Y003024D02*
D03*
Y003278D02*
D03*
X006392Y006050D02*
D03*
X006646D02*
D03*
X006392Y005450D02*
D03*
X006646D02*
D03*
X003973Y003273D02*
D03*
Y003019D02*
D03*
X006392Y005750D02*
D03*
X006646D02*
D03*
X004273Y003273D02*
D03*
Y003019D02*
D03*
X003673Y003278D02*
D03*
Y003024D02*
D03*
X003077Y006860D02*
D03*
X002824Y006987D02*
D03*
X003077Y007114D02*
D03*
X002824Y007241D02*
D03*
X006392Y006350D02*
D03*
X006646D02*
D03*
X004573Y003271D02*
D03*
Y003017D02*
D03*
X004956Y007220D02*
D03*
D18*
X006047Y002945D02*
D03*
X002898Y006720D02*
D03*
D19*
X004873Y002765D02*
D03*
X006900Y006050D02*
D03*
Y005450D02*
D03*
Y005750D02*
D03*
Y006350D02*
D03*
X004703Y007220D02*
D03*
D20*
X003373Y002770D02*
D03*
X003973Y002765D02*
D03*
X004273D02*
D03*
X003673Y002770D02*
D03*
X004573Y002762D02*
D03*
D21*
X003367Y005303D02*
D03*
X003775Y004310D02*
D03*
X003720Y006325D02*
D03*
X003978Y006005D02*
D03*
X004262Y005505D02*
D03*
X004608Y004165D02*
D03*
X005450Y004183D02*
D03*
X005730Y005083D02*
D03*
X005075Y005905D02*
D03*
X004628Y005225D02*
D03*
X005380Y005012D02*
D03*
X005250Y004683D02*
D03*
M02*
