%FSAX42Y42*%
%MOMM*%
G71*
G01*
G75*
G04 Layer_Physical_Order=1*
G04 Layer_Color=255*
%ADD10R,0.80X0.33*%
%ADD11R,0.33X0.80*%
%ADD12R,1.30X1.60*%
%ADD13R,1.60X1.30*%
%ADD14C,0.24*%
%ADD15C,0.25*%
G04:AMPARAMS|DCode=16|XSize=3mm|YSize=1.5mm|CornerRadius=0mm|HoleSize=0mm|Usage=FLASHONLY|Rotation=0.000|XOffset=0mm|YOffset=0mm|HoleType=Round|Shape=Octagon|*
%AMOCTAGOND16*
4,1,8,1.50,-0.38,1.50,0.38,1.13,0.75,-1.13,0.75,-1.50,0.38,-1.50,-0.38,-1.13,-0.75,1.13,-0.75,1.50,-0.38,0.0*
%
%ADD16OCTAGOND16*%

%ADD17C,1.50*%
%ADD18C,1.30*%
%ADD19R,1.50X1.50*%
%ADD20R,1.50X1.50*%
%ADD21C,0.80*%
%ADD22C,1.27*%
G36*
X007473Y007077D02*
X007459Y007071D01*
X007448Y007082D01*
X007198D01*
X007148Y007031D01*
Y006931D01*
X007198Y006881D01*
X007448D01*
X007459Y006891D01*
X007473Y006886D01*
Y006823D01*
X007459Y006817D01*
X007448Y006828D01*
X007428D01*
Y006727D01*
Y006627D01*
X007448D01*
X007459Y006637D01*
X007473Y006632D01*
Y006569D01*
X007459Y006563D01*
X007448Y006574D01*
X007198D01*
X007148Y006523D01*
Y006423D01*
X007198Y006373D01*
X007448D01*
X007459Y006383D01*
X007473Y006378D01*
Y006315D01*
X007459Y006309D01*
X007448Y006320D01*
X007198D01*
X007148Y006269D01*
Y006169D01*
X007198Y006119D01*
X007448D01*
X007459Y006129D01*
X007473Y006124D01*
Y006061D01*
X007459Y006055D01*
X007448Y006066D01*
X007198D01*
X007148Y006015D01*
Y005915D01*
X007198Y005865D01*
X007448D01*
X007459Y005875D01*
X007473Y005870D01*
Y005807D01*
X007459Y005801D01*
X007448Y005812D01*
X007198D01*
X007198Y005812D01*
X007198Y005812D01*
X007193D01*
X006993Y006012D01*
X006998Y006024D01*
X007001Y006050D01*
X006998Y006076D01*
X006988Y006101D01*
X006972Y006122D01*
X006951Y006138D01*
X006926Y006148D01*
X006900Y006151D01*
X006874Y006148D01*
X006849Y006138D01*
X006828Y006122D01*
X006812Y006101D01*
X006802Y006076D01*
X006799Y006050D01*
X006802Y006024D01*
X006812Y005999D01*
X006828Y005978D01*
X006849Y005962D01*
X006874Y005952D01*
X006900Y005949D01*
X006926Y005952D01*
X006938Y005957D01*
X007148Y005747D01*
Y005661D01*
X007198Y005611D01*
X007448D01*
X007459Y005621D01*
X007473Y005616D01*
Y005553D01*
X007459Y005547D01*
X007448Y005558D01*
X007198D01*
X007148Y005507D01*
Y005407D01*
X007198Y005357D01*
X007448D01*
X007459Y005367D01*
X007473Y005362D01*
Y005299D01*
X007459Y005293D01*
X007448Y005304D01*
X007198D01*
X007148Y005253D01*
Y005242D01*
X007123D01*
X007108Y005239D01*
X007096Y005231D01*
X005371Y003506D01*
X003603D01*
X003588Y003503D01*
X003575Y003495D01*
X003510Y003430D01*
X003502Y003417D01*
X003499Y003403D01*
Y002906D01*
X003439Y002846D01*
X003424Y002858D01*
X003399Y002868D01*
X003373Y002871D01*
X003347Y002868D01*
X003322Y002858D01*
X003301Y002842D01*
X003285Y002821D01*
X003275Y002796D01*
X003272Y002770D01*
X003275Y002744D01*
X003285Y002719D01*
X003301Y002698D01*
X003322Y002682D01*
X003347Y002672D01*
X003373Y002669D01*
X003399Y002672D01*
X003424Y002682D01*
X003445Y002698D01*
X003461Y002719D01*
X003471Y002744D01*
X003474Y002770D01*
X003474Y002772D01*
X003565Y002863D01*
X003573Y002875D01*
X003576Y002890D01*
Y002961D01*
X003591Y002966D01*
X003601Y002952D01*
X003622Y002936D01*
X003647Y002926D01*
X003673Y002923D01*
X003699Y002926D01*
X003724Y002936D01*
X003745Y002952D01*
X003761Y002973D01*
X003771Y002998D01*
X003774Y003024D01*
X003771Y003050D01*
X003761Y003075D01*
X003745Y003096D01*
X003724Y003112D01*
X003699Y003122D01*
X003673Y003125D01*
X003647Y003122D01*
X003622Y003112D01*
X003601Y003096D01*
X003591Y003082D01*
X003576Y003087D01*
Y003178D01*
X003773D01*
Y003378D01*
X003588D01*
X003582Y003392D01*
X003619Y003429D01*
X005388D01*
X005402Y003432D01*
X005415Y003440D01*
X005415Y003440D01*
X005415Y003440D01*
X007128Y005153D01*
X007148Y005153D01*
Y005153D01*
X007148Y005153D01*
X007198Y005103D01*
X007448D01*
X007459Y005113D01*
X007473Y005108D01*
Y004892D01*
X007459Y004887D01*
X007448Y004897D01*
X007198D01*
X007148Y004847D01*
Y004836D01*
X007047D01*
X007032Y004833D01*
X007019Y004824D01*
X005466Y003271D01*
X004862D01*
X004848Y003268D01*
X004835Y003260D01*
X004703Y003127D01*
X004694Y003115D01*
X004691Y003100D01*
Y002929D01*
X004616Y002853D01*
X004599Y002860D01*
X004573Y002864D01*
X004547Y002860D01*
X004522Y002850D01*
X004501Y002834D01*
X004485Y002813D01*
X004475Y002789D01*
X004472Y002762D01*
X004475Y002736D01*
X004485Y002712D01*
X004500Y002692D01*
X004493Y002679D01*
X004414D01*
X004366Y002727D01*
X004371Y002739D01*
X004374Y002765D01*
X004371Y002791D01*
X004361Y002816D01*
X004345Y002837D01*
X004324Y002853D01*
X004299Y002863D01*
X004273Y002866D01*
X004247Y002863D01*
X004222Y002853D01*
X004201Y002837D01*
X004185Y002816D01*
X004175Y002791D01*
X004172Y002765D01*
X004175Y002739D01*
X004185Y002714D01*
X004201Y002693D01*
X004222Y002677D01*
X004247Y002667D01*
X004273Y002664D01*
X004299Y002667D01*
X004311Y002672D01*
X004371Y002613D01*
X004383Y002604D01*
X004398Y002601D01*
X005002D01*
X005017Y002604D01*
X005030Y002613D01*
X005089Y002672D01*
X005101Y002667D01*
X005127Y002664D01*
X005153Y002667D01*
X005178Y002677D01*
X005199Y002693D01*
X005215Y002714D01*
X005225Y002739D01*
X005228Y002765D01*
X005225Y002791D01*
X005215Y002815D01*
X005199Y002836D01*
X005178Y002852D01*
X005153Y002863D01*
X005127Y002866D01*
X005101Y002863D01*
X005076Y002852D01*
X005055Y002836D01*
X005039Y002815D01*
X005029Y002791D01*
X005026Y002765D01*
X005029Y002739D01*
X005034Y002727D01*
X004987Y002680D01*
X004973Y002686D01*
Y002750D01*
X004773D01*
Y002679D01*
X004653D01*
X004646Y002692D01*
X004661Y002712D01*
X004671Y002736D01*
X004674Y002762D01*
X004671Y002789D01*
X004668Y002796D01*
X004757Y002885D01*
X004766Y002898D01*
X004769Y002912D01*
Y002969D01*
X004784Y002972D01*
X004785Y002968D01*
X004801Y002947D01*
X004822Y002931D01*
X004847Y002921D01*
X004873Y002918D01*
X004899Y002921D01*
X004924Y002931D01*
X004945Y002947D01*
X004961Y002968D01*
X004971Y002993D01*
X004974Y003019D01*
X004971Y003045D01*
X004961Y003069D01*
X004945Y003090D01*
X004924Y003106D01*
X004899Y003117D01*
X004873Y003120D01*
X004847Y003117D01*
X004822Y003106D01*
X004801Y003090D01*
X004785Y003069D01*
X004784Y003066D01*
X004769Y003069D01*
Y003084D01*
X004879Y003194D01*
X005483D01*
X005497Y003197D01*
X005510Y003205D01*
X007063Y004758D01*
X007148D01*
Y004747D01*
X007198Y004696D01*
X007448D01*
X007459Y004707D01*
X007473Y004701D01*
Y004638D01*
X007459Y004633D01*
X007448Y004643D01*
X007198D01*
X007148Y004593D01*
Y004493D01*
X007198Y004442D01*
X007448D01*
X007459Y004453D01*
X007473Y004447D01*
Y004384D01*
X007459Y004379D01*
X007448Y004389D01*
X007198D01*
X007148Y004339D01*
Y004239D01*
X007198Y004188D01*
X007448D01*
X007459Y004199D01*
X007473Y004193D01*
Y004130D01*
X007459Y004125D01*
X007448Y004135D01*
X007198D01*
X007148Y004085D01*
Y003985D01*
X007198Y003934D01*
X007448D01*
X007459Y003945D01*
X007473Y003939D01*
Y003876D01*
X007459Y003871D01*
X007448Y003881D01*
X007198D01*
X007148Y003831D01*
Y003731D01*
X007198Y003680D01*
X007448D01*
X007459Y003691D01*
X007473Y003685D01*
Y003622D01*
X007459Y003617D01*
X007448Y003627D01*
X007198D01*
X007148Y003577D01*
Y003566D01*
X006822D01*
X006807Y003563D01*
X006795Y003554D01*
X006352Y003112D01*
X006341Y003117D01*
X006315Y003120D01*
X006288Y003117D01*
X006264Y003107D01*
X006243Y003091D01*
X006227Y003070D01*
X006217Y003045D01*
X006213Y003019D01*
X006217Y002993D01*
X006227Y002968D01*
X006243Y002947D01*
X006264Y002931D01*
X006288Y002921D01*
X006315Y002918D01*
X006341Y002921D01*
X006365Y002931D01*
X006386Y002947D01*
X006402Y002968D01*
X006412Y002993D01*
X006416Y003019D01*
X006412Y003045D01*
X006407Y003057D01*
X006838Y003488D01*
X007148D01*
Y003477D01*
X007198Y003426D01*
X007448D01*
X007459Y003437D01*
X007473Y003431D01*
Y003368D01*
X007459Y003363D01*
X007448Y003373D01*
X007198D01*
X007148Y003323D01*
Y003223D01*
X007198Y003172D01*
X007448D01*
X007459Y003183D01*
X007473Y003177D01*
Y003114D01*
X007459Y003109D01*
X007448Y003119D01*
X007198D01*
X007148Y003069D01*
Y002969D01*
X007198Y002918D01*
X007448D01*
X007459Y002929D01*
X007473Y002923D01*
Y002527D01*
X002527D01*
Y002923D01*
X002541Y002929D01*
X002552Y002918D01*
X002802D01*
X002852Y002969D01*
Y003069D01*
X002802Y003119D01*
X002552D01*
X002541Y003109D01*
X002527Y003114D01*
Y003177D01*
X002541Y003183D01*
X002552Y003172D01*
X002802D01*
X002852Y003223D01*
Y003323D01*
X002802Y003373D01*
X002552D01*
X002541Y003363D01*
X002527Y003368D01*
Y003431D01*
X002541Y003437D01*
X002552Y003426D01*
X002802D01*
X002852Y003477D01*
Y003577D01*
X002802Y003627D01*
X002552D01*
X002541Y003617D01*
X002527Y003622D01*
Y003685D01*
X002541Y003691D01*
X002552Y003680D01*
X002802D01*
X002852Y003731D01*
Y003831D01*
X002802Y003881D01*
X002552D01*
X002541Y003871D01*
X002527Y003876D01*
Y003939D01*
X002541Y003945D01*
X002552Y003934D01*
X002802D01*
X002852Y003985D01*
Y004085D01*
X002802Y004135D01*
X002552D01*
X002541Y004125D01*
X002527Y004130D01*
Y004193D01*
X002541Y004199D01*
X002552Y004188D01*
X002802D01*
X002852Y004239D01*
Y004339D01*
X002802Y004389D01*
X002552D01*
X002541Y004379D01*
X002527Y004384D01*
Y004701D01*
X002541Y004707D01*
X002552Y004696D01*
X002802D01*
X002852Y004747D01*
Y004847D01*
X002802Y004897D01*
X002552D01*
X002541Y004887D01*
X002527Y004892D01*
Y004958D01*
X002541Y004963D01*
X002554Y004950D01*
X002575D01*
Y005051D01*
Y005151D01*
X002554D01*
X002541Y005138D01*
X002527Y005144D01*
Y005209D01*
X002541Y005215D01*
X002552Y005204D01*
X002572D01*
Y005305D01*
Y005405D01*
X002552D01*
X002541Y005395D01*
X002527Y005400D01*
Y005463D01*
X002541Y005469D01*
X002552Y005458D01*
X002802D01*
X002852Y005509D01*
Y005609D01*
X002802Y005659D01*
X002552D01*
X002541Y005649D01*
X002527Y005654D01*
Y005717D01*
X002541Y005723D01*
X002552Y005712D01*
X002802D01*
X002852Y005763D01*
Y005863D01*
X002802Y005913D01*
X002552D01*
X002541Y005903D01*
X002527Y005908D01*
Y005971D01*
X002541Y005977D01*
X002552Y005966D01*
X002802D01*
X002852Y006017D01*
Y006117D01*
X002802Y006167D01*
X002552D01*
X002541Y006157D01*
X002527Y006162D01*
Y007473D01*
X007473D01*
Y007077D01*
D02*
G37*
%LPC*%
G36*
X005540Y003985D02*
X005465D01*
Y003895D01*
X005540D01*
Y003985D01*
D02*
G37*
G36*
Y004105D02*
X005465D01*
Y004015D01*
X005540D01*
Y004105D01*
D02*
G37*
G36*
X003860Y004285D02*
X003788D01*
Y004212D01*
X003796Y004213D01*
X003817Y004222D01*
X003836Y004237D01*
X003850Y004255D01*
X003859Y004277D01*
X003860Y004285D01*
D02*
G37*
G36*
X003758D02*
X003685D01*
X003686Y004277D01*
X003695Y004255D01*
X003709Y004237D01*
X003728Y004222D01*
X003749Y004213D01*
X003758Y004212D01*
Y004285D01*
D02*
G37*
G36*
X004373Y003373D02*
X004173D01*
Y003173D01*
X004373D01*
Y003373D01*
D02*
G37*
G36*
X004073D02*
X003873D01*
Y003173D01*
X004073D01*
Y003373D01*
D02*
G37*
G36*
X003473Y003378D02*
X003273D01*
Y003178D01*
X003473D01*
Y003378D01*
D02*
G37*
G36*
X004673Y003371D02*
X004588D01*
Y003285D01*
X004673D01*
Y003371D01*
D02*
G37*
G36*
X004558D02*
X004473D01*
Y003285D01*
X004558D01*
Y003371D01*
D02*
G37*
G36*
X004592Y004295D02*
X004502D01*
Y004220D01*
X004592D01*
Y004295D01*
D02*
G37*
G36*
X005265Y004746D02*
Y004697D01*
X005314D01*
X005314Y004700D01*
X005307Y004715D01*
X005297Y004729D01*
X005283Y004740D01*
X005267Y004746D01*
X005265Y004746D01*
D02*
G37*
G36*
X005314Y004667D02*
X005265D01*
Y004619D01*
X005267Y004619D01*
X005283Y004625D01*
X005297Y004636D01*
X005307Y004650D01*
X005314Y004665D01*
X005314Y004667D01*
D02*
G37*
G36*
X005820Y004978D02*
X005745D01*
Y004888D01*
X005820D01*
Y004978D01*
D02*
G37*
G36*
Y004858D02*
X005745D01*
Y004767D01*
X005820D01*
Y004858D01*
D02*
G37*
G36*
X005635Y004545D02*
X005560D01*
Y004455D01*
X005635D01*
Y004545D01*
D02*
G37*
G36*
X003758Y004388D02*
X003749Y004387D01*
X003728Y004378D01*
X003709Y004363D01*
X003695Y004345D01*
X003686Y004323D01*
X003685Y004315D01*
X003758D01*
Y004388D01*
D02*
G37*
G36*
X004713Y004295D02*
X004622D01*
Y004220D01*
X004713D01*
Y004295D01*
D02*
G37*
G36*
X005635Y004425D02*
X005560D01*
Y004335D01*
X005635D01*
Y004425D01*
D02*
G37*
G36*
X003788Y004388D02*
Y004315D01*
X003860D01*
X003859Y004323D01*
X003850Y004345D01*
X003836Y004363D01*
X003817Y004378D01*
X003796Y004387D01*
X003788Y004388D01*
D02*
G37*
G36*
X006426Y002864D02*
X006415Y002863D01*
X006391Y002853D01*
X006370Y002837D01*
X006354Y002816D01*
X006344Y002791D01*
X006342Y002780D01*
X006426D01*
Y002864D01*
D02*
G37*
G36*
X004973Y002865D02*
X004888D01*
Y002780D01*
X004973D01*
Y002865D01*
D02*
G37*
G36*
X006188Y002866D02*
X006161Y002863D01*
X006137Y002853D01*
X006116Y002837D01*
X006100Y002816D01*
X006095Y002804D01*
X005473D01*
X005469Y002815D01*
X005453Y002836D01*
X005432Y002852D01*
X005407Y002863D01*
X005381Y002866D01*
X005355Y002863D01*
X005330Y002852D01*
X005309Y002836D01*
X005293Y002815D01*
X005283Y002791D01*
X005280Y002765D01*
X005283Y002739D01*
X005293Y002714D01*
X005309Y002693D01*
X005330Y002677D01*
X005355Y002667D01*
X005381Y002664D01*
X005407Y002667D01*
X005432Y002677D01*
X005453Y002693D01*
X005469Y002714D01*
X005474Y002726D01*
X006095D01*
X006100Y002714D01*
X006116Y002693D01*
X006137Y002677D01*
X006161Y002667D01*
X006188Y002664D01*
X006214Y002667D01*
X006238Y002677D01*
X006259Y002693D01*
X006275Y002714D01*
X006285Y002739D01*
X006289Y002765D01*
X006285Y002791D01*
X006275Y002816D01*
X006259Y002837D01*
X006238Y002853D01*
X006214Y002863D01*
X006188Y002866D01*
D02*
G37*
G36*
X006457Y002864D02*
Y002780D01*
X006541D01*
X006539Y002791D01*
X006529Y002816D01*
X006513Y002837D01*
X006492Y002853D01*
X006468Y002863D01*
X006457Y002864D01*
D02*
G37*
G36*
X004858Y002865D02*
X004773D01*
Y002780D01*
X004858D01*
Y002865D01*
D02*
G37*
G36*
X006426Y002750D02*
X006342D01*
X006344Y002739D01*
X006354Y002714D01*
X006370Y002693D01*
X006391Y002677D01*
X006415Y002667D01*
X006426Y002666D01*
Y002750D01*
D02*
G37*
G36*
X003973Y002866D02*
X003947Y002863D01*
X003922Y002853D01*
X003901Y002837D01*
X003885Y002816D01*
X003875Y002791D01*
X003872Y002765D01*
X003875Y002739D01*
X003885Y002714D01*
X003901Y002693D01*
X003922Y002677D01*
X003947Y002667D01*
X003973Y002664D01*
X003999Y002667D01*
X004024Y002677D01*
X004045Y002693D01*
X004061Y002714D01*
X004071Y002739D01*
X004074Y002765D01*
X004071Y002791D01*
X004061Y002816D01*
X004045Y002837D01*
X004024Y002853D01*
X003999Y002863D01*
X003973Y002866D01*
D02*
G37*
G36*
X003673Y002871D02*
X003647Y002868D01*
X003622Y002858D01*
X003601Y002842D01*
X003585Y002821D01*
X003575Y002796D01*
X003572Y002770D01*
X003575Y002744D01*
X003585Y002719D01*
X003601Y002698D01*
X003622Y002682D01*
X003647Y002672D01*
X003673Y002669D01*
X003699Y002672D01*
X003724Y002682D01*
X003745Y002698D01*
X003761Y002719D01*
X003771Y002744D01*
X003774Y002770D01*
X003771Y002796D01*
X003761Y002821D01*
X003745Y002842D01*
X003724Y002858D01*
X003699Y002868D01*
X003673Y002871D01*
D02*
G37*
G36*
X006541Y002750D02*
X006457D01*
Y002666D01*
X006468Y002667D01*
X006492Y002677D01*
X006513Y002693D01*
X006529Y002714D01*
X006539Y002739D01*
X006541Y002750D01*
D02*
G37*
G36*
X006047Y003046D02*
X006021Y003043D01*
X005997Y003033D01*
X005976Y003017D01*
X005960Y002996D01*
X005950Y002971D01*
X005946Y002945D01*
X005950Y002919D01*
X005960Y002894D01*
X005976Y002873D01*
X005997Y002857D01*
X006021Y002847D01*
X006047Y002844D01*
X006074Y002847D01*
X006098Y002857D01*
X006119Y002873D01*
X006135Y002894D01*
X006145Y002919D01*
X006149Y002945D01*
X006145Y002971D01*
X006135Y002996D01*
X006119Y003017D01*
X006098Y003033D01*
X006074Y003043D01*
X006047Y003046D01*
D02*
G37*
G36*
X003373Y003125D02*
X003347Y003122D01*
X003322Y003112D01*
X003301Y003096D01*
X003285Y003075D01*
X003275Y003050D01*
X003272Y003024D01*
X003275Y002998D01*
X003285Y002973D01*
X003301Y002952D01*
X003322Y002936D01*
X003347Y002926D01*
X003373Y002923D01*
X003399Y002926D01*
X003424Y002936D01*
X003445Y002952D01*
X003461Y002973D01*
X003471Y002998D01*
X003474Y003024D01*
X003471Y003050D01*
X003461Y003075D01*
X003445Y003096D01*
X003424Y003112D01*
X003399Y003122D01*
X003373Y003125D01*
D02*
G37*
G36*
X006568Y003120D02*
X006542Y003117D01*
X006518Y003107D01*
X006497Y003091D01*
X006481Y003070D01*
X006471Y003045D01*
X006467Y003019D01*
X006471Y002993D01*
X006481Y002968D01*
X006497Y002947D01*
X006518Y002931D01*
X006542Y002921D01*
X006568Y002918D01*
X006595Y002921D01*
X006619Y002931D01*
X006640Y002947D01*
X006656Y002968D01*
X006666Y002993D01*
X006670Y003019D01*
X006666Y003045D01*
X006656Y003070D01*
X006640Y003091D01*
X006619Y003107D01*
X006595Y003117D01*
X006568Y003120D01*
D02*
G37*
G36*
X004673Y003256D02*
X004588D01*
Y003170D01*
X004673D01*
Y003256D01*
D02*
G37*
G36*
X004558D02*
X004473D01*
Y003170D01*
X004558D01*
Y003256D01*
D02*
G37*
G36*
X004273Y003120D02*
X004247Y003117D01*
X004222Y003107D01*
X004201Y003091D01*
X004185Y003070D01*
X004175Y003045D01*
X004172Y003019D01*
X004175Y002993D01*
X004185Y002968D01*
X004201Y002947D01*
X004222Y002931D01*
X004247Y002921D01*
X004273Y002918D01*
X004299Y002921D01*
X004324Y002931D01*
X004345Y002947D01*
X004361Y002968D01*
X004371Y002993D01*
X004374Y003019D01*
X004371Y003045D01*
X004361Y003070D01*
X004345Y003091D01*
X004324Y003107D01*
X004299Y003117D01*
X004273Y003120D01*
D02*
G37*
G36*
X005127Y003120D02*
X005101Y003117D01*
X005076Y003106D01*
X005055Y003090D01*
X005039Y003069D01*
X005029Y003045D01*
X005026Y003019D01*
X005029Y002993D01*
X005039Y002968D01*
X005055Y002947D01*
X005076Y002931D01*
X005101Y002921D01*
X005127Y002918D01*
X005153Y002921D01*
X005178Y002931D01*
X005199Y002947D01*
X005215Y002968D01*
X005225Y002993D01*
X005228Y003019D01*
X005225Y003045D01*
X005215Y003069D01*
X005199Y003090D01*
X005178Y003106D01*
X005153Y003117D01*
X005127Y003120D01*
D02*
G37*
G36*
X004573Y003118D02*
X004547Y003114D01*
X004522Y003104D01*
X004501Y003088D01*
X004485Y003067D01*
X004475Y003043D01*
X004472Y003017D01*
X004475Y002990D01*
X004485Y002966D01*
X004501Y002945D01*
X004522Y002929D01*
X004547Y002919D01*
X004573Y002915D01*
X004599Y002919D01*
X004624Y002929D01*
X004645Y002945D01*
X004661Y002966D01*
X004671Y002990D01*
X004674Y003017D01*
X004671Y003043D01*
X004661Y003067D01*
X004645Y003088D01*
X004624Y003104D01*
X004599Y003114D01*
X004573Y003118D01*
D02*
G37*
G36*
X003973Y003120D02*
X003947Y003117D01*
X003922Y003107D01*
X003901Y003091D01*
X003885Y003070D01*
X003875Y003045D01*
X003872Y003019D01*
X003875Y002993D01*
X003885Y002968D01*
X003901Y002947D01*
X003922Y002931D01*
X003947Y002921D01*
X003973Y002918D01*
X003999Y002921D01*
X004024Y002931D01*
X004045Y002947D01*
X004061Y002968D01*
X004071Y002993D01*
X004074Y003019D01*
X004071Y003045D01*
X004061Y003070D01*
X004045Y003091D01*
X004024Y003107D01*
X003999Y003117D01*
X003973Y003120D01*
D02*
G37*
G36*
X005381Y003120D02*
X005355Y003117D01*
X005330Y003106D01*
X005309Y003090D01*
X005293Y003069D01*
X005283Y003045D01*
X005280Y003019D01*
X005283Y002993D01*
X005293Y002968D01*
X005309Y002947D01*
X005330Y002931D01*
X005355Y002921D01*
X005381Y002918D01*
X005407Y002921D01*
X005432Y002931D01*
X005453Y002947D01*
X005469Y002968D01*
X005479Y002993D01*
X005482Y003019D01*
X005479Y003045D01*
X005469Y003069D01*
X005453Y003090D01*
X005432Y003106D01*
X005407Y003117D01*
X005381Y003120D01*
D02*
G37*
G36*
X003059Y006840D02*
X003033Y006837D01*
X003008Y006827D01*
X002987Y006811D01*
X002971Y006790D01*
X002961Y006765D01*
X002958Y006739D01*
X002961Y006713D01*
X002971Y006688D01*
X002987Y006667D01*
X003008Y006651D01*
X003033Y006641D01*
X003059Y006638D01*
X003085Y006641D01*
X003110Y006651D01*
X003131Y006667D01*
X003147Y006688D01*
X003157Y006713D01*
X003160Y006739D01*
X003157Y006765D01*
X003147Y006790D01*
X003131Y006811D01*
X003110Y006827D01*
X003085Y006837D01*
X003059Y006840D01*
D02*
G37*
G36*
X007398Y006712D02*
X007148D01*
Y006677D01*
X007198Y006627D01*
X007398D01*
Y006712D01*
D02*
G37*
G36*
X002790Y006851D02*
X002706D01*
X002707Y006840D01*
X002717Y006815D01*
X002733Y006794D01*
X002754Y006778D01*
X002779Y006768D01*
X002790Y006767D01*
Y006851D01*
D02*
G37*
G36*
X007398Y006828D02*
X007198D01*
X007148Y006777D01*
Y006742D01*
X007398D01*
Y006828D01*
D02*
G37*
G36*
X006492Y006450D02*
X006407D01*
Y006365D01*
X006492D01*
Y006450D01*
D02*
G37*
G36*
X006377Y006335D02*
X006292D01*
Y006250D01*
X006377D01*
Y006335D01*
D02*
G37*
G36*
X006900Y006451D02*
X006874Y006448D01*
X006849Y006438D01*
X006828Y006422D01*
X006812Y006401D01*
X006802Y006376D01*
X006799Y006350D01*
X006802Y006324D01*
X006812Y006299D01*
X006828Y006278D01*
X006849Y006262D01*
X006874Y006252D01*
X006900Y006249D01*
X006926Y006252D01*
X006951Y006262D01*
X006972Y006278D01*
X006988Y006299D01*
X006998Y006324D01*
X007001Y006350D01*
X006998Y006376D01*
X006988Y006401D01*
X006972Y006422D01*
X006951Y006438D01*
X006926Y006448D01*
X006900Y006451D01*
D02*
G37*
G36*
X006377Y006450D02*
X006292D01*
Y006365D01*
X006377D01*
Y006450D01*
D02*
G37*
G36*
X006492Y006335D02*
X006407D01*
Y006250D01*
X006492D01*
Y006335D01*
D02*
G37*
G36*
X002904Y006851D02*
X002820D01*
Y006767D01*
X002831Y006768D01*
X002856Y006778D01*
X002877Y006794D01*
X002893Y006815D01*
X002903Y006840D01*
X002904Y006851D01*
D02*
G37*
G36*
X002985Y007361D02*
X002959Y007358D01*
X002934Y007348D01*
X002913Y007332D01*
X002897Y007311D01*
X002887Y007286D01*
X002884Y007260D01*
X002887Y007234D01*
X002897Y007209D01*
X002913Y007188D01*
X002934Y007172D01*
X002959Y007162D01*
X002985Y007159D01*
X003011Y007162D01*
X003036Y007172D01*
X003057Y007188D01*
X003073Y007209D01*
X003083Y007234D01*
X003086Y007260D01*
X003083Y007286D01*
X003073Y007311D01*
X003057Y007332D01*
X003036Y007348D01*
X003011Y007358D01*
X002985Y007361D01*
D02*
G37*
G36*
X005057Y007205D02*
X004972D01*
Y007120D01*
X005057D01*
Y007205D01*
D02*
G37*
G36*
Y007320D02*
X004972D01*
Y007235D01*
X005057D01*
Y007320D01*
D02*
G37*
G36*
X004942D02*
X004856D01*
Y007235D01*
X004942D01*
Y007320D01*
D02*
G37*
G36*
Y007205D02*
X004856D01*
Y007120D01*
X004942D01*
Y007205D01*
D02*
G37*
G36*
X002820Y006965D02*
Y006881D01*
X002904D01*
X002903Y006892D01*
X002893Y006917D01*
X002877Y006938D01*
X002856Y006954D01*
X002831Y006964D01*
X002820Y006965D01*
D02*
G37*
G36*
X002790D02*
X002779Y006964D01*
X002754Y006954D01*
X002733Y006938D01*
X002717Y006917D01*
X002707Y006892D01*
X002706Y006881D01*
X002790D01*
Y006965D01*
D02*
G37*
G36*
X004703Y007321D02*
X004676Y007318D01*
X004652Y007308D01*
X004631Y007292D01*
X004615Y007271D01*
X004605Y007246D01*
X004601Y007220D01*
X004605Y007194D01*
X004615Y007169D01*
X004631Y007148D01*
X004652Y007132D01*
X004676Y007122D01*
X004703Y007119D01*
X004729Y007122D01*
X004753Y007132D01*
X004774Y007148D01*
X004790Y007169D01*
X004800Y007194D01*
X004804Y007220D01*
X004800Y007246D01*
X004790Y007271D01*
X004774Y007292D01*
X004753Y007308D01*
X004729Y007318D01*
X004703Y007321D01*
D02*
G37*
G36*
X002805Y007221D02*
X002779Y007218D01*
X002754Y007208D01*
X002733Y007192D01*
X002717Y007171D01*
X002707Y007146D01*
X002704Y007120D01*
X002707Y007094D01*
X002717Y007069D01*
X002733Y007048D01*
X002754Y007032D01*
X002779Y007022D01*
X002805Y007019D01*
X002831Y007022D01*
X002856Y007032D01*
X002877Y007048D01*
X002893Y007069D01*
X002903Y007094D01*
X002906Y007120D01*
X002903Y007146D01*
X002893Y007171D01*
X002877Y007192D01*
X002856Y007208D01*
X002831Y007218D01*
X002805Y007221D01*
D02*
G37*
G36*
X002852Y005290D02*
X002602D01*
Y005204D01*
X002802D01*
X002852Y005255D01*
Y005290D01*
D02*
G37*
G36*
X005265Y005167D02*
X005215D01*
Y005140D01*
X005265D01*
Y005167D01*
D02*
G37*
G36*
X006646Y005551D02*
X006620Y005548D01*
X006595Y005538D01*
X006574Y005522D01*
X006558Y005501D01*
X006548Y005476D01*
X006545Y005450D01*
X006548Y005424D01*
X006558Y005399D01*
X006574Y005378D01*
X006595Y005362D01*
X006620Y005352D01*
X006646Y005349D01*
X006672Y005352D01*
X006697Y005362D01*
X006718Y005378D01*
X006734Y005399D01*
X006744Y005424D01*
X006747Y005450D01*
X006744Y005476D01*
X006734Y005501D01*
X006718Y005522D01*
X006697Y005538D01*
X006672Y005548D01*
X006646Y005551D01*
D02*
G37*
G36*
X002802Y005405D02*
X002602D01*
Y005320D01*
X002852D01*
Y005355D01*
X002802Y005405D01*
D02*
G37*
G36*
X004785Y005167D02*
X004735D01*
Y005140D01*
X004785D01*
Y005167D01*
D02*
G37*
G36*
X005265Y005067D02*
X005135D01*
Y005033D01*
Y004983D01*
Y004983D01*
X005265D01*
Y004983D01*
Y005033D01*
Y005067D01*
D02*
G37*
G36*
X002855Y005036D02*
X002605D01*
Y004950D01*
X002805D01*
X002855Y005001D01*
Y005036D01*
D02*
G37*
G36*
X002805Y005151D02*
X002605D01*
Y005066D01*
X002855D01*
Y005101D01*
X002805Y005151D01*
D02*
G37*
G36*
X003059Y007094D02*
X003033Y007091D01*
X003008Y007081D01*
X002987Y007065D01*
X002971Y007044D01*
X002961Y007019D01*
X002958Y006993D01*
X002961Y006967D01*
X002971Y006942D01*
X002987Y006921D01*
X003008Y006905D01*
X003033Y006895D01*
X003059Y006892D01*
X003085Y006895D01*
X003098Y006900D01*
X003314Y006684D01*
Y006345D01*
X003314Y006345D01*
X003314D01*
X003317Y006330D01*
X003326Y006318D01*
X003666Y005978D01*
D01*
X003666D01*
Y005978D01*
D01*
X003666D01*
Y005978D01*
X003666D01*
X003666Y005978D01*
Y005978D01*
X003666Y005978D01*
Y005978D01*
X003678Y005970D01*
X003692Y005967D01*
X003924D01*
X003931Y005958D01*
X003945Y005948D01*
X003960Y005941D01*
X003978Y005939D01*
X003995Y005941D01*
X004010Y005948D01*
X004024Y005958D01*
X004031Y005967D01*
X004142D01*
X004833Y005275D01*
X004833Y005265D01*
X004833D01*
Y005167D01*
X004815D01*
Y005125D01*
X004800D01*
Y005117D01*
X004735D01*
Y005083D01*
Y005063D01*
X004622D01*
X004301Y005384D01*
Y005452D01*
X004309Y005458D01*
X004320Y005472D01*
X004326Y005488D01*
X004328Y005505D01*
X004326Y005522D01*
X004320Y005538D01*
X004309Y005552D01*
X004295Y005562D01*
X004280Y005569D01*
X004262Y005571D01*
X004245Y005569D01*
X004230Y005562D01*
X004216Y005552D01*
X004205Y005538D01*
X004199Y005522D01*
X004197Y005505D01*
X004199Y005488D01*
X004205Y005472D01*
X004216Y005458D01*
X004224Y005452D01*
Y005367D01*
X004224Y005367D01*
X004224D01*
X004227Y005353D01*
X004235Y005340D01*
X004569Y005006D01*
Y004890D01*
X004569Y004886D01*
Y004695D01*
Y004590D01*
X004502D01*
Y004411D01*
X004502D01*
X004502Y004411D01*
X004502Y004410D01*
Y004405D01*
Y004400D01*
X004502Y004399D01*
X004502Y004399D01*
X004502D01*
Y004325D01*
X004713D01*
Y004388D01*
X004727Y004394D01*
X004757Y004364D01*
Y004103D01*
X004705D01*
Y003892D01*
X004885D01*
Y003892D01*
X004885D01*
X004885Y003892D01*
X004895D01*
Y003892D01*
X005075D01*
Y003959D01*
X005170D01*
Y003895D01*
X005349D01*
Y003895D01*
X005349Y003895D01*
X005350Y003895D01*
X005355D01*
X005360D01*
X005361Y003895D01*
X005361Y003895D01*
Y003895D01*
X005435D01*
Y004000D01*
Y004105D01*
X005361D01*
Y004105D01*
X005361Y004105D01*
X005360Y004105D01*
X005355D01*
X005350D01*
X005349Y004105D01*
X005349Y004105D01*
Y004105D01*
X005170D01*
Y004036D01*
X005075D01*
Y004103D01*
X005013D01*
Y004652D01*
X005027Y004658D01*
X005213Y004473D01*
X005213Y004473D01*
X005213D01*
X005213Y004473D01*
X005213D01*
X005213Y004473D01*
Y004473D01*
Y004473D01*
D01*
D01*
X005213D01*
Y004473D01*
X005225Y004464D01*
X005240Y004461D01*
X005265D01*
Y004335D01*
X005444D01*
Y004335D01*
X005444Y004335D01*
X005445Y004335D01*
X005450D01*
X005455D01*
X005456Y004335D01*
X005456Y004335D01*
Y004335D01*
X005530D01*
Y004440D01*
Y004545D01*
X005456D01*
Y004545D01*
X005456Y004545D01*
X005455Y004545D01*
X005450D01*
X005445D01*
X005444Y004545D01*
X005444Y004545D01*
Y004545D01*
X005265D01*
Y004545D01*
X005250Y004545D01*
X005165Y004630D01*
X005171Y004644D01*
X005197D01*
X005203Y004636D01*
X005217Y004625D01*
X005233Y004619D01*
X005235Y004619D01*
Y004683D01*
Y004746D01*
X005233Y004746D01*
X005217Y004740D01*
X005203Y004729D01*
X005197Y004721D01*
X005167D01*
Y004730D01*
X005167D01*
Y004833D01*
X005265D01*
Y004836D01*
X005450D01*
Y004767D01*
X005629D01*
Y004767D01*
X005629Y004767D01*
X005630Y004767D01*
X005635D01*
X005640D01*
X005641Y004767D01*
X005641Y004767D01*
Y004767D01*
X005715D01*
Y004872D01*
Y004978D01*
X005641D01*
Y004978D01*
X005641Y004978D01*
X005640Y004978D01*
X005635D01*
X005630D01*
X005629Y004978D01*
X005629Y004978D01*
Y004978D01*
X005450D01*
Y004914D01*
X005265D01*
Y004933D01*
Y004967D01*
X005135D01*
Y004933D01*
Y004883D01*
Y004860D01*
X005083D01*
Y004795D01*
X005067D01*
Y004860D01*
X004865D01*
Y004883D01*
Y004933D01*
Y004983D01*
Y005033D01*
Y005083D01*
Y005135D01*
X005135D01*
Y005090D01*
X005265D01*
Y005110D01*
X005200D01*
Y005125D01*
X005185D01*
Y005167D01*
X005167D01*
Y005265D01*
X005113D01*
Y005437D01*
X005180D01*
Y005616D01*
X005180D01*
X005180Y005616D01*
X005180Y005618D01*
Y005622D01*
Y005627D01*
X005180Y005629D01*
X005180Y005629D01*
X005180D01*
Y005703D01*
X004970D01*
Y005629D01*
X004970D01*
X004970Y005629D01*
X004970Y005627D01*
Y005622D01*
Y005618D01*
X004970Y005616D01*
X004970Y005616D01*
X004970D01*
Y005439D01*
X004970Y005439D01*
Y005439D01*
X004960Y005436D01*
X004954Y005437D01*
X004952Y005439D01*
X004039Y006352D01*
X004027Y006360D01*
X004012Y006363D01*
X003773D01*
X003767Y006372D01*
X003753Y006382D01*
X003737Y006389D01*
X003720Y006391D01*
X003703Y006389D01*
X003687Y006382D01*
X003673Y006372D01*
X003663Y006358D01*
X003656Y006342D01*
X003654Y006325D01*
X003656Y006308D01*
X003663Y006292D01*
X003673Y006278D01*
X003687Y006268D01*
X003703Y006261D01*
X003720Y006259D01*
X003737Y006261D01*
X003753Y006268D01*
X003767Y006278D01*
X003773Y006287D01*
X003997D01*
X004887Y005397D01*
Y005349D01*
X004873Y005344D01*
X004184Y006032D01*
X004172Y006040D01*
X004158Y006043D01*
X004031D01*
X004024Y006052D01*
X004010Y006062D01*
X003995Y006069D01*
X003978Y006071D01*
X003960Y006069D01*
X003945Y006062D01*
X003931Y006052D01*
X003924Y006043D01*
X003708D01*
X003391Y006361D01*
Y006700D01*
X003388Y006714D01*
X003379Y006726D01*
X003152Y006954D01*
X003157Y006967D01*
X003160Y006993D01*
X003157Y007019D01*
X003147Y007044D01*
X003131Y007065D01*
X003110Y007081D01*
X003085Y007091D01*
X003059Y007094D01*
D02*
G37*
G36*
X006900Y005551D02*
X006874Y005548D01*
X006849Y005538D01*
X006828Y005522D01*
X006812Y005501D01*
X006802Y005476D01*
X006799Y005450D01*
X006802Y005424D01*
X006812Y005399D01*
X006828Y005378D01*
X006849Y005362D01*
X006874Y005352D01*
X006900Y005349D01*
X006926Y005352D01*
X006951Y005362D01*
X006972Y005378D01*
X006988Y005399D01*
X006998Y005424D01*
X007001Y005450D01*
X006998Y005476D01*
X006988Y005501D01*
X006972Y005522D01*
X006951Y005538D01*
X006926Y005548D01*
X006900Y005551D01*
D02*
G37*
G36*
X006646Y006151D02*
X006620Y006148D01*
X006595Y006138D01*
X006574Y006122D01*
X006558Y006101D01*
X006548Y006076D01*
X006545Y006050D01*
X006548Y006024D01*
X006558Y005999D01*
X006574Y005978D01*
X006595Y005962D01*
X006620Y005952D01*
X006646Y005949D01*
X006672Y005952D01*
X006697Y005962D01*
X006718Y005978D01*
X006734Y005999D01*
X006744Y006024D01*
X006747Y006050D01*
X006744Y006076D01*
X006734Y006101D01*
X006718Y006122D01*
X006697Y006138D01*
X006672Y006148D01*
X006646Y006151D01*
D02*
G37*
G36*
X005180Y005808D02*
X005090D01*
Y005733D01*
X005180D01*
Y005808D01*
D02*
G37*
G36*
X006646Y006451D02*
X006620Y006448D01*
X006595Y006438D01*
X006574Y006422D01*
X006558Y006401D01*
X006548Y006376D01*
X006545Y006350D01*
X006548Y006324D01*
X006558Y006299D01*
X006574Y006278D01*
X006595Y006262D01*
X006620Y006252D01*
X006646Y006249D01*
X006672Y006252D01*
X006697Y006262D01*
X006718Y006278D01*
X006734Y006299D01*
X006744Y006324D01*
X006747Y006350D01*
X006744Y006376D01*
X006734Y006401D01*
X006718Y006422D01*
X006697Y006438D01*
X006672Y006448D01*
X006646Y006451D01*
D02*
G37*
G36*
X006492Y006150D02*
X006292D01*
Y005950D01*
X006492D01*
Y006150D01*
D02*
G37*
G36*
X005060Y005808D02*
X004970D01*
Y005733D01*
X005060D01*
Y005808D01*
D02*
G37*
G36*
X006646Y005851D02*
X006620Y005848D01*
X006595Y005838D01*
X006574Y005822D01*
X006558Y005801D01*
X006548Y005776D01*
X006545Y005750D01*
X006548Y005724D01*
X006558Y005699D01*
X006574Y005678D01*
X006595Y005662D01*
X006620Y005652D01*
X006646Y005649D01*
X006672Y005652D01*
X006697Y005662D01*
X006718Y005678D01*
X006734Y005699D01*
X006744Y005724D01*
X006747Y005750D01*
X006744Y005776D01*
X006734Y005801D01*
X006718Y005822D01*
X006697Y005838D01*
X006672Y005848D01*
X006646Y005851D01*
D02*
G37*
G36*
X006492Y005550D02*
X006292D01*
Y005350D01*
X006492D01*
Y005550D01*
D02*
G37*
G36*
Y005850D02*
X006292D01*
Y005650D01*
X006492D01*
Y005850D01*
D02*
G37*
G36*
X006900Y005851D02*
X006874Y005848D01*
X006849Y005838D01*
X006828Y005822D01*
X006812Y005801D01*
X006802Y005776D01*
X006799Y005750D01*
X006802Y005724D01*
X006812Y005699D01*
X006828Y005678D01*
X006849Y005662D01*
X006874Y005652D01*
X006900Y005649D01*
X006926Y005652D01*
X006951Y005662D01*
X006972Y005678D01*
X006988Y005699D01*
X006998Y005724D01*
X007001Y005750D01*
X006998Y005776D01*
X006988Y005801D01*
X006972Y005822D01*
X006951Y005838D01*
X006926Y005848D01*
X006900Y005851D01*
D02*
G37*
%LPD*%
D10*
X004800Y004874D02*
D03*
Y004975D02*
D03*
Y004925D02*
D03*
Y005025D02*
D03*
Y005125D02*
D03*
Y005075D02*
D03*
X005200Y004875D02*
D03*
Y004925D02*
D03*
Y005025D02*
D03*
Y004975D02*
D03*
Y005125D02*
D03*
Y005075D02*
D03*
D11*
X004925Y004795D02*
D03*
X004875D02*
D03*
X004975Y005200D02*
D03*
X004875D02*
D03*
X004925D02*
D03*
X005075Y004795D02*
D03*
X004975D02*
D03*
X005025D02*
D03*
X005125D02*
D03*
Y005200D02*
D03*
X005025D02*
D03*
X005075D02*
D03*
D12*
X005355Y004440D02*
D03*
X005545D02*
D03*
X005730Y004872D02*
D03*
X005540D02*
D03*
X004985Y003997D02*
D03*
X004795D02*
D03*
X005260Y004000D02*
D03*
X005450D02*
D03*
D13*
X004608Y004310D02*
D03*
Y004500D02*
D03*
X005075Y005528D02*
D03*
Y005717D02*
D03*
D14*
X003059Y006993D02*
X003353Y006700D01*
Y006345D02*
Y006700D01*
Y006345D02*
X003692Y006005D01*
X004924Y004742D02*
Y004794D01*
X004925Y004795D01*
X004012Y006325D02*
X004925Y005412D01*
X003720Y006325D02*
X004012D01*
X003692Y006005D02*
X003978D01*
X004878Y004695D02*
X004924Y004742D01*
X004608Y004695D02*
X004878D01*
X004608Y004500D02*
Y004695D01*
Y004890D01*
X004985Y003997D02*
X005258D01*
X004608Y004500D02*
X004675D01*
X004795Y004380D01*
Y003997D02*
Y004380D01*
X004975Y004008D02*
Y004795D01*
X004800Y005025D02*
X004801Y005024D01*
X004610Y005025D02*
X004800D01*
X004608Y005022D02*
X004610Y005025D01*
X004925Y005200D02*
Y005412D01*
X005075Y005200D02*
Y005528D01*
X004875Y005200D02*
Y005288D01*
X004158Y006005D02*
X004875Y005288D01*
X003978Y006005D02*
X004158D01*
D15*
X007239Y005711D02*
X007413D01*
X006900Y006050D02*
X007239Y005711D01*
X003538Y003403D02*
X003603Y003467D01*
X003538Y002890D02*
Y003403D01*
X006822Y003527D02*
X007413D01*
X007047Y004797D02*
X007413D01*
X007123Y005203D02*
X007413D01*
X005025Y004715D02*
X005240Y004500D01*
X005025Y004715D02*
Y004795D01*
X006315Y003019D02*
X006822Y003527D01*
X003417Y002770D02*
X003538Y002890D01*
X003373Y002770D02*
X003417D01*
X004862Y003233D02*
X005483D01*
X004730Y003100D02*
X004862Y003233D01*
X004730Y002912D02*
Y003100D01*
X004580Y002762D02*
X004730Y002912D01*
X004573Y002762D02*
X004580D01*
X004273Y002765D02*
X004398Y002640D01*
X005002D01*
X005127Y002765D01*
X005335D02*
X005381D01*
X005200Y004875D02*
X005203Y004872D01*
X005381Y002765D02*
X005381Y002765D01*
X006188D01*
X005483Y003233D02*
X007047Y004797D01*
X005200Y004875D02*
X005538D01*
X003603Y003467D02*
X005388D01*
X007123Y005203D01*
X005240Y004500D02*
X005295D01*
X004608Y004890D02*
Y005022D01*
X005075Y004742D02*
Y004795D01*
X004262Y005367D02*
X004608Y005022D01*
X004262Y005367D02*
Y005505D01*
X005075Y004742D02*
X005135Y004683D01*
X005250D01*
D16*
X007323Y005457D02*
D03*
Y005711D02*
D03*
Y004797D02*
D03*
Y005203D02*
D03*
Y006727D02*
D03*
Y006981D02*
D03*
Y005965D02*
D03*
Y006219D02*
D03*
Y003527D02*
D03*
Y003019D02*
D03*
Y003273D02*
D03*
Y004289D02*
D03*
Y004543D02*
D03*
Y003781D02*
D03*
Y004035D02*
D03*
Y006473D02*
D03*
X002677Y005813D02*
D03*
Y006067D02*
D03*
Y005305D02*
D03*
Y005559D02*
D03*
Y004797D02*
D03*
X002680Y005051D02*
D03*
X002677Y004035D02*
D03*
Y004289D02*
D03*
Y003781D02*
D03*
Y003527D02*
D03*
Y003019D02*
D03*
Y003273D02*
D03*
D17*
X006568Y003019D02*
D03*
X006315D02*
D03*
X006442Y002765D02*
D03*
X006188D02*
D03*
X005381Y003019D02*
D03*
Y002765D02*
D03*
X005127Y003019D02*
D03*
Y002765D02*
D03*
X004873Y003019D02*
D03*
X003373Y003024D02*
D03*
Y002770D02*
D03*
X006646Y005450D02*
D03*
X006900D02*
D03*
X006646Y005750D02*
D03*
X006900D02*
D03*
X003973Y003019D02*
D03*
Y002765D02*
D03*
X006646Y006050D02*
D03*
X006900D02*
D03*
X004273Y003019D02*
D03*
Y002765D02*
D03*
X003673Y003024D02*
D03*
Y002770D02*
D03*
X002805Y007120D02*
D03*
X003059Y006993D02*
D03*
X002805Y006866D02*
D03*
X003059Y006739D02*
D03*
X006646Y006350D02*
D03*
X006900D02*
D03*
X004573Y003017D02*
D03*
Y002762D02*
D03*
X004703Y007220D02*
D03*
D18*
X006047Y002945D02*
D03*
X002985Y007260D02*
D03*
D19*
X004873Y002765D02*
D03*
X006392Y005450D02*
D03*
Y005750D02*
D03*
Y006050D02*
D03*
X004956Y007220D02*
D03*
D20*
X003373Y003278D02*
D03*
X003973Y003273D02*
D03*
X004273D02*
D03*
X003673Y003278D02*
D03*
X006392Y006350D02*
D03*
X004573Y003271D02*
D03*
D21*
X003720Y006325D02*
D03*
X003978Y006005D02*
D03*
X004262Y005505D02*
D03*
X005250Y004683D02*
D03*
D22*
X003772Y004300D02*
D03*
M02*
