%FSAX42Y42*%
%MOMM*%
G71*
G01*
G75*
G04 Layer_Color=16711935*
%ADD10R,0.80X0.33*%
%ADD11R,0.33X0.80*%
%ADD12R,1.30X1.60*%
%ADD13R,1.60X1.30*%
%ADD14C,0.24*%
%ADD15C,0.25*%
G04:AMPARAMS|DCode=16|XSize=3mm|YSize=1.5mm|CornerRadius=0mm|HoleSize=0mm|Usage=FLASHONLY|Rotation=0.000|XOffset=0mm|YOffset=0mm|HoleType=Round|Shape=Octagon|*
%AMOCTAGOND16*
4,1,8,1.50,-0.38,1.50,0.38,1.13,0.75,-1.13,0.75,-1.50,0.38,-1.50,-0.38,-1.13,-0.75,1.13,-0.75,1.50,-0.38,0.0*
%
%ADD16OCTAGOND16*%

%ADD17C,1.50*%
%ADD18C,1.30*%
%ADD19R,1.50X1.50*%
%ADD20R,1.50X1.50*%
%ADD21C,0.80*%
%ADD22C,1.27*%
%ADD23O,0.48X1.65*%
%ADD24R,1.10X0.60*%
%ADD25C,0.10*%
%ADD26C,0.20*%
%ADD27C,0.08*%
%ADD28C,0.30*%
%ADD29R,1.10X0.63*%
%ADD30R,0.63X1.10*%
%ADD31R,1.50X1.80*%
%ADD32R,1.80X1.50*%
G04:AMPARAMS|DCode=33|XSize=3.2mm|YSize=1.7mm|CornerRadius=0mm|HoleSize=0mm|Usage=FLASHONLY|Rotation=0.000|XOffset=0mm|YOffset=0mm|HoleType=Round|Shape=Octagon|*
%AMOCTAGOND33*
4,1,8,1.60,-0.42,1.60,0.42,1.18,0.85,-1.18,0.85,-1.60,0.42,-1.60,-0.42,-1.18,-0.85,1.18,-0.85,1.60,-0.42,0.0*
%
%ADD33OCTAGOND33*%

%ADD34C,1.70*%
%ADD35R,1.70X1.70*%
%ADD36R,1.70X1.70*%
%ADD37C,1.00*%
%ADD38C,1.47*%
%ADD39O,0.68X1.85*%
%ADD40R,1.30X0.80*%
D17*
X006047Y002945D02*
D03*
X002985Y007260D02*
D03*
D31*
X003440Y004595D02*
D03*
X003250D02*
D03*
X004520Y006172D02*
D03*
X004330D02*
D03*
D32*
X004000Y003815D02*
D03*
Y004005D02*
D03*
X003600Y003815D02*
D03*
Y004005D02*
D03*
X003260Y003815D02*
D03*
Y004005D02*
D03*
X003720Y006600D02*
D03*
Y006790D02*
D03*
X004160Y006600D02*
D03*
Y006790D02*
D03*
X006090Y006805D02*
D03*
Y006995D02*
D03*
D33*
X007323Y005457D02*
D03*
Y005711D02*
D03*
Y004797D02*
D03*
Y005203D02*
D03*
Y006727D02*
D03*
Y006981D02*
D03*
Y005965D02*
D03*
Y006219D02*
D03*
Y003527D02*
D03*
Y003019D02*
D03*
Y003273D02*
D03*
Y004289D02*
D03*
Y004543D02*
D03*
Y003781D02*
D03*
Y004035D02*
D03*
Y006473D02*
D03*
X002677Y005813D02*
D03*
Y006067D02*
D03*
Y005305D02*
D03*
Y005559D02*
D03*
Y004797D02*
D03*
X002680Y005051D02*
D03*
X002677Y004035D02*
D03*
Y004289D02*
D03*
Y003781D02*
D03*
Y003527D02*
D03*
Y003019D02*
D03*
Y003273D02*
D03*
D34*
X006568Y003019D02*
D03*
X006315D02*
D03*
X006442Y002765D02*
D03*
X006188D02*
D03*
X005381Y003019D02*
D03*
Y002765D02*
D03*
X005127Y003019D02*
D03*
Y002765D02*
D03*
X004873Y003019D02*
D03*
X003373Y003024D02*
D03*
Y002770D02*
D03*
X006646Y005450D02*
D03*
X006900D02*
D03*
X006646Y005750D02*
D03*
X006900D02*
D03*
X003973Y003019D02*
D03*
Y002765D02*
D03*
X006646Y006050D02*
D03*
X006900D02*
D03*
X004273Y003019D02*
D03*
Y002765D02*
D03*
X003673Y003024D02*
D03*
Y002770D02*
D03*
X002805Y007120D02*
D03*
X003059Y006993D02*
D03*
X002805Y006866D02*
D03*
X003059Y006739D02*
D03*
X006646Y006350D02*
D03*
X006900D02*
D03*
X004573Y003017D02*
D03*
Y002762D02*
D03*
X004703Y007220D02*
D03*
D35*
X004873Y002765D02*
D03*
X006392Y005450D02*
D03*
Y005750D02*
D03*
Y006050D02*
D03*
X004956Y007220D02*
D03*
D36*
X003373Y003278D02*
D03*
X003973Y003273D02*
D03*
X004273D02*
D03*
X003673Y003278D02*
D03*
X006392Y006350D02*
D03*
X004573Y003271D02*
D03*
D37*
X003720Y006325D02*
D03*
X003978Y006005D02*
D03*
X004262Y005505D02*
D03*
X005250Y004683D02*
D03*
D38*
X003772Y004300D02*
D03*
D39*
X003783Y005380D02*
D03*
X003912Y004955D02*
D03*
X003783D02*
D03*
X003847D02*
D03*
X003978D02*
D03*
X003847Y005380D02*
D03*
X003912D02*
D03*
X003978D02*
D03*
D40*
X005572Y006907D02*
D03*
Y007003D02*
D03*
Y006812D02*
D03*
X005333Y007003D02*
D03*
Y006812D02*
D03*
M02*
