%FSAX42Y42*%
%MOMM*%
G71*
G01*
G75*
G04 Layer_Physical_Order=2*
G04 Layer_Color=16711680*
%ADD10R,1.30X1.60*%
%ADD11R,1.60X1.30*%
%ADD12R,0.80X0.33*%
%ADD13R,0.33X0.80*%
%ADD14O,0.35X0.80*%
%ADD15O,0.80X0.35*%
%ADD16R,1.30X1.50*%
%ADD17C,0.30*%
%ADD18C,0.24*%
%ADD19C,0.25*%
%ADD20R,1.50X1.50*%
%ADD21C,1.50*%
%ADD22R,1.50X1.50*%
%ADD23C,1.30*%
G04:AMPARAMS|DCode=24|XSize=3mm|YSize=1.5mm|CornerRadius=0mm|HoleSize=0mm|Usage=FLASHONLY|Rotation=0.000|XOffset=0mm|YOffset=0mm|HoleType=Round|Shape=Octagon|*
%AMOCTAGOND24*
4,1,8,1.50,-0.38,1.50,0.38,1.13,0.75,-1.13,0.75,-1.50,0.38,-1.50,-0.38,-1.13,-0.75,1.13,-0.75,1.50,-0.38,0.0*
%
%ADD24OCTAGOND24*%

%ADD25C,1.27*%
%ADD26C,0.80*%
%ADD27R,1.10X0.60*%
%ADD28O,0.48X1.65*%
G36*
X007469Y007061D02*
X007458Y007057D01*
X007443Y007071D01*
X007203D01*
X007158Y007026D01*
Y006936D01*
X007203Y006891D01*
X007443D01*
X007458Y006906D01*
X007469Y006901D01*
Y006807D01*
X007458Y006803D01*
X007443Y006817D01*
X007426D01*
Y006727D01*
Y006637D01*
X007443D01*
X007458Y006652D01*
X007469Y006647D01*
Y006553D01*
X007458Y006549D01*
X007443Y006563D01*
X007203D01*
X007158Y006518D01*
Y006428D01*
X007203Y006383D01*
X007443D01*
X007458Y006398D01*
X007469Y006393D01*
Y006299D01*
X007458Y006295D01*
X007443Y006309D01*
X007203D01*
X007158Y006264D01*
Y006174D01*
X007203Y006129D01*
X007443D01*
X007458Y006144D01*
X007469Y006139D01*
Y006045D01*
X007458Y006041D01*
X007443Y006055D01*
X007203D01*
X007162Y006015D01*
X007151Y006019D01*
Y006130D01*
X007151Y006130D01*
X007148Y006142D01*
X007142Y006152D01*
X007142Y006152D01*
X006982Y006312D01*
X006988Y006327D01*
X006991Y006350D01*
X006988Y006373D01*
X006979Y006395D01*
X006964Y006414D01*
X006945Y006429D01*
X006923Y006438D01*
X006900Y006441D01*
X006877Y006438D01*
X006855Y006429D01*
X006836Y006414D01*
X006821Y006395D01*
X006812Y006373D01*
X006809Y006350D01*
X006812Y006327D01*
X006821Y006305D01*
X006836Y006286D01*
X006855Y006271D01*
X006877Y006262D01*
X006900Y006259D01*
X006923Y006262D01*
X006938Y006268D01*
X007089Y006117D01*
Y006060D01*
X007078Y006054D01*
X007066Y006062D01*
X007045Y006066D01*
X007024Y006062D01*
X007005Y006050D01*
X007004Y006048D01*
X006991Y006050D01*
X006988Y006073D01*
X006979Y006095D01*
X006964Y006114D01*
X006945Y006129D01*
X006923Y006138D01*
X006900Y006141D01*
X006877Y006138D01*
X006855Y006129D01*
X006836Y006114D01*
X006821Y006095D01*
X006812Y006073D01*
X006809Y006050D01*
X006812Y006027D01*
X006821Y006005D01*
X006836Y005986D01*
X006855Y005971D01*
X006877Y005962D01*
X006900Y005959D01*
X006923Y005962D01*
X006945Y005971D01*
X006964Y005986D01*
X006978Y006004D01*
X006981Y006003D01*
X006991Y005999D01*
X006993Y005989D01*
X007005Y005970D01*
X007014Y005964D01*
Y005595D01*
X007014Y005595D01*
X007017Y005583D01*
X007023Y005573D01*
X007044Y005552D01*
Y005506D01*
X007035Y005500D01*
X007023Y005481D01*
X007019Y005460D01*
X007023Y005439D01*
X007035Y005420D01*
X007054Y005408D01*
X007075Y005404D01*
X007096Y005408D01*
X007115Y005420D01*
X007127Y005439D01*
X007131Y005460D01*
X007127Y005481D01*
X007115Y005500D01*
X007106Y005506D01*
Y005537D01*
X007117Y005542D01*
X007158Y005501D01*
Y005412D01*
X007203Y005367D01*
X007443D01*
X007458Y005382D01*
X007469Y005377D01*
Y005283D01*
X007458Y005279D01*
X007443Y005293D01*
X007203D01*
X007158Y005248D01*
Y005158D01*
X007203Y005113D01*
X007443D01*
X007458Y005128D01*
X007469Y005123D01*
Y004877D01*
X007458Y004872D01*
X007443Y004887D01*
X007203D01*
X007158Y004842D01*
Y004752D01*
X007203Y004707D01*
X007443D01*
X007458Y004721D01*
X007469Y004717D01*
Y004623D01*
X007458Y004618D01*
X007443Y004633D01*
X007203D01*
X007158Y004588D01*
Y004573D01*
X007140D01*
X006931Y004783D01*
Y005365D01*
X006945Y005371D01*
X006964Y005386D01*
X006979Y005405D01*
X006988Y005427D01*
X006991Y005450D01*
X006988Y005473D01*
X006979Y005495D01*
X006964Y005514D01*
X006945Y005529D01*
X006923Y005538D01*
X006900Y005541D01*
X006877Y005538D01*
X006855Y005529D01*
X006836Y005514D01*
X006821Y005495D01*
X006813Y005475D01*
X006801Y005478D01*
Y005562D01*
X006898Y005660D01*
X006900Y005659D01*
X006923Y005662D01*
X006945Y005671D01*
X006964Y005686D01*
X006979Y005705D01*
X006988Y005727D01*
X006991Y005750D01*
X006988Y005773D01*
X006979Y005795D01*
X006964Y005814D01*
X006945Y005829D01*
X006923Y005838D01*
X006900Y005841D01*
X006877Y005838D01*
X006855Y005829D01*
X006836Y005814D01*
X006821Y005795D01*
X006812Y005773D01*
X006809Y005750D01*
X006812Y005727D01*
X006821Y005705D01*
X006836Y005686D01*
X006836Y005684D01*
X006748Y005597D01*
X006742Y005587D01*
X006739Y005575D01*
X006739Y005575D01*
Y005492D01*
X006727Y005490D01*
X006725Y005495D01*
X006710Y005514D01*
X006691Y005529D01*
X006669Y005538D01*
X006646Y005541D01*
X006623Y005538D01*
X006601Y005529D01*
X006582Y005514D01*
X006567Y005495D01*
X006558Y005473D01*
X006555Y005450D01*
X006558Y005427D01*
X006567Y005405D01*
X006582Y005386D01*
X006601Y005371D01*
X006623Y005362D01*
X006646Y005359D01*
X006669Y005362D01*
X006691Y005371D01*
X006710Y005386D01*
X006725Y005405D01*
X006727Y005410D01*
X006739Y005408D01*
Y004683D01*
X006739Y004683D01*
X006742Y004671D01*
X006748Y004661D01*
X007142Y004267D01*
X007142Y004267D01*
X007152Y004261D01*
X007152Y004261D01*
X007152Y004261D01*
D01*
X007152Y004261D01*
X007152Y004261D01*
X007158Y004259D01*
Y004244D01*
X007203Y004199D01*
X007443D01*
X007458Y004213D01*
X007469Y004209D01*
Y004115D01*
X007458Y004110D01*
X007443Y004125D01*
X007203D01*
X007158Y004080D01*
Y004065D01*
X006893D01*
X006493Y004466D01*
Y004603D01*
X006312D01*
Y004422D01*
X006449D01*
X006859Y004013D01*
X006859D01*
X006859Y004013D01*
X006859D01*
X006859Y004013D01*
Y004013D01*
X006859Y004013D01*
Y004013D01*
X006868Y004007D01*
X006880Y004004D01*
X007158D01*
Y003990D01*
X007203Y003945D01*
X007443D01*
X007458Y003959D01*
X007469Y003955D01*
Y003861D01*
X007458Y003856D01*
X007443Y003871D01*
X007203D01*
X007158Y003826D01*
Y003811D01*
X007071D01*
X007071Y003811D01*
X007059Y003809D01*
X007049Y003802D01*
X007049Y003802D01*
X006547Y003300D01*
X006540Y003290D01*
X006538Y003278D01*
X006538Y003278D01*
Y003104D01*
X006523Y003098D01*
X006504Y003083D01*
X006490Y003064D01*
X006481Y003042D01*
X006478Y003019D01*
X006481Y002996D01*
X006487Y002981D01*
X006427Y002921D01*
X006345D01*
X006342Y002933D01*
X006360Y002940D01*
X006379Y002955D01*
X006393Y002974D01*
X006402Y002996D01*
X006405Y003019D01*
X006402Y003042D01*
X006393Y003064D01*
X006379Y003083D01*
X006360Y003098D01*
X006338Y003107D01*
X006315Y003110D01*
X006291Y003107D01*
X006276Y003101D01*
X005978Y003399D01*
X005968Y003406D01*
X005956Y003408D01*
X005956Y003408D01*
X005168D01*
X004008Y004568D01*
Y004872D01*
X004014Y004881D01*
X004017Y004897D01*
Y005013D01*
X004014Y005029D01*
X004008Y005038D01*
Y005065D01*
X004008Y005065D01*
X004006Y005077D01*
X003999Y005087D01*
X003999Y005087D01*
X003959Y005127D01*
X003949Y005133D01*
X003938Y005136D01*
X003937Y005136D01*
X003693D01*
X003692Y005136D01*
X003681Y005133D01*
X003671Y005127D01*
X003671Y005127D01*
X003418Y004874D01*
X003412Y004864D01*
X003409Y004853D01*
X003409Y004852D01*
Y004690D01*
X003360D01*
Y004500D01*
X003520D01*
Y004690D01*
X003471D01*
Y004840D01*
X003705Y005074D01*
X003925D01*
X003940Y005059D01*
X003938Y005046D01*
X003936Y005045D01*
X003928Y005050D01*
X003912Y005053D01*
X003897Y005050D01*
X003884Y005042D01*
X003876D01*
X003863Y005050D01*
X003847Y005053D01*
X003832Y005050D01*
X003819Y005042D01*
X003811D01*
X003798Y005050D01*
X003783Y005053D01*
X003767Y005050D01*
X003754Y005042D01*
X003746Y005029D01*
X003743Y005013D01*
Y004897D01*
X003746Y004881D01*
X003752Y004872D01*
Y004573D01*
X003401Y004222D01*
X003394Y004212D01*
X003392Y004200D01*
X003392Y004200D01*
Y003846D01*
X003355D01*
Y003895D01*
X003165D01*
Y003735D01*
X003355D01*
Y003784D01*
X003505D01*
Y003735D01*
X003695D01*
Y003895D01*
X003505D01*
Y003846D01*
X003453D01*
Y004187D01*
X003804Y004538D01*
X003804Y004538D01*
X003808Y004544D01*
X003811Y004548D01*
X003813Y004560D01*
X003813Y004560D01*
X003813Y004560D01*
Y004560D01*
Y004859D01*
X003824Y004865D01*
X003832Y004860D01*
X003847Y004857D01*
X003863Y004860D01*
X003871Y004865D01*
X003882Y004859D01*
Y004403D01*
X003882Y004403D01*
X003884Y004391D01*
X003891Y004381D01*
X004134Y004137D01*
Y003905D01*
X004107Y003877D01*
X004095Y003882D01*
Y003895D01*
X003905D01*
Y003735D01*
X004095D01*
Y003784D01*
X004452D01*
X005046Y003191D01*
X005046Y003191D01*
X005052Y003187D01*
X005056Y003184D01*
X005067Y003182D01*
X005925D01*
X006061Y003046D01*
X006055Y003035D01*
X006047Y003036D01*
X006024Y003033D01*
X006002Y003024D01*
X005983Y003009D01*
X005969Y002990D01*
X005960Y002968D01*
X005957Y002945D01*
X005960Y002922D01*
X005969Y002900D01*
X005983Y002881D01*
X006002Y002866D01*
X006024Y002857D01*
X006047Y002854D01*
X006071Y002857D01*
X006093Y002866D01*
X006112Y002881D01*
X006126Y002900D01*
X006135Y002922D01*
X006138Y002945D01*
X006137Y002952D01*
X006149Y002958D01*
X006238Y002868D01*
X006238Y002868D01*
X006248Y002862D01*
X006248Y002862D01*
X006248Y002862D01*
D01*
X006248Y002862D01*
X006248Y002862D01*
X006260Y002859D01*
X006260Y002859D01*
X006402D01*
X006404Y002847D01*
X006396Y002844D01*
X006377Y002829D01*
X006363Y002810D01*
X006354Y002788D01*
X006352Y002778D01*
X006531D01*
X006529Y002788D01*
X006520Y002810D01*
X006506Y002829D01*
X006487Y002844D01*
X006465Y002853D01*
X006460Y002853D01*
X006457Y002866D01*
X006461Y002868D01*
X006530Y002937D01*
X006545Y002931D01*
X006568Y002928D01*
X006592Y002931D01*
X006614Y002940D01*
X006633Y002955D01*
X006647Y002974D01*
X006656Y002996D01*
X006659Y003019D01*
X006656Y003042D01*
X006647Y003064D01*
X006633Y003083D01*
X006614Y003098D01*
X006599Y003104D01*
Y003266D01*
X007083Y003750D01*
X007158D01*
Y003736D01*
X007203Y003691D01*
X007443D01*
X007458Y003705D01*
X007469Y003701D01*
Y003607D01*
X007458Y003602D01*
X007443Y003617D01*
X007203D01*
X007158Y003572D01*
Y003482D01*
X007203Y003437D01*
X007443D01*
X007458Y003451D01*
X007469Y003447D01*
Y003353D01*
X007458Y003348D01*
X007443Y003363D01*
X007203D01*
X007158Y003318D01*
Y003228D01*
X007203Y003183D01*
X007443D01*
X007458Y003197D01*
X007469Y003193D01*
Y003099D01*
X007458Y003094D01*
X007443Y003109D01*
X007203D01*
X007158Y003064D01*
Y002974D01*
X007203Y002929D01*
X007443D01*
X007458Y002943D01*
X007469Y002939D01*
Y002531D01*
X002531D01*
Y002939D01*
X002542Y002943D01*
X002557Y002929D01*
X002797D01*
X002842Y002974D01*
Y003064D01*
X002797Y003109D01*
X002557D01*
X002542Y003094D01*
X002531Y003099D01*
Y003193D01*
X002542Y003197D01*
X002557Y003183D01*
X002797D01*
X002842Y003228D01*
Y003318D01*
X002797Y003363D01*
X002557D01*
X002542Y003348D01*
X002531Y003353D01*
Y003447D01*
X002542Y003451D01*
X002557Y003437D01*
X002797D01*
X002842Y003482D01*
Y003572D01*
X002797Y003617D01*
X002557D01*
X002542Y003602D01*
X002531Y003607D01*
Y003701D01*
X002542Y003705D01*
X002557Y003691D01*
X002797D01*
X002842Y003736D01*
Y003826D01*
X002797Y003871D01*
X002557D01*
X002542Y003856D01*
X002531Y003861D01*
Y003955D01*
X002542Y003959D01*
X002557Y003945D01*
X002797D01*
X002842Y003990D01*
Y004080D01*
X002797Y004125D01*
X002557D01*
X002542Y004110D01*
X002531Y004115D01*
Y004209D01*
X002542Y004213D01*
X002557Y004199D01*
X002797D01*
X002842Y004244D01*
Y004334D01*
X002797Y004379D01*
X002557D01*
X002542Y004364D01*
X002531Y004369D01*
Y004717D01*
X002542Y004721D01*
X002557Y004707D01*
X002797D01*
X002842Y004752D01*
Y004842D01*
X002797Y004887D01*
X002557D01*
X002542Y004872D01*
X002531Y004877D01*
Y004973D01*
X002542Y004978D01*
X002559Y004961D01*
X002577D01*
Y005051D01*
Y005141D01*
X002559D01*
X002542Y005124D01*
X002531Y005128D01*
Y005225D01*
X002542Y005229D01*
X002557Y005215D01*
X002574D01*
Y005305D01*
Y005395D01*
X002557D01*
X002542Y005380D01*
X002531Y005385D01*
Y005479D01*
X002542Y005483D01*
X002557Y005469D01*
X002797D01*
X002842Y005514D01*
Y005528D01*
X002876D01*
Y005501D01*
X002876Y005501D01*
X002878Y005489D01*
X002885Y005480D01*
X002982Y005382D01*
Y003748D01*
X002982Y003747D01*
X002984Y003736D01*
X002991Y003726D01*
X003101Y003616D01*
X003111Y003609D01*
X003123Y003607D01*
X003123Y003607D01*
X003710D01*
X003710Y003607D01*
X003722Y003609D01*
X003732Y003616D01*
X003817Y003701D01*
X003823Y003711D01*
X003826Y003722D01*
X003826Y003723D01*
Y003865D01*
X003893Y003933D01*
X003905Y003928D01*
Y003925D01*
X004095D01*
Y004085D01*
X003905D01*
Y004029D01*
X003901Y004027D01*
X003773Y003899D01*
X003767Y003889D01*
X003764Y003878D01*
X003764Y003877D01*
Y003735D01*
X003697Y003668D01*
X003135D01*
X003043Y003760D01*
Y003974D01*
X003165D01*
Y003925D01*
X003355D01*
Y004085D01*
X003165D01*
Y004036D01*
X003043D01*
Y004564D01*
X003170D01*
Y004500D01*
X003330D01*
Y004690D01*
X003170D01*
Y004626D01*
X003043D01*
Y005395D01*
X003043Y005395D01*
X003041Y005407D01*
X003034Y005417D01*
X002937Y005514D01*
Y005546D01*
X003017Y005626D01*
X003017Y005626D01*
X003021Y005632D01*
X003023Y005636D01*
X003026Y005647D01*
Y006128D01*
X003023Y006139D01*
X003017Y006149D01*
X003017Y006149D01*
X002661Y006505D01*
Y007305D01*
X002740Y007384D01*
X005147D01*
X005503Y007029D01*
Y006957D01*
X005503Y006958D01*
X005503Y006952D01*
X005503D01*
Y006920D01*
X005573D01*
Y006895D01*
X005503D01*
Y006862D01*
X005503Y006863D01*
X005503Y006857D01*
X005503D01*
Y006768D01*
X005642D01*
Y006774D01*
X005750D01*
Y006750D01*
X005940D01*
Y006774D01*
X006178D01*
X006564Y006388D01*
X006558Y006373D01*
X006555Y006350D01*
X006558Y006327D01*
X006567Y006305D01*
X006582Y006286D01*
X006601Y006271D01*
X006623Y006262D01*
X006646Y006259D01*
X006669Y006262D01*
X006691Y006271D01*
X006710Y006286D01*
X006725Y006305D01*
X006734Y006327D01*
X006737Y006350D01*
X006734Y006373D01*
X006725Y006395D01*
X006710Y006414D01*
X006691Y006429D01*
X006669Y006438D01*
X006646Y006441D01*
X006623Y006438D01*
X006608Y006432D01*
X006213Y006827D01*
X006203Y006833D01*
X006191Y006836D01*
X006191Y006836D01*
X005940D01*
Y006910D01*
X005753D01*
X005642Y007021D01*
Y007047D01*
X005571D01*
X005182Y007437D01*
X005172Y007443D01*
X005160Y007446D01*
X005160Y007446D01*
X002728D01*
X002727Y007446D01*
X002716Y007443D01*
X002706Y007437D01*
X002706Y007437D01*
X002608Y007339D01*
X002602Y007329D01*
X002599Y007318D01*
X002599Y007317D01*
Y006493D01*
X002599Y006493D01*
X002602Y006481D01*
X002608Y006471D01*
X002964Y006115D01*
Y005660D01*
X002894Y005589D01*
X002842D01*
Y005604D01*
X002797Y005649D01*
X002557D01*
X002542Y005634D01*
X002531Y005639D01*
Y005733D01*
X002542Y005737D01*
X002557Y005723D01*
X002797D01*
X002842Y005768D01*
Y005858D01*
X002797Y005903D01*
X002557D01*
X002542Y005888D01*
X002531Y005893D01*
Y005987D01*
X002542Y005991D01*
X002557Y005977D01*
X002797D01*
X002842Y006022D01*
Y006112D01*
X002797Y006157D01*
X002557D01*
X002542Y006142D01*
X002531Y006147D01*
Y007469D01*
X007469D01*
Y007061D01*
D02*
G37*
%LPC*%
G36*
X003785Y004378D02*
Y004313D01*
X003850D01*
X003849Y004320D01*
X003841Y004340D01*
X003828Y004356D01*
X003812Y004369D01*
X003793Y004376D01*
X003785Y004378D01*
D02*
G37*
G36*
X006149Y004603D02*
X006125Y004600D01*
X006103Y004591D01*
X006084Y004577D01*
X006070Y004558D01*
X006061Y004536D01*
X006058Y004512D01*
X006061Y004489D01*
X006070Y004467D01*
X006084Y004448D01*
X006103Y004434D01*
X006125Y004425D01*
X006149Y004422D01*
X006172Y004425D01*
X006194Y004434D01*
X006213Y004448D01*
X006227Y004467D01*
X006236Y004489D01*
X006239Y004512D01*
X006236Y004536D01*
X006227Y004558D01*
X006213Y004577D01*
X006194Y004591D01*
X006172Y004600D01*
X006149Y004603D01*
D02*
G37*
G36*
X005237Y004670D02*
X005196D01*
X005198Y004661D01*
X005210Y004643D01*
X005229Y004631D01*
X005237Y004629D01*
Y004670D01*
D02*
G37*
G36*
X003760Y004378D02*
X003752Y004376D01*
X003733Y004369D01*
X003717Y004356D01*
X003704Y004340D01*
X003696Y004320D01*
X003695Y004313D01*
X003760D01*
Y004378D01*
D02*
G37*
G36*
X003695Y004085D02*
X003613D01*
Y004018D01*
X003695D01*
Y004085D01*
D02*
G37*
G36*
X003587D02*
X003505D01*
Y004018D01*
X003587D01*
Y004085D01*
D02*
G37*
G36*
X003850Y004287D02*
X003785D01*
Y004222D01*
X003793Y004224D01*
X003812Y004231D01*
X003828Y004244D01*
X003841Y004260D01*
X003849Y004280D01*
X003850Y004287D01*
D02*
G37*
G36*
X003760D02*
X003695D01*
X003696Y004280D01*
X003704Y004260D01*
X003717Y004244D01*
X003733Y004231D01*
X003752Y004224D01*
X003760Y004222D01*
Y004287D01*
D02*
G37*
G36*
X005304Y004670D02*
X005263D01*
Y004629D01*
X005271Y004631D01*
X005290Y004643D01*
X005302Y004661D01*
X005304Y004670D01*
D02*
G37*
G36*
X004285Y005025D02*
X004203D01*
Y004958D01*
X004285D01*
Y005025D01*
D02*
G37*
G36*
X004177D02*
X004095D01*
Y004958D01*
X004177D01*
Y005025D01*
D02*
G37*
G36*
Y005117D02*
X004095D01*
Y005050D01*
X004177D01*
Y005117D01*
D02*
G37*
G36*
X002844Y005038D02*
X002602D01*
Y004961D01*
X002800D01*
X002844Y005006D01*
Y005038D01*
D02*
G37*
G36*
X005263Y004736D02*
Y004695D01*
X005304D01*
X005302Y004704D01*
X005290Y004722D01*
X005271Y004734D01*
X005263Y004736D01*
D02*
G37*
G36*
X005237D02*
X005229Y004734D01*
X005210Y004722D01*
X005198Y004704D01*
X005196Y004695D01*
X005237D01*
Y004736D01*
D02*
G37*
G36*
X006490Y004990D02*
X006310D01*
Y004810D01*
X006490D01*
Y004990D01*
D02*
G37*
G36*
X006146Y004991D02*
X006123Y004988D01*
X006101Y004979D01*
X006082Y004964D01*
X006067Y004945D01*
X006058Y004923D01*
X006055Y004900D01*
X006058Y004877D01*
X006067Y004855D01*
X006082Y004836D01*
X006101Y004821D01*
X006123Y004812D01*
X006146Y004809D01*
X006169Y004812D01*
X006191Y004821D01*
X006210Y004836D01*
X006225Y004855D01*
X006234Y004877D01*
X006237Y004900D01*
X006234Y004923D01*
X006225Y004945D01*
X006210Y004964D01*
X006191Y004979D01*
X006169Y004988D01*
X006146Y004991D01*
D02*
G37*
G36*
X003673Y003115D02*
X003650Y003112D01*
X003628Y003103D01*
X003609Y003088D01*
X003594Y003069D01*
X003585Y003047D01*
X003582Y003024D01*
X003585Y003001D01*
X003594Y002979D01*
X003609Y002960D01*
X003628Y002945D01*
X003650Y002936D01*
X003673Y002933D01*
X003696Y002936D01*
X003718Y002945D01*
X003737Y002960D01*
X003752Y002979D01*
X003761Y003001D01*
X003764Y003024D01*
X003761Y003047D01*
X003752Y003069D01*
X003737Y003088D01*
X003718Y003103D01*
X003696Y003112D01*
X003673Y003115D01*
D02*
G37*
G36*
X003373D02*
X003350Y003112D01*
X003328Y003103D01*
X003309Y003088D01*
X003294Y003069D01*
X003285Y003047D01*
X003282Y003024D01*
X003285Y003001D01*
X003294Y002979D01*
X003309Y002960D01*
X003328Y002945D01*
X003350Y002936D01*
X003373Y002933D01*
X003396Y002936D01*
X003418Y002945D01*
X003437Y002960D01*
X003452Y002979D01*
X003461Y003001D01*
X003464Y003024D01*
X003461Y003047D01*
X003452Y003069D01*
X003437Y003088D01*
X003418Y003103D01*
X003396Y003112D01*
X003373Y003115D01*
D02*
G37*
G36*
X004560Y003258D02*
X004483D01*
Y003181D01*
X004560D01*
Y003258D01*
D02*
G37*
G36*
X005465Y003168D02*
X005465Y003168D01*
X004705D01*
X004693Y003166D01*
X004683Y003159D01*
X004683Y003159D01*
X004619Y003095D01*
X004618Y003095D01*
X004596Y003104D01*
X004573Y003107D01*
X004550Y003104D01*
X004528Y003095D01*
X004509Y003081D01*
X004494Y003062D01*
X004485Y003040D01*
X004482Y003017D01*
X004485Y002993D01*
X004494Y002971D01*
X004509Y002952D01*
X004528Y002938D01*
X004523Y002926D01*
X004315D01*
X004313Y002938D01*
X004318Y002940D01*
X004337Y002955D01*
X004352Y002974D01*
X004361Y002996D01*
X004364Y003019D01*
X004361Y003042D01*
X004352Y003064D01*
X004337Y003083D01*
X004318Y003098D01*
X004296Y003107D01*
X004273Y003110D01*
X004250Y003107D01*
X004228Y003098D01*
X004209Y003083D01*
X004194Y003064D01*
X004185Y003042D01*
X004182Y003019D01*
X004185Y002996D01*
X004194Y002974D01*
X004209Y002955D01*
X004228Y002940D01*
X004233Y002938D01*
X004231Y002926D01*
X004015D01*
X004013Y002938D01*
X004018Y002940D01*
X004037Y002955D01*
X004052Y002974D01*
X004061Y002996D01*
X004064Y003019D01*
X004061Y003042D01*
X004052Y003064D01*
X004037Y003083D01*
X004018Y003098D01*
X003996Y003107D01*
X003973Y003110D01*
X003950Y003107D01*
X003928Y003098D01*
X003909Y003083D01*
X003894Y003064D01*
X003885Y003042D01*
X003882Y003019D01*
X003885Y002996D01*
X003894Y002974D01*
X003909Y002955D01*
X003928Y002940D01*
X003933Y002938D01*
X003931Y002926D01*
X003798D01*
X003786Y002923D01*
X003776Y002917D01*
X003776Y002917D01*
X003711Y002852D01*
X003696Y002858D01*
X003673Y002861D01*
X003650Y002858D01*
X003628Y002849D01*
X003609Y002834D01*
X003594Y002815D01*
X003585Y002793D01*
X003582Y002770D01*
X003585Y002747D01*
X003594Y002725D01*
X003609Y002706D01*
X003628Y002691D01*
X003650Y002682D01*
X003673Y002679D01*
X003696Y002682D01*
X003718Y002691D01*
X003737Y002706D01*
X003752Y002725D01*
X003761Y002747D01*
X003764Y002770D01*
X003761Y002793D01*
X003755Y002808D01*
X003811Y002864D01*
X003945D01*
X003948Y002852D01*
X003928Y002844D01*
X003909Y002829D01*
X003894Y002810D01*
X003885Y002788D01*
X003882Y002765D01*
X003885Y002742D01*
X003894Y002720D01*
X003909Y002701D01*
X003928Y002686D01*
X003950Y002677D01*
X003973Y002674D01*
X003996Y002677D01*
X004018Y002686D01*
X004037Y002701D01*
X004044Y002709D01*
X004056Y002710D01*
X004153Y002613D01*
X004153D01*
X004153Y002613D01*
X004153D01*
X004153Y002613D01*
Y002613D01*
X004153Y002613D01*
Y002613D01*
X004163Y002607D01*
X004175Y002604D01*
X005185D01*
X005185Y002604D01*
X005197Y002607D01*
X005207Y002613D01*
X005277Y002683D01*
X005277Y002683D01*
X005283Y002693D01*
X005286Y002705D01*
X005286Y002705D01*
Y002727D01*
X005298Y002730D01*
X005302Y002719D01*
X005317Y002701D01*
X005336Y002686D01*
X005358Y002677D01*
X005381Y002674D01*
X005404Y002677D01*
X005426Y002686D01*
X005445Y002701D01*
X005460Y002719D01*
X005469Y002741D01*
X005472Y002765D01*
X005469Y002788D01*
X005463Y002803D01*
X005532Y002872D01*
X005532Y002872D01*
X005538Y002882D01*
X005541Y002894D01*
Y003092D01*
X005541Y003092D01*
X005538Y003104D01*
X005532Y003114D01*
X005532Y003114D01*
X005487Y003159D01*
X005477Y003166D01*
X005465Y003168D01*
D02*
G37*
G36*
X006429Y002752D02*
X006352D01*
X006354Y002742D01*
X006363Y002720D01*
X006377Y002701D01*
X006396Y002686D01*
X006418Y002677D01*
X006429Y002676D01*
Y002752D01*
D02*
G37*
G36*
X006188Y002856D02*
X006164Y002853D01*
X006142Y002844D01*
X006123Y002829D01*
X006109Y002810D01*
X006100Y002788D01*
X006097Y002765D01*
X006100Y002742D01*
X006109Y002720D01*
X006123Y002701D01*
X006142Y002686D01*
X006164Y002677D01*
X006188Y002674D01*
X006211Y002677D01*
X006233Y002686D01*
X006252Y002701D01*
X006266Y002720D01*
X006275Y002742D01*
X006278Y002765D01*
X006275Y002788D01*
X006266Y002810D01*
X006252Y002829D01*
X006233Y002844D01*
X006211Y002853D01*
X006188Y002856D01*
D02*
G37*
G36*
X003373Y002861D02*
X003350Y002858D01*
X003328Y002849D01*
X003309Y002834D01*
X003294Y002815D01*
X003285Y002793D01*
X003282Y002770D01*
X003285Y002747D01*
X003294Y002725D01*
X003309Y002706D01*
X003328Y002691D01*
X003350Y002682D01*
X003373Y002679D01*
X003396Y002682D01*
X003418Y002691D01*
X003437Y002706D01*
X003452Y002725D01*
X003461Y002747D01*
X003464Y002770D01*
X003461Y002793D01*
X003452Y002815D01*
X003437Y002834D01*
X003418Y002849D01*
X003396Y002858D01*
X003373Y002861D01*
D02*
G37*
G36*
X006531Y002752D02*
X006454D01*
Y002676D01*
X006465Y002677D01*
X006487Y002686D01*
X006506Y002701D01*
X006520Y002720D01*
X006529Y002742D01*
X006531Y002752D01*
D02*
G37*
G36*
X004663Y003258D02*
X004586D01*
Y003181D01*
X004663D01*
Y003258D01*
D02*
G37*
G36*
Y003360D02*
X004586D01*
Y003283D01*
X004663D01*
Y003360D01*
D02*
G37*
G36*
X004560D02*
X004483D01*
Y003283D01*
X004560D01*
Y003360D01*
D02*
G37*
G36*
X003695Y003992D02*
X003613D01*
Y003925D01*
X003695D01*
Y003992D01*
D02*
G37*
G36*
X003587D02*
X003505D01*
Y003925D01*
X003587D01*
Y003992D01*
D02*
G37*
G36*
X004363Y003363D02*
X004183D01*
Y003183D01*
X004363D01*
Y003363D01*
D02*
G37*
G36*
X004063D02*
X003883D01*
Y003183D01*
X004063D01*
Y003363D01*
D02*
G37*
G36*
X003763Y003368D02*
X003583D01*
Y003188D01*
X003763D01*
Y003368D01*
D02*
G37*
G36*
X003463D02*
X003283D01*
Y003188D01*
X003463D01*
Y003368D01*
D02*
G37*
G36*
X004703Y007311D02*
X004679Y007308D01*
X004657Y007299D01*
X004638Y007284D01*
X004624Y007265D01*
X004615Y007243D01*
X004612Y007220D01*
X004615Y007197D01*
X004624Y007175D01*
X004638Y007156D01*
X004657Y007141D01*
X004672Y007135D01*
Y007028D01*
X004672Y007028D01*
X004674Y007016D01*
X004681Y007006D01*
Y006999D01*
X004502Y006821D01*
X004255D01*
Y006870D01*
X004065D01*
Y006821D01*
X003815D01*
Y006870D01*
X003661D01*
X003389Y007142D01*
X003379Y007148D01*
X003367Y007151D01*
X003367Y007151D01*
X002890D01*
X002884Y007165D01*
X002869Y007184D01*
X002850Y007199D01*
X002828Y007208D01*
X002805Y007211D01*
X002782Y007208D01*
X002760Y007199D01*
X002741Y007184D01*
X002726Y007165D01*
X002717Y007143D01*
X002714Y007120D01*
X002717Y007097D01*
X002726Y007075D01*
X002741Y007056D01*
X002760Y007041D01*
X002782Y007032D01*
X002805Y007029D01*
X002828Y007032D01*
X002850Y007041D01*
X002869Y007056D01*
X002884Y007075D01*
X002890Y007089D01*
X003024D01*
X003027Y007077D01*
X003014Y007072D01*
X002995Y007057D01*
X002980Y007038D01*
X002971Y007016D01*
X002968Y006993D01*
X002971Y006970D01*
X002980Y006948D01*
X002995Y006929D01*
X003014Y006914D01*
X003036Y006905D01*
X003059Y006902D01*
X003082Y006905D01*
X003104Y006914D01*
X003123Y006929D01*
X003138Y006948D01*
X003147Y006970D01*
X003150Y006993D01*
X003147Y007016D01*
X003138Y007038D01*
X003123Y007057D01*
X003104Y007072D01*
X003082Y007081D01*
X003059Y007084D01*
X003065Y007089D01*
X003355D01*
X003625Y006819D01*
Y006710D01*
X003815D01*
Y006759D01*
X004065D01*
Y006710D01*
X004255D01*
Y006759D01*
X004484D01*
Y006128D01*
X004484Y006128D01*
X004487Y006116D01*
X004493Y006106D01*
X004506Y006093D01*
X004504Y006083D01*
X004508Y006061D01*
X004520Y006043D01*
X004539Y006031D01*
X004560Y006026D01*
X004581Y006031D01*
X004600Y006043D01*
X004612Y006061D01*
X004616Y006083D01*
X004612Y006104D01*
X004600Y006122D01*
X004581Y006134D01*
X004560Y006139D01*
X004555Y006138D01*
X004546Y006146D01*
Y006777D01*
X004740Y006972D01*
X005262D01*
Y006957D01*
X005403D01*
Y007047D01*
X005262D01*
Y007033D01*
X004740D01*
X004733Y007040D01*
Y007135D01*
X004748Y007141D01*
X004767Y007156D01*
X004781Y007175D01*
X004790Y007197D01*
X004793Y007220D01*
X004790Y007243D01*
X004781Y007265D01*
X004767Y007284D01*
X004748Y007299D01*
X004726Y007308D01*
X004703Y007311D01*
D02*
G37*
G36*
X002894Y006853D02*
X002818D01*
Y006777D01*
X002828Y006778D01*
X002850Y006787D01*
X002869Y006802D01*
X002884Y006821D01*
X002893Y006843D01*
X002894Y006853D01*
D02*
G37*
G36*
X002818Y006955D02*
Y006879D01*
X002894D01*
X002893Y006889D01*
X002884Y006911D01*
X002869Y006930D01*
X002850Y006945D01*
X002828Y006954D01*
X002818Y006955D01*
D02*
G37*
G36*
X002792D02*
X002782Y006954D01*
X002760Y006945D01*
X002741Y006930D01*
X002726Y006911D01*
X002717Y006889D01*
X002716Y006879D01*
X002792D01*
Y006955D01*
D02*
G37*
G36*
X007400Y006817D02*
X007203D01*
X007158Y006772D01*
Y006740D01*
X007400D01*
Y006817D01*
D02*
G37*
G36*
Y006714D02*
X007158D01*
Y006682D01*
X007203Y006637D01*
X007400D01*
Y006714D01*
D02*
G37*
G36*
X002792Y006853D02*
X002716D01*
X002717Y006843D01*
X002726Y006821D01*
X002741Y006802D01*
X002760Y006787D01*
X002782Y006778D01*
X002792Y006777D01*
Y006853D01*
D02*
G37*
G36*
X005403Y006857D02*
X005262D01*
Y006768D01*
X005403D01*
Y006857D01*
D02*
G37*
G36*
X005832Y007007D02*
X005750D01*
Y006940D01*
X005832D01*
Y007007D01*
D02*
G37*
G36*
X002985Y007351D02*
X002962Y007348D01*
X002940Y007339D01*
X002921Y007324D01*
X002906Y007305D01*
X002897Y007283D01*
X002894Y007260D01*
X002897Y007237D01*
X002906Y007215D01*
X002921Y007196D01*
X002940Y007181D01*
X002962Y007172D01*
X002985Y007169D01*
X003008Y007172D01*
X003030Y007181D01*
X003049Y007196D01*
X003064Y007215D01*
X003073Y007237D01*
X003076Y007260D01*
X003073Y007283D01*
X003064Y007305D01*
X003049Y007324D01*
X003030Y007339D01*
X003008Y007348D01*
X002985Y007351D01*
D02*
G37*
G36*
X005047Y007207D02*
X004969D01*
Y007130D01*
X005047D01*
Y007207D01*
D02*
G37*
G36*
Y007310D02*
X004969D01*
Y007233D01*
X005047D01*
Y007310D01*
D02*
G37*
G36*
X004944D02*
X004867D01*
Y007233D01*
X004944D01*
Y007310D01*
D02*
G37*
G36*
X005832Y007100D02*
X005750D01*
Y007033D01*
X005832D01*
Y007100D01*
D02*
G37*
G36*
X005940Y007007D02*
X005858D01*
Y006940D01*
X005940D01*
Y007007D01*
D02*
G37*
G36*
X004944Y007207D02*
X004867D01*
Y007130D01*
X004944D01*
Y007207D01*
D02*
G37*
G36*
X005940Y007100D02*
X005858D01*
Y007033D01*
X005940D01*
Y007100D01*
D02*
G37*
G36*
X006482Y005540D02*
X006302D01*
Y005360D01*
X006482D01*
Y005540D01*
D02*
G37*
G36*
X002797Y005395D02*
X002600D01*
Y005317D01*
X002842D01*
Y005350D01*
X002797Y005395D01*
D02*
G37*
G36*
X004888Y005544D02*
X004866Y005539D01*
X004848Y005527D01*
X004836Y005509D01*
X004831Y005488D01*
X004834Y005477D01*
X004611Y005254D01*
X004608Y005250D01*
X004593Y005240D01*
X004581Y005221D01*
X004576Y005200D01*
X004581Y005179D01*
X004593Y005160D01*
X004611Y005148D01*
X004633Y005144D01*
X004654Y005148D01*
X004672Y005160D01*
X004684Y005179D01*
X004689Y005200D01*
X004684Y005221D01*
X004676Y005233D01*
X004877Y005434D01*
X004888Y005431D01*
X004909Y005436D01*
X004927Y005448D01*
X004939Y005466D01*
X004944Y005488D01*
X004939Y005509D01*
X004927Y005527D01*
X004909Y005539D01*
X004888Y005544D01*
D02*
G37*
G36*
X003770Y005476D02*
X003767Y005475D01*
X003754Y005467D01*
X003746Y005454D01*
X003743Y005438D01*
Y005393D01*
X003770D01*
Y005476D01*
D02*
G37*
G36*
X002800Y005141D02*
X002602D01*
Y005063D01*
X002844D01*
Y005096D01*
X002800Y005141D01*
D02*
G37*
G36*
X004285Y005117D02*
X004203D01*
Y005050D01*
X004285D01*
Y005117D01*
D02*
G37*
G36*
X003770Y005367D02*
X003743D01*
Y005322D01*
X003746Y005306D01*
X003754Y005293D01*
X003767Y005285D01*
X003770Y005284D01*
Y005367D01*
D02*
G37*
G36*
X002842Y005292D02*
X002600D01*
Y005215D01*
X002797D01*
X002842Y005260D01*
Y005292D01*
D02*
G37*
G36*
X003059Y006830D02*
X003036Y006827D01*
X003014Y006818D01*
X002995Y006803D01*
X002980Y006784D01*
X002971Y006762D01*
X002968Y006739D01*
X002971Y006716D01*
X002980Y006694D01*
X002995Y006675D01*
X003014Y006660D01*
X003036Y006651D01*
X003059Y006648D01*
X003082Y006651D01*
X003097Y006657D01*
X003176Y006578D01*
X003186Y006572D01*
X003198Y006569D01*
X003198Y006569D01*
X003625D01*
Y006520D01*
X003689D01*
Y006109D01*
X003683Y006105D01*
X003671Y006086D01*
X003666Y006065D01*
X003671Y006044D01*
X003683Y006025D01*
X003689Y006021D01*
Y005990D01*
X003689Y005990D01*
X003692Y005978D01*
X003698Y005968D01*
X003882Y005785D01*
Y005476D01*
X003871Y005470D01*
X003863Y005475D01*
X003847Y005478D01*
X003832Y005475D01*
X003819Y005467D01*
X003811D01*
X003798Y005475D01*
X003795Y005476D01*
Y005380D01*
Y005284D01*
X003798Y005285D01*
X003806Y005290D01*
X003817Y005284D01*
Y005255D01*
X003817Y005255D01*
X003819Y005243D01*
X003826Y005233D01*
X003843Y005216D01*
X003843Y005216D01*
X003849Y005212D01*
X003853Y005209D01*
X003865Y005207D01*
X004095D01*
Y005147D01*
X004285D01*
Y005282D01*
X004584Y005581D01*
X004584Y005581D01*
X004591Y005591D01*
X004591Y005591D01*
X004591Y005591D01*
X004593Y005603D01*
X004593Y005603D01*
Y005819D01*
X004602Y005825D01*
X004614Y005844D01*
X004619Y005865D01*
X004614Y005886D01*
X004602Y005905D01*
X004584Y005917D01*
X004562Y005921D01*
X004541Y005917D01*
X004523Y005905D01*
X004511Y005886D01*
X004506Y005865D01*
X004511Y005844D01*
X004523Y005825D01*
X004532Y005819D01*
Y005615D01*
X004224Y005308D01*
X004095D01*
Y005268D01*
X003878D01*
Y005284D01*
X003889Y005290D01*
X003897Y005285D01*
X003912Y005282D01*
X003928Y005285D01*
X003941Y005293D01*
X003949D01*
X003962Y005285D01*
X003978Y005282D01*
X003993Y005285D01*
X004006Y005293D01*
X004014Y005306D01*
X004017Y005322D01*
Y005438D01*
X004014Y005454D01*
X004008Y005463D01*
Y005578D01*
X004022Y005588D01*
X004034Y005606D01*
X004039Y005628D01*
X004034Y005649D01*
X004022Y005667D01*
X004008Y005677D01*
Y006405D01*
X004123Y006520D01*
X004255D01*
Y006680D01*
X004065D01*
Y006548D01*
X003956Y006439D01*
X003949Y006429D01*
X003947Y006418D01*
X003947Y006417D01*
Y005822D01*
X003935Y005818D01*
X003934Y005819D01*
X003934Y005819D01*
X003751Y006003D01*
Y006018D01*
X003762Y006025D01*
X003774Y006044D01*
X003779Y006065D01*
X003774Y006086D01*
X003762Y006105D01*
X003751Y006112D01*
Y006520D01*
X003815D01*
Y006680D01*
X003625D01*
Y006631D01*
X003211D01*
X003141Y006701D01*
X003147Y006716D01*
X003150Y006739D01*
X003147Y006762D01*
X003138Y006784D01*
X003123Y006803D01*
X003104Y006818D01*
X003082Y006827D01*
X003059Y006830D01*
D02*
G37*
G36*
X006379Y006337D02*
X006302D01*
Y006260D01*
X006379D01*
Y006337D01*
D02*
G37*
G36*
X006482Y006440D02*
X006405D01*
Y006363D01*
X006482D01*
Y006440D01*
D02*
G37*
G36*
X006379D02*
X006302D01*
Y006363D01*
X006379D01*
Y006440D01*
D02*
G37*
G36*
X006482Y006337D02*
X006405D01*
Y006260D01*
X006482D01*
Y006337D01*
D02*
G37*
G36*
Y005840D02*
X006302D01*
Y005660D01*
X006482D01*
Y005840D01*
D02*
G37*
G36*
X006646Y005841D02*
X006623Y005838D01*
X006601Y005829D01*
X006582Y005814D01*
X006567Y005795D01*
X006558Y005773D01*
X006555Y005750D01*
X006558Y005727D01*
X006567Y005705D01*
X006582Y005686D01*
X006601Y005671D01*
X006623Y005662D01*
X006646Y005659D01*
X006669Y005662D01*
X006691Y005671D01*
X006710Y005686D01*
X006725Y005705D01*
X006734Y005727D01*
X006737Y005750D01*
X006734Y005773D01*
X006725Y005795D01*
X006710Y005814D01*
X006691Y005829D01*
X006669Y005838D01*
X006646Y005841D01*
D02*
G37*
G36*
X006482Y006140D02*
X006302D01*
Y005960D01*
X006482D01*
Y006140D01*
D02*
G37*
G36*
X006646Y006141D02*
X006623Y006138D01*
X006601Y006129D01*
X006582Y006114D01*
X006567Y006095D01*
X006558Y006073D01*
X006555Y006050D01*
X006558Y006027D01*
X006567Y006005D01*
X006582Y005986D01*
X006601Y005971D01*
X006623Y005962D01*
X006646Y005959D01*
X006669Y005962D01*
X006691Y005971D01*
X006710Y005986D01*
X006725Y006005D01*
X006734Y006027D01*
X006737Y006050D01*
X006734Y006073D01*
X006725Y006095D01*
X006710Y006114D01*
X006691Y006129D01*
X006669Y006138D01*
X006646Y006141D01*
D02*
G37*
%LPD*%
G36*
X005332Y003095D02*
X005317Y003083D01*
X005302Y003064D01*
X005293Y003042D01*
X005290Y003019D01*
X005293Y002995D01*
X005299Y002981D01*
X005233Y002914D01*
X005227Y002905D01*
X005224Y002893D01*
X005224Y002893D01*
Y002797D01*
X005212Y002795D01*
X005206Y002810D01*
X005191Y002829D01*
X005172Y002843D01*
X005150Y002852D01*
X005127Y002856D01*
X005104Y002852D01*
X005082Y002843D01*
X005063Y002829D01*
X005048Y002810D01*
X005039Y002788D01*
X005036Y002765D01*
X005039Y002741D01*
X005048Y002719D01*
X005063Y002701D01*
X005082Y002686D01*
X005101Y002678D01*
X005099Y002666D01*
X004963D01*
Y002675D01*
X004963D01*
Y002752D01*
X004783D01*
Y002675D01*
X004783D01*
Y002675D01*
X004774Y002666D01*
X004607D01*
X004604Y002678D01*
X004618Y002684D01*
X004637Y002698D01*
X004652Y002717D01*
X004661Y002739D01*
X004664Y002762D01*
X004661Y002786D01*
X004652Y002808D01*
X004637Y002827D01*
X004618Y002841D01*
X004596Y002850D01*
X004585Y002852D01*
X004586Y002864D01*
X004783D01*
Y002855D01*
X004783D01*
Y002777D01*
X004963D01*
Y002855D01*
X004963D01*
Y002855D01*
X004972Y002864D01*
X005003D01*
X005003Y002864D01*
X005015Y002867D01*
X005025Y002873D01*
X005089Y002937D01*
X005104Y002931D01*
X005127Y002928D01*
X005150Y002931D01*
X005172Y002940D01*
X005191Y002955D01*
X005206Y002973D01*
X005215Y002995D01*
X005218Y003019D01*
X005215Y003042D01*
X005206Y003064D01*
X005191Y003083D01*
X005172Y003097D01*
X005150Y003106D01*
Y003106D01*
X005151Y003107D01*
X005328D01*
X005332Y003095D01*
D02*
G37*
D10*
X003250Y004595D02*
D03*
X003440D02*
D03*
D11*
X005845Y007020D02*
D03*
Y006830D02*
D03*
X004190Y005228D02*
D03*
Y005038D02*
D03*
X004160Y006790D02*
D03*
Y006600D02*
D03*
X003720Y006790D02*
D03*
Y006600D02*
D03*
X003260Y004005D02*
D03*
Y003815D02*
D03*
X003600Y004005D02*
D03*
Y003815D02*
D03*
X004000Y004005D02*
D03*
Y003815D02*
D03*
D17*
X004703Y007028D02*
X004728Y007003D01*
X004703Y007028D02*
Y007220D01*
X004160Y006790D02*
X004515D01*
X007120Y005583D02*
Y006130D01*
X006900Y006350D02*
X007120Y006130D01*
X006191Y006805D02*
X006646Y006350D01*
X004728Y007003D02*
X005333D01*
X004515Y006790D02*
X004728Y007003D01*
X003720Y006790D02*
X004160D01*
X003978Y006418D02*
X004160Y006600D01*
X003847Y005255D02*
Y005380D01*
X005160Y007415D02*
X005572Y007003D01*
X002630Y006493D02*
Y007318D01*
Y006493D02*
X002995Y006128D01*
Y005647D02*
Y006128D01*
X002906Y005559D02*
X002995Y005647D01*
X002906Y005501D02*
Y005559D01*
Y005501D02*
X003012Y005395D01*
Y003747D02*
X003123Y003638D01*
X003710D01*
X003795Y003722D01*
Y003878D01*
X003922Y004005D01*
X004000D01*
X003015D02*
X003260D01*
X003015Y004595D02*
X003250D01*
X003012Y003747D02*
Y005395D01*
X003422Y003815D02*
Y004200D01*
X003783Y004560D01*
X003260Y003815D02*
X003422D01*
X003600D01*
X003440Y004595D02*
Y004853D01*
X003912Y004403D02*
X004165Y004150D01*
Y003892D02*
Y004150D01*
X004088Y003815D02*
X004165Y003892D01*
X003973Y002765D02*
X004045D01*
X004175Y002635D01*
X005185D01*
X005255Y002705D01*
Y002893D01*
X005381Y003019D01*
X003673Y002770D02*
X003798Y002895D01*
X005003D01*
X005127Y003019D01*
X004573Y003017D02*
X004584D01*
X004705Y003138D01*
X005465D01*
X005510Y003092D01*
Y002894D02*
Y003092D01*
X005381Y002765D02*
X005510Y002894D01*
X003978Y004555D02*
X005155Y003378D01*
X005956D01*
X006315Y003019D01*
X004465Y003815D02*
X005067Y003212D01*
X006439Y002890D02*
X006568Y003019D01*
X004000Y003815D02*
X004088D01*
X004465D01*
X006568Y003019D02*
Y003278D01*
X007071Y003781D01*
X003847Y005255D02*
X003865Y005238D01*
X002587Y005559D02*
X002906D01*
X007071Y003781D02*
X007413D01*
X007245Y005457D02*
X007413D01*
X007120Y005583D02*
X007245Y005457D01*
X003978Y004555D02*
Y004980D01*
X003912Y004403D02*
Y004980D01*
X003783Y004560D02*
Y004980D01*
X003847D01*
X003440Y004853D02*
X003692Y005105D01*
X003938D01*
X003978Y005065D01*
Y004980D02*
Y005065D01*
X006900Y004770D02*
Y005450D01*
Y004770D02*
X007127Y004543D01*
X007413D01*
X006900Y005705D02*
Y005750D01*
X006770Y005575D02*
X006900Y005705D01*
X006770Y004683D02*
Y005575D01*
Y004683D02*
X007164Y004289D01*
X007413D01*
X002727Y007415D02*
X005160D01*
X002630Y007318D02*
X002727Y007415D01*
X003198Y006600D02*
X003720D01*
X003059Y006739D02*
X003198Y006600D01*
X003697Y006790D02*
X003720D01*
X003367Y007120D02*
X003697Y006790D01*
X002805Y007120D02*
X003367D01*
X006260Y002890D02*
X006439D01*
X005938Y003212D02*
X006260Y002890D01*
X005067Y003212D02*
X005938D01*
X003912Y005355D02*
Y005380D01*
X003865Y005238D02*
X004170D01*
X005572Y007003D02*
X005617D01*
X005790Y006830D01*
X005845D01*
X005580Y006805D02*
X006191D01*
X003720Y005990D02*
X003912Y005797D01*
Y005380D02*
Y005797D01*
X003720Y005990D02*
Y006600D01*
X003978Y005355D02*
Y005380D01*
X004633Y005200D02*
Y005233D01*
X004888Y005488D01*
X003978Y005380D02*
Y006418D01*
X004190Y005230D02*
X004562Y005603D01*
Y005865D01*
X004515Y006128D02*
Y006790D01*
Y006128D02*
X004560Y006083D01*
X006403Y004512D02*
X006880Y004035D01*
X007413D01*
X007075Y005460D02*
Y005565D01*
X007045Y005595D02*
X007075Y005565D01*
X007045Y005595D02*
Y006010D01*
X007050Y006015D01*
D19*
X002500Y002500D02*
X007500D01*
Y007500D01*
X002500D02*
X007500D01*
X002500Y002500D02*
Y007500D01*
D20*
X004956Y007220D02*
D03*
X006392Y006050D02*
D03*
Y005750D02*
D03*
Y005450D02*
D03*
X004873Y002765D02*
D03*
X006403Y004512D02*
D03*
X006400Y004900D02*
D03*
D21*
X004703Y007220D02*
D03*
X004573Y002762D02*
D03*
Y003017D02*
D03*
X006900Y006350D02*
D03*
X006646D02*
D03*
X003059Y006739D02*
D03*
X002805Y006866D02*
D03*
X003059Y006993D02*
D03*
X002805Y007120D02*
D03*
X003673Y002770D02*
D03*
Y003024D02*
D03*
X004273Y002765D02*
D03*
Y003019D02*
D03*
X006900Y006050D02*
D03*
X006646D02*
D03*
X003973Y002765D02*
D03*
Y003019D02*
D03*
X006900Y005750D02*
D03*
X006646D02*
D03*
X006900Y005450D02*
D03*
X006646D02*
D03*
X003373Y002770D02*
D03*
Y003024D02*
D03*
X004873Y003019D02*
D03*
X005127Y002765D02*
D03*
Y003019D02*
D03*
X005381Y002765D02*
D03*
Y003019D02*
D03*
X006188Y002765D02*
D03*
X006442D02*
D03*
X006315Y003019D02*
D03*
X006568D02*
D03*
X006149Y004512D02*
D03*
X006146Y004900D02*
D03*
D22*
X004573Y003271D02*
D03*
X006392Y006350D02*
D03*
X003673Y003278D02*
D03*
X004273Y003273D02*
D03*
X003973D02*
D03*
X003373Y003278D02*
D03*
D23*
X002985Y007260D02*
D03*
X006047Y002945D02*
D03*
D24*
X002677Y003273D02*
D03*
Y003019D02*
D03*
Y003527D02*
D03*
Y003781D02*
D03*
Y004289D02*
D03*
Y004035D02*
D03*
X002680Y005051D02*
D03*
X002677Y004797D02*
D03*
Y005559D02*
D03*
Y005305D02*
D03*
Y006067D02*
D03*
Y005813D02*
D03*
X007323Y006473D02*
D03*
Y004035D02*
D03*
Y003781D02*
D03*
Y004543D02*
D03*
Y004289D02*
D03*
Y003273D02*
D03*
Y003019D02*
D03*
Y003527D02*
D03*
Y006219D02*
D03*
Y005965D02*
D03*
Y006981D02*
D03*
Y006727D02*
D03*
Y005203D02*
D03*
Y004797D02*
D03*
Y005711D02*
D03*
Y005457D02*
D03*
D25*
X003772Y004300D02*
D03*
D26*
X005250Y004683D02*
D03*
X004190Y005230D02*
D03*
X003722Y006065D02*
D03*
X003983Y005628D02*
D03*
X004888Y005488D02*
D03*
X004633Y005200D02*
D03*
X004562Y005865D02*
D03*
X004560Y006083D02*
D03*
X007075Y005460D02*
D03*
X007045Y006010D02*
D03*
X007347Y007203D02*
D03*
X002635Y006230D02*
D03*
X002690Y004553D02*
D03*
X002738Y002745D02*
D03*
X003265Y005660D02*
D03*
X003262Y005122D02*
D03*
X003630Y005680D02*
D03*
Y004805D02*
D03*
X004125Y003575D02*
D03*
X005810Y002605D02*
D03*
X005788Y002955D02*
D03*
X006905Y002805D02*
D03*
X006345Y003447D02*
D03*
X006965Y004175D02*
D03*
X006290Y004710D02*
D03*
X006445Y006755D02*
D03*
X005747Y006582D02*
D03*
X004517Y005115D02*
D03*
X005328Y005172D02*
D03*
Y006088D02*
D03*
X004815Y005733D02*
D03*
X005075Y005590D02*
D03*
X004195Y005983D02*
D03*
X004203Y004870D02*
D03*
X005858Y007195D02*
D03*
D27*
X005333Y006812D02*
D03*
Y007003D02*
D03*
X005572Y006812D02*
D03*
Y007003D02*
D03*
Y006907D02*
D03*
D28*
X003978Y005380D02*
D03*
X003912D02*
D03*
X003847D02*
D03*
X003978Y004955D02*
D03*
X003847D02*
D03*
X003783D02*
D03*
X003912D02*
D03*
X003783Y005380D02*
D03*
M02*
