%FSAX42Y42*%
%MOMM*%
G71*
G01*
G75*
G04 Layer_Physical_Order=1*
G04 Layer_Color=255*
%ADD10R,1.30X1.60*%
%ADD11R,1.60X1.30*%
%ADD12R,0.80X0.33*%
%ADD13R,0.33X0.80*%
%ADD14O,0.35X0.80*%
%ADD15O,0.80X0.35*%
%ADD16R,1.30X1.50*%
%ADD17C,0.30*%
%ADD18C,0.24*%
%ADD19C,0.25*%
%ADD20R,1.50X1.50*%
%ADD21C,1.50*%
%ADD22R,1.50X1.50*%
%ADD23C,1.30*%
G04:AMPARAMS|DCode=24|XSize=3mm|YSize=1.5mm|CornerRadius=0mm|HoleSize=0mm|Usage=FLASHONLY|Rotation=0.000|XOffset=0mm|YOffset=0mm|HoleType=Round|Shape=Octagon|*
%AMOCTAGOND24*
4,1,8,1.50,-0.38,1.50,0.38,1.13,0.75,-1.13,0.75,-1.50,0.38,-1.50,-0.38,-1.13,-0.75,1.13,-0.75,1.50,-0.38,0.0*
%
%ADD24OCTAGOND24*%

%ADD25C,1.27*%
%ADD26C,0.80*%
G36*
X007469Y007061D02*
X007458Y007057D01*
X007443Y007071D01*
X007203D01*
X007158Y007026D01*
Y006936D01*
X007203Y006891D01*
X007443D01*
X007458Y006906D01*
X007469Y006901D01*
Y006807D01*
X007458Y006803D01*
X007443Y006817D01*
X007426D01*
Y006727D01*
Y006637D01*
X007443D01*
X007458Y006652D01*
X007469Y006647D01*
Y006553D01*
X007458Y006549D01*
X007443Y006563D01*
X007203D01*
X007158Y006518D01*
Y006428D01*
X007203Y006383D01*
X007443D01*
X007458Y006398D01*
X007469Y006393D01*
Y006299D01*
X007458Y006295D01*
X007443Y006309D01*
X007203D01*
X007158Y006264D01*
Y006174D01*
X007203Y006129D01*
X007443D01*
X007458Y006144D01*
X007469Y006139D01*
Y006045D01*
X007458Y006041D01*
X007443Y006055D01*
X007203D01*
X007188Y006041D01*
X007091D01*
X007085Y006050D01*
X007066Y006062D01*
X007045Y006066D01*
X007024Y006062D01*
X007005Y006050D01*
X007004Y006048D01*
X006991Y006050D01*
X006988Y006073D01*
X006979Y006095D01*
X006964Y006114D01*
X006945Y006129D01*
X006923Y006138D01*
X006900Y006141D01*
X006877Y006138D01*
X006855Y006129D01*
X006836Y006114D01*
X006821Y006095D01*
X006812Y006073D01*
X006809Y006050D01*
X006812Y006027D01*
X006821Y006005D01*
X006836Y005986D01*
X006855Y005971D01*
X006877Y005962D01*
X006900Y005959D01*
X006923Y005962D01*
X006938Y005968D01*
X007158Y005749D01*
Y005666D01*
X007203Y005621D01*
X007443D01*
X007458Y005636D01*
X007469Y005631D01*
Y005537D01*
X007458Y005533D01*
X007443Y005547D01*
X007203D01*
X007158Y005502D01*
Y005412D01*
X007203Y005367D01*
X007443D01*
X007458Y005382D01*
X007469Y005377D01*
Y005283D01*
X007458Y005279D01*
X007443Y005293D01*
X007203D01*
X007158Y005248D01*
Y005158D01*
X007203Y005113D01*
X007263D01*
X007268Y005101D01*
X005665Y003498D01*
X003603D01*
X003591Y003496D01*
X003581Y003489D01*
X003581Y003489D01*
X003516Y003424D01*
X003509Y003414D01*
X003507Y003403D01*
X003507Y003402D01*
Y002903D01*
X003438Y002834D01*
X003437Y002834D01*
X003418Y002849D01*
X003396Y002858D01*
X003373Y002861D01*
X003350Y002858D01*
X003328Y002849D01*
X003309Y002834D01*
X003294Y002815D01*
X003285Y002793D01*
X003282Y002770D01*
X003285Y002747D01*
X003294Y002725D01*
X003309Y002706D01*
X003328Y002691D01*
X003350Y002682D01*
X003373Y002679D01*
X003396Y002682D01*
X003418Y002691D01*
X003437Y002706D01*
X003452Y002725D01*
X003461Y002747D01*
X003464Y002770D01*
X003463Y002773D01*
X003559Y002868D01*
X003566Y002878D01*
X003568Y002890D01*
X003568Y002890D01*
Y003390D01*
X003615Y003437D01*
X005677D01*
X005677Y003437D01*
X005689Y003439D01*
X005699Y003446D01*
X007366Y005113D01*
X007443D01*
X007458Y005128D01*
X007469Y005123D01*
Y004877D01*
X007458Y004872D01*
X007443Y004887D01*
X007203D01*
X007158Y004842D01*
Y004789D01*
X006863Y004494D01*
X006857Y004484D01*
X006854Y004472D01*
X006854Y004472D01*
Y004321D01*
X005836Y003303D01*
X004903D01*
X004903Y003303D01*
X004891Y003301D01*
X004881Y003294D01*
X004881Y003294D01*
X004708Y003122D01*
X004702Y003112D01*
X004699Y003100D01*
X004699Y003100D01*
Y002925D01*
X004616Y002842D01*
X004596Y002850D01*
X004573Y002853D01*
X004550Y002850D01*
X004528Y002841D01*
X004509Y002827D01*
X004494Y002808D01*
X004485Y002786D01*
X004482Y002762D01*
X004485Y002739D01*
X004494Y002717D01*
X004509Y002698D01*
X004528Y002684D01*
X004530Y002683D01*
X004527Y002671D01*
X004411D01*
X004355Y002727D01*
X004361Y002742D01*
X004364Y002765D01*
X004361Y002788D01*
X004352Y002810D01*
X004337Y002829D01*
X004318Y002844D01*
X004296Y002853D01*
X004273Y002856D01*
X004250Y002853D01*
X004228Y002844D01*
X004209Y002829D01*
X004194Y002810D01*
X004185Y002788D01*
X004182Y002765D01*
X004185Y002742D01*
X004194Y002720D01*
X004209Y002701D01*
X004228Y002686D01*
X004250Y002677D01*
X004273Y002674D01*
X004296Y002677D01*
X004311Y002683D01*
X004376Y002618D01*
X004376Y002618D01*
X004386Y002612D01*
X004398Y002609D01*
X005002D01*
X005002Y002609D01*
X005014Y002612D01*
X005024Y002618D01*
X005089Y002683D01*
X005104Y002677D01*
X005127Y002674D01*
X005150Y002677D01*
X005172Y002686D01*
X005191Y002701D01*
X005206Y002719D01*
X005215Y002741D01*
X005218Y002765D01*
X005215Y002788D01*
X005206Y002810D01*
X005191Y002829D01*
X005172Y002843D01*
X005150Y002852D01*
X005127Y002856D01*
X005104Y002852D01*
X005082Y002843D01*
X005063Y002829D01*
X005048Y002810D01*
X005039Y002788D01*
X005036Y002765D01*
X005039Y002741D01*
X005045Y002727D01*
X004990Y002671D01*
X004967D01*
X004963Y002675D01*
X004963Y002680D01*
X004963Y002680D01*
X004963D01*
Y002752D01*
X004783D01*
Y002680D01*
X004783Y002680D01*
X004783D01*
X004783Y002675D01*
X004779Y002671D01*
X004619D01*
X004616Y002683D01*
X004618Y002684D01*
X004637Y002698D01*
X004652Y002717D01*
X004661Y002739D01*
X004664Y002762D01*
X004661Y002786D01*
X004657Y002796D01*
X004752Y002891D01*
X004752Y002891D01*
X004758Y002901D01*
X004761Y002912D01*
Y003087D01*
X004915Y003242D01*
X005849D01*
X005849Y003242D01*
X005860Y003244D01*
X005870Y003251D01*
X006907Y004287D01*
X006907Y004287D01*
X006913Y004297D01*
X006913Y004297D01*
X006913Y004297D01*
X006916Y004309D01*
X006916Y004309D01*
Y004460D01*
X007176Y004721D01*
X007189D01*
X007203Y004707D01*
X007443D01*
X007458Y004721D01*
X007469Y004717D01*
Y004623D01*
X007458Y004618D01*
X007443Y004633D01*
X007203D01*
X007158Y004588D01*
Y004498D01*
X007203Y004453D01*
X007443D01*
X007458Y004467D01*
X007469Y004463D01*
Y004369D01*
X007458Y004364D01*
X007443Y004379D01*
X007203D01*
X007158Y004334D01*
Y004244D01*
X007203Y004199D01*
X007443D01*
X007458Y004213D01*
X007469Y004209D01*
Y004115D01*
X007458Y004110D01*
X007443Y004125D01*
X007203D01*
X007158Y004080D01*
Y003990D01*
X007203Y003945D01*
X007443D01*
X007458Y003959D01*
X007469Y003955D01*
Y003861D01*
X007458Y003856D01*
X007443Y003871D01*
X007203D01*
X007158Y003826D01*
Y003736D01*
X007203Y003691D01*
X007443D01*
X007458Y003705D01*
X007469Y003701D01*
Y003607D01*
X007458Y003602D01*
X007443Y003617D01*
X007203D01*
X007158Y003572D01*
Y003557D01*
X006822D01*
X006811Y003555D01*
X006801Y003548D01*
X006353Y003101D01*
X006338Y003107D01*
X006315Y003110D01*
X006291Y003107D01*
X006269Y003098D01*
X006250Y003083D01*
X006236Y003064D01*
X006227Y003042D01*
X006224Y003019D01*
X006227Y002996D01*
X006236Y002974D01*
X006250Y002955D01*
X006269Y002940D01*
X006291Y002931D01*
X006315Y002928D01*
X006338Y002931D01*
X006360Y002940D01*
X006379Y002955D01*
X006393Y002974D01*
X006402Y002996D01*
X006405Y003019D01*
X006402Y003042D01*
X006396Y003057D01*
X006835Y003496D01*
X007158D01*
Y003482D01*
X007203Y003437D01*
X007443D01*
X007458Y003451D01*
X007469Y003447D01*
Y003353D01*
X007458Y003348D01*
X007443Y003363D01*
X007203D01*
X007158Y003318D01*
Y003228D01*
X007203Y003183D01*
X007443D01*
X007458Y003197D01*
X007469Y003193D01*
Y003099D01*
X007458Y003094D01*
X007443Y003109D01*
X007203D01*
X007158Y003064D01*
Y002974D01*
X007203Y002929D01*
X007443D01*
X007458Y002943D01*
X007469Y002939D01*
Y002531D01*
X002531D01*
Y002939D01*
X002542Y002943D01*
X002557Y002929D01*
X002797D01*
X002842Y002974D01*
Y003064D01*
X002797Y003109D01*
X002557D01*
X002542Y003094D01*
X002531Y003099D01*
Y003193D01*
X002542Y003197D01*
X002557Y003183D01*
X002797D01*
X002842Y003228D01*
Y003318D01*
X002797Y003363D01*
X002557D01*
X002542Y003348D01*
X002531Y003353D01*
Y003447D01*
X002542Y003451D01*
X002557Y003437D01*
X002797D01*
X002842Y003482D01*
Y003572D01*
X002797Y003617D01*
X002557D01*
X002542Y003602D01*
X002531Y003607D01*
Y003701D01*
X002542Y003705D01*
X002557Y003691D01*
X002797D01*
X002842Y003736D01*
Y003826D01*
X002797Y003871D01*
X002557D01*
X002542Y003856D01*
X002531Y003861D01*
Y003955D01*
X002542Y003959D01*
X002557Y003945D01*
X002797D01*
X002842Y003990D01*
Y004080D01*
X002797Y004125D01*
X002557D01*
X002542Y004110D01*
X002531Y004115D01*
Y004209D01*
X002542Y004213D01*
X002557Y004199D01*
X002797D01*
X002842Y004244D01*
Y004334D01*
X002797Y004379D01*
X002557D01*
X002542Y004364D01*
X002531Y004369D01*
Y004717D01*
X002542Y004721D01*
X002557Y004707D01*
X002797D01*
X002842Y004752D01*
Y004842D01*
X002797Y004887D01*
X002557D01*
X002542Y004872D01*
X002531Y004877D01*
Y004973D01*
X002542Y004978D01*
X002559Y004961D01*
X002577D01*
Y005051D01*
Y005141D01*
X002559D01*
X002542Y005124D01*
X002531Y005128D01*
Y005225D01*
X002542Y005229D01*
X002557Y005215D01*
X002574D01*
Y005305D01*
Y005395D01*
X002557D01*
X002542Y005380D01*
X002531Y005385D01*
Y005479D01*
X002542Y005483D01*
X002557Y005469D01*
X002797D01*
X002842Y005514D01*
Y005604D01*
X002797Y005649D01*
X002557D01*
X002542Y005634D01*
X002531Y005639D01*
Y005733D01*
X002542Y005737D01*
X002557Y005723D01*
X002797D01*
X002842Y005768D01*
Y005858D01*
X002797Y005903D01*
X002557D01*
X002542Y005888D01*
X002531Y005893D01*
Y005987D01*
X002542Y005991D01*
X002557Y005977D01*
X002797D01*
X002842Y006022D01*
Y006112D01*
X002797Y006157D01*
X002557D01*
X002542Y006142D01*
X002531Y006147D01*
Y007469D01*
X007469D01*
Y007061D01*
D02*
G37*
%LPC*%
G36*
X005490Y004395D02*
X005423D01*
Y004312D01*
X005490D01*
Y004395D01*
D02*
G37*
G36*
X005397D02*
X005330D01*
Y004312D01*
X005397D01*
Y004395D01*
D02*
G37*
G36*
X004190Y005286D02*
X004169Y005282D01*
X004150Y005270D01*
X004138Y005251D01*
X004134Y005230D01*
X004138Y005209D01*
X004150Y005190D01*
X004169Y005178D01*
X004190Y005174D01*
X004211Y005178D01*
X004230Y005190D01*
X004236Y005191D01*
X004423Y005003D01*
X004423Y005003D01*
X004577Y004850D01*
Y004750D01*
X004517D01*
Y004590D01*
X004708D01*
Y004664D01*
X004787D01*
X004792Y004653D01*
X004773Y004634D01*
X004767Y004624D01*
X004764Y004612D01*
X004764Y004612D01*
Y004092D01*
X004715D01*
Y003903D01*
X004875D01*
Y004092D01*
X004826D01*
Y004600D01*
X004899Y004673D01*
X004899Y004673D01*
X004933Y004707D01*
X004944Y004702D01*
Y004092D01*
X004905D01*
Y003903D01*
X005065D01*
Y003967D01*
X005180D01*
Y003905D01*
X005340D01*
Y004095D01*
X005180D01*
Y004028D01*
X005065D01*
Y004092D01*
X005006D01*
Y004675D01*
X005017Y004679D01*
X005103Y004594D01*
Y004494D01*
X005103Y004494D01*
X005105Y004482D01*
X005112Y004472D01*
X005140Y004444D01*
Y004312D01*
X005300D01*
Y004503D01*
X005168D01*
X005164Y004506D01*
Y004606D01*
X005164Y004606D01*
X005162Y004618D01*
X005155Y004628D01*
X005155Y004628D01*
X005056Y004728D01*
Y004740D01*
X005062D01*
Y004795D01*
Y004850D01*
X004855D01*
Y004894D01*
Y004944D01*
Y004994D01*
Y005044D01*
Y005094D01*
Y005112D01*
X004745D01*
Y005094D01*
Y005056D01*
Y005056D01*
X004458D01*
X004262Y005252D01*
X004252Y005258D01*
X004240Y005261D01*
X004240Y005261D01*
X004236D01*
X004230Y005270D01*
X004211Y005282D01*
X004190Y005286D01*
D02*
G37*
G36*
X004600Y004467D02*
X004517D01*
Y004400D01*
X004600D01*
Y004467D01*
D02*
G37*
G36*
X003785Y004378D02*
Y004313D01*
X003850D01*
X003849Y004320D01*
X003841Y004340D01*
X003828Y004356D01*
X003812Y004369D01*
X003793Y004376D01*
X003785Y004378D01*
D02*
G37*
G36*
X003760D02*
X003752Y004376D01*
X003733Y004369D01*
X003717Y004356D01*
X003704Y004340D01*
X003696Y004320D01*
X003695Y004313D01*
X003760D01*
Y004378D01*
D02*
G37*
G36*
X003850Y004287D02*
X003785D01*
Y004222D01*
X003793Y004224D01*
X003812Y004231D01*
X003828Y004244D01*
X003841Y004260D01*
X003849Y004280D01*
X003850Y004287D01*
D02*
G37*
G36*
X005437Y004095D02*
X005370D01*
Y004013D01*
X005437D01*
Y004095D01*
D02*
G37*
G36*
X005530Y003987D02*
X005463D01*
Y003905D01*
X005530D01*
Y003987D01*
D02*
G37*
G36*
X005437D02*
X005370D01*
Y003905D01*
X005437D01*
Y003987D01*
D02*
G37*
G36*
X004663Y003360D02*
X004586D01*
Y003283D01*
X004663D01*
Y003360D01*
D02*
G37*
G36*
X003760Y004287D02*
X003695D01*
X003696Y004280D01*
X003704Y004260D01*
X003717Y004244D01*
X003733Y004231D01*
X003752Y004224D01*
X003760Y004222D01*
Y004287D01*
D02*
G37*
G36*
X005530Y004095D02*
X005463D01*
Y004013D01*
X005530D01*
Y004095D01*
D02*
G37*
G36*
X005263Y004736D02*
Y004695D01*
X005304D01*
X005302Y004704D01*
X005290Y004722D01*
X005271Y004734D01*
X005263Y004736D01*
D02*
G37*
G36*
X005237D02*
X005229Y004734D01*
X005210Y004722D01*
X005198Y004704D01*
X005196Y004695D01*
X005237D01*
Y004736D01*
D02*
G37*
G36*
X005304Y004670D02*
X005263D01*
Y004629D01*
X005271Y004631D01*
X005290Y004643D01*
X005302Y004661D01*
X005304Y004670D01*
D02*
G37*
G36*
X003059Y007084D02*
X003036Y007081D01*
X003014Y007072D01*
X002995Y007057D01*
X002980Y007038D01*
X002971Y007016D01*
X002968Y006993D01*
X002971Y006970D01*
X002980Y006948D01*
X002995Y006929D01*
X003014Y006914D01*
X003036Y006905D01*
X003059Y006902D01*
X003082Y006905D01*
X003097Y006911D01*
X003322Y006687D01*
Y006258D01*
X003322Y006258D01*
X003324Y006246D01*
X003331Y006236D01*
X003929Y005638D01*
X003926Y005628D01*
X003931Y005606D01*
X003943Y005588D01*
X003961Y005576D01*
X003983Y005571D01*
X003993Y005574D01*
X004388Y005178D01*
X004388Y005178D01*
X004394Y005174D01*
X004398Y005172D01*
X004410Y005169D01*
X004587D01*
X004593Y005160D01*
X004611Y005148D01*
X004633Y005144D01*
X004654Y005148D01*
X004672Y005160D01*
X004678Y005169D01*
X004844D01*
Y005156D01*
X004813D01*
Y005138D01*
X004855D01*
Y005145D01*
X005145D01*
Y005138D01*
X005187D01*
Y005156D01*
X005156D01*
Y005255D01*
X005106D01*
Y005320D01*
X005170D01*
Y005480D01*
X004980D01*
Y005320D01*
X005044D01*
Y005255D01*
X004956D01*
Y005265D01*
X004956Y005265D01*
X004953Y005277D01*
X004947Y005287D01*
X004784Y005449D01*
X004774Y005456D01*
X004762Y005458D01*
X004758Y005480D01*
Y005850D01*
X004790Y005882D01*
X004813D01*
X004821Y005872D01*
X004822Y005875D01*
X004822Y005875D01*
X004875D01*
Y005863D01*
X004888D01*
Y005829D01*
X004897D01*
X004910Y005832D01*
X004920Y005838D01*
X004930Y005831D01*
X004929Y005828D01*
Y005783D01*
X004932Y005770D01*
X004935Y005765D01*
Y005734D01*
X004868Y005667D01*
X004862Y005658D01*
X004860Y005647D01*
Y005535D01*
X004848Y005527D01*
X004836Y005509D01*
X004831Y005488D01*
X004836Y005466D01*
X004848Y005448D01*
X004866Y005436D01*
X004888Y005431D01*
X004909Y005436D01*
X004927Y005448D01*
X004939Y005466D01*
X004944Y005488D01*
X004939Y005509D01*
X004927Y005527D01*
X004915Y005535D01*
Y005636D01*
X004982Y005703D01*
X004982Y005703D01*
X004988Y005712D01*
X004990Y005722D01*
Y005744D01*
X005000Y005752D01*
X005000Y005752D01*
Y005805D01*
X005025D01*
Y005752D01*
X005036Y005759D01*
X005039D01*
X005050Y005752D01*
X005062Y005749D01*
X005075Y005752D01*
X005086Y005759D01*
X005093Y005770D01*
X005096Y005783D01*
Y005828D01*
X005096Y005829D01*
X005108Y005833D01*
X005110Y005832D01*
X005122Y005829D01*
X005147D01*
X005327Y005650D01*
Y005304D01*
X005327Y005303D01*
X005329Y005292D01*
X005336Y005282D01*
X005641Y004977D01*
X005638Y004969D01*
X005638Y004969D01*
X005636Y004965D01*
X005575D01*
Y004883D01*
X005642D01*
Y004959D01*
X005647Y004961D01*
X005647Y004961D01*
X005654Y004964D01*
X006067Y004551D01*
X006061Y004536D01*
X006058Y004512D01*
X006061Y004489D01*
X006070Y004467D01*
X006084Y004448D01*
X006103Y004434D01*
X006125Y004425D01*
X006149Y004422D01*
X006172Y004425D01*
X006194Y004434D01*
X006213Y004448D01*
X006227Y004467D01*
X006236Y004489D01*
X006239Y004512D01*
X006236Y004536D01*
X006227Y004558D01*
X006213Y004577D01*
X006194Y004591D01*
X006172Y004600D01*
X006149Y004603D01*
X006125Y004600D01*
X006110Y004594D01*
X005388Y005316D01*
Y005662D01*
X005386Y005674D01*
X005379Y005684D01*
X005201Y005863D01*
X005198Y005875D01*
X005191Y005886D01*
Y005889D01*
X005198Y005899D01*
X005210Y005901D01*
X006115Y004996D01*
X006113Y004984D01*
X006101Y004979D01*
X006082Y004964D01*
X006067Y004945D01*
X006058Y004923D01*
X006055Y004900D01*
X006058Y004877D01*
X006067Y004855D01*
X006082Y004836D01*
X006101Y004821D01*
X006123Y004812D01*
X006146Y004809D01*
X006169Y004812D01*
X006191Y004821D01*
X006210Y004836D01*
X006225Y004855D01*
X006234Y004877D01*
X006237Y004900D01*
X006234Y004923D01*
X006225Y004945D01*
X006210Y004964D01*
X006191Y004979D01*
X006177Y004985D01*
Y005008D01*
X006174Y005020D01*
X006168Y005030D01*
X005216Y005982D01*
X005206Y005988D01*
X005194Y005991D01*
X005194Y005993D01*
X005198Y006000D01*
X005145D01*
Y006025D01*
X005198D01*
X005191Y006036D01*
Y006039D01*
X005198Y006050D01*
X005145D01*
Y006062D01*
X005132D01*
Y006096D01*
X005122D01*
X005110Y006093D01*
X005107Y006091D01*
X005096Y006097D01*
Y006117D01*
X005093Y006130D01*
X005086Y006141D01*
X005075Y006148D01*
X005062Y006151D01*
X005053Y006149D01*
X005043Y006157D01*
Y006170D01*
X005041Y006182D01*
X005038Y006186D01*
X005034Y006192D01*
X005034Y006192D01*
X005017Y006209D01*
X005007Y006216D01*
X004995Y006218D01*
X004995Y006218D01*
X004913D01*
X004912Y006218D01*
X004901Y006216D01*
X004891Y006209D01*
X004858Y006177D01*
X004852Y006167D01*
X004849Y006155D01*
X004849Y006155D01*
Y006094D01*
X004845Y006093D01*
X004845Y006093D01*
X004642D01*
Y006178D01*
X004483D01*
Y005997D01*
X004532D01*
Y005967D01*
X004485D01*
Y005788D01*
X004645D01*
Y005967D01*
X004593D01*
Y005997D01*
X004642D01*
Y006032D01*
X004818D01*
X004826Y006022D01*
X004824Y006012D01*
X004827Y006000D01*
X004834Y005989D01*
Y005986D01*
X004827Y005975D01*
X004824Y005962D01*
X004826Y005953D01*
X004818Y005943D01*
X004778D01*
X004766Y005941D01*
X004762Y005938D01*
X004756Y005934D01*
X004756Y005934D01*
X004706Y005884D01*
X004699Y005874D01*
X004697Y005862D01*
X004697Y005862D01*
Y005458D01*
X004483D01*
X003854Y006087D01*
X003844Y006093D01*
X003833Y006096D01*
X003832Y006096D01*
X003768D01*
X003762Y006105D01*
X003744Y006117D01*
X003722Y006121D01*
X003701Y006117D01*
X003683Y006105D01*
X003671Y006086D01*
X003666Y006065D01*
X003671Y006044D01*
X003683Y006025D01*
X003701Y006013D01*
X003722Y006009D01*
X003744Y006013D01*
X003762Y006025D01*
X003768Y006034D01*
X003820D01*
X004448Y005406D01*
X004448Y005406D01*
X004458Y005399D01*
X004458Y005399D01*
X004458Y005399D01*
D01*
X004458Y005399D01*
X004458Y005399D01*
X004470Y005397D01*
X004470Y005397D01*
X004725D01*
X004725Y005397D01*
X004725Y005397D01*
X004750D01*
X004880Y005267D01*
X004875Y005255D01*
X004844D01*
Y005231D01*
X004678D01*
X004672Y005240D01*
X004654Y005252D01*
X004633Y005256D01*
X004611Y005252D01*
X004593Y005240D01*
X004587Y005231D01*
X004423D01*
X004036Y005617D01*
X004039Y005628D01*
X004034Y005649D01*
X004022Y005667D01*
X004004Y005679D01*
X003983Y005684D01*
X003972Y005681D01*
X003383Y006270D01*
Y006700D01*
X003381Y006711D01*
X003378Y006715D01*
X003374Y006721D01*
X003374Y006721D01*
X003141Y006955D01*
X003147Y006970D01*
X003150Y006993D01*
X003147Y007016D01*
X003138Y007038D01*
X003123Y007057D01*
X003104Y007072D01*
X003082Y007081D01*
X003059Y007084D01*
D02*
G37*
G36*
X005642Y004857D02*
X005575D01*
Y004775D01*
X005642D01*
Y004857D01*
D02*
G37*
G36*
X005550D02*
X005483D01*
Y004775D01*
X005550D01*
Y004857D01*
D02*
G37*
G36*
X005237Y004670D02*
X005196D01*
X005198Y004661D01*
X005210Y004643D01*
X005229Y004631D01*
X005237Y004629D01*
Y004670D01*
D02*
G37*
G36*
X005490Y004503D02*
X005423D01*
Y004420D01*
X005490D01*
Y004503D01*
D02*
G37*
G36*
X005397D02*
X005330D01*
Y004420D01*
X005397D01*
Y004503D01*
D02*
G37*
G36*
X004708Y004467D02*
X004625D01*
Y004400D01*
X004708D01*
Y004467D01*
D02*
G37*
G36*
Y004560D02*
X004625D01*
Y004493D01*
X004708D01*
Y004560D01*
D02*
G37*
G36*
X004600D02*
X004517D01*
Y004493D01*
X004600D01*
Y004560D01*
D02*
G37*
G36*
X006493Y004603D02*
X006312D01*
Y004422D01*
X006493D01*
Y004603D01*
D02*
G37*
G36*
X006047Y003036D02*
X006024Y003033D01*
X006002Y003024D01*
X005983Y003009D01*
X005969Y002990D01*
X005960Y002968D01*
X005957Y002945D01*
X005960Y002922D01*
X005969Y002900D01*
X005983Y002881D01*
X006002Y002866D01*
X006024Y002857D01*
X006047Y002854D01*
X006071Y002857D01*
X006093Y002866D01*
X006112Y002881D01*
X006126Y002900D01*
X006135Y002922D01*
X006138Y002945D01*
X006135Y002968D01*
X006126Y002990D01*
X006112Y003009D01*
X006093Y003024D01*
X006071Y003033D01*
X006047Y003036D01*
D02*
G37*
G36*
X006188Y002856D02*
X006164Y002853D01*
X006142Y002844D01*
X006123Y002829D01*
X006109Y002810D01*
X006103Y002796D01*
X005466D01*
X005460Y002810D01*
X005445Y002829D01*
X005426Y002843D01*
X005404Y002852D01*
X005381Y002856D01*
X005358Y002852D01*
X005336Y002843D01*
X005317Y002829D01*
X005302Y002810D01*
X005293Y002788D01*
X005290Y002765D01*
X005293Y002741D01*
X005302Y002719D01*
X005317Y002701D01*
X005336Y002686D01*
X005358Y002677D01*
X005381Y002674D01*
X005404Y002677D01*
X005426Y002686D01*
X005445Y002701D01*
X005460Y002719D01*
X005466Y002734D01*
X006103D01*
X006109Y002720D01*
X006123Y002701D01*
X006142Y002686D01*
X006164Y002677D01*
X006188Y002674D01*
X006211Y002677D01*
X006233Y002686D01*
X006252Y002701D01*
X006266Y002720D01*
X006275Y002742D01*
X006278Y002765D01*
X006275Y002788D01*
X006266Y002810D01*
X006252Y002829D01*
X006233Y002844D01*
X006211Y002853D01*
X006188Y002856D01*
D02*
G37*
G36*
X006454Y002854D02*
Y002778D01*
X006531D01*
X006529Y002788D01*
X006520Y002810D01*
X006506Y002829D01*
X006487Y002844D01*
X006465Y002853D01*
X006454Y002854D01*
D02*
G37*
G36*
X005127Y003110D02*
X005104Y003106D01*
X005082Y003097D01*
X005063Y003083D01*
X005048Y003064D01*
X005039Y003042D01*
X005036Y003019D01*
X005039Y002995D01*
X005048Y002973D01*
X005063Y002955D01*
X005082Y002940D01*
X005104Y002931D01*
X005127Y002928D01*
X005150Y002931D01*
X005172Y002940D01*
X005191Y002955D01*
X005206Y002973D01*
X005215Y002995D01*
X005218Y003019D01*
X005215Y003042D01*
X005206Y003064D01*
X005191Y003083D01*
X005172Y003097D01*
X005150Y003106D01*
X005127Y003110D01*
D02*
G37*
G36*
X004873D02*
X004850Y003106D01*
X004828Y003097D01*
X004809Y003083D01*
X004794Y003064D01*
X004785Y003042D01*
X004782Y003019D01*
X004785Y002995D01*
X004794Y002973D01*
X004809Y002955D01*
X004828Y002940D01*
X004850Y002931D01*
X004873Y002928D01*
X004896Y002931D01*
X004918Y002940D01*
X004937Y002955D01*
X004952Y002973D01*
X004961Y002995D01*
X004964Y003019D01*
X004961Y003042D01*
X004952Y003064D01*
X004937Y003083D01*
X004918Y003097D01*
X004896Y003106D01*
X004873Y003110D01*
D02*
G37*
G36*
X004573Y003107D02*
X004550Y003104D01*
X004528Y003095D01*
X004509Y003081D01*
X004494Y003062D01*
X004485Y003040D01*
X004482Y003017D01*
X004485Y002993D01*
X004494Y002971D01*
X004509Y002952D01*
X004528Y002938D01*
X004550Y002929D01*
X004573Y002926D01*
X004596Y002929D01*
X004618Y002938D01*
X004637Y002952D01*
X004652Y002971D01*
X004661Y002993D01*
X004664Y003017D01*
X004661Y003040D01*
X004652Y003062D01*
X004637Y003081D01*
X004618Y003095D01*
X004596Y003104D01*
X004573Y003107D01*
D02*
G37*
G36*
X006429Y002854D02*
X006418Y002853D01*
X006396Y002844D01*
X006377Y002829D01*
X006363Y002810D01*
X006354Y002788D01*
X006352Y002778D01*
X006429D01*
Y002854D01*
D02*
G37*
G36*
X006531Y002752D02*
X006454D01*
Y002676D01*
X006465Y002677D01*
X006487Y002686D01*
X006506Y002701D01*
X006520Y002720D01*
X006529Y002742D01*
X006531Y002752D01*
D02*
G37*
G36*
X006429D02*
X006352D01*
X006354Y002742D01*
X006363Y002720D01*
X006377Y002701D01*
X006396Y002686D01*
X006418Y002677D01*
X006429Y002676D01*
Y002752D01*
D02*
G37*
G36*
X003973Y002856D02*
X003950Y002853D01*
X003928Y002844D01*
X003909Y002829D01*
X003894Y002810D01*
X003885Y002788D01*
X003882Y002765D01*
X003885Y002742D01*
X003894Y002720D01*
X003909Y002701D01*
X003928Y002686D01*
X003950Y002677D01*
X003973Y002674D01*
X003996Y002677D01*
X004018Y002686D01*
X004037Y002701D01*
X004052Y002720D01*
X004061Y002742D01*
X004064Y002765D01*
X004061Y002788D01*
X004052Y002810D01*
X004037Y002829D01*
X004018Y002844D01*
X003996Y002853D01*
X003973Y002856D01*
D02*
G37*
G36*
X004963Y002855D02*
X004886D01*
Y002777D01*
X004963D01*
Y002855D01*
D02*
G37*
G36*
X004860D02*
X004783D01*
Y002777D01*
X004860D01*
Y002855D01*
D02*
G37*
G36*
X003673Y002861D02*
X003650Y002858D01*
X003628Y002849D01*
X003609Y002834D01*
X003594Y002815D01*
X003585Y002793D01*
X003582Y002770D01*
X003585Y002747D01*
X003594Y002725D01*
X003609Y002706D01*
X003628Y002691D01*
X003650Y002682D01*
X003673Y002679D01*
X003696Y002682D01*
X003718Y002691D01*
X003737Y002706D01*
X003752Y002725D01*
X003761Y002747D01*
X003764Y002770D01*
X003761Y002793D01*
X003752Y002815D01*
X003737Y002834D01*
X003718Y002849D01*
X003696Y002858D01*
X003673Y002861D01*
D02*
G37*
G36*
X004363Y003363D02*
X004183D01*
Y003183D01*
X004363D01*
Y003363D01*
D02*
G37*
G36*
X004063D02*
X003883D01*
Y003183D01*
X004063D01*
Y003363D01*
D02*
G37*
G36*
X004663Y003258D02*
X004586D01*
Y003181D01*
X004663D01*
Y003258D01*
D02*
G37*
G36*
X004560Y003360D02*
X004483D01*
Y003283D01*
X004560D01*
Y003360D01*
D02*
G37*
G36*
X003763Y003368D02*
X003583D01*
Y003188D01*
X003763D01*
Y003368D01*
D02*
G37*
G36*
X003463D02*
X003283D01*
Y003188D01*
X003463D01*
Y003368D01*
D02*
G37*
G36*
X004560Y003258D02*
X004483D01*
Y003181D01*
X004560D01*
Y003258D01*
D02*
G37*
G36*
X004273Y003110D02*
X004250Y003107D01*
X004228Y003098D01*
X004209Y003083D01*
X004194Y003064D01*
X004185Y003042D01*
X004182Y003019D01*
X004185Y002996D01*
X004194Y002974D01*
X004209Y002955D01*
X004228Y002940D01*
X004250Y002931D01*
X004273Y002928D01*
X004296Y002931D01*
X004318Y002940D01*
X004337Y002955D01*
X004352Y002974D01*
X004361Y002996D01*
X004364Y003019D01*
X004361Y003042D01*
X004352Y003064D01*
X004337Y003083D01*
X004318Y003098D01*
X004296Y003107D01*
X004273Y003110D01*
D02*
G37*
G36*
X003973D02*
X003950Y003107D01*
X003928Y003098D01*
X003909Y003083D01*
X003894Y003064D01*
X003885Y003042D01*
X003882Y003019D01*
X003885Y002996D01*
X003894Y002974D01*
X003909Y002955D01*
X003928Y002940D01*
X003950Y002931D01*
X003973Y002928D01*
X003996Y002931D01*
X004018Y002940D01*
X004037Y002955D01*
X004052Y002974D01*
X004061Y002996D01*
X004064Y003019D01*
X004061Y003042D01*
X004052Y003064D01*
X004037Y003083D01*
X004018Y003098D01*
X003996Y003107D01*
X003973Y003110D01*
D02*
G37*
G36*
X005381Y003110D02*
X005358Y003106D01*
X005336Y003097D01*
X005317Y003083D01*
X005302Y003064D01*
X005293Y003042D01*
X005290Y003019D01*
X005293Y002995D01*
X005302Y002973D01*
X005317Y002955D01*
X005336Y002940D01*
X005358Y002931D01*
X005381Y002928D01*
X005404Y002931D01*
X005426Y002940D01*
X005445Y002955D01*
X005460Y002973D01*
X005469Y002995D01*
X005472Y003019D01*
X005469Y003042D01*
X005460Y003064D01*
X005445Y003083D01*
X005426Y003097D01*
X005404Y003106D01*
X005381Y003110D01*
D02*
G37*
G36*
X003673Y003115D02*
X003650Y003112D01*
X003628Y003103D01*
X003609Y003088D01*
X003594Y003069D01*
X003585Y003047D01*
X003582Y003024D01*
X003585Y003001D01*
X003594Y002979D01*
X003609Y002960D01*
X003628Y002945D01*
X003650Y002936D01*
X003673Y002933D01*
X003696Y002936D01*
X003718Y002945D01*
X003737Y002960D01*
X003752Y002979D01*
X003761Y003001D01*
X003764Y003024D01*
X003761Y003047D01*
X003752Y003069D01*
X003737Y003088D01*
X003718Y003103D01*
X003696Y003112D01*
X003673Y003115D01*
D02*
G37*
G36*
X003373D02*
X003350Y003112D01*
X003328Y003103D01*
X003309Y003088D01*
X003294Y003069D01*
X003285Y003047D01*
X003282Y003024D01*
X003285Y003001D01*
X003294Y002979D01*
X003309Y002960D01*
X003328Y002945D01*
X003350Y002936D01*
X003373Y002933D01*
X003396Y002936D01*
X003418Y002945D01*
X003437Y002960D01*
X003452Y002979D01*
X003461Y003001D01*
X003464Y003024D01*
X003461Y003047D01*
X003452Y003069D01*
X003437Y003088D01*
X003418Y003103D01*
X003396Y003112D01*
X003373Y003115D01*
D02*
G37*
G36*
X006568Y003110D02*
X006545Y003107D01*
X006523Y003098D01*
X006504Y003083D01*
X006490Y003064D01*
X006481Y003042D01*
X006478Y003019D01*
X006481Y002996D01*
X006490Y002974D01*
X006504Y002955D01*
X006523Y002940D01*
X006545Y002931D01*
X006568Y002928D01*
X006592Y002931D01*
X006614Y002940D01*
X006633Y002955D01*
X006647Y002974D01*
X006656Y002996D01*
X006659Y003019D01*
X006656Y003042D01*
X006647Y003064D01*
X006633Y003083D01*
X006614Y003098D01*
X006592Y003107D01*
X006568Y003110D01*
D02*
G37*
G36*
X005550Y004965D02*
X005483D01*
Y004883D01*
X005550D01*
Y004965D01*
D02*
G37*
G36*
X006482Y006337D02*
X006405D01*
Y006260D01*
X006482D01*
Y006337D01*
D02*
G37*
G36*
X006379D02*
X006302D01*
Y006260D01*
X006379D01*
Y006337D01*
D02*
G37*
G36*
X006900Y006441D02*
X006877Y006438D01*
X006855Y006429D01*
X006836Y006414D01*
X006821Y006395D01*
X006812Y006373D01*
X006809Y006350D01*
X006812Y006327D01*
X006821Y006305D01*
X006836Y006286D01*
X006855Y006271D01*
X006877Y006262D01*
X006900Y006259D01*
X006923Y006262D01*
X006945Y006271D01*
X006964Y006286D01*
X006979Y006305D01*
X006988Y006327D01*
X006991Y006350D01*
X006988Y006373D01*
X006979Y006395D01*
X006964Y006414D01*
X006945Y006429D01*
X006923Y006438D01*
X006900Y006441D01*
D02*
G37*
G36*
X007400Y006714D02*
X007158D01*
Y006682D01*
X007203Y006637D01*
X007400D01*
Y006714D01*
D02*
G37*
G36*
X006482Y006440D02*
X006405D01*
Y006363D01*
X006482D01*
Y006440D01*
D02*
G37*
G36*
X006379D02*
X006302D01*
Y006363D01*
X006379D01*
Y006440D01*
D02*
G37*
G36*
X006646Y006441D02*
X006623Y006438D01*
X006601Y006429D01*
X006582Y006414D01*
X006567Y006395D01*
X006558Y006373D01*
X006555Y006350D01*
X006558Y006327D01*
X006567Y006305D01*
X006582Y006286D01*
X006601Y006271D01*
X006623Y006262D01*
X006646Y006259D01*
X006669Y006262D01*
X006691Y006271D01*
X006710Y006286D01*
X006725Y006305D01*
X006734Y006327D01*
X006737Y006350D01*
X006734Y006373D01*
X006725Y006395D01*
X006710Y006414D01*
X006691Y006429D01*
X006669Y006438D01*
X006646Y006441D01*
D02*
G37*
G36*
X004453Y006075D02*
X004385D01*
Y005997D01*
X004453D01*
Y006075D01*
D02*
G37*
G36*
X004360D02*
X004292D01*
Y005997D01*
X004360D01*
Y006075D01*
D02*
G37*
G36*
X006482Y006140D02*
X006302D01*
Y005960D01*
X006482D01*
Y006140D01*
D02*
G37*
G36*
X004453Y006178D02*
X004385D01*
Y006100D01*
X004453D01*
Y006178D01*
D02*
G37*
G36*
X004360D02*
X004292D01*
Y006100D01*
X004360D01*
Y006178D01*
D02*
G37*
G36*
X005167Y006096D02*
X005158D01*
Y006075D01*
X005198D01*
X005191Y006086D01*
X005180Y006093D01*
X005167Y006096D01*
D02*
G37*
G36*
X005047Y007207D02*
X004969D01*
Y007130D01*
X005047D01*
Y007207D01*
D02*
G37*
G36*
X004944D02*
X004867D01*
Y007130D01*
X004944D01*
Y007207D01*
D02*
G37*
G36*
X004703Y007311D02*
X004679Y007308D01*
X004657Y007299D01*
X004638Y007284D01*
X004624Y007265D01*
X004615Y007243D01*
X004612Y007220D01*
X004615Y007197D01*
X004624Y007175D01*
X004638Y007156D01*
X004657Y007141D01*
X004679Y007132D01*
X004703Y007129D01*
X004726Y007132D01*
X004748Y007141D01*
X004767Y007156D01*
X004781Y007175D01*
X004790Y007197D01*
X004793Y007220D01*
X004790Y007243D01*
X004781Y007265D01*
X004767Y007284D01*
X004748Y007299D01*
X004726Y007308D01*
X004703Y007311D01*
D02*
G37*
G36*
X005047Y007310D02*
X004969D01*
Y007233D01*
X005047D01*
Y007310D01*
D02*
G37*
G36*
X004944D02*
X004867D01*
Y007233D01*
X004944D01*
Y007310D01*
D02*
G37*
G36*
X002985Y007351D02*
X002962Y007348D01*
X002940Y007339D01*
X002921Y007324D01*
X002906Y007305D01*
X002897Y007283D01*
X002894Y007260D01*
X002897Y007237D01*
X002906Y007215D01*
X002921Y007196D01*
X002940Y007181D01*
X002962Y007172D01*
X002985Y007169D01*
X003008Y007172D01*
X003030Y007181D01*
X003049Y007196D01*
X003064Y007215D01*
X003073Y007237D01*
X003076Y007260D01*
X003073Y007283D01*
X003064Y007305D01*
X003049Y007324D01*
X003030Y007339D01*
X003008Y007348D01*
X002985Y007351D01*
D02*
G37*
G36*
X002805Y007211D02*
X002782Y007208D01*
X002760Y007199D01*
X002741Y007184D01*
X002726Y007165D01*
X002717Y007143D01*
X002714Y007120D01*
X002717Y007097D01*
X002726Y007075D01*
X002741Y007056D01*
X002760Y007041D01*
X002782Y007032D01*
X002805Y007029D01*
X002828Y007032D01*
X002850Y007041D01*
X002869Y007056D01*
X002884Y007075D01*
X002893Y007097D01*
X002896Y007120D01*
X002893Y007143D01*
X002884Y007165D01*
X002869Y007184D01*
X002850Y007199D01*
X002828Y007208D01*
X002805Y007211D01*
D02*
G37*
G36*
X002792Y006853D02*
X002716D01*
X002717Y006843D01*
X002726Y006821D01*
X002741Y006802D01*
X002760Y006787D01*
X002782Y006778D01*
X002792Y006777D01*
Y006853D01*
D02*
G37*
G36*
X007400Y006817D02*
X007203D01*
X007158Y006772D01*
Y006740D01*
X007400D01*
Y006817D01*
D02*
G37*
G36*
X003059Y006830D02*
X003036Y006827D01*
X003014Y006818D01*
X002995Y006803D01*
X002980Y006784D01*
X002971Y006762D01*
X002968Y006739D01*
X002971Y006716D01*
X002980Y006694D01*
X002995Y006675D01*
X003014Y006660D01*
X003036Y006651D01*
X003059Y006648D01*
X003082Y006651D01*
X003104Y006660D01*
X003123Y006675D01*
X003138Y006694D01*
X003147Y006716D01*
X003150Y006739D01*
X003147Y006762D01*
X003138Y006784D01*
X003123Y006803D01*
X003104Y006818D01*
X003082Y006827D01*
X003059Y006830D01*
D02*
G37*
G36*
X002818Y006955D02*
Y006879D01*
X002894D01*
X002893Y006889D01*
X002884Y006911D01*
X002869Y006930D01*
X002850Y006945D01*
X002828Y006954D01*
X002818Y006955D01*
D02*
G37*
G36*
X002792D02*
X002782Y006954D01*
X002760Y006945D01*
X002741Y006930D01*
X002726Y006911D01*
X002717Y006889D01*
X002716Y006879D01*
X002792D01*
Y006955D01*
D02*
G37*
G36*
X002894Y006853D02*
X002818D01*
Y006777D01*
X002828Y006778D01*
X002850Y006787D01*
X002869Y006802D01*
X002884Y006821D01*
X002893Y006843D01*
X002894Y006853D01*
D02*
G37*
G36*
X002797Y005395D02*
X002600D01*
Y005317D01*
X002842D01*
Y005350D01*
X002797Y005395D01*
D02*
G37*
G36*
X002842Y005292D02*
X002600D01*
Y005215D01*
X002797D01*
X002842Y005260D01*
Y005292D01*
D02*
G37*
G36*
X005255Y005156D02*
X005213D01*
Y005138D01*
X005255D01*
Y005156D01*
D02*
G37*
G36*
X006482Y005540D02*
X006302D01*
Y005360D01*
X006482D01*
Y005540D01*
D02*
G37*
G36*
X006900Y005541D02*
X006877Y005538D01*
X006855Y005529D01*
X006836Y005514D01*
X006821Y005495D01*
X006812Y005473D01*
X006809Y005450D01*
X006812Y005427D01*
X006821Y005405D01*
X006836Y005386D01*
X006855Y005371D01*
X006877Y005362D01*
X006900Y005359D01*
X006923Y005362D01*
X006945Y005371D01*
X006964Y005386D01*
X006979Y005405D01*
X006988Y005427D01*
X006991Y005450D01*
X006988Y005473D01*
X006979Y005495D01*
X006964Y005514D01*
X006945Y005529D01*
X006923Y005538D01*
X006900Y005541D01*
D02*
G37*
G36*
X006646D02*
X006623Y005538D01*
X006601Y005529D01*
X006582Y005514D01*
X006567Y005495D01*
X006558Y005473D01*
X006555Y005450D01*
X006558Y005427D01*
X006567Y005405D01*
X006582Y005386D01*
X006601Y005371D01*
X006623Y005362D01*
X006646Y005359D01*
X006669Y005362D01*
X006691Y005371D01*
X006710Y005386D01*
X006725Y005405D01*
X006734Y005427D01*
X006737Y005450D01*
X006734Y005473D01*
X006725Y005495D01*
X006710Y005514D01*
X006691Y005529D01*
X006669Y005538D01*
X006646Y005541D01*
D02*
G37*
G36*
X004787Y005156D02*
X004745D01*
Y005138D01*
X004787D01*
Y005156D01*
D02*
G37*
G36*
X002844Y005038D02*
X002602D01*
Y004961D01*
X002800D01*
X002844Y005006D01*
Y005038D01*
D02*
G37*
G36*
X007075Y005516D02*
X007054Y005512D01*
X007035Y005500D01*
X007023Y005481D01*
X007019Y005460D01*
X007023Y005439D01*
X007035Y005420D01*
X007042Y005416D01*
Y005140D01*
X006832Y004931D01*
X006490D01*
Y004990D01*
X006310D01*
Y004810D01*
X006490D01*
Y004869D01*
X006845D01*
X006845Y004869D01*
X006857Y004872D01*
X006867Y004878D01*
X007094Y005106D01*
X007094Y005106D01*
X007101Y005116D01*
X007103Y005128D01*
Y005413D01*
X007115Y005420D01*
X007127Y005439D01*
X007131Y005460D01*
X007127Y005481D01*
X007115Y005500D01*
X007096Y005512D01*
X007075Y005516D01*
D02*
G37*
G36*
X005453Y004965D02*
X005292D01*
Y004906D01*
X005255D01*
Y004944D01*
Y004962D01*
X005145D01*
Y004944D01*
Y004894D01*
Y004850D01*
X005088D01*
Y004795D01*
Y004740D01*
X005156D01*
Y004844D01*
X005193D01*
X005203Y004842D01*
X005212Y004844D01*
X005255D01*
Y004844D01*
X005292D01*
Y004775D01*
X005453D01*
Y004965D01*
D02*
G37*
G36*
X005255Y005112D02*
X005145D01*
Y005094D01*
Y005088D01*
X005255D01*
Y005094D01*
Y005112D01*
D02*
G37*
G36*
X002800Y005141D02*
X002602D01*
Y005063D01*
X002844D01*
Y005096D01*
X002800Y005141D01*
D02*
G37*
G36*
X005255Y005062D02*
X005145D01*
Y005044D01*
Y004994D01*
Y004988D01*
X005255D01*
Y004994D01*
Y005044D01*
Y005062D01*
D02*
G37*
G36*
X004862Y005850D02*
X004822D01*
X004829Y005839D01*
X004840Y005832D01*
X004853Y005829D01*
X004862D01*
Y005850D01*
D02*
G37*
G36*
X004455Y005865D02*
X004388D01*
Y005788D01*
X004455D01*
Y005865D01*
D02*
G37*
G36*
X004362D02*
X004295D01*
Y005788D01*
X004362D01*
Y005865D01*
D02*
G37*
G36*
X006646Y006141D02*
X006623Y006138D01*
X006601Y006129D01*
X006582Y006114D01*
X006567Y006095D01*
X006558Y006073D01*
X006555Y006050D01*
X006558Y006027D01*
X006567Y006005D01*
X006582Y005986D01*
X006601Y005971D01*
X006623Y005962D01*
X006646Y005959D01*
X006669Y005962D01*
X006691Y005971D01*
X006710Y005986D01*
X006725Y006005D01*
X006734Y006027D01*
X006737Y006050D01*
X006734Y006073D01*
X006725Y006095D01*
X006710Y006114D01*
X006691Y006129D01*
X006669Y006138D01*
X006646Y006141D01*
D02*
G37*
G36*
X004455Y005967D02*
X004388D01*
Y005890D01*
X004455D01*
Y005967D01*
D02*
G37*
G36*
X004362D02*
X004295D01*
Y005890D01*
X004362D01*
Y005967D01*
D02*
G37*
G36*
X006482Y005840D02*
X006302D01*
Y005660D01*
X006482D01*
Y005840D01*
D02*
G37*
G36*
X005062Y005670D02*
X004980D01*
Y005603D01*
X005062D01*
Y005670D01*
D02*
G37*
G36*
X005170Y005577D02*
X005088D01*
Y005510D01*
X005170D01*
Y005577D01*
D02*
G37*
G36*
X005062D02*
X004980D01*
Y005510D01*
X005062D01*
Y005577D01*
D02*
G37*
G36*
X006900Y005841D02*
X006877Y005838D01*
X006855Y005829D01*
X006836Y005814D01*
X006821Y005795D01*
X006812Y005773D01*
X006809Y005750D01*
X006812Y005727D01*
X006821Y005705D01*
X006836Y005686D01*
X006855Y005671D01*
X006877Y005662D01*
X006900Y005659D01*
X006923Y005662D01*
X006945Y005671D01*
X006964Y005686D01*
X006979Y005705D01*
X006988Y005727D01*
X006991Y005750D01*
X006988Y005773D01*
X006979Y005795D01*
X006964Y005814D01*
X006945Y005829D01*
X006923Y005838D01*
X006900Y005841D01*
D02*
G37*
G36*
X006646D02*
X006623Y005838D01*
X006601Y005829D01*
X006582Y005814D01*
X006567Y005795D01*
X006558Y005773D01*
X006555Y005750D01*
X006558Y005727D01*
X006567Y005705D01*
X006582Y005686D01*
X006601Y005671D01*
X006623Y005662D01*
X006646Y005659D01*
X006669Y005662D01*
X006691Y005671D01*
X006710Y005686D01*
X006725Y005705D01*
X006734Y005727D01*
X006737Y005750D01*
X006734Y005773D01*
X006725Y005795D01*
X006710Y005814D01*
X006691Y005829D01*
X006669Y005838D01*
X006646Y005841D01*
D02*
G37*
G36*
X005170Y005670D02*
X005088D01*
Y005603D01*
X005170D01*
Y005670D01*
D02*
G37*
%LPD*%
D10*
X005450Y004000D02*
D03*
X005260D02*
D03*
X004795Y003997D02*
D03*
X004985D02*
D03*
X005372Y004870D02*
D03*
X005562D02*
D03*
X005410Y004408D02*
D03*
X005220D02*
D03*
D11*
X005075Y005590D02*
D03*
Y005400D02*
D03*
X004612Y004670D02*
D03*
Y004480D02*
D03*
D12*
X005200Y005075D02*
D03*
Y005125D02*
D03*
Y004975D02*
D03*
Y005025D02*
D03*
Y004925D02*
D03*
Y004875D02*
D03*
X004800Y005075D02*
D03*
Y005125D02*
D03*
Y005025D02*
D03*
Y004925D02*
D03*
Y004975D02*
D03*
Y004874D02*
D03*
D13*
X005075Y005200D02*
D03*
X005025D02*
D03*
X005125D02*
D03*
Y004795D02*
D03*
X005025D02*
D03*
X004975D02*
D03*
X005075D02*
D03*
X004925Y005200D02*
D03*
X004875D02*
D03*
X004975D02*
D03*
X004875Y004795D02*
D03*
X004925D02*
D03*
D14*
X004962Y006095D02*
D03*
X005012D02*
D03*
X005062D02*
D03*
Y005805D02*
D03*
X005012D02*
D03*
X004962D02*
D03*
D15*
X005145Y006062D02*
D03*
Y006012D02*
D03*
Y005962D02*
D03*
Y005912D02*
D03*
Y005862D02*
D03*
X004875D02*
D03*
Y005912D02*
D03*
X004880Y005962D02*
D03*
Y006012D02*
D03*
Y006062D02*
D03*
D16*
X004562Y006088D02*
D03*
X004372D02*
D03*
X004565Y005878D02*
D03*
X004375D02*
D03*
D17*
X005075Y005200D02*
Y005400D01*
X004800Y005025D02*
X004801Y005024D01*
X004975Y004008D02*
Y004795D01*
X005135Y004683D02*
X005250D01*
X005075Y004742D02*
X005135Y004683D01*
X005075Y004742D02*
Y004795D01*
X004795Y003997D02*
Y004612D01*
X004985Y003997D02*
X005258D01*
X004878Y004695D02*
X004924Y004742D01*
X005200Y004875D02*
X005375D01*
X005381Y002765D02*
X006188D01*
X005381Y002765D02*
X005381Y002765D01*
X005200Y004875D02*
X005203Y004872D01*
X005335Y002765D02*
X005381D01*
X005002Y002640D02*
X005127Y002765D01*
X004398Y002640D02*
X005002D01*
X004273Y002765D02*
X004398Y002640D01*
X004573Y002762D02*
X004580D01*
X004730Y002912D01*
Y003100D01*
X003373Y002770D02*
X003417D01*
X003538Y002890D01*
X006315Y003019D02*
X006822Y003527D01*
X005025Y004715D02*
Y004795D01*
Y004715D02*
X005134Y004606D01*
X004924Y004794D02*
X004925Y004795D01*
X004924Y004742D02*
Y004794D01*
X006822Y003527D02*
X007413D01*
X003538Y002890D02*
Y003403D01*
X003603Y003467D01*
X006900Y006050D02*
X007239Y005711D01*
X007413D01*
X003059Y006993D02*
X003353Y006700D01*
X005134Y004494D02*
Y004606D01*
X004637Y004695D02*
X004878D01*
X004612Y004670D02*
X004637Y004695D01*
X005134Y004494D02*
X005220Y004408D01*
X004795Y004612D02*
X004878Y004695D01*
X003603Y003467D02*
X005677D01*
X007413Y005203D01*
X005012Y006095D02*
X005062D01*
X004880Y006062D02*
Y006155D01*
X004912Y006188D01*
X004995D01*
X005012Y006170D01*
Y006095D02*
Y006170D01*
X005062Y005805D02*
Y006095D01*
X004608Y004675D02*
X004612Y004670D01*
X004190Y005230D02*
X004240D01*
X004445Y005025D01*
X004608Y004862D01*
Y004675D02*
Y004862D01*
X003353Y006258D02*
Y006700D01*
X003833Y006065D02*
X004470Y005428D01*
X003722Y006065D02*
X003833D01*
X004588Y006062D02*
X004880D01*
X004562Y006088D02*
X004588Y006062D01*
X004445Y005025D02*
X004800D01*
X004562Y005880D02*
Y006088D01*
Y005880D02*
X004565Y005878D01*
X004778Y005912D02*
X004875D01*
X004728Y005862D02*
X004778Y005912D01*
X004728Y005430D02*
Y005862D01*
X004470Y005428D02*
X004725D01*
X004728Y005430D01*
X004725Y005428D02*
X004762D01*
X004925Y005265D01*
Y005200D02*
Y005265D01*
X003983Y005628D02*
X004410Y005200D01*
X003353Y006258D02*
X003983Y005628D01*
X004410Y005200D02*
X004633D01*
X004875D01*
X004730Y003100D02*
X004903Y003272D01*
X005849D01*
X006885Y004309D01*
Y004472D01*
X007209Y004797D01*
X007413D01*
X005358Y005303D02*
X006149Y004512D01*
X005358Y005303D02*
Y005662D01*
X005158Y005862D02*
X005358Y005662D01*
X005145Y005862D02*
X005158D01*
X005145Y005962D02*
X005147Y005960D01*
X006400Y004900D02*
X006845D01*
X007072Y005128D01*
Y005458D01*
X007075Y005460D01*
X007045Y006010D02*
X007368D01*
X007413Y005965D01*
X005194Y005960D02*
X006146Y005008D01*
X005147Y005960D02*
X005194D01*
X006146Y004900D02*
Y005008D01*
D18*
X004962Y005722D02*
Y005805D01*
X004888Y005647D02*
X004962Y005722D01*
X004888Y005488D02*
Y005647D01*
D19*
X004880Y005867D02*
X004916D01*
X004875Y005862D02*
X004880Y005867D01*
X004962Y005914D02*
Y006095D01*
X004916Y005867D02*
X004962Y005914D01*
X005186Y005908D02*
X005213Y005881D01*
Y005875D02*
Y005881D01*
X005145Y005912D02*
X005150Y005908D01*
X005186D01*
X002500Y002500D02*
X007500D01*
Y007500D01*
X002500D02*
X007500D01*
X002500Y002500D02*
Y007500D01*
D20*
X004956Y007220D02*
D03*
X006392Y006050D02*
D03*
Y005750D02*
D03*
Y005450D02*
D03*
X004873Y002765D02*
D03*
X006403Y004512D02*
D03*
X006400Y004900D02*
D03*
D21*
X004703Y007220D02*
D03*
X004573Y002762D02*
D03*
Y003017D02*
D03*
X006900Y006350D02*
D03*
X006646D02*
D03*
X003059Y006739D02*
D03*
X002805Y006866D02*
D03*
X003059Y006993D02*
D03*
X002805Y007120D02*
D03*
X003673Y002770D02*
D03*
Y003024D02*
D03*
X004273Y002765D02*
D03*
Y003019D02*
D03*
X006900Y006050D02*
D03*
X006646D02*
D03*
X003973Y002765D02*
D03*
Y003019D02*
D03*
X006900Y005750D02*
D03*
X006646D02*
D03*
X006900Y005450D02*
D03*
X006646D02*
D03*
X003373Y002770D02*
D03*
Y003024D02*
D03*
X004873Y003019D02*
D03*
X005127Y002765D02*
D03*
Y003019D02*
D03*
X005381Y002765D02*
D03*
Y003019D02*
D03*
X006188Y002765D02*
D03*
X006442D02*
D03*
X006315Y003019D02*
D03*
X006568D02*
D03*
X006149Y004512D02*
D03*
X006146Y004900D02*
D03*
D22*
X004573Y003271D02*
D03*
X006392Y006350D02*
D03*
X003673Y003278D02*
D03*
X004273Y003273D02*
D03*
X003973D02*
D03*
X003373Y003278D02*
D03*
D23*
X002985Y007260D02*
D03*
X006047Y002945D02*
D03*
D24*
X002677Y003273D02*
D03*
Y003019D02*
D03*
Y003527D02*
D03*
Y003781D02*
D03*
Y004289D02*
D03*
Y004035D02*
D03*
X002680Y005051D02*
D03*
X002677Y004797D02*
D03*
Y005559D02*
D03*
Y005305D02*
D03*
Y006067D02*
D03*
Y005813D02*
D03*
X007323Y006473D02*
D03*
Y004035D02*
D03*
Y003781D02*
D03*
Y004543D02*
D03*
Y004289D02*
D03*
Y003273D02*
D03*
Y003019D02*
D03*
Y003527D02*
D03*
Y006219D02*
D03*
Y005965D02*
D03*
Y006981D02*
D03*
Y006727D02*
D03*
Y005203D02*
D03*
Y004797D02*
D03*
Y005711D02*
D03*
Y005457D02*
D03*
D25*
X003772Y004300D02*
D03*
D26*
X005250Y004683D02*
D03*
X004190Y005230D02*
D03*
X003722Y006065D02*
D03*
X003983Y005628D02*
D03*
X004888Y005488D02*
D03*
X004633Y005200D02*
D03*
X004562Y005865D02*
D03*
X004560Y006083D02*
D03*
X007075Y005460D02*
D03*
X007045Y006010D02*
D03*
X007347Y007203D02*
D03*
X002635Y006230D02*
D03*
X002690Y004553D02*
D03*
X002738Y002745D02*
D03*
X003265Y005660D02*
D03*
X003262Y005122D02*
D03*
X003630Y005680D02*
D03*
Y004805D02*
D03*
X004125Y003575D02*
D03*
X005810Y002605D02*
D03*
X005788Y002955D02*
D03*
X006905Y002805D02*
D03*
X006345Y003447D02*
D03*
X006965Y004175D02*
D03*
X006290Y004710D02*
D03*
X006445Y006755D02*
D03*
X005747Y006582D02*
D03*
X004517Y005115D02*
D03*
X005328Y005172D02*
D03*
Y006088D02*
D03*
X004815Y005733D02*
D03*
X005075Y005590D02*
D03*
X004195Y005983D02*
D03*
X004203Y004870D02*
D03*
X005858Y007195D02*
D03*
M02*
