%FSAX42Y42*%
%MOMM*%
G71*
G01*
G75*
G04 Layer_Color=16711935*
%ADD10R,1.30X1.60*%
%ADD11R,1.60X1.30*%
%ADD12R,0.80X0.33*%
%ADD13R,0.33X0.80*%
%ADD14O,0.35X0.80*%
%ADD15O,0.80X0.35*%
%ADD16R,1.30X1.50*%
%ADD17C,0.30*%
%ADD18C,0.24*%
%ADD19C,0.25*%
%ADD20R,1.50X1.50*%
%ADD21C,1.50*%
%ADD22R,1.50X1.50*%
%ADD23C,1.30*%
G04:AMPARAMS|DCode=24|XSize=3mm|YSize=1.5mm|CornerRadius=0mm|HoleSize=0mm|Usage=FLASHONLY|Rotation=0.000|XOffset=0mm|YOffset=0mm|HoleType=Round|Shape=Octagon|*
%AMOCTAGOND24*
4,1,8,1.50,-0.38,1.50,0.38,1.13,0.75,-1.13,0.75,-1.50,0.38,-1.50,-0.38,-1.13,-0.75,1.13,-0.75,1.50,-0.38,0.0*
%
%ADD24OCTAGOND24*%

%ADD25C,1.27*%
%ADD26C,0.80*%
%ADD27R,1.10X0.60*%
%ADD28O,0.48X1.65*%
%ADD29C,0.25*%
%ADD30C,0.20*%
%ADD31R,1.50X1.80*%
%ADD32R,1.80X1.50*%
%ADD33R,1.10X0.63*%
%ADD34R,0.63X1.10*%
%ADD35O,0.55X1.00*%
%ADD36O,1.00X0.55*%
%ADD37R,1.50X1.70*%
%ADD38R,1.70X1.70*%
%ADD39C,1.70*%
%ADD40R,1.70X1.70*%
%ADD41C,1.50*%
G04:AMPARAMS|DCode=42|XSize=3.2mm|YSize=1.7mm|CornerRadius=0mm|HoleSize=0mm|Usage=FLASHONLY|Rotation=0.000|XOffset=0mm|YOffset=0mm|HoleType=Round|Shape=Octagon|*
%AMOCTAGOND42*
4,1,8,1.60,-0.43,1.60,0.43,1.18,0.85,-1.18,0.85,-1.60,0.43,-1.60,-0.43,-1.18,-0.85,1.18,-0.85,1.60,-0.43,0.0*
%
%ADD42OCTAGOND42*%

%ADD43C,0.27*%
%ADD44R,1.30X0.80*%
%ADD45O,0.68X1.85*%
D19*
X002500Y002500D02*
X007500D01*
Y007500D01*
X002500D02*
X007500D01*
X002500Y002500D02*
Y007500D01*
D31*
X003250Y004595D02*
D03*
X003440D02*
D03*
D32*
X005845Y007020D02*
D03*
Y006830D02*
D03*
X004190Y005228D02*
D03*
Y005038D02*
D03*
X004160Y006790D02*
D03*
Y006600D02*
D03*
X003720Y006790D02*
D03*
Y006600D02*
D03*
X003260Y004005D02*
D03*
Y003815D02*
D03*
X003600Y004005D02*
D03*
Y003815D02*
D03*
X004000Y004005D02*
D03*
Y003815D02*
D03*
D38*
X004956Y007220D02*
D03*
X006392Y006050D02*
D03*
Y005750D02*
D03*
Y005450D02*
D03*
X004873Y002765D02*
D03*
X006403Y004512D02*
D03*
X006400Y004900D02*
D03*
D39*
X004703Y007220D02*
D03*
X004573Y002762D02*
D03*
Y003017D02*
D03*
X006900Y006350D02*
D03*
X006646D02*
D03*
X003059Y006739D02*
D03*
X002805Y006866D02*
D03*
X003059Y006993D02*
D03*
X002805Y007120D02*
D03*
X003673Y002770D02*
D03*
Y003024D02*
D03*
X004273Y002765D02*
D03*
Y003019D02*
D03*
X006900Y006050D02*
D03*
X006646D02*
D03*
X003973Y002765D02*
D03*
Y003019D02*
D03*
X006900Y005750D02*
D03*
X006646D02*
D03*
X006900Y005450D02*
D03*
X006646D02*
D03*
X003373Y002770D02*
D03*
Y003024D02*
D03*
X004873Y003019D02*
D03*
X005127Y002765D02*
D03*
Y003019D02*
D03*
X005381Y002765D02*
D03*
Y003019D02*
D03*
X006188Y002765D02*
D03*
X006442D02*
D03*
X006315Y003019D02*
D03*
X006568D02*
D03*
X006149Y004512D02*
D03*
X006146Y004900D02*
D03*
D40*
X004573Y003271D02*
D03*
X006392Y006350D02*
D03*
X003673Y003278D02*
D03*
X004273Y003273D02*
D03*
X003973D02*
D03*
X003373Y003278D02*
D03*
D41*
X002985Y007260D02*
D03*
X006047Y002945D02*
D03*
D42*
X002677Y003273D02*
D03*
Y003019D02*
D03*
Y003527D02*
D03*
Y003781D02*
D03*
Y004289D02*
D03*
Y004035D02*
D03*
X002680Y005051D02*
D03*
X002677Y004797D02*
D03*
Y005559D02*
D03*
Y005305D02*
D03*
Y006067D02*
D03*
Y005813D02*
D03*
X007323Y006473D02*
D03*
Y004035D02*
D03*
Y003781D02*
D03*
Y004543D02*
D03*
Y004289D02*
D03*
Y003273D02*
D03*
Y003019D02*
D03*
Y003527D02*
D03*
Y006219D02*
D03*
Y005965D02*
D03*
Y006981D02*
D03*
Y006727D02*
D03*
Y005203D02*
D03*
Y004797D02*
D03*
Y005711D02*
D03*
Y005457D02*
D03*
D43*
X003772Y004300D02*
D03*
D44*
X005333Y006812D02*
D03*
Y007003D02*
D03*
X005572Y006812D02*
D03*
Y007003D02*
D03*
Y006907D02*
D03*
D45*
X003978Y005380D02*
D03*
X003912D02*
D03*
X003847D02*
D03*
X003978Y004955D02*
D03*
X003847D02*
D03*
X003783D02*
D03*
X003912D02*
D03*
X003783Y005380D02*
D03*
M02*
