%FSAX42Y42*%
%MOMM*%
G71*
G01*
G75*
G04 Layer_Physical_Order=1*
G04 Layer_Color=255*
%ADD10R,1.70X1.70*%
%ADD11O,0.65X0.20*%
%ADD12O,0.20X0.65*%
%ADD13R,1.60X1.30*%
%ADD14R,1.30X1.60*%
%ADD15R,1.10X0.60*%
%ADD16R,1.40X1.00*%
%ADD17R,0.23X0.60*%
%ADD18R,0.60X0.23*%
%ADD19C,0.25*%
%ADD20C,0.24*%
%ADD21C,0.20*%
%ADD22C,1.50*%
%ADD23R,1.50X1.50*%
%ADD24R,1.50X1.50*%
%ADD25C,1.30*%
G04:AMPARAMS|DCode=26|XSize=3mm|YSize=1.5mm|CornerRadius=0mm|HoleSize=0mm|Usage=FLASHONLY|Rotation=0.000|XOffset=0mm|YOffset=0mm|HoleType=Round|Shape=Octagon|*
%AMOCTAGOND26*
4,1,8,1.50,-0.38,1.50,0.38,1.13,0.75,-1.13,0.75,-1.50,0.38,-1.50,-0.38,-1.13,-0.75,1.13,-0.75,1.50,-0.38,0.0*
%
%ADD26OCTAGOND26*%

%ADD27C,1.52*%
%ADD28C,0.50*%
G36*
X005073Y005104D02*
X005075D01*
Y005095D01*
X005095D01*
Y005063D01*
X005104D01*
Y005033D01*
Y004993D01*
Y004953D01*
Y004913D01*
Y004896D01*
X005017D01*
Y004905D01*
X004995D01*
Y004896D01*
X004993D01*
Y004859D01*
X004991Y004850D01*
X004969D01*
X004967Y004859D01*
Y004896D01*
X004965D01*
Y004905D01*
X004943D01*
Y004896D01*
X004896D01*
Y004913D01*
Y004953D01*
Y004993D01*
Y005033D01*
Y005073D01*
Y005104D01*
X005023D01*
Y005095D01*
X005045D01*
Y005104D01*
X005047D01*
Y005150D01*
X005073D01*
Y005104D01*
D02*
G37*
G36*
X004711Y004731D02*
Y004542D01*
X004711Y004542D01*
X004702Y004528D01*
X004699Y004512D01*
X004702Y004497D01*
X004711Y004483D01*
X004724Y004474D01*
X004740Y004471D01*
X004756Y004474D01*
X004769Y004483D01*
X004778Y004497D01*
X004781Y004512D01*
X004778Y004528D01*
X004769Y004542D01*
X004769Y004542D01*
Y004731D01*
X004772Y004734D01*
X004917D01*
X004929Y004736D01*
X004938Y004742D01*
X004960Y004765D01*
X004967Y004774D01*
X004969Y004785D01*
Y004795D01*
X004991D01*
Y004695D01*
X004993Y004684D01*
X005000Y004675D01*
X005054Y004621D01*
Y004598D01*
X005010D01*
Y004407D01*
X005171D01*
Y004474D01*
X005186Y004478D01*
X005186Y004478D01*
X005199Y004469D01*
X005215Y004466D01*
X005231Y004469D01*
X005244Y004478D01*
X005253Y004492D01*
X005256Y004508D01*
X005253Y004523D01*
X005244Y004537D01*
X005244Y004537D01*
Y004627D01*
X005259Y004629D01*
X005260Y004625D01*
X005266Y004616D01*
X005602Y004280D01*
X005596Y004266D01*
X004916D01*
X004914Y004281D01*
X004918Y004282D01*
X004931Y004291D01*
X004940Y004305D01*
X004943Y004320D01*
X004940Y004336D01*
X004931Y004350D01*
X004918Y004359D01*
X004902Y004362D01*
X004886Y004359D01*
X004873Y004350D01*
X004872Y004348D01*
X004821D01*
X004673Y004497D01*
Y004610D01*
X004674Y004611D01*
X004683Y004624D01*
X004686Y004640D01*
X004683Y004656D01*
X004674Y004669D01*
X004661Y004678D01*
X004645Y004681D01*
X004644Y004681D01*
X004432Y004893D01*
X004438Y004907D01*
X004535D01*
X004711Y004731D01*
D02*
G37*
G36*
X005948Y003860D02*
Y003670D01*
X005950Y003659D01*
X005956Y003650D01*
X006005Y003601D01*
Y003083D01*
X005988Y003076D01*
X005969Y003061D01*
X005955Y003042D01*
X005946Y003020D01*
X005943Y002996D01*
X005946Y002973D01*
X005955Y002951D01*
X005969Y002932D01*
X005988Y002917D01*
X006010Y002908D01*
X006034Y002905D01*
X006058Y002908D01*
X006080Y002917D01*
X006099Y002932D01*
X006113Y002951D01*
X006122Y002973D01*
X006125Y002996D01*
X006122Y003020D01*
X006113Y003042D01*
X006099Y003061D01*
X006080Y003076D01*
X006063Y003083D01*
Y003582D01*
X006077Y003588D01*
X006579Y003086D01*
Y003064D01*
X006335Y002821D01*
X006334Y002822D01*
X006312Y002831D01*
X006288Y002834D01*
X006264Y002831D01*
X006242Y002822D01*
X006223Y002807D01*
X006209Y002788D01*
X006200Y002766D01*
X006197Y002742D01*
X006200Y002719D01*
X006209Y002697D01*
X006221Y002681D01*
X006217Y002666D01*
X006105D01*
X006101Y002681D01*
X006113Y002697D01*
X006122Y002719D01*
X006125Y002742D01*
X006122Y002766D01*
X006113Y002788D01*
X006099Y002807D01*
X006080Y002822D01*
X006058Y002831D01*
X006034Y002834D01*
X006010Y002831D01*
X006004Y002828D01*
X005911Y002922D01*
Y003039D01*
X005908Y003050D01*
X005902Y003059D01*
X005848Y003114D01*
Y003125D01*
X005882Y003159D01*
X005882Y003159D01*
X005888Y003168D01*
X005890Y003179D01*
X005890Y003179D01*
Y003286D01*
X005888Y003297D01*
X005882Y003306D01*
X005843Y003345D01*
Y003945D01*
X005857Y003951D01*
X005948Y003860D01*
D02*
G37*
G36*
X003873Y004716D02*
Y004613D01*
X003858Y004606D01*
X003845Y004617D01*
X003823Y004626D01*
X003799Y004629D01*
X003775Y004626D01*
X003753Y004617D01*
X003734Y004602D01*
X003720Y004583D01*
X003711Y004561D01*
X003708Y004537D01*
X003711Y004514D01*
X003718Y004496D01*
X003661Y004439D01*
X003645Y004445D01*
Y004522D01*
X003560D01*
Y004437D01*
X003637D01*
X003644Y004422D01*
X003430Y004208D01*
X003424Y004199D01*
X003422Y004188D01*
Y004026D01*
X003421Y004022D01*
X003423Y004011D01*
X003430Y004002D01*
X003502Y003930D01*
X003501Y003916D01*
X003490Y003906D01*
X003480Y003904D01*
X003472Y003898D01*
X003466Y003890D01*
X003464Y003880D01*
Y003840D01*
X003459Y003831D01*
X003450Y003826D01*
X003410D01*
X003400Y003824D01*
X003392Y003818D01*
X003386Y003810D01*
X003384Y003800D01*
X003386Y003790D01*
X003392Y003782D01*
Y003773D01*
X003386Y003765D01*
X003384Y003755D01*
X003386Y003745D01*
X003386Y003745D01*
X003384Y003736D01*
X003377Y003725D01*
X003433D01*
Y003695D01*
X003363D01*
X003362Y003693D01*
X003347D01*
X003278Y003762D01*
Y004644D01*
X003432D01*
X003445Y004638D01*
X003445Y004629D01*
Y004552D01*
X003645D01*
Y004629D01*
Y004632D01*
X003651Y004641D01*
X003657Y004645D01*
X003663Y004647D01*
X003672Y004653D01*
X003741Y004722D01*
X003753Y004712D01*
X003775Y004703D01*
X003799Y004700D01*
X003823Y004703D01*
X003845Y004712D01*
X003858Y004723D01*
X003873Y004716D01*
D02*
G37*
G36*
X007483Y007052D02*
X007469Y007046D01*
X007443Y007072D01*
X007203D01*
X007157Y007026D01*
Y006936D01*
X007203Y006891D01*
X007443D01*
X007469Y006916D01*
X007483Y006910D01*
Y006813D01*
X007469Y006807D01*
X007448Y006828D01*
X007338D01*
Y006727D01*
Y006627D01*
X007448D01*
X007469Y006647D01*
X007483Y006642D01*
Y006544D01*
X007469Y006538D01*
X007443Y006564D01*
X007203D01*
X007157Y006518D01*
Y006428D01*
X007203Y006383D01*
X007443D01*
X007469Y006408D01*
X007483Y006402D01*
Y006290D01*
X007469Y006284D01*
X007443Y006310D01*
X007203D01*
X007157Y006264D01*
Y006174D01*
X007203Y006129D01*
X007443D01*
X007469Y006154D01*
X007483Y006148D01*
Y006036D01*
X007469Y006030D01*
X007443Y006056D01*
X007203D01*
X007157Y006010D01*
Y005920D01*
X007203Y005875D01*
X007443D01*
X007469Y005900D01*
X007483Y005894D01*
Y005782D01*
X007469Y005776D01*
X007443Y005802D01*
X007203D01*
X007157Y005756D01*
Y005740D01*
X007129D01*
X007129Y005740D01*
X007118Y005738D01*
X007108Y005732D01*
X007108Y005732D01*
X006858Y005481D01*
X006622D01*
X006611Y005479D01*
X006602Y005473D01*
X006537Y005408D01*
X006531Y005399D01*
X006529Y005388D01*
Y005370D01*
X006514Y005367D01*
X006510Y005376D01*
X006496Y005395D01*
X006477Y005409D01*
X006455Y005418D01*
X006431Y005421D01*
X006407Y005418D01*
X006385Y005409D01*
X006366Y005395D01*
X006352Y005376D01*
X006343Y005354D01*
X006340Y005330D01*
X006343Y005306D01*
X006352Y005284D01*
X006366Y005265D01*
X006385Y005251D01*
X006407Y005242D01*
X006431Y005239D01*
X006455Y005242D01*
X006477Y005251D01*
X006496Y005265D01*
X006510Y005284D01*
X006514Y005293D01*
X006529Y005290D01*
Y005204D01*
X006531Y005192D01*
X006537Y005183D01*
X006604Y005117D01*
X006597Y005100D01*
X006594Y005076D01*
X006597Y005052D01*
X006606Y005030D01*
X006620Y005011D01*
X006639Y004997D01*
X006661Y004988D01*
X006685Y004985D01*
X006709Y004988D01*
X006731Y004997D01*
X006750Y005011D01*
X006764Y005030D01*
X006773Y005052D01*
X006776Y005076D01*
X006773Y005100D01*
X006764Y005122D01*
X006750Y005141D01*
X006731Y005155D01*
X006709Y005164D01*
X006685Y005167D01*
X006661Y005164D01*
X006644Y005157D01*
X006586Y005215D01*
Y005292D01*
X006601Y005295D01*
X006606Y005284D01*
X006620Y005265D01*
X006639Y005251D01*
X006661Y005242D01*
X006685Y005239D01*
X006709Y005242D01*
X006731Y005251D01*
X006750Y005265D01*
X006764Y005284D01*
X006771Y005301D01*
X006945D01*
X006956Y005303D01*
X006965Y005310D01*
X007084Y005428D01*
X007157D01*
Y005412D01*
X007203Y005367D01*
X007443D01*
X007469Y005392D01*
X007483Y005386D01*
Y005274D01*
X007469Y005268D01*
X007443Y005294D01*
X007203D01*
X007157Y005248D01*
Y005158D01*
X007203Y005113D01*
X007262D01*
X007268Y005099D01*
X006985Y004816D01*
X006978Y004806D01*
X006976Y004795D01*
Y004662D01*
X006976Y004662D01*
X006967Y004648D01*
X006964Y004633D01*
X006967Y004617D01*
X006976Y004603D01*
X006989Y004594D01*
X007005Y004591D01*
X007021Y004594D01*
X007034Y004603D01*
X007043Y004617D01*
X007046Y004633D01*
X007043Y004648D01*
X007034Y004662D01*
X007034Y004662D01*
Y004783D01*
X007363Y005113D01*
X007443D01*
X007469Y005138D01*
X007483Y005132D01*
Y004868D01*
X007469Y004862D01*
X007443Y004887D01*
X007203D01*
X007157Y004842D01*
Y004752D01*
X007203Y004706D01*
X007443D01*
X007469Y004732D01*
X007483Y004726D01*
Y004614D01*
X007469Y004608D01*
X007443Y004633D01*
X007203D01*
X007157Y004588D01*
Y004571D01*
X006776D01*
X006773Y004592D01*
X006764Y004614D01*
X006750Y004633D01*
X006731Y004647D01*
X006709Y004656D01*
X006685Y004659D01*
X006661Y004656D01*
X006639Y004647D01*
X006620Y004633D01*
X006611Y004621D01*
X006596Y004626D01*
Y004693D01*
X006644Y004741D01*
X006661Y004734D01*
X006685Y004731D01*
X006709Y004734D01*
X006731Y004743D01*
X006750Y004757D01*
X006764Y004776D01*
X006773Y004798D01*
X006776Y004822D01*
X006773Y004846D01*
X006764Y004868D01*
X006750Y004887D01*
X006731Y004901D01*
X006709Y004910D01*
X006685Y004913D01*
X006661Y004910D01*
X006639Y004901D01*
X006620Y004887D01*
X006606Y004868D01*
X006597Y004846D01*
X006594Y004822D01*
X006597Y004798D01*
X006604Y004781D01*
X006547Y004725D01*
X006541Y004715D01*
X006539Y004704D01*
Y004435D01*
X006541Y004424D01*
X006547Y004415D01*
X006556Y004408D01*
X006568Y004406D01*
X006863D01*
X006866Y004391D01*
X006856Y004384D01*
X006847Y004371D01*
X006844Y004355D01*
X006844Y004354D01*
X006823Y004334D01*
X006817Y004334D01*
X006812Y004334D01*
X006806Y004337D01*
X006799Y004347D01*
X006786Y004356D01*
X006770Y004359D01*
X006754Y004356D01*
X006741Y004347D01*
X006732Y004333D01*
X006729Y004317D01*
X006732Y004302D01*
X006741Y004288D01*
X006754Y004279D01*
X006770Y004276D01*
X006771Y004262D01*
Y004135D01*
X006756Y004130D01*
X006752Y004137D01*
X006738Y004146D01*
X006722Y004149D01*
X006707Y004146D01*
X006693Y004137D01*
X006693Y004136D01*
X006618D01*
X006618Y004136D01*
X006606Y004134D01*
X006597Y004128D01*
X006246Y003776D01*
X006245Y003776D01*
X006229Y003773D01*
X006216Y003764D01*
X006207Y003751D01*
X006204Y003735D01*
X006207Y003719D01*
X006209Y003716D01*
X006209Y003716D01*
X006209Y003716D01*
X006215Y003707D01*
X006214Y003707D01*
X006214Y003707D01*
X006213Y003706D01*
X006203Y003698D01*
X006184Y003717D01*
Y004147D01*
X006182Y004159D01*
X006175Y004168D01*
X005946Y004397D01*
Y004641D01*
X005947Y004641D01*
X005956Y004654D01*
X005959Y004670D01*
X005956Y004686D01*
X005947Y004699D01*
X005933Y004708D01*
X005917Y004711D01*
X005902Y004708D01*
X005888Y004699D01*
X005879Y004686D01*
X005876Y004670D01*
X005879Y004654D01*
X005888Y004641D01*
X005889Y004641D01*
Y004385D01*
X005891Y004374D01*
X005897Y004365D01*
X006126Y004136D01*
Y003705D01*
X006128Y003694D01*
X006135Y003685D01*
X006431Y003388D01*
X006431Y003388D01*
X006434Y003372D01*
X006443Y003358D01*
X006457Y003349D01*
X006472Y003346D01*
X006488Y003349D01*
X006502Y003358D01*
X006511Y003372D01*
X006514Y003388D01*
X006511Y003403D01*
X006502Y003417D01*
X006488Y003426D01*
X006472Y003429D01*
X006472Y003429D01*
X006208Y003693D01*
X006216Y003703D01*
X006217Y003704D01*
X006217Y003704D01*
X006217Y003705D01*
X006226Y003699D01*
X006226Y003699D01*
X006226D01*
X006229Y003697D01*
X006245Y003694D01*
X006261Y003697D01*
X006274Y003706D01*
X006283Y003719D01*
X006286Y003735D01*
X006286Y003736D01*
X006629Y004079D01*
X006693D01*
X006693Y004078D01*
X006707Y004069D01*
X006722Y004066D01*
X006738Y004069D01*
X006752Y004078D01*
X006756Y004085D01*
X006771Y004080D01*
Y002962D01*
X006475Y002666D01*
X006359D01*
X006355Y002681D01*
X006367Y002697D01*
X006376Y002719D01*
X006379Y002742D01*
X006376Y002766D01*
X006372Y002776D01*
X006629Y003034D01*
X006630Y003034D01*
X006646Y003037D01*
X006659Y003046D01*
X006668Y003059D01*
X006671Y003075D01*
X006668Y003091D01*
X006659Y003104D01*
X006646Y003113D01*
X006630Y003116D01*
X006629Y003116D01*
X006059Y003687D01*
Y003938D01*
X006059Y003938D01*
X006068Y003952D01*
X006071Y003967D01*
X006068Y003983D01*
X006059Y003997D01*
X006046Y004006D01*
X006030Y004009D01*
X006014Y004006D01*
X006001Y003997D01*
X005992Y003983D01*
X005989Y003967D01*
X005992Y003952D01*
X006001Y003938D01*
X006001Y003938D01*
Y003910D01*
X005986Y003904D01*
X005891Y003998D01*
Y004245D01*
X005889Y004256D01*
X005883Y004265D01*
X005836Y004312D01*
Y004328D01*
X005837Y004328D01*
X005846Y004342D01*
X005849Y004358D01*
X005846Y004373D01*
X005837Y004387D01*
X005823Y004396D01*
X005808Y004399D01*
X005792Y004396D01*
X005778Y004387D01*
X005769Y004373D01*
X005766Y004358D01*
X005769Y004342D01*
X005778Y004328D01*
X005779Y004328D01*
Y004312D01*
X005764Y004306D01*
X005713Y004357D01*
Y004480D01*
X005714Y004481D01*
X005723Y004494D01*
X005726Y004510D01*
X005723Y004526D01*
X005714Y004539D01*
X005701Y004548D01*
X005685Y004551D01*
X005684Y004551D01*
X005373Y004862D01*
Y005222D01*
X005371Y005233D01*
X005365Y005242D01*
X005166Y005441D01*
X005157Y005447D01*
X005146Y005449D01*
X005027D01*
X005016Y005447D01*
X005007Y005441D01*
X004880Y005314D01*
X004874Y005305D01*
X004872Y005294D01*
X004874Y005284D01*
Y005196D01*
X004873D01*
Y005128D01*
X004858Y005127D01*
X004850Y005129D01*
X004792D01*
X004781Y005127D01*
X004772Y005120D01*
X004676Y005024D01*
X004598D01*
Y005068D01*
X004407D01*
Y004938D01*
X004393Y004932D01*
X004141Y005184D01*
Y005447D01*
X004141Y005447D01*
X004138Y005458D01*
X004132Y005467D01*
X004060Y005540D01*
X004051Y005546D01*
X004040Y005548D01*
X004022D01*
X004015Y005563D01*
X004175Y005723D01*
X004175Y005723D01*
X004181Y005732D01*
X004183Y005742D01*
Y005942D01*
X004181Y005953D01*
X004175Y005962D01*
X004032Y006105D01*
X004023Y006111D01*
X004012Y006113D01*
X003519D01*
X003133Y006499D01*
Y006960D01*
X003131Y006970D01*
X003125Y006979D01*
X003017Y007087D01*
X003025Y007104D01*
X003028Y007128D01*
X003025Y007152D01*
X003016Y007174D01*
X003001Y007193D01*
X002982Y007207D01*
X002960Y007216D01*
X002936Y007219D01*
X002913Y007216D01*
X002891Y007207D01*
X002872Y007193D01*
X002857Y007174D01*
X002848Y007152D01*
X002845Y007128D01*
X002848Y007104D01*
X002857Y007082D01*
X002872Y007063D01*
X002891Y007049D01*
X002913Y007040D01*
X002936Y007037D01*
X002960Y007040D01*
X002978Y007047D01*
X003077Y006948D01*
Y006794D01*
X003063Y006788D01*
X003018Y006833D01*
X003025Y006850D01*
X003028Y006874D01*
X003025Y006898D01*
X003016Y006920D01*
X003001Y006939D01*
X002982Y006953D01*
X002960Y006962D01*
X002936Y006965D01*
X002913Y006962D01*
X002891Y006953D01*
X002872Y006939D01*
X002857Y006920D01*
X002848Y006898D01*
X002845Y006874D01*
X002848Y006850D01*
X002857Y006828D01*
X002872Y006809D01*
X002891Y006795D01*
X002913Y006786D01*
X002936Y006783D01*
X002960Y006786D01*
X002977Y006793D01*
X003036Y006734D01*
Y006455D01*
X003038Y006444D01*
X003044Y006435D01*
X003455Y006024D01*
X003464Y006018D01*
X003475Y006016D01*
X003973D01*
X003975Y006013D01*
X003966Y005998D01*
X003942D01*
Y005893D01*
Y005787D01*
X004012D01*
X004019Y005772D01*
X003937Y005690D01*
X003862D01*
Y005674D01*
X003853D01*
X003841Y005672D01*
X003832Y005665D01*
X003807Y005640D01*
X003801Y005631D01*
X003799Y005620D01*
Y005463D01*
X003793Y005450D01*
X003784Y005450D01*
X003728D01*
Y005395D01*
X003712D01*
Y005380D01*
X003632D01*
Y005341D01*
X003632Y005340D01*
Y005333D01*
Y005325D01*
X003632Y005324D01*
Y005285D01*
X003712D01*
Y005270D01*
X003728D01*
Y005215D01*
X003784D01*
X003793Y005215D01*
X003799Y005202D01*
D01*
Y005170D01*
X003801Y005159D01*
X003807Y005150D01*
X003857Y005100D01*
X003847Y005088D01*
X003843Y005091D01*
X003828Y005094D01*
X003812Y005091D01*
X003798Y005082D01*
X003789Y005068D01*
X003786Y005053D01*
X003789Y005037D01*
X003798Y005023D01*
X003799Y005023D01*
Y005002D01*
X003785Y004996D01*
X003724Y005057D01*
X003724Y005058D01*
X003721Y005073D01*
X003712Y005087D01*
X003698Y005096D01*
X003683Y005099D01*
X003667Y005096D01*
X003653Y005087D01*
X003644Y005073D01*
X003641Y005058D01*
X003644Y005042D01*
X003653Y005028D01*
X003667Y005019D01*
X003683Y005016D01*
X003683Y005016D01*
X003803Y004896D01*
X003796Y004882D01*
X003775Y004880D01*
X003753Y004871D01*
X003734Y004856D01*
X003720Y004837D01*
X003711Y004815D01*
X003708Y004791D01*
X003711Y004770D01*
X003641Y004701D01*
X003600D01*
X003595Y004716D01*
X003610Y004727D01*
X003624Y004746D01*
X003633Y004768D01*
X003636Y004791D01*
X003633Y004815D01*
X003624Y004837D01*
X003610Y004856D01*
X003591Y004871D01*
X003574Y004878D01*
Y005413D01*
X003621Y005460D01*
X003632Y005450D01*
Y005410D01*
X003697D01*
Y005450D01*
X003633D01*
X003622Y005461D01*
X003629Y005468D01*
X003642Y005474D01*
Y005474D01*
X003642Y005474D01*
X003783D01*
Y005565D01*
X003741D01*
Y005599D01*
X003783D01*
Y005690D01*
X003766D01*
Y005797D01*
X003818D01*
Y005988D01*
X003657D01*
Y005921D01*
X003192D01*
X002604Y006509D01*
Y006916D01*
X002619Y006923D01*
X002632Y006913D01*
X002656Y006903D01*
X002667Y006902D01*
Y007001D01*
Y007100D01*
X002656Y007099D01*
X002632Y007089D01*
X002619Y007079D01*
X002604Y007086D01*
Y007156D01*
X002630Y007181D01*
X002637Y007176D01*
X002659Y007167D01*
X002682Y007164D01*
X002706Y007167D01*
X002728Y007176D01*
X002747Y007190D01*
X002762Y007209D01*
X002771Y007231D01*
X002774Y007255D01*
X002771Y007279D01*
X002762Y007301D01*
X002747Y007320D01*
X002728Y007334D01*
X002706Y007343D01*
X002682Y007346D01*
X002659Y007343D01*
X002637Y007334D01*
X002618Y007320D01*
X002603Y007301D01*
X002594Y007279D01*
X002591Y007255D01*
X002594Y007231D01*
X002595Y007229D01*
X002555Y007188D01*
X002548Y007179D01*
X002546Y007168D01*
Y006497D01*
X002548Y006486D01*
X002555Y006477D01*
X003160Y005872D01*
X003160Y005872D01*
X003169Y005866D01*
X003180Y005864D01*
X003657D01*
Y005797D01*
X003709D01*
Y005690D01*
X003642D01*
Y005599D01*
X003684D01*
Y005565D01*
X003642D01*
Y005549D01*
X003640D01*
X003629Y005547D01*
X003620Y005540D01*
X003620Y005540D01*
X003525Y005445D01*
X003518Y005436D01*
X003516Y005425D01*
Y004878D01*
X003499Y004871D01*
X003480Y004856D01*
X003466Y004837D01*
X003457Y004815D01*
X003454Y004791D01*
X003457Y004768D01*
X003466Y004746D01*
X003480Y004727D01*
X003495Y004716D01*
X003490Y004701D01*
X003250D01*
X003238Y004714D01*
Y004953D01*
X003248Y004960D01*
X003257Y004973D01*
X003260Y004989D01*
X003257Y005005D01*
X003248Y005018D01*
X003235Y005027D01*
X003219Y005030D01*
X003203Y005027D01*
X003190Y005018D01*
X003181Y005005D01*
X003178Y004989D01*
X003181Y004973D01*
X003182Y004972D01*
Y003645D01*
X003184Y003634D01*
X003190Y003625D01*
X003333Y003483D01*
X003342Y003477D01*
X003353Y003474D01*
X003572D01*
X003583Y003477D01*
X003592Y003483D01*
X003598Y003492D01*
X003601Y003503D01*
Y003507D01*
X003615Y003516D01*
X003616Y003516D01*
X003625Y003514D01*
X003627Y003514D01*
X003642Y003504D01*
Y003472D01*
X003644Y003462D01*
X003650Y003453D01*
X003684Y003419D01*
X003684Y003417D01*
X003687Y003402D01*
X003696Y003388D01*
X003709Y003379D01*
X003725Y003376D01*
X003741Y003379D01*
X003754Y003388D01*
X003763Y003402D01*
X003766Y003417D01*
X003763Y003433D01*
X003754Y003447D01*
X003741Y003456D01*
X003725Y003459D01*
X003724Y003459D01*
X003698Y003484D01*
Y003562D01*
X003696Y003573D01*
Y003580D01*
X003701Y003589D01*
X003710Y003594D01*
X003716D01*
X003716Y003593D01*
X003728Y003591D01*
X003809D01*
X003809Y003589D01*
X003818Y003576D01*
X003832Y003567D01*
X003847Y003564D01*
X003854Y003551D01*
Y003390D01*
X003857Y003379D01*
X003863Y003370D01*
X003872Y003364D01*
X003883Y003362D01*
X004125D01*
X004137Y003350D01*
X004146Y003344D01*
X004157Y003342D01*
X005452D01*
X005473Y003321D01*
X005465Y003307D01*
X005455Y003309D01*
X005439Y003306D01*
X005426Y003297D01*
X005417Y003283D01*
X005414Y003267D01*
X005417Y003252D01*
X005426Y003238D01*
X005439Y003229D01*
X005455Y003226D01*
X005471Y003229D01*
X005484Y003238D01*
X005499Y003237D01*
X005559Y003177D01*
X005559Y003177D01*
X005568Y003171D01*
X005579Y003169D01*
X005579Y003169D01*
X005599D01*
X005614Y003167D01*
X005617Y003152D01*
X005626Y003138D01*
X005639Y003129D01*
X005655Y003126D01*
X005671Y003129D01*
X005684Y003138D01*
X005693Y003152D01*
X005696Y003167D01*
X005693Y003183D01*
X005686Y003194D01*
X005689Y003203D01*
X005692Y003209D01*
X005715D01*
X005716Y003208D01*
X005729Y003199D01*
X005745Y003196D01*
X005761Y003199D01*
X005769Y003205D01*
X005784Y003200D01*
X005786Y003199D01*
X005786Y003198D01*
X005760Y003172D01*
X005754Y003163D01*
X005752Y003152D01*
Y003083D01*
X005734Y003076D01*
X005715Y003061D01*
X005701Y003042D01*
X005692Y003020D01*
X005689Y002996D01*
X005692Y002973D01*
X005701Y002951D01*
X005715Y002932D01*
X005734Y002917D01*
X005756Y002908D01*
X005780Y002905D01*
X005804Y002908D01*
X005826Y002917D01*
X005839Y002928D01*
X005854Y002921D01*
Y002910D01*
X005857Y002899D01*
X005863Y002890D01*
X005959Y002794D01*
X005955Y002788D01*
X005946Y002766D01*
X005943Y002742D01*
X005946Y002719D01*
X005955Y002697D01*
X005967Y002681D01*
X005963Y002666D01*
X005880D01*
Y002727D01*
X005680D01*
Y002666D01*
X005418D01*
X005415Y002681D01*
X005427Y002686D01*
X005446Y002700D01*
X005460Y002719D01*
X005469Y002741D01*
X005472Y002765D01*
X005469Y002788D01*
X005460Y002810D01*
X005446Y002829D01*
X005427Y002844D01*
X005405Y002853D01*
X005381Y002856D01*
X005357Y002853D01*
X005340Y002846D01*
X005287Y002899D01*
Y002969D01*
X005301Y002973D01*
X005302Y002973D01*
X005316Y002954D01*
X005335Y002940D01*
X005357Y002931D01*
X005381Y002928D01*
X005405Y002931D01*
X005427Y002940D01*
X005446Y002954D01*
X005460Y002973D01*
X005469Y002995D01*
X005472Y003019D01*
X005469Y003042D01*
X005460Y003064D01*
X005446Y003083D01*
X005427Y003098D01*
X005405Y003107D01*
X005381Y003110D01*
X005357Y003107D01*
X005335Y003098D01*
X005316Y003083D01*
X005302Y003065D01*
X005301Y003065D01*
X005287Y003068D01*
Y003132D01*
X005287Y003132D01*
X005285Y003143D01*
X005279Y003152D01*
X005151Y003279D01*
X005151Y003280D01*
X005148Y003296D01*
X005139Y003309D01*
X005126Y003318D01*
X005110Y003321D01*
X005094Y003318D01*
X005081Y003309D01*
X005072Y003296D01*
X005069Y003280D01*
X005072Y003264D01*
X005081Y003251D01*
X005094Y003242D01*
X005110Y003239D01*
X005111Y003239D01*
X005230Y003120D01*
Y003046D01*
X005215Y003042D01*
X005206Y003064D01*
X005192Y003083D01*
X005173Y003098D01*
X005151Y003107D01*
X005127Y003110D01*
X005103Y003107D01*
X005081Y003098D01*
X005062Y003083D01*
X005048Y003064D01*
X005039Y003042D01*
X005036Y003019D01*
X005039Y002995D01*
X005048Y002973D01*
X005062Y002954D01*
X005081Y002940D01*
X005103Y002931D01*
X005100Y002916D01*
X004900D01*
X004897Y002931D01*
X004919Y002940D01*
X004938Y002954D01*
X004952Y002973D01*
X004961Y002995D01*
X004964Y003019D01*
X004961Y003042D01*
X004952Y003064D01*
X004938Y003083D01*
X004919Y003098D01*
X004897Y003107D01*
X004873Y003110D01*
X004849Y003107D01*
X004827Y003098D01*
X004808Y003083D01*
X004794Y003064D01*
X004785Y003042D01*
X004782Y003019D01*
X004785Y002995D01*
X004794Y002973D01*
X004808Y002954D01*
X004827Y002940D01*
X004849Y002931D01*
X004846Y002916D01*
X004366D01*
X004359Y002927D01*
X004358Y002931D01*
X004361Y002954D01*
X004358Y002978D01*
X004349Y003000D01*
X004335Y003019D01*
X004316Y003033D01*
X004294Y003042D01*
X004270Y003045D01*
X004246Y003042D01*
X004224Y003033D01*
X004205Y003019D01*
X004191Y003000D01*
X004182Y002978D01*
X004179Y002954D01*
X004182Y002930D01*
X004191Y002908D01*
X004205Y002889D01*
X004224Y002875D01*
X004246Y002866D01*
X004270Y002863D01*
X004294Y002866D01*
X004311Y002873D01*
X004316Y002867D01*
X004325Y002861D01*
X004336Y002859D01*
X004773D01*
Y002780D01*
X004873D01*
Y002750D01*
X004773D01*
Y002666D01*
X004390D01*
X004361Y002695D01*
X004361Y002700D01*
X004358Y002724D01*
X004349Y002746D01*
X004335Y002765D01*
X004316Y002779D01*
X004294Y002788D01*
X004270Y002791D01*
X004246Y002788D01*
X004224Y002779D01*
X004205Y002765D01*
X004191Y002746D01*
X004182Y002724D01*
X004179Y002700D01*
X004182Y002676D01*
X004191Y002654D01*
X004202Y002640D01*
X004197Y002624D01*
X004092D01*
X004085Y002640D01*
X004096Y002654D01*
X004105Y002676D01*
X004108Y002700D01*
X004105Y002724D01*
X004096Y002746D01*
X004081Y002765D01*
X004062Y002780D01*
X004040Y002789D01*
X004016Y002792D01*
X003992Y002789D01*
X003970Y002780D01*
X003951Y002765D01*
X003936Y002746D01*
X003927Y002724D01*
X003924Y002700D01*
X003927Y002676D01*
X003936Y002654D01*
X003947Y002640D01*
X003940Y002625D01*
X003838D01*
X003831Y002640D01*
X003842Y002654D01*
X003851Y002676D01*
X003854Y002700D01*
X003851Y002724D01*
X003842Y002746D01*
X003827Y002765D01*
X003808Y002780D01*
X003786Y002789D01*
X003762Y002792D01*
X003738Y002789D01*
X003716Y002780D01*
X003697Y002765D01*
X003682Y002746D01*
X003673Y002724D01*
X003670Y002700D01*
X003673Y002676D01*
X003682Y002654D01*
X003693Y002640D01*
X003686Y002625D01*
X003584D01*
X003577Y002640D01*
X003588Y002654D01*
X003597Y002676D01*
X003600Y002700D01*
X003597Y002724D01*
X003588Y002746D01*
X003573Y002765D01*
X003554Y002780D01*
X003532Y002789D01*
X003508Y002792D01*
X003484Y002789D01*
X003462Y002780D01*
X003443Y002765D01*
X003428Y002746D01*
X003419Y002724D01*
X003416Y002700D01*
X003419Y002676D01*
X003428Y002654D01*
X003439Y002640D01*
X003432Y002624D01*
X003370D01*
X003336Y002659D01*
X003343Y002676D01*
X003346Y002700D01*
X003343Y002724D01*
X003334Y002746D01*
X003319Y002765D01*
X003300Y002780D01*
X003278Y002789D01*
X003254Y002792D01*
X003230Y002789D01*
X003208Y002780D01*
X003189Y002765D01*
X003174Y002746D01*
X003165Y002724D01*
X003162Y002706D01*
X003147Y002700D01*
X003127Y002720D01*
X003117Y002727D01*
X003106Y002729D01*
X003087D01*
X003080Y002746D01*
X003065Y002765D01*
X003046Y002780D01*
X003024Y002789D01*
X003000Y002792D01*
X002976Y002789D01*
X002954Y002780D01*
X002935Y002765D01*
X002920Y002746D01*
X002911Y002724D01*
X002908Y002700D01*
X002911Y002676D01*
X002920Y002654D01*
X002935Y002635D01*
X002954Y002620D01*
X002976Y002611D01*
X003000Y002608D01*
X003024Y002611D01*
X003046Y002620D01*
X003065Y002635D01*
X003080Y002654D01*
X003083Y002661D01*
X003101Y002665D01*
X003231Y002534D01*
X003234Y002532D01*
X003230Y002517D01*
X002517D01*
Y002948D01*
X002531Y002954D01*
X002557Y002928D01*
X002797D01*
X002842Y002974D01*
Y003064D01*
X002797Y003109D01*
X002557D01*
X002531Y003084D01*
X002517Y003089D01*
Y003202D01*
X002531Y003208D01*
X002557Y003182D01*
X002797D01*
X002842Y003228D01*
Y003318D01*
X002797Y003363D01*
X002557D01*
X002531Y003338D01*
X002517Y003343D01*
Y003456D01*
X002531Y003462D01*
X002557Y003436D01*
X002797D01*
X002842Y003482D01*
Y003572D01*
X002797Y003617D01*
X002557D01*
X002531Y003592D01*
X002517Y003597D01*
Y003710D01*
X002531Y003716D01*
X002557Y003690D01*
X002797D01*
X002842Y003736D01*
Y003826D01*
X002797Y003871D01*
X002557D01*
X002531Y003846D01*
X002517Y003851D01*
Y003964D01*
X002531Y003970D01*
X002557Y003944D01*
X002797D01*
X002842Y003990D01*
Y004080D01*
X002797Y004125D01*
X002557D01*
X002531Y004100D01*
X002517Y004105D01*
Y004218D01*
X002531Y004224D01*
X002557Y004198D01*
X002797D01*
X002842Y004244D01*
Y004334D01*
X002797Y004379D01*
X002557D01*
X002531Y004354D01*
X002517Y004359D01*
Y004726D01*
X002531Y004732D01*
X002557Y004706D01*
X002797D01*
X002842Y004752D01*
Y004842D01*
X002797Y004887D01*
X002557D01*
X002531Y004862D01*
X002517Y004867D01*
Y004968D01*
X002531Y004974D01*
X002554Y004950D01*
X002665D01*
Y005051D01*
Y005151D01*
X002554D01*
X002531Y005128D01*
X002517Y005134D01*
Y005219D01*
X002531Y005225D01*
X002552Y005204D01*
X002662D01*
Y005305D01*
Y005405D01*
X002552D01*
X002531Y005385D01*
X002517Y005390D01*
Y005488D01*
X002531Y005494D01*
X002557Y005468D01*
X002797D01*
X002842Y005514D01*
Y005604D01*
X002797Y005649D01*
X002557D01*
X002531Y005624D01*
X002517Y005629D01*
Y005742D01*
X002531Y005748D01*
X002557Y005722D01*
X002797D01*
X002842Y005768D01*
Y005858D01*
X002797Y005903D01*
X002557D01*
X002531Y005878D01*
X002517Y005883D01*
Y005996D01*
X002531Y006002D01*
X002557Y005976D01*
X002797D01*
X002842Y006022D01*
Y006112D01*
X002797Y006157D01*
X002557D01*
X002531Y006132D01*
X002517Y006137D01*
Y007483D01*
X002803D01*
X002809Y007468D01*
X002798Y007460D01*
X002783Y007441D01*
X002774Y007419D01*
X002771Y007395D01*
X002774Y007371D01*
X002783Y007349D01*
X002798Y007330D01*
X002817Y007316D01*
X002839Y007307D01*
X002862Y007304D01*
X002886Y007307D01*
X002908Y007316D01*
X002927Y007330D01*
X002942Y007349D01*
X002951Y007371D01*
X002954Y007395D01*
X002951Y007419D01*
X002942Y007441D01*
X002927Y007460D01*
X002916Y007468D01*
X002922Y007483D01*
X007483D01*
Y007052D01*
D02*
G37*
G36*
X004711Y004246D02*
X004711Y004245D01*
X004714Y004229D01*
X004723Y004216D01*
X004737Y004207D01*
X004753Y004204D01*
X004768Y004207D01*
X004771Y004209D01*
X005114D01*
X005117Y004194D01*
X005112Y004192D01*
X005093Y004177D01*
X005078Y004158D01*
X005069Y004136D01*
X005066Y004112D01*
X005069Y004089D01*
X005078Y004067D01*
X005093Y004048D01*
X005112Y004033D01*
X005134Y004024D01*
X005158Y004021D01*
X005181Y004024D01*
X005203Y004033D01*
X005222Y004048D01*
X005237Y004067D01*
X005246Y004089D01*
X005249Y004112D01*
X005246Y004136D01*
X005237Y004158D01*
X005222Y004177D01*
X005203Y004192D01*
X005198Y004194D01*
X005201Y004209D01*
X005656D01*
X005656Y004208D01*
X005669Y004199D01*
X005685Y004196D01*
X005701Y004199D01*
X005714Y004208D01*
X005723Y004222D01*
X005726Y004237D01*
X005725Y004244D01*
X005739Y004251D01*
X005787Y004203D01*
Y003365D01*
X005773Y003359D01*
X005703Y003430D01*
X005694Y003436D01*
X005683Y003438D01*
X004387D01*
X004050Y003775D01*
X004041Y003781D01*
X004030Y003783D01*
X003786D01*
X003776Y003798D01*
X003776Y003800D01*
X003774Y003810D01*
X003768Y003818D01*
X003760Y003824D01*
X003756Y003825D01*
Y003925D01*
X003963Y004132D01*
X003970Y004141D01*
X003972Y004152D01*
Y004855D01*
X003970Y004866D01*
X003963Y004875D01*
X003963Y004875D01*
X003856Y004982D01*
Y005023D01*
X003857Y005023D01*
X003866Y005037D01*
X003869Y005053D01*
X003866Y005068D01*
X003863Y005072D01*
X003875Y005082D01*
X004711Y004246D01*
D02*
G37*
G36*
X007157Y002974D02*
X007203Y002928D01*
X007443D01*
X007469Y002954D01*
X007483Y002948D01*
Y002517D01*
X006547D01*
X006542Y002532D01*
X006545Y002534D01*
X007001Y002990D01*
X007157D01*
Y002974D01*
D02*
G37*
%LPC*%
G36*
X004885Y004487D02*
X004810D01*
Y004397D01*
X004885D01*
Y004487D01*
D02*
G37*
G36*
X005988Y004168D02*
Y004135D01*
X006021D01*
X006020Y004140D01*
X006009Y004156D01*
X005992Y004167D01*
X005988Y004168D01*
D02*
G37*
G36*
X004978Y004064D02*
X004954Y004061D01*
X004932Y004052D01*
X004913Y004037D01*
X004898Y004018D01*
X004889Y003996D01*
X004886Y003972D01*
X004889Y003949D01*
X004898Y003927D01*
X004913Y003908D01*
X004932Y003893D01*
X004954Y003884D01*
X004978Y003881D01*
X005001Y003884D01*
X005023Y003893D01*
X005042Y003908D01*
X005057Y003927D01*
X005066Y003949D01*
X005069Y003972D01*
X005066Y003996D01*
X005057Y004018D01*
X005042Y004037D01*
X005023Y004052D01*
X005001Y004061D01*
X004978Y004064D01*
D02*
G37*
G36*
X005232Y003937D02*
X005208Y003934D01*
X005186Y003925D01*
X005167Y003910D01*
X005152Y003891D01*
X005143Y003869D01*
X005140Y003846D01*
X005143Y003822D01*
X005152Y003800D01*
X005167Y003781D01*
X005186Y003766D01*
X005208Y003757D01*
X005232Y003754D01*
X005255Y003757D01*
X005277Y003766D01*
X005296Y003781D01*
X005311Y003800D01*
X005320Y003822D01*
X005323Y003846D01*
X005320Y003869D01*
X005311Y003891D01*
X005296Y003910D01*
X005277Y003925D01*
X005255Y003934D01*
X005232Y003937D01*
D02*
G37*
G36*
X005958Y004105D02*
X005924D01*
X005925Y004100D01*
X005936Y004084D01*
X005953Y004073D01*
X005958Y004072D01*
Y004105D01*
D02*
G37*
G36*
Y004168D02*
X005953Y004167D01*
X005936Y004156D01*
X005925Y004140D01*
X005924Y004135D01*
X005958D01*
Y004168D01*
D02*
G37*
G36*
X006021Y004105D02*
X005988D01*
Y004072D01*
X005992Y004073D01*
X006009Y004084D01*
X006020Y004100D01*
X006021Y004105D01*
D02*
G37*
G36*
X004990Y004487D02*
X004915D01*
Y004397D01*
X004990D01*
Y004487D01*
D02*
G37*
G36*
X006268Y004912D02*
X006087D01*
Y004731D01*
X006268D01*
Y004912D01*
D02*
G37*
G36*
X006431Y004913D02*
X006407Y004910D01*
X006385Y004901D01*
X006366Y004887D01*
X006352Y004868D01*
X006343Y004846D01*
X006340Y004822D01*
X006343Y004798D01*
X006352Y004776D01*
X006366Y004757D01*
X006385Y004743D01*
X006407Y004734D01*
X006431Y004731D01*
X006455Y004734D01*
X006477Y004743D01*
X006496Y004757D01*
X006510Y004776D01*
X006519Y004798D01*
X006522Y004822D01*
X006519Y004846D01*
X006510Y004868D01*
X006496Y004887D01*
X006477Y004901D01*
X006455Y004910D01*
X006431Y004913D01*
D02*
G37*
G36*
Y005167D02*
X006407Y005164D01*
X006385Y005155D01*
X006366Y005141D01*
X006352Y005122D01*
X006343Y005100D01*
X006340Y005076D01*
X006343Y005052D01*
X006352Y005030D01*
X006366Y005011D01*
X006385Y004997D01*
X006407Y004988D01*
X006431Y004985D01*
X006455Y004988D01*
X006477Y004997D01*
X006496Y005011D01*
X006510Y005030D01*
X006519Y005052D01*
X006522Y005076D01*
X006519Y005100D01*
X006510Y005122D01*
X006496Y005141D01*
X006477Y005155D01*
X006455Y005164D01*
X006431Y005167D01*
D02*
G37*
G36*
X002855Y005036D02*
X002694D01*
Y004950D01*
X002805D01*
X002855Y005001D01*
Y005036D01*
D02*
G37*
G36*
X004990Y004608D02*
X004915D01*
Y004517D01*
X004990D01*
Y004608D01*
D02*
G37*
G36*
X006431Y004659D02*
X006407Y004656D01*
X006385Y004647D01*
X006366Y004633D01*
X006352Y004614D01*
X006343Y004592D01*
X006340Y004568D01*
X006343Y004544D01*
X006352Y004522D01*
X006366Y004503D01*
X006385Y004489D01*
X006407Y004480D01*
X006431Y004477D01*
X006455Y004480D01*
X006477Y004489D01*
X006496Y004503D01*
X006510Y004522D01*
X006519Y004544D01*
X006522Y004568D01*
X006519Y004592D01*
X006510Y004614D01*
X006496Y004633D01*
X006477Y004647D01*
X006455Y004656D01*
X006431Y004659D01*
D02*
G37*
G36*
X003530Y004522D02*
X003445D01*
Y004437D01*
X003530D01*
Y004522D01*
D02*
G37*
G36*
X004885Y004608D02*
X004810D01*
Y004517D01*
X004885D01*
Y004608D01*
D02*
G37*
G36*
X006267Y004658D02*
X006087D01*
Y004477D01*
X006267D01*
Y004658D01*
D02*
G37*
G36*
X004993Y003818D02*
Y003733D01*
X005077D01*
X005075Y003745D01*
X005065Y003769D01*
X005049Y003790D01*
X005028Y003806D01*
X005004Y003816D01*
X004993Y003818D01*
D02*
G37*
G36*
X005880Y002843D02*
X005795D01*
Y002757D01*
X005880D01*
Y002843D01*
D02*
G37*
G36*
X005765D02*
X005680D01*
Y002757D01*
X005765D01*
Y002843D01*
D02*
G37*
G36*
X006288Y003088D02*
X006264Y003085D01*
X006242Y003076D01*
X006223Y003061D01*
X006209Y003042D01*
X006200Y003020D01*
X006197Y002996D01*
X006200Y002973D01*
X006209Y002951D01*
X006223Y002932D01*
X006242Y002917D01*
X006264Y002908D01*
X006288Y002905D01*
X006312Y002908D01*
X006334Y002917D01*
X006353Y002932D01*
X006367Y002951D01*
X006376Y002973D01*
X006379Y002996D01*
X006376Y003020D01*
X006367Y003042D01*
X006353Y003061D01*
X006334Y003076D01*
X006312Y003085D01*
X006288Y003088D01*
D02*
G37*
G36*
X004370Y003193D02*
X004285D01*
Y003108D01*
X004370D01*
Y003193D01*
D02*
G37*
G36*
X004255D02*
X004170D01*
Y003108D01*
X004255D01*
Y003193D01*
D02*
G37*
G36*
X007277Y002678D02*
X007192D01*
Y002592D01*
X007277D01*
Y002678D01*
D02*
G37*
G36*
X007162D02*
X007076D01*
Y002592D01*
X007162D01*
Y002678D01*
D02*
G37*
G36*
X006923Y002784D02*
X006899Y002781D01*
X006877Y002772D01*
X006858Y002757D01*
X006843Y002738D01*
X006834Y002716D01*
X006831Y002693D01*
X006834Y002669D01*
X006843Y002647D01*
X006858Y002628D01*
X006877Y002613D01*
X006899Y002604D01*
X006923Y002601D01*
X006946Y002604D01*
X006968Y002613D01*
X006987Y002628D01*
X007002Y002647D01*
X007011Y002669D01*
X007014Y002693D01*
X007011Y002716D01*
X007002Y002738D01*
X006987Y002757D01*
X006968Y002772D01*
X006946Y002781D01*
X006923Y002784D01*
D02*
G37*
G36*
X007277Y002793D02*
X007192D01*
Y002708D01*
X007277D01*
Y002793D01*
D02*
G37*
G36*
X007162D02*
X007076D01*
Y002708D01*
X007162D01*
Y002793D01*
D02*
G37*
G36*
X005940Y003618D02*
Y003585D01*
X005973D01*
X005972Y003590D01*
X005961Y003606D01*
X005945Y003617D01*
X005940Y003618D01*
D02*
G37*
G36*
X005910D02*
X005905Y003617D01*
X005889Y003606D01*
X005878Y003590D01*
X005877Y003585D01*
X005910D01*
Y003618D01*
D02*
G37*
G36*
X004963Y003703D02*
X004878D01*
X004880Y003692D01*
X004890Y003668D01*
X004906Y003647D01*
X004927Y003631D01*
X004951Y003621D01*
X004963Y003619D01*
Y003703D01*
D02*
G37*
G36*
Y003818D02*
X004951Y003816D01*
X004927Y003806D01*
X004906Y003790D01*
X004890Y003769D01*
X004880Y003745D01*
X004878Y003733D01*
X004963D01*
Y003818D01*
D02*
G37*
G36*
X005077Y003703D02*
X004993D01*
Y003619D01*
X005004Y003621D01*
X005028Y003631D01*
X005049Y003647D01*
X005065Y003668D01*
X005075Y003692D01*
X005077Y003703D01*
D02*
G37*
G36*
X004370Y003308D02*
X004285D01*
Y003223D01*
X004370D01*
Y003308D01*
D02*
G37*
G36*
X004255D02*
X004170D01*
Y003223D01*
X004255D01*
Y003308D01*
D02*
G37*
G36*
X005232Y003683D02*
X005208Y003680D01*
X005186Y003671D01*
X005167Y003656D01*
X005152Y003637D01*
X005143Y003615D01*
X005140Y003592D01*
X005143Y003568D01*
X005152Y003546D01*
X005167Y003527D01*
X005186Y003512D01*
X005208Y003503D01*
X005232Y003500D01*
X005255Y003503D01*
X005277Y003512D01*
X005296Y003527D01*
X005311Y003546D01*
X005320Y003568D01*
X005323Y003592D01*
X005320Y003615D01*
X005311Y003637D01*
X005296Y003656D01*
X005277Y003671D01*
X005255Y003680D01*
X005232Y003683D01*
D02*
G37*
G36*
X005973Y003555D02*
X005940D01*
Y003522D01*
X005945Y003523D01*
X005961Y003534D01*
X005972Y003550D01*
X005973Y003555D01*
D02*
G37*
G36*
X005910D02*
X005877D01*
X005878Y003550D01*
X005889Y003534D01*
X005905Y003523D01*
X005910Y003522D01*
Y003555D01*
D02*
G37*
G36*
X006268Y005167D02*
X006087D01*
Y004985D01*
X006268D01*
Y005167D01*
D02*
G37*
G36*
X004130Y006875D02*
X004050D01*
Y006815D01*
X004130D01*
Y006875D01*
D02*
G37*
G36*
X006255Y006975D02*
X006231Y006972D01*
X006209Y006963D01*
X006190Y006948D01*
X006176Y006929D01*
X006167Y006907D01*
X006164Y006883D01*
X006167Y006860D01*
X006175Y006841D01*
X005617Y006284D01*
X004897D01*
X004897Y006284D01*
X004883Y006293D01*
X004867Y006296D01*
X004852Y006293D01*
X004838Y006284D01*
X004829Y006271D01*
X004826Y006255D01*
X004829Y006239D01*
X004838Y006226D01*
X004852Y006217D01*
X004867Y006214D01*
X004883Y006217D01*
X004897Y006226D01*
X004897Y006226D01*
X005629D01*
X005640Y006228D01*
X005649Y006235D01*
X006216Y006802D01*
X006231Y006795D01*
X006255Y006792D01*
X006279Y006795D01*
X006301Y006804D01*
X006320Y006819D01*
X006334Y006838D01*
X006343Y006860D01*
X006346Y006883D01*
X006343Y006907D01*
X006334Y006929D01*
X006320Y006948D01*
X006301Y006963D01*
X006279Y006972D01*
X006255Y006975D01*
D02*
G37*
G36*
X004773Y007078D02*
X004750Y007075D01*
X004728Y007066D01*
X004709Y007051D01*
X004694Y007032D01*
X004685Y007010D01*
X004682Y006986D01*
X004685Y006963D01*
X004694Y006941D01*
X004709Y006922D01*
X004728Y006907D01*
X004750Y006898D01*
X004773Y006895D01*
X004797Y006898D01*
X004819Y006907D01*
X004838Y006922D01*
X004853Y006941D01*
X004862Y006963D01*
X004865Y006986D01*
X004862Y007010D01*
X004853Y007032D01*
X004838Y007051D01*
X004819Y007066D01*
X004797Y007075D01*
X004773Y007078D01*
D02*
G37*
G36*
X002782Y006986D02*
X002697D01*
Y006902D01*
X002709Y006903D01*
X002733Y006913D01*
X002754Y006929D01*
X002770Y006950D01*
X002780Y006975D01*
X002782Y006986D01*
D02*
G37*
G36*
X005027Y007078D02*
X005004Y007075D01*
X004982Y007066D01*
X004963Y007051D01*
X004948Y007032D01*
X004939Y007010D01*
X004936Y006986D01*
X004939Y006963D01*
X004948Y006941D01*
X004963Y006922D01*
X004982Y006907D01*
X005004Y006898D01*
X005027Y006895D01*
X005051Y006898D01*
X005073Y006907D01*
X005092Y006922D01*
X005107Y006941D01*
X005116Y006963D01*
X005119Y006986D01*
X005116Y007010D01*
X005107Y007032D01*
X005092Y007051D01*
X005073Y007066D01*
X005051Y007075D01*
X005027Y007078D01*
D02*
G37*
G36*
X005012Y006833D02*
X004927D01*
Y006747D01*
X005012D01*
Y006833D01*
D02*
G37*
G36*
X007308Y006828D02*
X007198D01*
X007148Y006777D01*
Y006742D01*
X007308D01*
Y006828D01*
D02*
G37*
G36*
X005128Y006833D02*
X005042D01*
Y006747D01*
X005128D01*
Y006833D01*
D02*
G37*
G36*
X006001Y006975D02*
X005977Y006972D01*
X005955Y006963D01*
X005936Y006948D01*
X005922Y006929D01*
X005913Y006907D01*
X005910Y006883D01*
X005913Y006860D01*
X005921Y006841D01*
X005583Y006504D01*
X004934D01*
X004934Y006504D01*
X004921Y006513D01*
X004905Y006516D01*
X004889Y006513D01*
X004876Y006504D01*
X004867Y006491D01*
X004864Y006475D01*
X004867Y006459D01*
X004876Y006446D01*
X004889Y006437D01*
X004905Y006434D01*
X004921Y006437D01*
X004934Y006446D01*
X004934Y006446D01*
X005595D01*
X005606Y006448D01*
X005615Y006455D01*
X005962Y006802D01*
X005977Y006795D01*
X006001Y006792D01*
X006025Y006795D01*
X006047Y006804D01*
X006066Y006819D01*
X006080Y006838D01*
X006089Y006860D01*
X006092Y006883D01*
X006089Y006907D01*
X006080Y006929D01*
X006066Y006948D01*
X006047Y006963D01*
X006025Y006972D01*
X006001Y006975D01*
D02*
G37*
G36*
X005747D02*
X005723Y006972D01*
X005701Y006963D01*
X005682Y006948D01*
X005668Y006929D01*
X005659Y006907D01*
X005656Y006883D01*
X005659Y006860D01*
X005668Y006838D01*
X005682Y006819D01*
X005701Y006804D01*
X005723Y006795D01*
X005747Y006792D01*
X005771Y006795D01*
X005793Y006804D01*
X005812Y006819D01*
X005826Y006838D01*
X005835Y006860D01*
X005838Y006883D01*
X005835Y006907D01*
X005826Y006929D01*
X005812Y006948D01*
X005793Y006963D01*
X005771Y006972D01*
X005747Y006975D01*
D02*
G37*
G36*
X004130Y006965D02*
X004050D01*
Y006905D01*
X004130D01*
Y006965D01*
D02*
G37*
G36*
X005027Y007332D02*
X005004Y007329D01*
X004982Y007320D01*
X004963Y007305D01*
X004948Y007286D01*
X004939Y007264D01*
X004936Y007240D01*
X004939Y007217D01*
X004948Y007195D01*
X004963Y007176D01*
X004982Y007161D01*
X005004Y007152D01*
X005027Y007149D01*
X005051Y007152D01*
X005073Y007161D01*
X005092Y007176D01*
X005107Y007195D01*
X005116Y007217D01*
X005119Y007240D01*
X005116Y007264D01*
X005107Y007286D01*
X005092Y007305D01*
X005073Y007320D01*
X005051Y007329D01*
X005027Y007332D01*
D02*
G37*
G36*
X004773D02*
X004750Y007329D01*
X004728Y007320D01*
X004709Y007305D01*
X004694Y007286D01*
X004685Y007264D01*
X004682Y007240D01*
X004685Y007217D01*
X004694Y007195D01*
X004709Y007176D01*
X004728Y007161D01*
X004750Y007152D01*
X004773Y007149D01*
X004797Y007152D01*
X004819Y007161D01*
X004838Y007176D01*
X004853Y007195D01*
X004862Y007217D01*
X004865Y007240D01*
X004862Y007264D01*
X004853Y007286D01*
X004838Y007305D01*
X004819Y007320D01*
X004797Y007329D01*
X004773Y007332D01*
D02*
G37*
G36*
X006240Y007238D02*
X006155D01*
Y007153D01*
X006240D01*
Y007238D01*
D02*
G37*
G36*
X004488Y007381D02*
X004472Y007378D01*
X004458Y007369D01*
X004458Y007369D01*
X003550D01*
X003550Y007369D01*
X003539Y007367D01*
X003530Y007360D01*
X003390Y007220D01*
X003383Y007211D01*
X003381Y007200D01*
Y006942D01*
X003381Y006942D01*
X003372Y006928D01*
X003369Y006912D01*
X003372Y006897D01*
X003381Y006883D01*
X003394Y006874D01*
X003410Y006871D01*
X003426Y006874D01*
X003437Y006882D01*
X003446Y006879D01*
X003452Y006875D01*
Y006737D01*
X003454Y006726D01*
X003461Y006716D01*
X003527Y006650D01*
X003536Y006643D01*
X003547Y006641D01*
X003941D01*
X003969Y006613D01*
X003962Y006598D01*
X003785D01*
Y006546D01*
X003698D01*
Y006588D01*
X003507D01*
Y006427D01*
X003698D01*
Y006489D01*
X003785D01*
Y006437D01*
X003976D01*
Y006441D01*
X003991Y006443D01*
X003991Y006441D01*
X003997Y006432D01*
X004036Y006393D01*
X004046Y006387D01*
X004057Y006384D01*
X004065D01*
Y006266D01*
X003993Y006195D01*
X003553D01*
X003525Y006223D01*
X003531Y006237D01*
X003698D01*
Y006398D01*
X003507D01*
Y006261D01*
X003493Y006255D01*
X003469Y006279D01*
Y006660D01*
X003469Y006660D01*
X003467Y006671D01*
X003460Y006680D01*
X003254Y006887D01*
X003254Y006888D01*
X003251Y006903D01*
X003242Y006917D01*
X003228Y006926D01*
X003212Y006929D01*
X003197Y006926D01*
X003183Y006917D01*
X003174Y006903D01*
X003171Y006888D01*
X003174Y006872D01*
X003183Y006858D01*
X003197Y006849D01*
X003212Y006846D01*
X003213Y006846D01*
X003411Y006648D01*
Y006267D01*
X003413Y006256D01*
X003420Y006247D01*
X003521Y006146D01*
X003530Y006140D01*
X003541Y006137D01*
X004005D01*
X004016Y006140D01*
X004025Y006146D01*
X004119Y006240D01*
X004255D01*
Y006349D01*
X004270Y006355D01*
X004522Y006102D01*
X004527Y006095D01*
X004566Y006056D01*
X004566Y006055D01*
X004569Y006039D01*
X004578Y006026D01*
X004592Y006017D01*
X004608Y006014D01*
X004623Y006017D01*
X004626Y006019D01*
X004642Y006011D01*
Y005585D01*
X004626Y005569D01*
X004512D01*
X004512Y005569D01*
X004498Y005578D01*
X004483Y005581D01*
X004467Y005578D01*
X004453Y005569D01*
X004444Y005556D01*
X004441Y005540D01*
X004444Y005524D01*
X004453Y005511D01*
X004467Y005502D01*
X004483Y005499D01*
X004498Y005502D01*
X004512Y005511D01*
X004512Y005511D01*
X004638D01*
X004649Y005513D01*
X004658Y005520D01*
X004691Y005552D01*
X004691Y005552D01*
X004694Y005558D01*
X004697Y005562D01*
X004699Y005573D01*
Y006657D01*
X004714Y006664D01*
X004728Y006653D01*
X004750Y006644D01*
X004773Y006641D01*
X004797Y006644D01*
X004819Y006653D01*
X004838Y006668D01*
X004853Y006687D01*
X004862Y006709D01*
X004865Y006732D01*
X004862Y006756D01*
X004853Y006778D01*
X004838Y006797D01*
X004819Y006812D01*
X004797Y006821D01*
X004773Y006824D01*
X004750Y006821D01*
X004728Y006812D01*
X004709Y006797D01*
X004707Y006795D01*
X004699Y006794D01*
X004688Y006795D01*
X004260Y007223D01*
X004251Y007229D01*
X004240Y007231D01*
X003978D01*
X003978Y007231D01*
X003966Y007229D01*
X003957Y007223D01*
X003957Y007223D01*
X003915Y007180D01*
X003770D01*
Y007019D01*
X003961D01*
Y007145D01*
X003989Y007174D01*
X004228D01*
X004642Y006760D01*
Y006099D01*
X004626Y006091D01*
X004623Y006093D01*
X004608Y006096D01*
X004607Y006096D01*
X004573Y006131D01*
X004568Y006138D01*
X004272Y006434D01*
X004263Y006440D01*
X004255Y006441D01*
Y006565D01*
X004285Y006595D01*
X004285Y006595D01*
X004292Y006604D01*
X004294Y006615D01*
X004294Y006615D01*
Y007062D01*
X004292Y007074D01*
X004285Y007083D01*
X004276Y007089D01*
X004265Y007091D01*
X004231D01*
Y007135D01*
X004060D01*
Y007004D01*
X004231D01*
X004236Y006992D01*
Y006965D01*
X004160D01*
Y006890D01*
Y006815D01*
X004236D01*
Y006627D01*
X004200Y006590D01*
X004065D01*
Y006481D01*
X004049Y006473D01*
X004046Y006475D01*
Y006605D01*
X004044Y006616D01*
X004038Y006625D01*
X003973Y006690D01*
X003964Y006697D01*
X003953Y006699D01*
X003559D01*
X003510Y006749D01*
Y006822D01*
X003688D01*
Y006881D01*
X003770D01*
Y006829D01*
X003961D01*
Y006990D01*
X003770D01*
Y006939D01*
X003688D01*
Y006983D01*
X003510D01*
Y007012D01*
X003688D01*
Y007173D01*
X003497D01*
Y007100D01*
X003461Y007064D01*
X003454Y007054D01*
X003454Y007052D01*
X003439Y007054D01*
Y007188D01*
X003562Y007311D01*
X004458D01*
X004458Y007311D01*
X004472Y007302D01*
X004488Y007299D01*
X004503Y007302D01*
X004517Y007311D01*
X004526Y007324D01*
X004529Y007340D01*
X004526Y007356D01*
X004517Y007369D01*
X004503Y007378D01*
X004488Y007381D01*
D02*
G37*
G36*
X006355Y007238D02*
X006270D01*
Y007153D01*
X006355D01*
Y007238D01*
D02*
G37*
G36*
X006240Y007122D02*
X006155D01*
Y007037D01*
X006240D01*
Y007122D01*
D02*
G37*
G36*
X002697Y007100D02*
Y007016D01*
X002782D01*
X002780Y007027D01*
X002770Y007052D01*
X002754Y007073D01*
X002733Y007089D01*
X002709Y007099D01*
X002697Y007100D01*
D02*
G37*
G36*
X006355Y007122D02*
X006270D01*
Y007037D01*
X006355D01*
Y007122D01*
D02*
G37*
G36*
X006001Y007229D02*
X005977Y007226D01*
X005955Y007217D01*
X005936Y007202D01*
X005922Y007183D01*
X005913Y007161D01*
X005910Y007138D01*
X005913Y007114D01*
X005922Y007092D01*
X005936Y007073D01*
X005955Y007058D01*
X005977Y007049D01*
X006001Y007046D01*
X006025Y007049D01*
X006047Y007058D01*
X006066Y007073D01*
X006080Y007092D01*
X006089Y007114D01*
X006092Y007138D01*
X006089Y007161D01*
X006080Y007183D01*
X006066Y007202D01*
X006047Y007217D01*
X006025Y007226D01*
X006001Y007229D01*
D02*
G37*
G36*
X005747D02*
X005723Y007226D01*
X005701Y007217D01*
X005682Y007202D01*
X005668Y007183D01*
X005659Y007161D01*
X005656Y007138D01*
X005659Y007114D01*
X005668Y007092D01*
X005682Y007073D01*
X005701Y007058D01*
X005723Y007049D01*
X005747Y007046D01*
X005771Y007049D01*
X005793Y007058D01*
X005812Y007073D01*
X005826Y007092D01*
X005835Y007114D01*
X005838Y007138D01*
X005835Y007161D01*
X005826Y007183D01*
X005812Y007202D01*
X005793Y007217D01*
X005771Y007226D01*
X005747Y007229D01*
D02*
G37*
G36*
X005128Y006717D02*
X005042D01*
Y006632D01*
X005128D01*
Y006717D01*
D02*
G37*
G36*
X003697Y005255D02*
X003632D01*
Y005215D01*
X003697D01*
Y005255D01*
D02*
G37*
G36*
X002852Y005290D02*
X002692D01*
Y005204D01*
X002802D01*
X002852Y005255D01*
Y005290D01*
D02*
G37*
G36*
X006162Y005315D02*
X006077D01*
Y005230D01*
X006162D01*
Y005315D01*
D02*
G37*
G36*
X002802Y005405D02*
X002692D01*
Y005320D01*
X002852D01*
Y005355D01*
X002802Y005405D01*
D02*
G37*
G36*
X006277Y005315D02*
X006192D01*
Y005230D01*
X006277D01*
Y005315D01*
D02*
G37*
G36*
X004488Y005163D02*
X004397D01*
Y005087D01*
X004488D01*
Y005163D01*
D02*
G37*
G36*
X002805Y005151D02*
X002694D01*
Y005066D01*
X002855D01*
Y005101D01*
X002805Y005151D01*
D02*
G37*
G36*
X004608Y005163D02*
X004517D01*
Y005087D01*
X004608D01*
Y005163D01*
D02*
G37*
G36*
Y005268D02*
X004517D01*
Y005193D01*
X004608D01*
Y005268D01*
D02*
G37*
G36*
X004488D02*
X004397D01*
Y005193D01*
X004488D01*
Y005268D01*
D02*
G37*
G36*
X006162Y005430D02*
X006077D01*
Y005345D01*
X006162D01*
Y005430D01*
D02*
G37*
G36*
X003865Y006418D02*
X003775D01*
Y006342D01*
X003865D01*
Y006418D01*
D02*
G37*
G36*
X003985Y006312D02*
X003895D01*
Y006237D01*
X003985D01*
Y006312D01*
D02*
G37*
G36*
Y006418D02*
X003895D01*
Y006342D01*
X003985D01*
Y006418D01*
D02*
G37*
G36*
X005012Y006717D02*
X004927D01*
Y006632D01*
X005012D01*
Y006717D01*
D02*
G37*
G36*
X007308Y006712D02*
X007148D01*
Y006677D01*
X007198Y006627D01*
X007308D01*
Y006712D01*
D02*
G37*
G36*
X004478Y005734D02*
X004462Y005731D01*
X004448Y005722D01*
X004443Y005714D01*
X004442Y005713D01*
X004435Y005704D01*
X004433Y005692D01*
X004435Y005681D01*
X004442Y005672D01*
X004443Y005671D01*
X004448Y005663D01*
X004462Y005654D01*
X004478Y005651D01*
X004493Y005654D01*
X004507Y005663D01*
X004516Y005677D01*
X004519Y005692D01*
X004516Y005708D01*
X004507Y005722D01*
X004493Y005731D01*
X004478Y005734D01*
D02*
G37*
G36*
X006277Y005430D02*
X006192D01*
Y005345D01*
X006277D01*
Y005430D01*
D02*
G37*
G36*
X003912Y005878D02*
X003837D01*
Y005787D01*
X003912D01*
Y005878D01*
D02*
G37*
G36*
X003865Y006312D02*
X003775D01*
Y006237D01*
X003865D01*
Y006312D01*
D02*
G37*
G36*
X003912Y005998D02*
X003837D01*
Y005908D01*
X003912D01*
Y005998D01*
D02*
G37*
%LPD*%
D10*
X003580Y003710D02*
D03*
D11*
X003728Y003800D02*
D03*
Y003755D02*
D03*
Y003710D02*
D03*
Y003665D02*
D03*
Y003620D02*
D03*
X003433D02*
D03*
Y003665D02*
D03*
Y003710D02*
D03*
Y003755D02*
D03*
Y003800D02*
D03*
D12*
X003670Y003562D02*
D03*
X003625D02*
D03*
X003580D02*
D03*
X003535D02*
D03*
X003490D02*
D03*
Y003858D02*
D03*
X003535D02*
D03*
X003580D02*
D03*
X003625D02*
D03*
X003670D02*
D03*
D13*
X004160Y006510D02*
D03*
Y006320D02*
D03*
X003603Y006507D02*
D03*
Y006318D02*
D03*
X003592Y006902D02*
D03*
Y007093D02*
D03*
X003880Y006327D02*
D03*
Y006518D02*
D03*
X003865Y007100D02*
D03*
Y006910D02*
D03*
X004503Y004987D02*
D03*
Y005178D02*
D03*
D14*
X003928Y005893D02*
D03*
X003737D02*
D03*
X005090Y004502D02*
D03*
X004900D02*
D03*
D15*
X003712Y005645D02*
D03*
X003933Y005270D02*
D03*
Y005395D02*
D03*
Y005520D02*
D03*
Y005645D02*
D03*
X003712Y005270D02*
D03*
Y005395D02*
D03*
Y005520D02*
D03*
D16*
X004145Y006890D02*
D03*
Y007070D02*
D03*
D17*
X004900Y005150D02*
D03*
X004940D02*
D03*
X004980D02*
D03*
X005020D02*
D03*
X005060D02*
D03*
X005100D02*
D03*
Y004850D02*
D03*
X005060D02*
D03*
X005020D02*
D03*
X004980D02*
D03*
X004940D02*
D03*
X004900D02*
D03*
D18*
X005150Y005100D02*
D03*
Y005060D02*
D03*
Y005020D02*
D03*
Y004980D02*
D03*
Y004940D02*
D03*
Y004900D02*
D03*
X004850D02*
D03*
Y004940D02*
D03*
Y004980D02*
D03*
Y005020D02*
D03*
Y005060D02*
D03*
Y005100D02*
D03*
D19*
X006297Y002742D02*
X006630Y003075D01*
X006288Y002742D02*
X006297D01*
X003828Y004970D02*
X003943Y004855D01*
X003828Y004970D02*
Y005053D01*
X004867Y006255D02*
X005629D01*
X006255Y006881D01*
X005595Y006475D02*
X006001Y006881D01*
X004905Y006475D02*
X005595D01*
X003943Y004152D02*
Y004855D01*
X003728Y003937D02*
X003943Y004152D01*
X003728Y003800D02*
Y003937D01*
X003683Y005058D02*
X003902Y004838D01*
Y004169D02*
Y004838D01*
X003670Y003937D02*
X003902Y004169D01*
X003670Y003858D02*
Y003937D01*
X003450Y004022D02*
X003535Y003938D01*
Y003858D02*
Y003938D01*
X003580Y004062D02*
X003583Y004065D01*
X003580Y003858D02*
Y004062D01*
X003888Y003665D02*
X003972Y003580D01*
X003728Y003665D02*
X003888D01*
X003953Y003710D02*
X003978Y003685D01*
X003728Y003710D02*
X003953D01*
X003728Y003620D02*
X003833D01*
X003847Y003605D01*
X003065Y006455D02*
X003475Y006045D01*
X003065Y006455D02*
Y006746D01*
X002936Y006874D02*
X003065Y006746D01*
X003212Y006888D02*
X003440Y006660D01*
Y006267D02*
Y006660D01*
Y006267D02*
X003541Y006166D01*
X004005D01*
X004159Y006320D01*
X004160D01*
X003905Y007060D02*
X003930Y007085D01*
X003978Y007203D02*
X004240D01*
X003875Y007100D02*
X003978Y007203D01*
X003865Y007100D02*
X003875D01*
X004265Y006615D02*
Y007062D01*
X004462Y005692D02*
X004478D01*
X003475Y006045D02*
X003995D01*
X004053Y005988D01*
X004270Y002954D02*
X004336Y002888D01*
X005258D01*
X005381Y002765D01*
X003853Y005645D02*
X003933D01*
X003828Y005620D02*
X003853Y005645D01*
X003828Y005170D02*
Y005620D01*
Y005170D02*
X004760Y004237D01*
X005685D01*
X004053Y005765D02*
Y005988D01*
X003933Y005645D02*
X004053Y005765D01*
X003545Y004791D02*
Y005425D01*
X003640Y005520D01*
X003712D01*
Y005645D01*
X003737Y005670D01*
Y005893D01*
X003180D02*
X003737D01*
X002663Y007255D02*
X002682D01*
X004475Y005547D02*
X004483Y005540D01*
X003865Y007100D02*
X003905Y007060D01*
X003603Y006507D02*
X003613Y006518D01*
X003880D01*
X003592Y006902D02*
X003600Y006910D01*
X003865D01*
X004160Y006510D02*
X004265Y006615D01*
X004153Y007062D02*
X004265D01*
X004145Y007070D02*
X004153Y007062D01*
X005286Y004636D02*
X005685Y004237D01*
X006997Y003625D02*
Y004020D01*
Y003625D02*
X007096Y003527D01*
X007413D01*
X006568Y004704D02*
X006685Y004822D01*
X006568Y004435D02*
Y004704D01*
X007072Y005457D02*
X007413D01*
X006945Y005330D02*
X007072Y005457D01*
X006685Y005330D02*
X006945D01*
X006557Y005204D02*
X006685Y005076D01*
X006557Y005204D02*
Y005388D01*
X006622Y005453D01*
X006870D01*
X007129Y005711D01*
X007413D01*
X004270Y002954D02*
X004279D01*
X006618Y004108D02*
X006722D01*
X006245Y003735D02*
X006618Y004108D01*
X006568Y004435D02*
X007112D01*
X007259Y004289D01*
X007413D01*
X004270Y002700D02*
X004315D01*
X006800Y002950D02*
Y004288D01*
X006770Y004317D02*
X006800Y004288D01*
X006841Y002933D02*
Y004311D01*
X006885Y004355D01*
X007005Y004633D02*
Y004795D01*
X007413Y005203D01*
X003000Y002700D02*
X003106D01*
X006989Y003019D02*
X007413D01*
X003550Y007340D02*
X004488D01*
X003410Y007200D02*
X003550Y007340D01*
X003410Y006912D02*
Y007200D01*
X006030Y003675D02*
X006630Y003075D01*
X006030Y003675D02*
Y003967D01*
X006034Y002996D02*
Y003613D01*
X005977Y003670D02*
X006034Y003613D01*
X004315Y002700D02*
X004378Y002637D01*
X006487D01*
X006800Y002950D01*
X003551Y002596D02*
X003552Y002596D01*
X003568Y002555D02*
X003568Y002555D01*
X003972Y002596D02*
X003973Y002596D01*
X003956Y002555D02*
X003956Y002555D01*
X003552Y002596D02*
X003718D01*
X003719Y002596D01*
X003805D01*
X003806Y002596D01*
X003972D01*
X003568Y002555D02*
X003702D01*
X003702Y002555D01*
X003822D01*
X003822Y002555D01*
X003956D01*
X003252Y002555D02*
X003568D01*
X003956D02*
X006525D01*
X003254Y002700D02*
X003358Y002596D01*
X003551D01*
X003973D02*
X006503D01*
X006841Y002933D01*
X003106Y002700D02*
X003252Y002555D01*
X006525D02*
X006989Y003019D01*
X004670Y005573D02*
Y006772D01*
X004240Y007203D02*
X004670Y006772D01*
X004483Y005540D02*
X004638D01*
X003530Y007093D02*
X003592D01*
X003481Y007043D02*
X003530Y007093D01*
X003481Y006737D02*
Y007043D01*
Y006737D02*
X003547Y006670D01*
X003953D01*
X004017Y006605D01*
Y006453D02*
Y006605D01*
Y006453D02*
X004057Y006413D01*
X004252D01*
X004547Y006117D01*
Y006115D02*
Y006117D01*
Y006115D02*
X004608Y006055D01*
X005917Y004385D02*
Y004670D01*
Y004385D02*
X006155Y004147D01*
Y003705D02*
Y004147D01*
Y003705D02*
X006472Y003388D01*
X005455Y003267D02*
X005509D01*
X005579Y003197D01*
X005625D01*
X005653Y003170D01*
X005977Y003670D02*
Y003872D01*
X005862Y003987D02*
X005977Y003872D01*
X005862Y003987D02*
Y004245D01*
X005808Y004300D02*
Y004358D01*
Y004300D02*
X005862Y004245D01*
X005258Y002888D02*
Y003132D01*
X005110Y003280D02*
X005258Y003132D01*
X004638Y005540D02*
X004670Y005573D01*
X002575Y006497D02*
X003180Y005893D01*
X002575Y006497D02*
Y007168D01*
X002663Y007255D01*
X005150Y004900D02*
X005215D01*
X005020Y004695D02*
X005083Y004632D01*
X004792Y005100D02*
X004850D01*
X004687Y004995D02*
X004792Y005100D01*
X004517Y004995D02*
X004687D01*
X004917Y004762D02*
X004940Y004785D01*
X004760Y004762D02*
X004917D01*
X004940Y005278D02*
X005044Y005381D01*
X005060Y005150D02*
Y005222D01*
X004740Y004512D02*
Y004742D01*
X005215Y004508D02*
Y004900D01*
Y004508D02*
X005215Y004508D01*
X005140Y005110D02*
X005150Y005100D01*
X005140Y005110D02*
Y005192D01*
X005086Y005245D02*
X005140Y005192D01*
X005060Y005222D02*
X005083Y005245D01*
X005086D01*
X005225Y004910D02*
Y005195D01*
X005286Y004636D02*
Y005224D01*
X005044Y005381D02*
X005129D01*
X005286Y005224D01*
X004503Y004980D02*
X004740Y004742D01*
X004503Y004980D02*
X004517Y004995D01*
X004740Y004742D02*
X004760Y004762D01*
X005083Y004510D02*
Y004632D01*
Y004510D02*
X005090Y004502D01*
X004980Y004803D02*
Y004850D01*
Y004803D02*
X004981Y004802D01*
Y004761D02*
Y004802D01*
X004978Y004758D02*
X004981Y004761D01*
D20*
X003450Y004022D02*
Y004188D01*
X003715Y004045D02*
X003725Y004078D01*
X003625Y003955D02*
X003715Y004045D01*
X003625Y003858D02*
Y003955D01*
X003450Y004188D02*
X003799Y004537D01*
X003250Y003750D02*
Y004672D01*
X003653D01*
X003771Y004791D01*
X003799D01*
X003250Y003750D02*
X003335Y003665D01*
X003433D01*
X003353Y003503D02*
X003572D01*
X003210Y003645D02*
X003353Y003503D01*
X003210Y003645D02*
Y004989D01*
X003572Y003503D02*
Y003570D01*
X003580Y003562D01*
X004645Y004485D02*
Y004640D01*
Y004485D02*
X004810Y004320D01*
X004902D01*
X003670Y003472D02*
X003725Y003417D01*
X003670Y003472D02*
Y003562D01*
X003847Y003605D02*
X003883Y003570D01*
Y003390D02*
Y003570D01*
X004137Y003390D02*
X004157Y003370D01*
X003883Y003390D02*
X004137D01*
X004375Y003410D02*
X005683D01*
X003728Y003755D02*
X004030D01*
X004375Y003410D01*
X004157Y003370D02*
X005463D01*
X002936Y007128D02*
X003105Y006960D01*
Y006488D02*
Y006960D01*
Y006488D02*
X003508Y006085D01*
X004012D02*
X004155Y005942D01*
X003508Y006085D02*
X004012D01*
X006267Y003017D02*
X006288Y002996D01*
X003933Y005520D02*
X004040D01*
X004112Y005447D01*
Y005172D02*
Y005447D01*
Y005172D02*
X004645Y004640D01*
X004155Y005742D02*
Y005942D01*
X003933Y005520D02*
X004155Y005742D01*
X005345Y004850D02*
X005685Y004510D01*
X006685Y004568D02*
X006710Y004543D01*
X007413D01*
X006034Y002742D02*
Y002759D01*
X005596Y003238D02*
X005745D01*
X005463Y003370D02*
X005596Y003238D01*
X005685Y004345D02*
Y004510D01*
X005780Y002996D02*
Y003152D01*
X005822Y003195D01*
Y003270D01*
X005683Y003410D02*
X005822Y003270D01*
X005685Y004345D02*
X005815Y004215D01*
X005819Y003136D02*
X005862Y003179D01*
Y003286D01*
X005819Y003102D02*
Y003136D01*
X005882Y002910D02*
X006034Y002759D01*
X005882Y002910D02*
Y003039D01*
X005819Y003102D02*
X005882Y003039D01*
X005815Y003333D02*
X005862Y003286D01*
X005815Y003333D02*
Y004215D01*
X005345Y004850D02*
Y005222D01*
X005027Y005421D02*
X005146D01*
X004900Y005294D02*
X005027Y005421D01*
X005146D02*
X005345Y005222D01*
D21*
X004940Y005150D02*
Y005278D01*
X004900Y005150D02*
Y005294D01*
X005020Y004695D02*
Y004850D01*
X004940Y004785D02*
Y004850D01*
X004980Y005150D02*
Y005260D01*
X005062Y005343D01*
X005114D01*
X005225Y005232D01*
Y005195D02*
Y005232D01*
D22*
X006034Y002996D02*
D03*
X006288D02*
D03*
X006034Y002742D02*
D03*
X006288D02*
D03*
X005780Y002996D02*
D03*
X003799Y004791D02*
D03*
X003545D02*
D03*
X003799Y004537D02*
D03*
X006923Y002693D02*
D03*
X004270Y002700D02*
D03*
Y002954D02*
D03*
X006685Y005330D02*
D03*
X006431D02*
D03*
X002936Y006874D02*
D03*
X002682Y007001D02*
D03*
X002936Y007128D02*
D03*
X002682Y007255D02*
D03*
X006685Y005076D02*
D03*
X006431D02*
D03*
X006685Y004822D02*
D03*
X006431D02*
D03*
X006685Y004568D02*
D03*
X006431D02*
D03*
X004873Y003019D02*
D03*
X005127Y002765D02*
D03*
Y003019D02*
D03*
X005381Y002765D02*
D03*
Y003019D02*
D03*
X004978Y003972D02*
D03*
Y003719D02*
D03*
X005232Y003846D02*
D03*
Y003592D02*
D03*
X004773Y007240D02*
D03*
X005027D02*
D03*
X004773Y006986D02*
D03*
X005027D02*
D03*
X004773Y006732D02*
D03*
X005747Y006883D02*
D03*
Y007138D02*
D03*
X006001Y006883D02*
D03*
Y007138D02*
D03*
X006255Y006883D02*
D03*
D23*
X005780Y002742D02*
D03*
X003545Y004537D02*
D03*
X007177Y002693D02*
D03*
X006177Y005076D02*
D03*
Y004822D02*
D03*
X006177Y004568D02*
D03*
X004873Y002765D02*
D03*
X006255Y007138D02*
D03*
D24*
X004270Y003208D02*
D03*
X006177Y005330D02*
D03*
X005027Y006732D02*
D03*
D25*
X002862Y007395D02*
D03*
X005158Y004112D02*
D03*
D26*
X002677Y003273D02*
D03*
Y003019D02*
D03*
Y003527D02*
D03*
Y003781D02*
D03*
Y004289D02*
D03*
Y004035D02*
D03*
X002680Y005051D02*
D03*
X002677Y004797D02*
D03*
Y005559D02*
D03*
Y005305D02*
D03*
Y006067D02*
D03*
Y005813D02*
D03*
X007323Y006473D02*
D03*
Y004035D02*
D03*
Y003781D02*
D03*
Y004543D02*
D03*
Y004289D02*
D03*
Y003273D02*
D03*
Y003019D02*
D03*
Y003527D02*
D03*
Y006219D02*
D03*
Y005965D02*
D03*
Y006981D02*
D03*
Y006727D02*
D03*
Y005203D02*
D03*
Y004797D02*
D03*
Y005711D02*
D03*
Y005457D02*
D03*
D27*
X003254Y002700D02*
D03*
X003762D02*
D03*
X004016D02*
D03*
X003508D02*
D03*
X003000D02*
D03*
D28*
X003219Y004989D02*
D03*
X003828Y005053D02*
D03*
X004867Y006255D02*
D03*
X004905Y006475D02*
D03*
X003683Y005058D02*
D03*
X003583Y004065D02*
D03*
X003725Y004078D02*
D03*
X004902Y004320D02*
D03*
X003725Y003417D02*
D03*
X004753Y004245D02*
D03*
X003972Y003580D02*
D03*
X003978Y003685D02*
D03*
X003847Y003605D02*
D03*
X003212Y006888D02*
D03*
X004645Y004640D02*
D03*
X004483Y005540D02*
D03*
X003603Y006507D02*
D03*
X003865Y006910D02*
D03*
X005685Y004237D02*
D03*
X005685Y004510D02*
D03*
X006997Y004020D02*
D03*
X006722Y004108D02*
D03*
X006245Y003735D02*
D03*
X006770Y004317D02*
D03*
X006885Y004355D02*
D03*
X007005Y004633D02*
D03*
X004488Y007340D02*
D03*
X003410Y006912D02*
D03*
X006030Y003967D02*
D03*
X006630Y003075D02*
D03*
X005745Y003238D02*
D03*
X005808Y004358D02*
D03*
X004478Y005692D02*
D03*
X004608Y006055D02*
D03*
X005917Y004670D02*
D03*
X006472Y003388D02*
D03*
X005455Y003267D02*
D03*
X005655Y003167D02*
D03*
X005972Y004120D02*
D03*
X005110Y003280D02*
D03*
X005925Y003570D02*
D03*
X005215Y004508D02*
D03*
X004740Y004512D02*
D03*
X005083Y005245D02*
D03*
M02*
