%FSAX42Y42*%
%MOMM*%
G71*
G01*
G75*
G04 Layer_Color=32896*
%ADD10R,1.70X1.70*%
%ADD11O,0.65X0.20*%
%ADD12O,0.20X0.65*%
%ADD13R,1.60X1.30*%
%ADD14R,1.30X1.60*%
%ADD15R,1.10X0.60*%
%ADD16R,1.40X1.00*%
%ADD17R,0.23X0.60*%
%ADD18R,0.60X0.23*%
%ADD19C,0.25*%
%ADD20C,0.24*%
%ADD21C,0.20*%
%ADD22C,1.50*%
%ADD23R,1.50X1.50*%
%ADD24R,1.50X1.50*%
%ADD25C,1.30*%
G04:AMPARAMS|DCode=26|XSize=3mm|YSize=1.5mm|CornerRadius=0mm|HoleSize=0mm|Usage=FLASHONLY|Rotation=0.000|XOffset=0mm|YOffset=0mm|HoleType=Round|Shape=Octagon|*
%AMOCTAGOND26*
4,1,8,1.50,-0.38,1.50,0.38,1.13,0.75,-1.13,0.75,-1.50,0.38,-1.50,-0.38,-1.13,-0.75,1.13,-0.75,1.50,-0.38,0.0*
%
%ADD26OCTAGOND26*%

%ADD27C,1.52*%
%ADD28C,0.50*%
%ADD29R,1.02X0.91*%
%ADD30R,0.91X1.02*%
%ADD31O,1.65X0.48*%
%ADD32R,0.60X1.10*%
%ADD33C,0.25*%
%ADD34C,0.60*%
%ADD35C,0.30*%
%ADD36C,0.10*%
%ADD37C,0.13*%
%ADD38R,1.90X1.90*%
%ADD39O,0.85X0.40*%
%ADD40O,0.40X0.85*%
%ADD41R,1.80X1.50*%
%ADD42R,1.50X1.80*%
%ADD43R,1.30X0.80*%
%ADD44R,1.60X1.20*%
%ADD45C,1.70*%
%ADD46R,1.70X1.70*%
G04:AMPARAMS|DCode=47|XSize=3.2mm|YSize=1.7mm|CornerRadius=0mm|HoleSize=0mm|Usage=FLASHONLY|Rotation=0.000|XOffset=0mm|YOffset=0mm|HoleType=Round|Shape=Octagon|*
%AMOCTAGOND47*
4,1,8,1.60,-0.42,1.60,0.42,1.18,0.85,-1.18,0.85,-1.60,0.42,-1.60,-0.42,-1.18,-0.85,1.18,-0.85,1.60,-0.42,0.0*
%
%ADD47OCTAGOND47*%

%ADD48C,1.72*%
%ADD49C,0.70*%
%ADD50R,1.22X1.11*%
%ADD51R,1.11X1.22*%
%ADD52O,1.85X0.68*%
%ADD53R,0.80X1.30*%
D19*
X004035Y006240D02*
Y006088D01*
Y006164D01*
X003933D01*
Y006240D01*
Y006088D01*
X003781Y006214D02*
X003806Y006240D01*
X003857D01*
X003883Y006214D01*
Y006113D01*
X003857Y006088D01*
X003806D01*
X003781Y006113D01*
X003730Y006214D02*
X003705Y006240D01*
X003654D01*
X003629Y006214D01*
Y006113D01*
X003654Y006088D01*
X003705D01*
X003730Y006113D01*
Y006214D01*
X003476Y006240D02*
X003578D01*
Y006164D01*
X003527Y006189D01*
X003502D01*
X003476Y006164D01*
Y006113D01*
X003502Y006088D01*
X003553D01*
X003578Y006113D01*
X006934Y005757D02*
X006948Y005770D01*
X006974D01*
X006988Y005757D01*
Y005703D01*
X006974Y005690D01*
X006948D01*
X006934Y005703D01*
X006854Y005770D02*
X006881Y005757D01*
X006908Y005730D01*
Y005703D01*
X006894Y005690D01*
X006868D01*
X006854Y005703D01*
Y005717D01*
X006868Y005730D01*
X006908D01*
X006305Y003530D02*
Y003610D01*
X006265D01*
X006252Y003597D01*
Y003570D01*
X006265Y003557D01*
X006305D01*
X006278D02*
X006252Y003530D01*
X006172Y003610D02*
X006225D01*
Y003570D01*
X006198Y003583D01*
X006185D01*
X006172Y003570D01*
Y003543D01*
X006185Y003530D01*
X006212D01*
X006225Y003543D01*
X007022Y004345D02*
Y004425D01*
X006983D01*
X006969Y004412D01*
Y004385D01*
X006983Y004372D01*
X007022D01*
X006996D02*
X006969Y004345D01*
X006903D02*
Y004425D01*
X006943Y004385D01*
X006889D01*
X006780Y004238D02*
Y004317D01*
X006740D01*
X006727Y004304D01*
Y004277D01*
X006740Y004264D01*
X006780D01*
X006753D02*
X006727Y004238D01*
X006700Y004304D02*
X006687Y004317D01*
X006660D01*
X006647Y004304D01*
Y004291D01*
X006660Y004277D01*
X006673D01*
X006660D01*
X006647Y004264D01*
Y004251D01*
X006660Y004238D01*
X006687D01*
X006700Y004251D01*
X005647Y004665D02*
Y004745D01*
X005608D01*
X005594Y004732D01*
Y004705D01*
X005608Y004692D01*
X005647D01*
X005621D02*
X005594Y004665D01*
X005514D02*
X005568D01*
X005514Y004718D01*
Y004732D01*
X005528Y004745D01*
X005554D01*
X005568Y004732D01*
X005367Y004203D02*
Y004282D01*
X005328D01*
X005314Y004269D01*
Y004242D01*
X005328Y004229D01*
X005367D01*
X005341D02*
X005314Y004203D01*
X005288D02*
X005261D01*
X005274D01*
Y004282D01*
X005288Y004269D01*
X006497Y003532D02*
X006510Y003545D01*
X006537D01*
X006550Y003532D01*
Y003478D01*
X006537Y003465D01*
X006510D01*
X006497Y003478D01*
X006417Y003545D02*
X006470D01*
Y003505D01*
X006443Y003518D01*
X006430D01*
X006417Y003505D01*
Y003478D01*
X006430Y003465D01*
X006457D01*
X006470Y003478D01*
X005769Y003332D02*
X005783Y003345D01*
X005809D01*
X005822Y003332D01*
Y003278D01*
X005809Y003265D01*
X005783D01*
X005769Y003278D01*
X005743Y003265D02*
X005716D01*
X005729D01*
Y003345D01*
X005743Y003332D01*
X005676D02*
X005663Y003345D01*
X005636D01*
X005623Y003332D01*
Y003278D01*
X005636Y003265D01*
X005663D01*
X005676Y003278D01*
Y003332D01*
X004986Y004693D02*
X005003Y004710D01*
X005036D01*
X005053Y004693D01*
Y004627D01*
X005036Y004610D01*
X005003D01*
X004986Y004627D01*
X004953D02*
X004936Y004610D01*
X004903D01*
X004886Y004627D01*
Y004693D01*
X004903Y004710D01*
X004936D01*
X004953Y004693D01*
Y004677D01*
X004936Y004660D01*
X004886D01*
X006635Y005855D02*
Y005975D01*
X006575D01*
X006555Y005955D01*
Y005915D01*
X006575Y005895D01*
X006635D01*
X006515Y005855D02*
Y005875D01*
X006495D01*
Y005855D01*
X006515D01*
X006295Y005975D02*
Y005855D01*
X006235D01*
X006215Y005875D01*
Y005895D01*
X006235Y005915D01*
X006295D01*
X006235D01*
X006215Y005935D01*
Y005955D01*
X006235Y005975D01*
X006295D01*
X006155Y005855D02*
X006115D01*
X006095Y005875D01*
Y005915D01*
X006115Y005935D01*
X006155D01*
X006175Y005915D01*
Y005875D01*
X006155Y005855D01*
X006055Y005975D02*
Y005855D01*
X005995D01*
X005975Y005875D01*
Y005895D01*
Y005915D01*
X005995Y005935D01*
X006055D01*
X005935Y005975D02*
Y005855D01*
X005875D01*
X005855Y005875D01*
Y005895D01*
Y005915D01*
X005875Y005935D01*
X005935D01*
X005815Y005855D02*
X005775D01*
X005795D01*
Y005935D01*
X005815D01*
X005715Y005855D02*
Y005935D01*
X005655D01*
X005635Y005915D01*
Y005855D01*
X005595D02*
Y005975D01*
Y005895D02*
X005535Y005935D01*
X005595Y005895D02*
X005535Y005855D01*
X006565Y005742D02*
X006532Y005675D01*
X006498Y005742D01*
X006365Y005758D02*
X006348Y005775D01*
X006315D01*
X006298Y005758D01*
Y005742D01*
X006315Y005725D01*
X006332D01*
X006315D01*
X006298Y005708D01*
Y005692D01*
X006315Y005675D01*
X006348D01*
X006365Y005692D01*
X006265Y005725D02*
X006198D01*
X005999Y005675D02*
X006065D01*
X005999Y005742D01*
Y005758D01*
X006015Y005775D01*
X006048D01*
X006065Y005758D01*
X005965D02*
X005949Y005775D01*
X005915D01*
X005899Y005758D01*
Y005692D01*
X005915Y005675D01*
X005949D01*
X005965Y005692D01*
Y005758D01*
X005865Y005675D02*
X005832D01*
X005849D01*
Y005775D01*
X005865Y005758D01*
X005715Y005775D02*
X005782D01*
Y005725D01*
X005749Y005742D01*
X005732D01*
X005715Y005725D01*
Y005692D01*
X005732Y005675D01*
X005765D01*
X005782Y005692D01*
D21*
X006095Y004372D02*
X006275D01*
X006095Y004063D02*
Y004372D01*
X006275Y004063D02*
Y004372D01*
X006095Y004063D02*
X006275D01*
X005775Y003665D02*
Y003715D01*
X006075D01*
X005775Y003665D02*
X006075D01*
Y003715D01*
D33*
X005985Y004040D02*
G03*
X005985Y004040I-000012J000000D01*
G01*
X006117Y003570D02*
G03*
X006117Y003570I-000012J000000D01*
G01*
D35*
X006929Y006377D02*
X006953Y006400D01*
X006999D01*
X007022Y006377D01*
Y006283D01*
X006999Y006260D01*
X006953D01*
X006929Y006283D01*
X006859Y006260D02*
X006813D01*
X006789Y006283D01*
Y006330D01*
X006813Y006353D01*
X006859D01*
X006883Y006330D01*
Y006283D01*
X006859Y006260D01*
X006743Y006213D02*
Y006353D01*
X006673D01*
X006649Y006330D01*
Y006283D01*
X006673Y006260D01*
X006743D01*
X006579Y006377D02*
Y006353D01*
X006603D01*
X006556D01*
X006579D01*
Y006283D01*
X006556Y006260D01*
X006416D02*
X006463D01*
X006486Y006283D01*
Y006330D01*
X006463Y006353D01*
X006416D01*
X006393Y006330D01*
Y006307D01*
X006486D01*
X006346Y006353D02*
Y006260D01*
Y006307D01*
X006323Y006330D01*
X006299Y006353D01*
X006276D01*
X006066Y006260D02*
X005996D01*
X005973Y006283D01*
X005996Y006307D01*
X006043D01*
X006066Y006330D01*
X006043Y006353D01*
X005973D01*
X005926Y006400D02*
Y006260D01*
Y006330D01*
X005903Y006353D01*
X005856D01*
X005833Y006330D01*
Y006260D01*
X005786D02*
X005740D01*
X005763D01*
Y006353D01*
X005786D01*
X005600Y006260D02*
X005646D01*
X005670Y006283D01*
Y006330D01*
X005646Y006353D01*
X005600D01*
X005576Y006330D01*
Y006307D01*
X005670D01*
X005530Y006260D02*
X005483D01*
X005506D01*
Y006400D01*
X005530D01*
X005320D02*
Y006260D01*
X005390D01*
X005413Y006283D01*
Y006330D01*
X005390Y006353D01*
X005320D01*
X006990Y006540D02*
Y006760D01*
X006880D01*
X006843Y006723D01*
Y006650D01*
X006880Y006613D01*
X006990D01*
X006917D02*
X006843Y006540D01*
X006733D02*
X006660D01*
X006623Y006577D01*
Y006650D01*
X006660Y006687D01*
X006733D01*
X006770Y006650D01*
Y006577D01*
X006733Y006540D01*
X006550Y006760D02*
Y006540D01*
X006440D01*
X006404Y006577D01*
Y006613D01*
Y006650D01*
X006440Y006687D01*
X006550D01*
X006294Y006540D02*
X006220D01*
X006184Y006577D01*
Y006650D01*
X006220Y006687D01*
X006294D01*
X006330Y006650D01*
Y006577D01*
X006294Y006540D01*
X006110Y006467D02*
Y006687D01*
X006000D01*
X005964Y006650D01*
Y006577D01*
X006000Y006540D01*
X006110D01*
X005854D02*
X005780D01*
X005744Y006577D01*
Y006650D01*
X005780Y006687D01*
X005854D01*
X005890Y006650D01*
Y006577D01*
X005854Y006540D01*
X005670D02*
X005597D01*
X005634D01*
Y006760D01*
X005670D01*
X005487Y006687D02*
Y006577D01*
X005450Y006540D01*
X005341D01*
Y006503D01*
X005377Y006467D01*
X005414D01*
X005341Y006540D02*
Y006687D01*
X006982Y006133D02*
Y006060D01*
Y006097D01*
X006964Y006115D01*
X006946Y006133D01*
X006928D01*
X006854Y006060D02*
X006818D01*
X006799Y006078D01*
Y006115D01*
X006818Y006133D01*
X006854D01*
X006873Y006115D01*
Y006078D01*
X006854Y006060D01*
X006763Y006170D02*
Y006060D01*
X006708D01*
X006689Y006078D01*
Y006097D01*
Y006115D01*
X006708Y006133D01*
X006763D01*
X006634Y006060D02*
X006598D01*
X006579Y006078D01*
Y006115D01*
X006598Y006133D01*
X006634D01*
X006653Y006115D01*
Y006078D01*
X006634Y006060D01*
X006543Y006023D02*
Y006133D01*
X006488D01*
X006469Y006115D01*
Y006078D01*
X006488Y006060D01*
X006543D01*
X006414D02*
X006378D01*
X006359Y006078D01*
Y006115D01*
X006378Y006133D01*
X006414D01*
X006433Y006115D01*
Y006078D01*
X006414Y006060D01*
X006323D02*
X006286D01*
X006304D01*
Y006170D01*
X006323D01*
X006231Y006133D02*
Y006078D01*
X006213Y006060D01*
X006158D01*
Y006042D01*
X006176Y006023D01*
X006194D01*
X006158Y006060D02*
Y006133D01*
X006121Y006060D02*
Y006078D01*
X006103D01*
Y006060D01*
X006121D01*
X005974D02*
X006011D01*
X006029Y006078D01*
Y006115D01*
X006011Y006133D01*
X005974D01*
X005956Y006115D01*
Y006097D01*
X006029D01*
X005920Y006023D02*
Y006133D01*
X005865D01*
X005846Y006115D01*
Y006078D01*
X005865Y006060D01*
X005920D01*
X005791D02*
Y006152D01*
Y006115D01*
X005810D01*
X005773D01*
X005791D01*
Y006152D01*
X005773Y006170D01*
X005718Y006060D02*
X005681D01*
X005700D01*
Y006170D01*
X005718D01*
X005626Y006060D02*
Y006078D01*
X005608D01*
Y006060D01*
X005626D01*
X005461Y006133D02*
X005516D01*
X005535Y006115D01*
Y006078D01*
X005516Y006060D01*
X005461D01*
X005425Y006170D02*
Y006060D01*
Y006115D01*
X005406Y006133D01*
X005370D01*
X005351Y006115D01*
Y006060D01*
M02*
