%FSAX42Y42*%
%MOMM*%
G71*
G01*
G75*
G04 Layer_Color=65535*
%ADD10R,1.70X1.70*%
%ADD11O,0.65X0.20*%
%ADD12O,0.20X0.65*%
%ADD13R,1.60X1.30*%
%ADD14R,1.30X1.60*%
%ADD15R,1.10X0.60*%
%ADD16R,1.40X1.00*%
%ADD17R,0.23X0.60*%
%ADD18R,0.60X0.23*%
%ADD19C,0.25*%
%ADD20C,0.24*%
%ADD21C,0.20*%
%ADD22C,1.50*%
%ADD23R,1.50X1.50*%
%ADD24R,1.50X1.50*%
%ADD25C,1.30*%
G04:AMPARAMS|DCode=26|XSize=3mm|YSize=1.5mm|CornerRadius=0mm|HoleSize=0mm|Usage=FLASHONLY|Rotation=0.000|XOffset=0mm|YOffset=0mm|HoleType=Round|Shape=Octagon|*
%AMOCTAGOND26*
4,1,8,1.50,-0.38,1.50,0.38,1.13,0.75,-1.13,0.75,-1.50,0.38,-1.50,-0.38,-1.13,-0.75,1.13,-0.75,1.50,-0.38,0.0*
%
%ADD26OCTAGOND26*%

%ADD27C,1.52*%
%ADD28C,0.50*%
%ADD29R,1.02X0.91*%
%ADD30R,0.91X1.02*%
%ADD31O,1.65X0.48*%
%ADD32R,0.60X1.10*%
%ADD33C,0.25*%
%ADD34C,0.60*%
%ADD35C,0.30*%
%ADD36C,0.10*%
%ADD37C,0.13*%
D19*
X003622Y005205D02*
X004022D01*
X003622D02*
Y005708D01*
X004022D01*
Y005205D02*
Y005708D01*
X004638Y005025D02*
X004685Y005072D01*
X004688Y004865D02*
Y005075D01*
X004690Y005072D02*
X004738Y005025D01*
X005058Y004650D02*
X005105Y004697D01*
X004897Y004700D02*
X005108D01*
X005058Y004750D02*
X005105Y004703D01*
X003900Y003822D02*
Y003922D01*
X003850Y003872D01*
X003917D01*
X003950Y003906D02*
X003967Y003922D01*
X004000D01*
X004017Y003906D01*
Y003889D01*
X004000Y003872D01*
X003983D01*
X004000D01*
X004017Y003856D01*
Y003839D01*
X004000Y003822D01*
X003967D01*
X003950Y003839D01*
X004050Y003822D02*
X004083D01*
X004067D01*
Y003922D01*
X004050Y003906D01*
X004133D02*
X004150Y003922D01*
X004183D01*
X004200Y003906D01*
Y003889D01*
X004183Y003872D01*
X004167D01*
X004183D01*
X004200Y003856D01*
Y003839D01*
X004183Y003822D01*
X004150D01*
X004133Y003839D01*
X004095Y006661D02*
Y006761D01*
X004145D01*
X004162Y006744D01*
Y006711D01*
X004145Y006694D01*
X004095D01*
X004129D02*
X004162Y006661D01*
X004195D02*
X004229D01*
X004212D01*
Y006761D01*
X004195Y006744D01*
X004279D02*
X004295Y006761D01*
X004329D01*
X004345Y006744D01*
Y006677D01*
X004329Y006661D01*
X004295D01*
X004279Y006677D01*
Y006744D01*
X003801Y007250D02*
Y007350D01*
X003851D01*
X003867Y007333D01*
Y007300D01*
X003851Y007283D01*
X003801D01*
X003834D02*
X003867Y007250D01*
X003901Y007350D02*
X003967D01*
Y007333D01*
X003901Y007267D01*
Y007250D01*
X003529Y007245D02*
Y007345D01*
X003579D01*
X003596Y007328D01*
Y007295D01*
X003579Y007278D01*
X003529D01*
X003562D02*
X003596Y007245D01*
X003696Y007345D02*
X003662Y007328D01*
X003629Y007295D01*
Y007262D01*
X003646Y007245D01*
X003679D01*
X003696Y007262D01*
Y007278D01*
X003679Y007295D01*
X003629D01*
X003816Y006668D02*
Y006768D01*
X003866D01*
X003883Y006752D01*
Y006718D01*
X003866Y006702D01*
X003816D01*
X003849D02*
X003883Y006668D01*
X003916Y006685D02*
X003933Y006668D01*
X003966D01*
X003983Y006685D01*
Y006752D01*
X003966Y006768D01*
X003933D01*
X003916Y006752D01*
Y006735D01*
X003933Y006718D01*
X003983D01*
X003537Y006658D02*
Y006758D01*
X003587D01*
X003603Y006741D01*
Y006708D01*
X003587Y006691D01*
X003537D01*
X003570D02*
X003603Y006658D01*
X003637Y006741D02*
X003653Y006758D01*
X003687D01*
X003703Y006741D01*
Y006725D01*
X003687Y006708D01*
X003703Y006691D01*
Y006675D01*
X003687Y006658D01*
X003653D01*
X003637Y006675D01*
Y006691D01*
X003653Y006708D01*
X003637Y006725D01*
Y006741D01*
X003653Y006708D02*
X003687D01*
X004070Y007327D02*
Y007227D01*
X004120D01*
X004137Y007244D01*
Y007310D01*
X004120Y007327D01*
X004070D01*
X004170Y007227D02*
X004203D01*
X004187D01*
Y007327D01*
X004170Y007310D01*
X003438Y002845D02*
X003454D01*
X003488Y002878D01*
X003454Y002912D01*
X003438D01*
X003488Y002878D02*
X003538D01*
Y002945D02*
X003471D01*
X003438Y002978D01*
X003471Y003012D01*
X003538D01*
X003488D01*
Y002945D01*
X003438Y003045D02*
X003538D01*
X003504Y003078D01*
X003538Y003112D01*
X003438D01*
X004220Y003370D02*
Y003437D01*
Y003404D01*
X004320D01*
X004220Y003470D02*
X004320D01*
X004270D01*
Y003537D01*
X004220D01*
X004320D01*
Y003570D02*
X004220D01*
Y003620D01*
X004237Y003637D01*
X004270D01*
X004287Y003620D01*
Y003570D01*
Y003603D02*
X004320Y003637D01*
X004028Y002867D02*
X003928D01*
Y002917D01*
X003944Y002934D01*
X003978D01*
X003994Y002917D01*
Y002867D01*
Y002901D02*
X004028Y002934D01*
X003928Y003017D02*
Y002984D01*
X003944Y002967D01*
X004011D01*
X004028Y002984D01*
Y003017D01*
X004011Y003034D01*
X003944D01*
X003928Y003017D01*
Y003067D02*
X004028D01*
Y003134D01*
X003928Y003167D02*
X004028D01*
Y003234D01*
X003805Y002862D02*
X003705D01*
Y002912D01*
X003722Y002929D01*
X003755D01*
X003772Y002912D01*
Y002862D01*
X003705Y002962D02*
Y002996D01*
Y002979D01*
X003805D01*
Y002962D01*
Y002996D01*
X003705Y003046D02*
Y003112D01*
Y003079D01*
X003805D01*
X003722Y003212D02*
X003705Y003196D01*
Y003162D01*
X003722Y003146D01*
X003788D01*
X003805Y003162D01*
Y003196D01*
X003788Y003212D01*
X003705Y003246D02*
X003805D01*
X003755D01*
Y003312D01*
X003705D01*
X003805D01*
X005677Y004618D02*
X005610D01*
Y004518D01*
X005677D01*
X005610Y004568D02*
X005643D01*
X005777Y004601D02*
X005760Y004618D01*
X005727D01*
X005710Y004601D01*
Y004585D01*
X005727Y004568D01*
X005760D01*
X005777Y004551D01*
Y004535D01*
X005760Y004518D01*
X005727D01*
X005710Y004535D01*
X005877Y004601D02*
X005860Y004618D01*
X005827D01*
X005810Y004601D01*
Y004535D01*
X005827Y004518D01*
X005860D01*
X005877Y004535D01*
X005960Y004518D02*
Y004618D01*
X005910Y004568D01*
X005977D01*
X005677Y004872D02*
X005610D01*
Y004772D01*
X005677D01*
X005610Y004822D02*
X005643D01*
X005777Y004855D02*
X005760Y004872D01*
X005727D01*
X005710Y004855D01*
Y004839D01*
X005727Y004822D01*
X005760D01*
X005777Y004805D01*
Y004789D01*
X005760Y004772D01*
X005727D01*
X005710Y004789D01*
X005877Y004855D02*
X005860Y004872D01*
X005827D01*
X005810Y004855D01*
Y004789D01*
X005827Y004772D01*
X005860D01*
X005877Y004789D01*
X005910Y004855D02*
X005927Y004872D01*
X005960D01*
X005977Y004855D01*
Y004839D01*
X005960Y004822D01*
X005943D01*
X005960D01*
X005977Y004805D01*
Y004789D01*
X005960Y004772D01*
X005927D01*
X005910Y004789D01*
X005677Y005126D02*
X005610D01*
Y005026D01*
X005677D01*
X005610Y005076D02*
X005643D01*
X005777Y005109D02*
X005760Y005126D01*
X005727D01*
X005710Y005109D01*
Y005093D01*
X005727Y005076D01*
X005760D01*
X005777Y005059D01*
Y005043D01*
X005760Y005026D01*
X005727D01*
X005710Y005043D01*
X005877Y005109D02*
X005860Y005126D01*
X005827D01*
X005810Y005109D01*
Y005043D01*
X005827Y005026D01*
X005860D01*
X005877Y005043D01*
X005977Y005026D02*
X005910D01*
X005977Y005093D01*
Y005109D01*
X005960Y005126D01*
X005927D01*
X005910Y005109D01*
X005677Y005380D02*
X005610D01*
Y005280D01*
X005677D01*
X005610Y005330D02*
X005643D01*
X005777Y005363D02*
X005760Y005380D01*
X005727D01*
X005710Y005363D01*
Y005347D01*
X005727Y005330D01*
X005760D01*
X005777Y005313D01*
Y005297D01*
X005760Y005280D01*
X005727D01*
X005710Y005297D01*
X005877Y005363D02*
X005860Y005380D01*
X005827D01*
X005810Y005363D01*
Y005297D01*
X005827Y005280D01*
X005860D01*
X005877Y005297D01*
X005910Y005280D02*
X005943D01*
X005927D01*
Y005380D01*
X005910Y005363D01*
X003288Y002858D02*
X003221D01*
X003188Y002891D01*
X003221Y002924D01*
X003288D01*
X003238D01*
Y002858D01*
X003188Y002957D02*
X003271D01*
X003288Y002974D01*
Y003007D01*
X003271Y003024D01*
X003188D01*
Y003057D02*
X003288Y003124D01*
X003188D02*
X003288Y003057D01*
Y003157D02*
Y003191D01*
Y003174D01*
X003188D01*
X003204Y003157D01*
X004883Y005420D02*
X004916D01*
X004899D01*
Y005320D01*
X004883D01*
X004916D01*
X004966D02*
Y005420D01*
X004999Y005387D01*
X005032Y005420D01*
Y005320D01*
X005066Y005420D02*
Y005337D01*
X005082Y005320D01*
X005116D01*
X005132Y005337D01*
Y005420D01*
X004259Y005108D02*
X004242Y005125D01*
X004209D01*
X004192Y005108D01*
Y005042D01*
X004209Y005025D01*
X004242D01*
X004259Y005042D01*
X004292Y005125D02*
X004359D01*
Y005108D01*
X004292Y005042D01*
Y005025D01*
X005057Y004358D02*
X005040Y004375D01*
X005007D01*
X004990Y004358D01*
Y004292D01*
X005007Y004275D01*
X005040D01*
X005057Y004292D01*
X005090Y004358D02*
X005107Y004375D01*
X005140D01*
X005157Y004358D01*
Y004342D01*
X005140Y004325D01*
X005157Y004308D01*
Y004292D01*
X005140Y004275D01*
X005107D01*
X005090Y004292D01*
Y004308D01*
X005107Y004325D01*
X005090Y004342D01*
Y004358D01*
X005107Y004325D02*
X005140D01*
X002545Y002660D02*
Y002720D01*
X002575Y002750D01*
X002605Y002720D01*
Y002660D01*
Y002705D01*
X002545D01*
X002635Y002750D02*
Y002675D01*
X002650Y002660D01*
X002680D01*
X002695Y002675D01*
Y002750D01*
X002725D02*
X002785Y002660D01*
Y002750D02*
X002725Y002660D01*
X002875D02*
X002815D01*
X002875Y002720D01*
Y002735D01*
X002860Y002750D01*
X002830D01*
X002815Y002735D01*
X003655Y005147D02*
Y005047D01*
X003705D01*
X003722Y005064D01*
Y005081D01*
Y005097D01*
X003705Y005114D01*
X003655D01*
X003772D02*
X003805D01*
X003822Y005097D01*
Y005047D01*
X003772D01*
X003755Y005064D01*
X003772Y005081D01*
X003822D01*
X003855Y005114D02*
Y005047D01*
Y005081D01*
X003872Y005097D01*
X003888Y005114D01*
X003905D01*
X003972Y005047D02*
X004005D01*
X004022Y005064D01*
Y005097D01*
X004005Y005114D01*
X003972D01*
X003955Y005097D01*
Y005064D01*
X003972Y005047D01*
X004179Y005928D02*
X004162Y005945D01*
X004129D01*
X004112Y005928D01*
Y005862D01*
X004129Y005845D01*
X004162D01*
X004179Y005862D01*
X004212Y005845D02*
X004246D01*
X004229D01*
Y005945D01*
X004212Y005928D01*
X004296Y005845D02*
X004329D01*
X004312D01*
Y005945D01*
X004296Y005928D01*
X005662Y003347D02*
X005729D01*
X005696D01*
Y003247D01*
X005762D02*
X005796D01*
X005779D01*
Y003314D01*
X005762D01*
X005846Y003247D02*
Y003314D01*
X005896D01*
X005912Y003297D01*
Y003247D01*
X005946Y003314D02*
Y003264D01*
X005962Y003247D01*
X006012D01*
Y003231D01*
X005996Y003214D01*
X005979D01*
X006012Y003247D02*
Y003314D01*
X006046Y003231D02*
X006112D01*
X006212Y003331D02*
X006196Y003347D01*
X006162D01*
X006146Y003331D01*
Y003314D01*
X006162Y003297D01*
X006196D01*
X006212Y003281D01*
Y003264D01*
X006196Y003247D01*
X006162D01*
X006146Y003264D01*
X006246Y003247D02*
Y003347D01*
X006296D01*
X006312Y003331D01*
Y003297D01*
X006296Y003281D01*
X006246D01*
X006346Y003347D02*
X006379D01*
X006362D01*
Y003247D01*
X006346D01*
X006379D01*
X004510Y006865D02*
Y006832D01*
X004527Y006815D01*
X004593D01*
X004610Y006832D01*
Y006865D01*
X004593Y006882D01*
X004527D01*
X004510Y006865D01*
X004610Y006915D02*
X004510D01*
Y006965D01*
X004527Y006982D01*
X004560D01*
X004577Y006965D01*
Y006915D01*
X004510Y007015D02*
Y007082D01*
Y007048D01*
X004610D01*
X003589Y004313D02*
X003572Y004330D01*
X003539D01*
X003522Y004313D01*
Y004297D01*
X003539Y004280D01*
X003572D01*
X003589Y004263D01*
Y004247D01*
X003572Y004230D01*
X003539D01*
X003522Y004247D01*
X003672Y004330D02*
X003639D01*
X003622Y004313D01*
Y004247D01*
X003639Y004230D01*
X003672D01*
X003689Y004247D01*
Y004313D01*
X003672Y004330D01*
X003722Y004230D02*
Y004330D01*
X003789Y004230D01*
Y004330D01*
X005904Y006629D02*
X005879Y006655D01*
X005828D01*
X005803Y006629D01*
Y006528D01*
X005828Y006503D01*
X005879D01*
X005904Y006528D01*
Y006579D01*
X005853D01*
X005955Y006503D02*
Y006655D01*
X006031D01*
X006056Y006629D01*
Y006579D01*
X006031Y006553D01*
X005955D01*
X006209Y006629D02*
X006183Y006655D01*
X006133D01*
X006107Y006629D01*
Y006604D01*
X006133Y006579D01*
X006183D01*
X006209Y006553D01*
Y006528D01*
X006183Y006503D01*
X006133D01*
X006107Y006528D01*
X006750Y006938D02*
Y007004D01*
X006783Y007037D01*
X006817Y007004D01*
Y006938D01*
Y006987D01*
X006750D01*
X006850Y006938D02*
Y007037D01*
X006900D01*
X006917Y007021D01*
Y006987D01*
X006900Y006971D01*
X006850D01*
X006883D02*
X006917Y006938D01*
X007017Y007037D02*
X006950D01*
Y006938D01*
X007017D01*
X006950Y006987D02*
X006983D01*
X007117Y007037D02*
X007050D01*
Y006987D01*
X007083D01*
X007050D01*
Y006938D01*
X006900Y004816D02*
X006917Y004832D01*
X006950D01*
X006967Y004849D01*
X007000Y004832D02*
X007067D01*
Y004816D01*
X007000Y004749D01*
Y004733D01*
X006900Y004566D02*
X006917Y004582D01*
X006950D01*
X006967Y004599D01*
X007067Y004582D02*
X007033Y004566D01*
X007000Y004532D01*
Y004499D01*
X007017Y004483D01*
X007050D01*
X007067Y004499D01*
Y004516D01*
X007050Y004532D01*
X007000D01*
X006900Y004348D02*
X006917Y004365D01*
X006950D01*
X006967Y004382D01*
X007067Y004365D02*
X007000D01*
Y004315D01*
X007033Y004332D01*
X007050D01*
X007067Y004315D01*
Y004282D01*
X007050Y004265D01*
X007017D01*
X007000Y004282D01*
X007057Y003990D02*
Y004090D01*
X007007Y004040D01*
X007074D01*
X002925Y006025D02*
Y006125D01*
X002975D01*
X002992Y006108D01*
Y006075D01*
X002975Y006058D01*
X002925D01*
X002958D02*
X002992Y006025D01*
X003092Y006108D02*
X003075Y006125D01*
X003042D01*
X003025Y006108D01*
Y006092D01*
X003042Y006075D01*
X003075D01*
X003092Y006058D01*
Y006042D01*
X003075Y006025D01*
X003042D01*
X003025Y006042D01*
X003125Y006125D02*
X003192D01*
X003158D01*
Y006025D01*
X006817Y006738D02*
X006800Y006755D01*
X006767D01*
X006750Y006738D01*
Y006672D01*
X006767Y006655D01*
X006800D01*
X006817Y006672D01*
Y006705D01*
X006783D01*
X006850Y006655D02*
Y006755D01*
X006917Y006655D01*
Y006755D01*
X006950D02*
Y006655D01*
X007000D01*
X007017Y006672D01*
Y006738D01*
X007000Y006755D01*
X006950D01*
X006879Y003818D02*
X006862Y003835D01*
X006829D01*
X006812Y003818D01*
Y003802D01*
X006829Y003785D01*
X006862D01*
X006879Y003768D01*
Y003752D01*
X006862Y003735D01*
X006829D01*
X006812Y003752D01*
X006979Y003818D02*
X006962Y003835D01*
X006929D01*
X006912Y003818D01*
Y003752D01*
X006929Y003735D01*
X006962D01*
X006979Y003752D01*
X007012Y003835D02*
Y003735D01*
X007079D01*
X006879Y003558D02*
X006862Y003575D01*
X006829D01*
X006812Y003558D01*
Y003542D01*
X006829Y003525D01*
X006862D01*
X006879Y003508D01*
Y003492D01*
X006862Y003475D01*
X006829D01*
X006812Y003492D01*
X006912Y003575D02*
Y003475D01*
X006962D01*
X006979Y003492D01*
Y003558D01*
X006962Y003575D01*
X006912D01*
X007012Y003475D02*
Y003542D01*
X007046Y003575D01*
X007079Y003542D01*
Y003475D01*
Y003525D01*
X007012D01*
X006900Y002955D02*
Y003055D01*
X006950D01*
X006967Y003038D01*
Y003005D01*
X006950Y002988D01*
X006900D01*
X006933D02*
X006967Y002955D01*
X007000Y003055D02*
X007067Y002955D01*
Y003055D02*
X007000Y002955D01*
X006900Y003315D02*
X006967D01*
X006933D01*
Y003215D01*
X007000Y003315D02*
X007067Y003215D01*
Y003315D02*
X007000Y003215D01*
X002925Y002950D02*
Y003017D01*
X002958Y003050D01*
X002992Y003017D01*
Y002950D01*
Y003000D01*
X002925D01*
X003092Y003050D02*
X003025D01*
Y003000D01*
X003058Y003017D01*
X003075D01*
X003092Y003000D01*
Y002967D01*
X003075Y002950D01*
X003042D01*
X003025Y002967D01*
X002925Y003208D02*
Y003274D01*
X002958Y003307D01*
X002992Y003274D01*
Y003208D01*
Y003257D01*
X002925D01*
X003075Y003208D02*
Y003307D01*
X003025Y003257D01*
X003092D01*
X002925Y003467D02*
Y003534D01*
X002958Y003567D01*
X002992Y003534D01*
Y003467D01*
Y003517D01*
X002925D01*
X003025Y003551D02*
X003042Y003567D01*
X003075D01*
X003092Y003551D01*
Y003534D01*
X003075Y003517D01*
X003058D01*
X003075D01*
X003092Y003501D01*
Y003484D01*
X003075Y003467D01*
X003042D01*
X003025Y003484D01*
X002925Y003708D02*
Y003774D01*
X002958Y003807D01*
X002992Y003774D01*
Y003708D01*
Y003757D01*
X002925D01*
X003092Y003708D02*
X003025D01*
X003092Y003774D01*
Y003791D01*
X003075Y003807D01*
X003042D01*
X003025Y003791D01*
X002925Y003958D02*
Y004024D01*
X002958Y004057D01*
X002992Y004024D01*
Y003958D01*
Y004007D01*
X002925D01*
X003025Y003958D02*
X003058D01*
X003042D01*
Y004057D01*
X003025Y004041D01*
X002925Y004215D02*
Y004282D01*
X002958Y004315D01*
X002992Y004282D01*
Y004215D01*
Y004265D01*
X002925D01*
X003025Y004298D02*
X003042Y004315D01*
X003075D01*
X003092Y004298D01*
Y004232D01*
X003075Y004215D01*
X003042D01*
X003025Y004232D01*
Y004298D01*
X002925Y004817D02*
Y004751D01*
X002958Y004717D01*
X002992Y004751D01*
Y004817D01*
X003025D02*
X003058D01*
X003042D01*
Y004717D01*
X003025D01*
X003058D01*
X003108D02*
Y004817D01*
X003175Y004717D01*
Y004817D01*
X002989Y005106D02*
X002972Y005122D01*
X002939D01*
X002923Y005106D01*
Y005039D01*
X002939Y005022D01*
X002972D01*
X002989Y005039D01*
Y005072D01*
X002956D01*
X003022Y005022D02*
Y005122D01*
X003089Y005022D01*
Y005122D01*
X003122D02*
Y005022D01*
X003172D01*
X003189Y005039D01*
Y005106D01*
X003172Y005122D01*
X003122D01*
X002992Y005321D02*
X002975Y005337D01*
X002942D01*
X002925Y005321D01*
Y005254D01*
X002942Y005238D01*
X002975D01*
X002992Y005254D01*
Y005287D01*
X002958D01*
X003025Y005238D02*
Y005337D01*
X003092Y005238D01*
Y005337D01*
X003125D02*
Y005238D01*
X003175D01*
X003192Y005254D01*
Y005321D01*
X003175Y005337D01*
X003125D01*
X002992Y005587D02*
X002925D01*
Y005537D01*
X002958Y005554D01*
X002975D01*
X002992Y005537D01*
Y005504D01*
X002975Y005488D01*
X002942D01*
X002925Y005504D01*
X003025Y005587D02*
Y005521D01*
X003058Y005488D01*
X003092Y005521D01*
Y005587D01*
X002925Y005856D02*
X002942Y005872D01*
X002975D01*
X002992Y005856D01*
Y005839D01*
X002975Y005822D01*
X002958D01*
X002975D01*
X002992Y005806D01*
Y005789D01*
X002975Y005772D01*
X002942D01*
X002925Y005789D01*
X003025Y005872D02*
Y005806D01*
X003058Y005772D01*
X003092Y005806D01*
Y005872D01*
X003125Y005856D02*
X003142Y005872D01*
X003175D01*
X003192Y005856D01*
Y005839D01*
X003175Y005822D01*
X003158D01*
X003175D01*
X003192Y005806D01*
Y005789D01*
X003175Y005772D01*
X003142D01*
X003125Y005789D01*
X003230Y007388D02*
Y007354D01*
Y007371D01*
X003130D01*
Y007388D01*
Y007354D01*
Y007238D02*
Y007304D01*
X003197Y007238D01*
X003213D01*
X003230Y007254D01*
Y007288D01*
X003213Y007304D01*
Y007138D02*
X003230Y007154D01*
Y007188D01*
X003213Y007204D01*
X003147D01*
X003130Y007188D01*
Y007154D01*
X003147Y007138D01*
X003213Y007004D02*
X003230Y006988D01*
Y006954D01*
X003213Y006938D01*
X003197D01*
X003180Y006954D01*
Y006971D01*
Y006954D01*
X003163Y006938D01*
X003147D01*
X003130Y006954D01*
Y006988D01*
X003147Y007004D01*
X003230Y006904D02*
X003163D01*
X003130Y006871D01*
X003163Y006838D01*
X003230D01*
X003213Y006804D02*
X003230Y006788D01*
Y006754D01*
X003213Y006738D01*
X003197D01*
X003180Y006754D01*
Y006771D01*
Y006754D01*
X003163Y006738D01*
X003147D01*
X003130Y006754D01*
Y006788D01*
X003147Y006804D01*
X005507Y004050D02*
Y004017D01*
Y004033D01*
X005408D01*
Y004050D01*
Y004017D01*
Y003900D02*
Y003967D01*
X005474Y003900D01*
X005491D01*
X005507Y003917D01*
Y003950D01*
X005491Y003967D01*
Y003800D02*
X005507Y003817D01*
Y003850D01*
X005491Y003867D01*
X005424D01*
X005408Y003850D01*
Y003817D01*
X005424Y003800D01*
X005507Y003600D02*
Y003667D01*
X005457D01*
X005474Y003633D01*
Y003617D01*
X005457Y003600D01*
X005424D01*
X005408Y003617D01*
Y003650D01*
X005424Y003667D01*
X005507Y003567D02*
X005441D01*
X005408Y003533D01*
X005441Y003500D01*
X005507D01*
X006147Y005525D02*
X006214D01*
X006392Y005535D02*
X006459D01*
X006426Y005568D02*
Y005502D01*
X006717Y005566D02*
X006700Y005582D01*
X006667D01*
X006650Y005566D01*
Y005549D01*
X006667Y005532D01*
X006700D01*
X006717Y005516D01*
Y005499D01*
X006700Y005483D01*
X006667D01*
X006650Y005499D01*
X004642Y005282D02*
Y005257D01*
X004693Y005206D01*
X004744Y005257D01*
Y005282D01*
X004693Y005206D02*
Y005130D01*
X005185Y004787D02*
X005287Y004635D01*
Y004787D02*
X005185Y004635D01*
D21*
X003750Y003540D02*
Y003570D01*
X003720Y003540D02*
X003750D01*
X003720Y003880D02*
X003750D01*
Y003850D02*
Y003880D01*
X003410D02*
X003440D01*
X003410Y003850D02*
Y003880D01*
Y003540D02*
X003440D01*
X003410D02*
Y003570D01*
X006415Y002615D02*
Y003123D01*
X005928Y002615D02*
X006415D01*
X005653Y003123D02*
X006415D01*
X005653Y002615D02*
X006415D01*
X005653D02*
Y003123D01*
X003926Y004410D02*
Y004918D01*
X003418D02*
X003926D01*
X003418Y004410D02*
X003926D01*
X003418D02*
Y004918D01*
X004397Y002573D02*
Y003335D01*
X004143D02*
X004397D01*
X004143Y002573D02*
Y003335D01*
Y002573D02*
X004397D01*
X006050Y005457D02*
X006812D01*
X006050Y005203D02*
Y005457D01*
Y005203D02*
X006812D01*
Y005457D01*
X006050Y005203D02*
X006812D01*
X006050Y004949D02*
Y005203D01*
Y004949D02*
X006812D01*
Y005203D01*
X006050Y004949D02*
X006812D01*
X006050Y004695D02*
Y004949D01*
Y004695D02*
X006812D01*
Y004949D01*
X006050Y004695D02*
X006812D01*
X006050Y004441D02*
Y004695D01*
Y004441D02*
X006812D01*
Y004695D01*
X004746Y002638D02*
Y003146D01*
Y002638D02*
X005508D01*
X004746Y003146D02*
X005508D01*
X005021Y002638D02*
X005508D01*
Y003146D01*
X005154Y006881D02*
Y007367D01*
Y006605D02*
Y007367D01*
X004646Y006605D02*
Y007367D01*
Y006605D02*
X005154D01*
X004646Y007367D02*
X005154D01*
X005620Y007264D02*
X006107D01*
X005620D02*
X006382D01*
X005620Y006757D02*
X006382D01*
Y007264D01*
X005620Y006757D02*
Y007264D01*
X006547Y002922D02*
X006562Y002937D01*
X006592D01*
X006607Y002922D01*
Y002907D01*
X006592Y002892D01*
X006577D01*
X006592D01*
X006607Y002877D01*
Y002862D01*
X006592Y002848D01*
X006562D01*
X006547Y002862D01*
X006637Y002937D02*
Y002877D01*
X006667Y002848D01*
X006697Y002877D01*
Y002937D01*
X006727Y002922D02*
X006742Y002937D01*
X006772D01*
X006787Y002922D01*
Y002907D01*
X006772Y002892D01*
X006757D01*
X006772D01*
X006787Y002877D01*
Y002862D01*
X006772Y002848D01*
X006742D01*
X006727Y002862D01*
D33*
X003747Y003945D02*
G03*
X003747Y003945I-000012J000000D01*
G01*
D34*
X003580Y005790D02*
G03*
X003580Y005790I-000030J000000D01*
G01*
D35*
X004833Y005180D02*
G03*
X004833Y005180I-000020J000000D01*
G01*
D36*
X004105Y006965D02*
Y006992D01*
Y006965D02*
X004185D01*
Y006992D01*
D37*
X005150Y005120D02*
Y005150D01*
Y004850D02*
Y004880D01*
X004850Y004850D02*
Y004880D01*
Y004850D02*
X004880D01*
X005120D02*
X005150D01*
X005120Y005150D02*
X005150D01*
X004850D02*
X004880D01*
X004850Y005120D02*
Y005150D01*
M02*
